G04 EAGLE Gerber RS-274X export*
G75*
%MOMM*%
%FSLAX34Y34*%
%LPD*%
%INSoldermask Top*%
%IPPOS*%
%AMOC8*
5,1,8,0,0,1.08239X$1,22.5*%
G01*
%ADD10P,1.843527X8X202.500000*%
%ADD11R,1.203200X1.303200*%
%ADD12C,0.812800*%
%ADD13R,1.524000X0.762000*%
%ADD14R,1.303200X1.203200*%
%ADD15R,1.503200X1.703200*%
%ADD16R,1.703200X1.503200*%
%ADD17R,1.803200X1.503200*%
%ADD18R,1.955800X0.863600*%
%ADD19C,0.863600*%
%ADD20R,2.403200X0.803200*%
%ADD21R,1.503200X1.803200*%
%ADD22R,0.812800X0.483109*%
%ADD23R,1.103200X2.203200*%
%ADD24C,0.698500*%
%ADD25C,1.308100*%
%ADD26C,1.574800*%
%ADD27P,1.704548X8X112.500000*%
%ADD28R,0.965200X0.483200*%
%ADD29R,1.092200X1.803400*%
%ADD30P,2.144431X8X202.500000*%
%ADD31R,1.981200X1.981200*%
%ADD32P,2.005885X8X22.500000*%
%ADD33R,1.853200X1.853200*%
%ADD34P,2.005885X8X292.500000*%
%ADD35R,0.965200X0.508000*%
%ADD36R,2.006600X2.794000*%
%ADD37C,0.959600*%

G36*
X449637Y548040D02*
X449637Y548040D01*
X449639Y548039D01*
X449682Y548059D01*
X449726Y548077D01*
X449726Y548079D01*
X449728Y548080D01*
X449761Y548165D01*
X449761Y569435D01*
X449760Y569437D01*
X449761Y569439D01*
X449741Y569482D01*
X449723Y569526D01*
X449721Y569526D01*
X449720Y569528D01*
X449635Y569561D01*
X439365Y569561D01*
X439363Y569560D01*
X439361Y569561D01*
X439318Y569541D01*
X439274Y569523D01*
X439274Y569521D01*
X439272Y569520D01*
X439239Y569435D01*
X439239Y548165D01*
X439240Y548163D01*
X439239Y548161D01*
X439259Y548118D01*
X439277Y548074D01*
X439279Y548074D01*
X439280Y548072D01*
X439365Y548039D01*
X449635Y548039D01*
X449637Y548040D01*
G37*
G36*
X570232Y550039D02*
X570232Y550039D01*
X570234Y550038D01*
X570277Y550058D01*
X570321Y550076D01*
X570321Y550078D01*
X570323Y550079D01*
X570356Y550164D01*
X570356Y567436D01*
X570355Y567438D01*
X570356Y567440D01*
X570336Y567483D01*
X570318Y567527D01*
X570316Y567527D01*
X570315Y567529D01*
X570230Y567562D01*
X560070Y567562D01*
X560068Y567561D01*
X560066Y567562D01*
X560023Y567542D01*
X559979Y567524D01*
X559979Y567522D01*
X559977Y567521D01*
X559944Y567436D01*
X559944Y550164D01*
X559945Y550162D01*
X559944Y550160D01*
X559964Y550117D01*
X559982Y550073D01*
X559984Y550073D01*
X559985Y550071D01*
X560070Y550038D01*
X570230Y550038D01*
X570232Y550039D01*
G37*
G36*
X458560Y564075D02*
X458560Y564075D01*
X458562Y564074D01*
X458605Y564094D01*
X458649Y564113D01*
X458649Y564115D01*
X458651Y564116D01*
X458684Y564200D01*
X458684Y568400D01*
X458683Y568402D01*
X458684Y568404D01*
X458664Y568447D01*
X458646Y568490D01*
X458644Y568491D01*
X458643Y568493D01*
X458558Y568526D01*
X450887Y568526D01*
X450885Y568525D01*
X450883Y568526D01*
X450840Y568506D01*
X450796Y568487D01*
X450795Y568485D01*
X450793Y568484D01*
X450760Y568400D01*
X450760Y564200D01*
X450761Y564198D01*
X450760Y564196D01*
X450780Y564153D01*
X450799Y564110D01*
X450801Y564109D01*
X450802Y564107D01*
X450887Y564074D01*
X458558Y564074D01*
X458560Y564075D01*
G37*
G36*
X438115Y564075D02*
X438115Y564075D01*
X438117Y564074D01*
X438160Y564094D01*
X438204Y564113D01*
X438205Y564115D01*
X438207Y564116D01*
X438240Y564200D01*
X438240Y568400D01*
X438239Y568402D01*
X438240Y568404D01*
X438220Y568447D01*
X438201Y568490D01*
X438199Y568491D01*
X438198Y568493D01*
X438113Y568526D01*
X430442Y568526D01*
X430440Y568525D01*
X430438Y568526D01*
X430395Y568506D01*
X430351Y568487D01*
X430351Y568485D01*
X430349Y568484D01*
X430316Y568400D01*
X430316Y564200D01*
X430317Y564198D01*
X430316Y564196D01*
X430336Y564153D01*
X430354Y564110D01*
X430356Y564109D01*
X430357Y564107D01*
X430442Y564074D01*
X438113Y564074D01*
X438115Y564075D01*
G37*
G36*
X438115Y549075D02*
X438115Y549075D01*
X438117Y549074D01*
X438160Y549094D01*
X438204Y549113D01*
X438205Y549115D01*
X438207Y549116D01*
X438240Y549200D01*
X438240Y553400D01*
X438239Y553402D01*
X438240Y553404D01*
X438220Y553447D01*
X438201Y553490D01*
X438199Y553491D01*
X438198Y553493D01*
X438113Y553526D01*
X430442Y553526D01*
X430440Y553525D01*
X430438Y553526D01*
X430395Y553506D01*
X430351Y553487D01*
X430351Y553485D01*
X430349Y553484D01*
X430316Y553400D01*
X430316Y549200D01*
X430317Y549198D01*
X430316Y549196D01*
X430336Y549153D01*
X430354Y549110D01*
X430356Y549109D01*
X430357Y549107D01*
X430442Y549074D01*
X438113Y549074D01*
X438115Y549075D01*
G37*
G36*
X458560Y569075D02*
X458560Y569075D01*
X458562Y569074D01*
X458605Y569094D01*
X458649Y569113D01*
X458649Y569115D01*
X458651Y569116D01*
X458684Y569200D01*
X458684Y573400D01*
X458683Y573402D01*
X458684Y573404D01*
X458664Y573447D01*
X458646Y573490D01*
X458644Y573491D01*
X458643Y573493D01*
X458558Y573526D01*
X450887Y573526D01*
X450885Y573525D01*
X450883Y573526D01*
X450840Y573506D01*
X450796Y573487D01*
X450795Y573485D01*
X450793Y573484D01*
X450760Y573400D01*
X450760Y569200D01*
X450761Y569198D01*
X450760Y569196D01*
X450780Y569153D01*
X450799Y569110D01*
X450801Y569109D01*
X450802Y569107D01*
X450887Y569074D01*
X458558Y569074D01*
X458560Y569075D01*
G37*
G36*
X438115Y569075D02*
X438115Y569075D01*
X438117Y569074D01*
X438160Y569094D01*
X438204Y569113D01*
X438205Y569115D01*
X438207Y569116D01*
X438240Y569200D01*
X438240Y573400D01*
X438239Y573402D01*
X438240Y573404D01*
X438220Y573447D01*
X438201Y573490D01*
X438199Y573491D01*
X438198Y573493D01*
X438113Y573526D01*
X430442Y573526D01*
X430440Y573525D01*
X430438Y573526D01*
X430395Y573506D01*
X430351Y573487D01*
X430351Y573485D01*
X430349Y573484D01*
X430316Y573400D01*
X430316Y569200D01*
X430317Y569198D01*
X430316Y569196D01*
X430336Y569153D01*
X430354Y569110D01*
X430356Y569109D01*
X430357Y569107D01*
X430442Y569074D01*
X438113Y569074D01*
X438115Y569075D01*
G37*
G36*
X438115Y559075D02*
X438115Y559075D01*
X438117Y559074D01*
X438160Y559094D01*
X438204Y559113D01*
X438205Y559115D01*
X438207Y559116D01*
X438240Y559200D01*
X438240Y563400D01*
X438239Y563402D01*
X438240Y563404D01*
X438220Y563447D01*
X438201Y563490D01*
X438199Y563491D01*
X438198Y563493D01*
X438113Y563526D01*
X430442Y563526D01*
X430440Y563525D01*
X430438Y563526D01*
X430395Y563506D01*
X430351Y563487D01*
X430351Y563485D01*
X430349Y563484D01*
X430316Y563400D01*
X430316Y559200D01*
X430317Y559198D01*
X430316Y559196D01*
X430336Y559153D01*
X430354Y559110D01*
X430356Y559109D01*
X430357Y559107D01*
X430442Y559074D01*
X438113Y559074D01*
X438115Y559075D01*
G37*
G36*
X438115Y554075D02*
X438115Y554075D01*
X438117Y554074D01*
X438160Y554094D01*
X438204Y554113D01*
X438205Y554115D01*
X438207Y554116D01*
X438240Y554200D01*
X438240Y558400D01*
X438239Y558402D01*
X438240Y558404D01*
X438220Y558447D01*
X438201Y558490D01*
X438199Y558491D01*
X438198Y558493D01*
X438113Y558526D01*
X430442Y558526D01*
X430440Y558525D01*
X430438Y558526D01*
X430395Y558506D01*
X430351Y558487D01*
X430351Y558485D01*
X430349Y558484D01*
X430316Y558400D01*
X430316Y554200D01*
X430317Y554198D01*
X430316Y554196D01*
X430336Y554153D01*
X430354Y554110D01*
X430356Y554109D01*
X430357Y554107D01*
X430442Y554074D01*
X438113Y554074D01*
X438115Y554075D01*
G37*
G36*
X438115Y544075D02*
X438115Y544075D01*
X438117Y544074D01*
X438160Y544094D01*
X438204Y544113D01*
X438205Y544115D01*
X438207Y544116D01*
X438240Y544200D01*
X438240Y548400D01*
X438239Y548402D01*
X438240Y548404D01*
X438220Y548447D01*
X438201Y548490D01*
X438199Y548491D01*
X438198Y548493D01*
X438113Y548526D01*
X430442Y548526D01*
X430440Y548525D01*
X430438Y548526D01*
X430395Y548506D01*
X430351Y548487D01*
X430351Y548485D01*
X430349Y548484D01*
X430316Y548400D01*
X430316Y544200D01*
X430317Y544198D01*
X430316Y544196D01*
X430336Y544153D01*
X430354Y544110D01*
X430356Y544109D01*
X430357Y544107D01*
X430442Y544074D01*
X438113Y544074D01*
X438115Y544075D01*
G37*
G36*
X558852Y564075D02*
X558852Y564075D01*
X558854Y564074D01*
X558897Y564094D01*
X558941Y564112D01*
X558941Y564114D01*
X558943Y564115D01*
X558976Y564200D01*
X558976Y568400D01*
X558975Y568402D01*
X558976Y568404D01*
X558956Y568447D01*
X558938Y568491D01*
X558936Y568491D01*
X558935Y568493D01*
X558850Y568526D01*
X552450Y568526D01*
X552448Y568525D01*
X552446Y568526D01*
X552403Y568506D01*
X552359Y568488D01*
X552359Y568486D01*
X552357Y568485D01*
X552324Y568400D01*
X552324Y564200D01*
X552325Y564198D01*
X552324Y564196D01*
X552344Y564153D01*
X552362Y564109D01*
X552364Y564109D01*
X552365Y564107D01*
X552450Y564074D01*
X558850Y564074D01*
X558852Y564075D01*
G37*
G36*
X577852Y564075D02*
X577852Y564075D01*
X577854Y564074D01*
X577897Y564094D01*
X577941Y564112D01*
X577941Y564114D01*
X577943Y564115D01*
X577976Y564200D01*
X577976Y568400D01*
X577975Y568402D01*
X577976Y568404D01*
X577956Y568447D01*
X577938Y568491D01*
X577936Y568491D01*
X577935Y568493D01*
X577850Y568526D01*
X571450Y568526D01*
X571448Y568525D01*
X571446Y568526D01*
X571403Y568506D01*
X571359Y568488D01*
X571359Y568486D01*
X571357Y568485D01*
X571324Y568400D01*
X571324Y564200D01*
X571325Y564198D01*
X571324Y564196D01*
X571344Y564153D01*
X571362Y564109D01*
X571364Y564109D01*
X571365Y564107D01*
X571450Y564074D01*
X577850Y564074D01*
X577852Y564075D01*
G37*
G36*
X577852Y559075D02*
X577852Y559075D01*
X577854Y559074D01*
X577897Y559094D01*
X577941Y559112D01*
X577941Y559114D01*
X577943Y559115D01*
X577976Y559200D01*
X577976Y563400D01*
X577975Y563402D01*
X577976Y563404D01*
X577956Y563447D01*
X577938Y563491D01*
X577936Y563491D01*
X577935Y563493D01*
X577850Y563526D01*
X571450Y563526D01*
X571448Y563525D01*
X571446Y563526D01*
X571403Y563506D01*
X571359Y563488D01*
X571359Y563486D01*
X571357Y563485D01*
X571324Y563400D01*
X571324Y559200D01*
X571325Y559198D01*
X571324Y559196D01*
X571344Y559153D01*
X571362Y559109D01*
X571364Y559109D01*
X571365Y559107D01*
X571450Y559074D01*
X577850Y559074D01*
X577852Y559075D01*
G37*
G36*
X558852Y559075D02*
X558852Y559075D01*
X558854Y559074D01*
X558897Y559094D01*
X558941Y559112D01*
X558941Y559114D01*
X558943Y559115D01*
X558976Y559200D01*
X558976Y563400D01*
X558975Y563402D01*
X558976Y563404D01*
X558956Y563447D01*
X558938Y563491D01*
X558936Y563491D01*
X558935Y563493D01*
X558850Y563526D01*
X552450Y563526D01*
X552448Y563525D01*
X552446Y563526D01*
X552403Y563506D01*
X552359Y563488D01*
X552359Y563486D01*
X552357Y563485D01*
X552324Y563400D01*
X552324Y559200D01*
X552325Y559198D01*
X552324Y559196D01*
X552344Y559153D01*
X552362Y559109D01*
X552364Y559109D01*
X552365Y559107D01*
X552450Y559074D01*
X558850Y559074D01*
X558852Y559075D01*
G37*
G36*
X558852Y554075D02*
X558852Y554075D01*
X558854Y554074D01*
X558897Y554094D01*
X558941Y554112D01*
X558941Y554114D01*
X558943Y554115D01*
X558976Y554200D01*
X558976Y558400D01*
X558975Y558402D01*
X558976Y558404D01*
X558956Y558447D01*
X558938Y558491D01*
X558936Y558491D01*
X558935Y558493D01*
X558850Y558526D01*
X552450Y558526D01*
X552448Y558525D01*
X552446Y558526D01*
X552403Y558506D01*
X552359Y558488D01*
X552359Y558486D01*
X552357Y558485D01*
X552324Y558400D01*
X552324Y554200D01*
X552325Y554198D01*
X552324Y554196D01*
X552344Y554153D01*
X552362Y554109D01*
X552364Y554109D01*
X552365Y554107D01*
X552450Y554074D01*
X558850Y554074D01*
X558852Y554075D01*
G37*
G36*
X577852Y554075D02*
X577852Y554075D01*
X577854Y554074D01*
X577897Y554094D01*
X577941Y554112D01*
X577941Y554114D01*
X577943Y554115D01*
X577976Y554200D01*
X577976Y558400D01*
X577975Y558402D01*
X577976Y558404D01*
X577956Y558447D01*
X577938Y558491D01*
X577936Y558491D01*
X577935Y558493D01*
X577850Y558526D01*
X571450Y558526D01*
X571448Y558525D01*
X571446Y558526D01*
X571403Y558506D01*
X571359Y558488D01*
X571359Y558486D01*
X571357Y558485D01*
X571324Y558400D01*
X571324Y554200D01*
X571325Y554198D01*
X571324Y554196D01*
X571344Y554153D01*
X571362Y554109D01*
X571364Y554109D01*
X571365Y554107D01*
X571450Y554074D01*
X577850Y554074D01*
X577852Y554075D01*
G37*
G36*
X558852Y549075D02*
X558852Y549075D01*
X558854Y549074D01*
X558897Y549094D01*
X558941Y549112D01*
X558941Y549114D01*
X558943Y549115D01*
X558976Y549200D01*
X558976Y553400D01*
X558975Y553402D01*
X558976Y553404D01*
X558956Y553447D01*
X558938Y553491D01*
X558936Y553491D01*
X558935Y553493D01*
X558850Y553526D01*
X552450Y553526D01*
X552448Y553525D01*
X552446Y553526D01*
X552403Y553506D01*
X552359Y553488D01*
X552359Y553486D01*
X552357Y553485D01*
X552324Y553400D01*
X552324Y549200D01*
X552325Y549198D01*
X552324Y549196D01*
X552344Y549153D01*
X552362Y549109D01*
X552364Y549109D01*
X552365Y549107D01*
X552450Y549074D01*
X558850Y549074D01*
X558852Y549075D01*
G37*
G36*
X577852Y549075D02*
X577852Y549075D01*
X577854Y549074D01*
X577897Y549094D01*
X577941Y549112D01*
X577941Y549114D01*
X577943Y549115D01*
X577976Y549200D01*
X577976Y553400D01*
X577975Y553402D01*
X577976Y553404D01*
X577956Y553447D01*
X577938Y553491D01*
X577936Y553491D01*
X577935Y553493D01*
X577850Y553526D01*
X571450Y553526D01*
X571448Y553525D01*
X571446Y553526D01*
X571403Y553506D01*
X571359Y553488D01*
X571359Y553486D01*
X571357Y553485D01*
X571324Y553400D01*
X571324Y549200D01*
X571325Y549198D01*
X571324Y549196D01*
X571344Y549153D01*
X571362Y549109D01*
X571364Y549109D01*
X571365Y549107D01*
X571450Y549074D01*
X577850Y549074D01*
X577852Y549075D01*
G37*
G36*
X457290Y549075D02*
X457290Y549075D01*
X457292Y549074D01*
X457335Y549094D01*
X457379Y549113D01*
X457379Y549115D01*
X457381Y549116D01*
X457414Y549200D01*
X457414Y553400D01*
X457413Y553402D01*
X457414Y553404D01*
X457394Y553447D01*
X457376Y553490D01*
X457374Y553491D01*
X457373Y553493D01*
X457288Y553526D01*
X450887Y553526D01*
X450885Y553525D01*
X450883Y553526D01*
X450840Y553506D01*
X450796Y553487D01*
X450795Y553485D01*
X450793Y553484D01*
X450760Y553400D01*
X450760Y549200D01*
X450761Y549198D01*
X450760Y549196D01*
X450780Y549153D01*
X450799Y549110D01*
X450801Y549109D01*
X450802Y549107D01*
X450887Y549074D01*
X457288Y549074D01*
X457290Y549075D01*
G37*
G36*
X457290Y559075D02*
X457290Y559075D01*
X457292Y559074D01*
X457335Y559094D01*
X457379Y559113D01*
X457379Y559115D01*
X457381Y559116D01*
X457414Y559200D01*
X457414Y563400D01*
X457413Y563402D01*
X457414Y563404D01*
X457394Y563447D01*
X457376Y563490D01*
X457374Y563491D01*
X457373Y563493D01*
X457288Y563526D01*
X450887Y563526D01*
X450885Y563525D01*
X450883Y563526D01*
X450840Y563506D01*
X450796Y563487D01*
X450795Y563485D01*
X450793Y563484D01*
X450760Y563400D01*
X450760Y559200D01*
X450761Y559198D01*
X450760Y559196D01*
X450780Y559153D01*
X450799Y559110D01*
X450801Y559109D01*
X450802Y559107D01*
X450887Y559074D01*
X457288Y559074D01*
X457290Y559075D01*
G37*
G36*
X457290Y554075D02*
X457290Y554075D01*
X457292Y554074D01*
X457335Y554094D01*
X457379Y554113D01*
X457379Y554115D01*
X457381Y554116D01*
X457414Y554200D01*
X457414Y558400D01*
X457413Y558402D01*
X457414Y558404D01*
X457394Y558447D01*
X457376Y558490D01*
X457374Y558491D01*
X457373Y558493D01*
X457288Y558526D01*
X450887Y558526D01*
X450885Y558525D01*
X450883Y558526D01*
X450840Y558506D01*
X450796Y558487D01*
X450795Y558485D01*
X450793Y558484D01*
X450760Y558400D01*
X450760Y554200D01*
X450761Y554198D01*
X450760Y554196D01*
X450780Y554153D01*
X450799Y554110D01*
X450801Y554109D01*
X450802Y554107D01*
X450887Y554074D01*
X457288Y554074D01*
X457290Y554075D01*
G37*
G36*
X457290Y544075D02*
X457290Y544075D01*
X457292Y544074D01*
X457335Y544094D01*
X457379Y544113D01*
X457379Y544115D01*
X457381Y544116D01*
X457414Y544200D01*
X457414Y548400D01*
X457413Y548402D01*
X457414Y548404D01*
X457394Y548447D01*
X457376Y548490D01*
X457374Y548491D01*
X457373Y548493D01*
X457288Y548526D01*
X450887Y548526D01*
X450885Y548525D01*
X450883Y548526D01*
X450840Y548506D01*
X450796Y548487D01*
X450795Y548485D01*
X450793Y548484D01*
X450760Y548400D01*
X450760Y544200D01*
X450761Y544198D01*
X450760Y544196D01*
X450780Y544153D01*
X450799Y544110D01*
X450801Y544109D01*
X450802Y544107D01*
X450887Y544074D01*
X457288Y544074D01*
X457290Y544075D01*
G37*
%LPC*%
G36*
X446374Y564611D02*
X446374Y564611D01*
X446374Y560863D01*
X442626Y560863D01*
X442626Y564611D01*
X446374Y564611D01*
G37*
%LPD*%
%LPC*%
G36*
X563276Y560863D02*
X563276Y560863D01*
X563276Y564611D01*
X567024Y564611D01*
X567024Y560863D01*
X563276Y560863D01*
G37*
%LPD*%
%LPC*%
G36*
X446374Y556737D02*
X446374Y556737D01*
X446374Y552989D01*
X442626Y552989D01*
X442626Y556737D01*
X446374Y556737D01*
G37*
%LPD*%
%LPC*%
G36*
X563276Y552989D02*
X563276Y552989D01*
X563276Y556737D01*
X567024Y556737D01*
X567024Y552989D01*
X563276Y552989D01*
G37*
%LPD*%
D10*
X368300Y101600D03*
X368300Y127000D03*
X368300Y152400D03*
X368300Y177800D03*
X368300Y203200D03*
X368300Y228600D03*
X368300Y254000D03*
X368300Y279400D03*
X368300Y304800D03*
X368300Y330200D03*
X368300Y355600D03*
X368300Y381000D03*
X368300Y406400D03*
X368300Y431800D03*
X368300Y457200D03*
X368300Y482600D03*
X368300Y508000D03*
X368300Y533400D03*
X368300Y558800D03*
X368300Y584200D03*
X139700Y584200D03*
X139700Y558800D03*
X139700Y533400D03*
X139700Y508000D03*
X139700Y482600D03*
X139700Y457200D03*
X139700Y431800D03*
X139700Y406400D03*
X139700Y381000D03*
X139700Y355600D03*
X139700Y330200D03*
X139700Y304800D03*
X139700Y279400D03*
X139700Y254000D03*
X139700Y228600D03*
X139700Y203200D03*
X139700Y177800D03*
X139700Y152400D03*
X139700Y127000D03*
X139700Y101600D03*
D11*
X322580Y451240D03*
X322580Y468240D03*
X341630Y468240D03*
X341630Y451240D03*
X158750Y131690D03*
X158750Y114690D03*
D12*
X229362Y127000D03*
X239268Y127000D03*
X249174Y127000D03*
X259080Y127000D03*
X268986Y127000D03*
X278892Y127000D03*
X229362Y136906D03*
X239268Y136906D03*
X249174Y136906D03*
X259080Y136906D03*
X268986Y136906D03*
X278892Y136906D03*
X229362Y146812D03*
X239268Y146812D03*
X249174Y146812D03*
X259080Y146812D03*
X268986Y146812D03*
X278892Y146812D03*
X229362Y156718D03*
X239268Y156718D03*
X249174Y156718D03*
X259080Y156718D03*
X268986Y156718D03*
X278892Y156718D03*
X229362Y166624D03*
X239268Y166624D03*
X249174Y166624D03*
X259080Y166624D03*
X268986Y166624D03*
X278892Y166624D03*
X229362Y176530D03*
X239268Y176530D03*
X249174Y176530D03*
X259080Y176530D03*
X268986Y176530D03*
X278892Y176530D03*
X229362Y186436D03*
X239268Y186436D03*
X249174Y186436D03*
X259080Y186436D03*
X268986Y186436D03*
X278892Y186436D03*
X229362Y196342D03*
X239268Y196342D03*
X249174Y196342D03*
X259080Y196342D03*
X268986Y196342D03*
X278892Y196342D03*
X229362Y206248D03*
X239268Y206248D03*
X249174Y206248D03*
X259080Y206248D03*
X268986Y206248D03*
X278892Y206248D03*
X229362Y368300D03*
X239268Y368300D03*
X249174Y368300D03*
X259080Y368300D03*
X268986Y368300D03*
X278892Y368300D03*
X229362Y378206D03*
X239268Y378206D03*
X249174Y378206D03*
X259080Y378206D03*
X268986Y378206D03*
X278892Y378206D03*
X229362Y388112D03*
X239268Y388112D03*
X249174Y388112D03*
X259080Y388112D03*
X268986Y388112D03*
X278892Y388112D03*
X229362Y398018D03*
X239268Y398018D03*
X249174Y398018D03*
X259080Y398018D03*
X268986Y398018D03*
X278892Y398018D03*
X229362Y407924D03*
X239268Y407924D03*
X249174Y407924D03*
X259080Y407924D03*
X268986Y407924D03*
X278892Y407924D03*
X229362Y417830D03*
X239268Y417830D03*
X249174Y417830D03*
X259080Y417830D03*
X268986Y417830D03*
X278892Y417830D03*
X229362Y427736D03*
X239268Y427736D03*
X249174Y427736D03*
X259080Y427736D03*
X268986Y427736D03*
X278892Y427736D03*
X229362Y437642D03*
X239268Y437642D03*
X249174Y437642D03*
X259080Y437642D03*
X268986Y437642D03*
X278892Y437642D03*
X229362Y447548D03*
X239268Y447548D03*
X249174Y447548D03*
X259080Y447548D03*
X268986Y447548D03*
X278892Y447548D03*
D13*
X546862Y60300D03*
X546862Y50800D03*
X546862Y41300D03*
X570738Y41300D03*
X570738Y50800D03*
X570738Y60300D03*
D14*
X505850Y41910D03*
X522850Y41910D03*
X505850Y62230D03*
X522850Y62230D03*
X578730Y82550D03*
X561730Y82550D03*
D11*
X594750Y82750D03*
X611750Y82750D03*
D15*
X598930Y55880D03*
X617930Y55880D03*
D16*
X279400Y290220D03*
X279400Y309220D03*
X543560Y200000D03*
X543560Y181000D03*
D17*
X511810Y200000D03*
X511810Y181000D03*
D16*
X487680Y181000D03*
X487680Y200000D03*
D17*
X565150Y295300D03*
X565150Y314300D03*
X612140Y295300D03*
X612140Y314300D03*
D18*
X530800Y400050D03*
D19*
X525339Y387350D02*
X536261Y387350D01*
X536261Y374650D02*
X525339Y374650D01*
X525339Y361950D02*
X536261Y361950D01*
X581339Y361950D02*
X592261Y361950D01*
X592261Y374650D02*
X581339Y374650D01*
X581339Y387350D02*
X592261Y387350D01*
X592261Y400050D02*
X581339Y400050D01*
D17*
X617220Y390500D03*
X617220Y371500D03*
D14*
X567300Y419100D03*
X550300Y419100D03*
D11*
X499110Y338700D03*
X499110Y321700D03*
D14*
X588400Y419000D03*
X605400Y419000D03*
D18*
X416500Y400150D03*
D19*
X411039Y387450D02*
X421961Y387450D01*
X421961Y374750D02*
X411039Y374750D01*
X411039Y362050D02*
X421961Y362050D01*
X467039Y362050D02*
X477961Y362050D01*
X477961Y374750D02*
X467039Y374750D01*
X467039Y387450D02*
X477961Y387450D01*
X477961Y400150D02*
X467039Y400150D01*
D17*
X501650Y371500D03*
X501650Y390500D03*
D11*
X474980Y338700D03*
X474980Y321700D03*
D14*
X453000Y419100D03*
X436000Y419100D03*
X474100Y419000D03*
X491100Y419000D03*
D20*
X532900Y254000D03*
X584900Y254000D03*
X532900Y266700D03*
X532900Y241300D03*
X532900Y228600D03*
X584900Y266700D03*
X584900Y241300D03*
X584900Y228600D03*
D21*
X606400Y203200D03*
X587400Y203200D03*
D17*
X487680Y231800D03*
X487680Y250800D03*
D21*
X606400Y177900D03*
X587400Y177900D03*
D17*
X612140Y239420D03*
X612140Y258420D03*
D22*
X434365Y571300D03*
X434365Y566300D03*
X434365Y561300D03*
X434365Y556300D03*
X434365Y551300D03*
X434365Y546300D03*
X454635Y546300D03*
X454635Y551300D03*
X454635Y556300D03*
X454635Y561300D03*
X454635Y566300D03*
X454635Y571300D03*
D23*
X444500Y558800D03*
D24*
X444500Y563880D03*
X444500Y553720D03*
D17*
X490220Y549300D03*
X490220Y568300D03*
D25*
X71120Y52070D03*
X71120Y64770D03*
X83820Y52070D03*
X83820Y64770D03*
X96520Y52070D03*
X96520Y64770D03*
X439420Y283210D03*
X426720Y283210D03*
X439420Y295910D03*
X426720Y295910D03*
X439420Y308610D03*
X426720Y308610D03*
D11*
X490220Y277250D03*
X490220Y294250D03*
X472440Y277250D03*
X472440Y294250D03*
D16*
X571500Y117500D03*
X571500Y136500D03*
D14*
X423300Y596900D03*
X440300Y596900D03*
X461400Y596900D03*
X478400Y596900D03*
D26*
X86360Y114300D03*
D27*
X60960Y114300D03*
X86360Y139700D03*
X60960Y139700D03*
X86360Y165100D03*
X60960Y165100D03*
X86360Y190500D03*
X60960Y190500D03*
X86360Y215900D03*
X60960Y215900D03*
X86360Y241300D03*
X60960Y241300D03*
X86360Y266700D03*
X60960Y266700D03*
X86360Y292100D03*
X60960Y292100D03*
X86360Y317500D03*
X60960Y317500D03*
X86360Y342900D03*
X60960Y342900D03*
X86360Y368300D03*
X60960Y368300D03*
X86360Y393700D03*
X60960Y393700D03*
X86360Y419100D03*
X60960Y419100D03*
X86360Y444500D03*
X60960Y444500D03*
X86360Y469900D03*
X60960Y469900D03*
X86360Y495300D03*
X60960Y495300D03*
X86360Y520700D03*
X60960Y520700D03*
X86360Y546100D03*
X60960Y546100D03*
X86360Y571500D03*
X60960Y571500D03*
X86360Y596900D03*
X60960Y596900D03*
D28*
X554340Y566300D03*
X554340Y561300D03*
X554340Y556300D03*
X554340Y551300D03*
X575960Y551300D03*
X575960Y556300D03*
X575960Y561300D03*
X575960Y566300D03*
D29*
X565150Y558800D03*
D24*
X565150Y564300D03*
X565150Y553300D03*
D14*
X516500Y596900D03*
X499500Y596900D03*
D11*
X600710Y567300D03*
X600710Y550300D03*
D21*
X581050Y596900D03*
X600050Y596900D03*
D30*
X431700Y81280D03*
D31*
X431700Y55880D03*
D32*
X431800Y209550D03*
D33*
X431800Y234950D03*
D32*
X431800Y184150D03*
D34*
X576072Y647474D03*
D33*
X601472Y647474D03*
D34*
X550672Y647474D03*
X525272Y647474D03*
X499872Y647474D03*
X474472Y647474D03*
X449072Y647474D03*
X423672Y647474D03*
X363193Y647472D03*
D33*
X388593Y647472D03*
D34*
X337793Y647472D03*
X312393Y647472D03*
X286993Y647472D03*
X261593Y647472D03*
X236193Y647472D03*
X210793Y647472D03*
D30*
X431800Y147320D03*
D31*
X431800Y121920D03*
D35*
X508508Y140770D03*
X508508Y135770D03*
X508508Y130770D03*
X508508Y125770D03*
X508508Y120770D03*
X508508Y115770D03*
X537972Y115770D03*
X537972Y120770D03*
X537972Y125770D03*
X537972Y130770D03*
X537972Y135770D03*
X537972Y140770D03*
D36*
X523240Y128270D03*
D12*
X523240Y128270D03*
X528726Y135306D03*
X517754Y135306D03*
X528726Y121234D03*
X517754Y121234D03*
D37*
X368300Y63500D03*
X402590Y234950D03*
X406400Y342900D03*
X528320Y176530D03*
X521970Y100330D03*
X355600Y63500D03*
X300990Y444500D03*
X191770Y509270D03*
X165100Y482092D03*
X534670Y52070D03*
X454660Y278130D03*
X511810Y309880D03*
X408940Y72390D03*
X408940Y45720D03*
X393700Y118110D03*
X419100Y170180D03*
X393700Y128270D03*
X393700Y107950D03*
X312420Y220980D03*
X312420Y210820D03*
X124460Y468630D03*
X124460Y452120D03*
X124460Y435610D03*
X124460Y419100D03*
X165100Y406400D03*
X165100Y393700D03*
X165100Y381000D03*
X165100Y368300D03*
X491490Y66040D03*
X491490Y54610D03*
X438150Y436880D03*
X448310Y436880D03*
X458470Y436880D03*
X504190Y440690D03*
X515620Y440690D03*
X527050Y440690D03*
X584200Y152400D03*
X596900Y152400D03*
X609600Y152400D03*
X596900Y139700D03*
X609600Y139700D03*
X596900Y127000D03*
X609600Y127000D03*
X596900Y114300D03*
X609600Y114300D03*
X431800Y254000D03*
X419100Y254000D03*
X156210Y165100D03*
X156210Y154940D03*
X156210Y144780D03*
X533400Y584200D03*
X520700Y581660D03*
X520700Y571500D03*
X621030Y205740D03*
X621030Y190500D03*
X621030Y172720D03*
X511810Y298450D03*
X419100Y158750D03*
X455930Y190500D03*
X445770Y198120D03*
X313690Y629920D03*
X346710Y629920D03*
X363220Y629920D03*
X557530Y370840D03*
X567690Y370840D03*
X557530Y360680D03*
X567690Y360680D03*
X312420Y200660D03*
X195580Y271780D03*
X184150Y299720D03*
X342900Y63500D03*
X330200Y63500D03*
X317500Y63500D03*
X304800Y63500D03*
X419100Y317500D03*
X279400Y63500D03*
X349532Y292100D03*
X127000Y165100D03*
X292100Y63500D03*
X353060Y280670D03*
X116558Y163830D03*
X383540Y267970D03*
X529590Y330200D03*
X605790Y330200D03*
X415290Y577850D03*
X546100Y76200D03*
X346710Y615950D03*
X433070Y626110D03*
X461010Y614680D03*
X245110Y101600D03*
X107351Y50800D03*
X62230Y96520D03*
X118110Y50800D03*
X419100Y266700D03*
X307340Y347980D03*
X238760Y350718D03*
X172720Y508000D03*
X177800Y571500D03*
X190500Y596900D03*
X165100Y596900D03*
X469900Y558800D03*
X309880Y607060D03*
X368300Y605790D03*
X392712Y604520D03*
X467360Y547370D03*
X304800Y622300D03*
X374650Y622300D03*
X400050Y622300D03*
X499110Y109220D03*
X417830Y100330D03*
X414020Y660400D03*
X585470Y40640D03*
X387350Y378460D03*
X612140Y96520D03*
X129540Y342900D03*
X238760Y341630D03*
X342900Y431800D03*
X279400Y262890D03*
X288290Y571500D03*
X279400Y502920D03*
X533400Y596900D03*
X374650Y596900D03*
X530860Y411480D03*
X549910Y379730D03*
X539750Y561340D03*
X558800Y203200D03*
X506730Y222250D03*
X511810Y241300D03*
X502920Y276860D03*
X565150Y182880D03*
X610870Y218440D03*
X508000Y406400D03*
X472440Y434340D03*
X565150Y234950D03*
X520700Y349250D03*
X525780Y557530D03*
X400050Y387350D03*
X440690Y514350D03*
X347980Y482600D03*
X562610Y539468D03*
X546100Y596900D03*
X576580Y538480D03*
X589280Y538480D03*
X596900Y580390D03*
X535940Y104140D03*
M02*
