G04 EAGLE Gerber RS-274X export*
G75*
%MOMM*%
%FSLAX34Y34*%
%LPD*%
%INSilkscreen Bottom*%
%IPPOS*%
%AMOC8*
5,1,8,0,0,1.08239X$1,22.5*%
G01*
%ADD10C,0.101600*%
%ADD11C,0.152400*%
%ADD12C,0.076200*%
%ADD13C,0.025400*%
%ADD14C,0.050800*%
%ADD15C,0.127000*%


D10*
X575790Y632516D02*
X575790Y631670D01*
X578612Y631670D01*
X578612Y633363D01*
X578610Y633429D01*
X578604Y633494D01*
X578595Y633559D01*
X578582Y633623D01*
X578565Y633687D01*
X578544Y633749D01*
X578520Y633810D01*
X578492Y633870D01*
X578461Y633928D01*
X578426Y633983D01*
X578389Y634037D01*
X578348Y634089D01*
X578304Y634138D01*
X578258Y634184D01*
X578209Y634228D01*
X578157Y634269D01*
X578103Y634306D01*
X578048Y634341D01*
X577990Y634372D01*
X577930Y634400D01*
X577869Y634424D01*
X577807Y634445D01*
X577743Y634462D01*
X577679Y634475D01*
X577614Y634484D01*
X577549Y634490D01*
X577483Y634492D01*
X574661Y634492D01*
X574595Y634490D01*
X574530Y634484D01*
X574465Y634475D01*
X574401Y634462D01*
X574337Y634445D01*
X574275Y634424D01*
X574214Y634400D01*
X574154Y634372D01*
X574097Y634341D01*
X574041Y634306D01*
X573987Y634269D01*
X573935Y634228D01*
X573886Y634184D01*
X573840Y634138D01*
X573796Y634089D01*
X573755Y634037D01*
X573718Y633983D01*
X573683Y633928D01*
X573652Y633870D01*
X573624Y633810D01*
X573600Y633749D01*
X573579Y633687D01*
X573562Y633623D01*
X573549Y633559D01*
X573540Y633494D01*
X573534Y633429D01*
X573532Y633363D01*
X573532Y631670D01*
X573532Y628640D02*
X578612Y628640D01*
X578612Y625818D02*
X573532Y628640D01*
X573532Y625818D02*
X578612Y625818D01*
X578612Y622788D02*
X573532Y622788D01*
X573532Y621377D01*
X573534Y621303D01*
X573540Y621230D01*
X573549Y621156D01*
X573563Y621084D01*
X573580Y621012D01*
X573601Y620941D01*
X573626Y620871D01*
X573654Y620803D01*
X573686Y620736D01*
X573721Y620672D01*
X573760Y620609D01*
X573801Y620548D01*
X573846Y620489D01*
X573894Y620433D01*
X573945Y620379D01*
X573999Y620328D01*
X574055Y620280D01*
X574114Y620235D01*
X574175Y620194D01*
X574238Y620155D01*
X574302Y620120D01*
X574369Y620088D01*
X574437Y620060D01*
X574507Y620035D01*
X574578Y620014D01*
X574650Y619997D01*
X574722Y619983D01*
X574796Y619974D01*
X574869Y619968D01*
X574943Y619966D01*
X574943Y619965D02*
X577201Y619965D01*
X577201Y619966D02*
X577275Y619968D01*
X577348Y619974D01*
X577422Y619983D01*
X577494Y619997D01*
X577566Y620014D01*
X577637Y620035D01*
X577707Y620060D01*
X577775Y620088D01*
X577842Y620120D01*
X577907Y620155D01*
X577969Y620194D01*
X578030Y620235D01*
X578089Y620280D01*
X578145Y620328D01*
X578199Y620379D01*
X578250Y620433D01*
X578298Y620489D01*
X578343Y620548D01*
X578384Y620609D01*
X578423Y620672D01*
X578458Y620736D01*
X578490Y620803D01*
X578518Y620871D01*
X578543Y620941D01*
X578564Y621012D01*
X578581Y621084D01*
X578595Y621156D01*
X578604Y621230D01*
X578610Y621303D01*
X578612Y621377D01*
X578612Y622788D01*
X549966Y631105D02*
X549966Y634492D01*
X551660Y632799D02*
X548273Y632799D01*
X549120Y628358D02*
X549120Y626664D01*
X549122Y626598D01*
X549128Y626533D01*
X549137Y626468D01*
X549150Y626404D01*
X549167Y626340D01*
X549188Y626278D01*
X549212Y626217D01*
X549240Y626157D01*
X549271Y626100D01*
X549306Y626044D01*
X549343Y625990D01*
X549384Y625938D01*
X549428Y625889D01*
X549474Y625843D01*
X549523Y625799D01*
X549575Y625758D01*
X549629Y625721D01*
X549685Y625686D01*
X549742Y625655D01*
X549802Y625627D01*
X549863Y625603D01*
X549925Y625582D01*
X549989Y625565D01*
X550053Y625552D01*
X550118Y625543D01*
X550183Y625537D01*
X550249Y625535D01*
X550531Y625535D01*
X550531Y625536D02*
X550605Y625538D01*
X550678Y625544D01*
X550752Y625553D01*
X550824Y625567D01*
X550896Y625584D01*
X550967Y625605D01*
X551037Y625630D01*
X551105Y625658D01*
X551172Y625690D01*
X551237Y625725D01*
X551299Y625764D01*
X551360Y625805D01*
X551419Y625850D01*
X551475Y625898D01*
X551529Y625949D01*
X551580Y626003D01*
X551628Y626059D01*
X551673Y626118D01*
X551714Y626179D01*
X551753Y626242D01*
X551788Y626306D01*
X551820Y626373D01*
X551848Y626441D01*
X551873Y626511D01*
X551894Y626582D01*
X551911Y626654D01*
X551925Y626726D01*
X551934Y626800D01*
X551940Y626873D01*
X551942Y626947D01*
X551940Y627021D01*
X551934Y627094D01*
X551925Y627168D01*
X551911Y627240D01*
X551894Y627312D01*
X551873Y627383D01*
X551848Y627453D01*
X551820Y627521D01*
X551788Y627588D01*
X551753Y627653D01*
X551714Y627715D01*
X551673Y627776D01*
X551628Y627835D01*
X551580Y627891D01*
X551529Y627945D01*
X551475Y627996D01*
X551419Y628044D01*
X551360Y628089D01*
X551299Y628130D01*
X551237Y628169D01*
X551172Y628204D01*
X551105Y628236D01*
X551037Y628264D01*
X550967Y628289D01*
X550896Y628310D01*
X550824Y628327D01*
X550752Y628341D01*
X550678Y628350D01*
X550605Y628356D01*
X550531Y628358D01*
X549120Y628358D01*
X549027Y628356D01*
X548934Y628350D01*
X548841Y628341D01*
X548748Y628327D01*
X548657Y628310D01*
X548566Y628289D01*
X548476Y628264D01*
X548387Y628236D01*
X548299Y628204D01*
X548213Y628168D01*
X548128Y628129D01*
X548045Y628086D01*
X547964Y628040D01*
X547885Y627990D01*
X547808Y627938D01*
X547733Y627882D01*
X547661Y627823D01*
X547591Y627761D01*
X547523Y627697D01*
X547459Y627629D01*
X547397Y627559D01*
X547338Y627487D01*
X547282Y627412D01*
X547230Y627335D01*
X547180Y627256D01*
X547134Y627175D01*
X547091Y627092D01*
X547052Y627007D01*
X547016Y626921D01*
X546984Y626833D01*
X546956Y626744D01*
X546931Y626654D01*
X546910Y626563D01*
X546893Y626472D01*
X546879Y626379D01*
X546870Y626287D01*
X546864Y626193D01*
X546862Y626100D01*
X546862Y623154D02*
X551942Y621460D01*
X546862Y619767D01*
X527812Y634492D02*
X522732Y634492D01*
X522732Y633081D01*
X522734Y633007D01*
X522740Y632934D01*
X522749Y632860D01*
X522763Y632788D01*
X522780Y632716D01*
X522801Y632645D01*
X522826Y632575D01*
X522854Y632507D01*
X522886Y632440D01*
X522921Y632376D01*
X522960Y632313D01*
X523001Y632252D01*
X523046Y632193D01*
X523094Y632137D01*
X523145Y632083D01*
X523199Y632032D01*
X523255Y631984D01*
X523314Y631939D01*
X523375Y631898D01*
X523438Y631859D01*
X523502Y631824D01*
X523569Y631792D01*
X523637Y631764D01*
X523707Y631739D01*
X523778Y631718D01*
X523850Y631701D01*
X523922Y631687D01*
X523996Y631678D01*
X524069Y631672D01*
X524143Y631670D01*
X526401Y631670D01*
X526475Y631672D01*
X526548Y631678D01*
X526622Y631687D01*
X526694Y631701D01*
X526766Y631718D01*
X526837Y631739D01*
X526907Y631764D01*
X526975Y631792D01*
X527042Y631824D01*
X527107Y631859D01*
X527169Y631898D01*
X527230Y631939D01*
X527289Y631984D01*
X527345Y632032D01*
X527399Y632083D01*
X527450Y632137D01*
X527498Y632193D01*
X527543Y632252D01*
X527584Y632313D01*
X527623Y632376D01*
X527658Y632440D01*
X527690Y632507D01*
X527718Y632575D01*
X527743Y632645D01*
X527764Y632716D01*
X527781Y632788D01*
X527795Y632860D01*
X527804Y632934D01*
X527810Y633007D01*
X527812Y633081D01*
X527812Y634492D01*
X527812Y628515D02*
X522732Y628515D01*
X522732Y627103D01*
X522734Y627029D01*
X522740Y626956D01*
X522749Y626882D01*
X522763Y626810D01*
X522780Y626738D01*
X522801Y626667D01*
X522826Y626597D01*
X522854Y626529D01*
X522886Y626462D01*
X522921Y626398D01*
X522960Y626335D01*
X523001Y626274D01*
X523046Y626215D01*
X523094Y626159D01*
X523145Y626105D01*
X523199Y626054D01*
X523255Y626006D01*
X523314Y625961D01*
X523375Y625920D01*
X523438Y625881D01*
X523502Y625846D01*
X523569Y625814D01*
X523637Y625786D01*
X523707Y625761D01*
X523778Y625740D01*
X523850Y625723D01*
X523922Y625709D01*
X523996Y625700D01*
X524069Y625694D01*
X524143Y625692D01*
X524217Y625694D01*
X524290Y625700D01*
X524364Y625709D01*
X524436Y625723D01*
X524508Y625740D01*
X524579Y625761D01*
X524649Y625786D01*
X524717Y625814D01*
X524784Y625846D01*
X524849Y625881D01*
X524911Y625920D01*
X524972Y625961D01*
X525031Y626006D01*
X525087Y626054D01*
X525141Y626105D01*
X525192Y626159D01*
X525240Y626215D01*
X525285Y626274D01*
X525326Y626335D01*
X525365Y626398D01*
X525400Y626462D01*
X525432Y626529D01*
X525460Y626597D01*
X525485Y626667D01*
X525506Y626738D01*
X525523Y626810D01*
X525537Y626882D01*
X525546Y626956D01*
X525552Y627029D01*
X525554Y627103D01*
X525554Y628515D01*
X523861Y623336D02*
X522732Y621925D01*
X527812Y621925D01*
X527812Y623336D02*
X527812Y620514D01*
X499590Y631670D02*
X499590Y632516D01*
X499590Y631670D02*
X502412Y631670D01*
X502412Y633363D01*
X502410Y633429D01*
X502404Y633494D01*
X502395Y633559D01*
X502382Y633623D01*
X502365Y633687D01*
X502344Y633749D01*
X502320Y633810D01*
X502292Y633870D01*
X502261Y633928D01*
X502226Y633983D01*
X502189Y634037D01*
X502148Y634089D01*
X502104Y634138D01*
X502058Y634184D01*
X502009Y634228D01*
X501957Y634269D01*
X501903Y634306D01*
X501848Y634341D01*
X501790Y634372D01*
X501730Y634400D01*
X501669Y634424D01*
X501607Y634445D01*
X501543Y634462D01*
X501479Y634475D01*
X501414Y634484D01*
X501349Y634490D01*
X501283Y634492D01*
X498461Y634492D01*
X498395Y634490D01*
X498330Y634484D01*
X498265Y634475D01*
X498201Y634462D01*
X498137Y634445D01*
X498075Y634424D01*
X498014Y634400D01*
X497954Y634372D01*
X497897Y634341D01*
X497841Y634306D01*
X497787Y634269D01*
X497735Y634228D01*
X497686Y634184D01*
X497640Y634138D01*
X497596Y634089D01*
X497555Y634037D01*
X497518Y633983D01*
X497483Y633928D01*
X497452Y633870D01*
X497424Y633810D01*
X497400Y633749D01*
X497379Y633687D01*
X497362Y633623D01*
X497349Y633559D01*
X497340Y633494D01*
X497334Y633429D01*
X497332Y633363D01*
X497332Y631670D01*
X497332Y628640D02*
X502412Y628640D01*
X502412Y625818D02*
X497332Y628640D01*
X497332Y625818D02*
X502412Y625818D01*
X502412Y622788D02*
X497332Y622788D01*
X497332Y621377D01*
X497334Y621303D01*
X497340Y621230D01*
X497349Y621156D01*
X497363Y621084D01*
X497380Y621012D01*
X497401Y620941D01*
X497426Y620871D01*
X497454Y620803D01*
X497486Y620736D01*
X497521Y620672D01*
X497560Y620609D01*
X497601Y620548D01*
X497646Y620489D01*
X497694Y620433D01*
X497745Y620379D01*
X497799Y620328D01*
X497855Y620280D01*
X497914Y620235D01*
X497975Y620194D01*
X498038Y620155D01*
X498102Y620120D01*
X498169Y620088D01*
X498237Y620060D01*
X498307Y620035D01*
X498378Y620014D01*
X498450Y619997D01*
X498522Y619983D01*
X498596Y619974D01*
X498669Y619968D01*
X498743Y619966D01*
X498743Y619965D02*
X501001Y619965D01*
X501001Y619966D02*
X501075Y619968D01*
X501148Y619974D01*
X501222Y619983D01*
X501294Y619997D01*
X501366Y620014D01*
X501437Y620035D01*
X501507Y620060D01*
X501575Y620088D01*
X501642Y620120D01*
X501707Y620155D01*
X501769Y620194D01*
X501830Y620235D01*
X501889Y620280D01*
X501945Y620328D01*
X501999Y620379D01*
X502050Y620433D01*
X502098Y620489D01*
X502143Y620548D01*
X502184Y620609D01*
X502223Y620672D01*
X502258Y620736D01*
X502290Y620803D01*
X502318Y620871D01*
X502343Y620941D01*
X502364Y621012D01*
X502381Y621084D01*
X502395Y621156D01*
X502404Y621230D01*
X502410Y621303D01*
X502412Y621377D01*
X502412Y622788D01*
X473766Y631105D02*
X473766Y634492D01*
X475460Y632799D02*
X472073Y632799D01*
X472920Y628358D02*
X472920Y626664D01*
X472922Y626598D01*
X472928Y626533D01*
X472937Y626468D01*
X472950Y626404D01*
X472967Y626340D01*
X472988Y626278D01*
X473012Y626217D01*
X473040Y626157D01*
X473071Y626100D01*
X473106Y626044D01*
X473143Y625990D01*
X473184Y625938D01*
X473228Y625889D01*
X473274Y625843D01*
X473323Y625799D01*
X473375Y625758D01*
X473429Y625721D01*
X473485Y625686D01*
X473542Y625655D01*
X473602Y625627D01*
X473663Y625603D01*
X473725Y625582D01*
X473789Y625565D01*
X473853Y625552D01*
X473918Y625543D01*
X473983Y625537D01*
X474049Y625535D01*
X474331Y625535D01*
X474331Y625536D02*
X474405Y625538D01*
X474478Y625544D01*
X474552Y625553D01*
X474624Y625567D01*
X474696Y625584D01*
X474767Y625605D01*
X474837Y625630D01*
X474905Y625658D01*
X474972Y625690D01*
X475037Y625725D01*
X475099Y625764D01*
X475160Y625805D01*
X475219Y625850D01*
X475275Y625898D01*
X475329Y625949D01*
X475380Y626003D01*
X475428Y626059D01*
X475473Y626118D01*
X475514Y626179D01*
X475553Y626242D01*
X475588Y626306D01*
X475620Y626373D01*
X475648Y626441D01*
X475673Y626511D01*
X475694Y626582D01*
X475711Y626654D01*
X475725Y626726D01*
X475734Y626800D01*
X475740Y626873D01*
X475742Y626947D01*
X475740Y627021D01*
X475734Y627094D01*
X475725Y627168D01*
X475711Y627240D01*
X475694Y627312D01*
X475673Y627383D01*
X475648Y627453D01*
X475620Y627521D01*
X475588Y627588D01*
X475553Y627653D01*
X475514Y627715D01*
X475473Y627776D01*
X475428Y627835D01*
X475380Y627891D01*
X475329Y627945D01*
X475275Y627996D01*
X475219Y628044D01*
X475160Y628089D01*
X475099Y628130D01*
X475037Y628169D01*
X474972Y628204D01*
X474905Y628236D01*
X474837Y628264D01*
X474767Y628289D01*
X474696Y628310D01*
X474624Y628327D01*
X474552Y628341D01*
X474478Y628350D01*
X474405Y628356D01*
X474331Y628358D01*
X472920Y628358D01*
X472827Y628356D01*
X472734Y628350D01*
X472641Y628341D01*
X472548Y628327D01*
X472457Y628310D01*
X472366Y628289D01*
X472276Y628264D01*
X472187Y628236D01*
X472099Y628204D01*
X472013Y628168D01*
X471928Y628129D01*
X471845Y628086D01*
X471764Y628040D01*
X471685Y627990D01*
X471608Y627938D01*
X471533Y627882D01*
X471461Y627823D01*
X471391Y627761D01*
X471323Y627697D01*
X471259Y627629D01*
X471197Y627559D01*
X471138Y627487D01*
X471082Y627412D01*
X471030Y627335D01*
X470980Y627256D01*
X470934Y627175D01*
X470891Y627092D01*
X470852Y627007D01*
X470816Y626921D01*
X470784Y626833D01*
X470756Y626744D01*
X470731Y626654D01*
X470710Y626563D01*
X470693Y626472D01*
X470679Y626379D01*
X470670Y626287D01*
X470664Y626193D01*
X470662Y626100D01*
X470662Y623154D02*
X475742Y621460D01*
X470662Y619767D01*
X451612Y634492D02*
X446532Y634492D01*
X446532Y633081D01*
X446534Y633007D01*
X446540Y632934D01*
X446549Y632860D01*
X446563Y632788D01*
X446580Y632716D01*
X446601Y632645D01*
X446626Y632575D01*
X446654Y632507D01*
X446686Y632440D01*
X446721Y632376D01*
X446760Y632313D01*
X446801Y632252D01*
X446846Y632193D01*
X446894Y632137D01*
X446945Y632083D01*
X446999Y632032D01*
X447055Y631984D01*
X447114Y631939D01*
X447175Y631898D01*
X447238Y631859D01*
X447302Y631824D01*
X447369Y631792D01*
X447437Y631764D01*
X447507Y631739D01*
X447578Y631718D01*
X447650Y631701D01*
X447722Y631687D01*
X447796Y631678D01*
X447869Y631672D01*
X447943Y631670D01*
X450201Y631670D01*
X450275Y631672D01*
X450348Y631678D01*
X450422Y631687D01*
X450494Y631701D01*
X450566Y631718D01*
X450637Y631739D01*
X450707Y631764D01*
X450775Y631792D01*
X450842Y631824D01*
X450907Y631859D01*
X450969Y631898D01*
X451030Y631939D01*
X451089Y631984D01*
X451145Y632032D01*
X451199Y632083D01*
X451250Y632137D01*
X451298Y632193D01*
X451343Y632252D01*
X451384Y632313D01*
X451423Y632376D01*
X451458Y632440D01*
X451490Y632507D01*
X451518Y632575D01*
X451543Y632645D01*
X451564Y632716D01*
X451581Y632788D01*
X451595Y632860D01*
X451604Y632934D01*
X451610Y633007D01*
X451612Y633081D01*
X451612Y634492D01*
X451612Y628515D02*
X446532Y628515D01*
X446532Y627103D01*
X446534Y627029D01*
X446540Y626956D01*
X446549Y626882D01*
X446563Y626810D01*
X446580Y626738D01*
X446601Y626667D01*
X446626Y626597D01*
X446654Y626529D01*
X446686Y626462D01*
X446721Y626398D01*
X446760Y626335D01*
X446801Y626274D01*
X446846Y626215D01*
X446894Y626159D01*
X446945Y626105D01*
X446999Y626054D01*
X447055Y626006D01*
X447114Y625961D01*
X447175Y625920D01*
X447238Y625881D01*
X447302Y625846D01*
X447369Y625814D01*
X447437Y625786D01*
X447507Y625761D01*
X447578Y625740D01*
X447650Y625723D01*
X447722Y625709D01*
X447796Y625700D01*
X447869Y625694D01*
X447943Y625692D01*
X448017Y625694D01*
X448090Y625700D01*
X448164Y625709D01*
X448236Y625723D01*
X448308Y625740D01*
X448379Y625761D01*
X448449Y625786D01*
X448517Y625814D01*
X448584Y625846D01*
X448649Y625881D01*
X448711Y625920D01*
X448772Y625961D01*
X448831Y626006D01*
X448887Y626054D01*
X448941Y626105D01*
X448992Y626159D01*
X449040Y626215D01*
X449085Y626274D01*
X449126Y626335D01*
X449165Y626398D01*
X449200Y626462D01*
X449232Y626529D01*
X449260Y626597D01*
X449285Y626667D01*
X449306Y626738D01*
X449323Y626810D01*
X449337Y626882D01*
X449346Y626956D01*
X449352Y627029D01*
X449354Y627103D01*
X449354Y628515D01*
X446532Y621784D02*
X446534Y621715D01*
X446539Y621647D01*
X446549Y621579D01*
X446562Y621511D01*
X446578Y621444D01*
X446598Y621378D01*
X446622Y621314D01*
X446649Y621251D01*
X446680Y621189D01*
X446714Y621129D01*
X446751Y621071D01*
X446791Y621015D01*
X446834Y620962D01*
X446880Y620911D01*
X446929Y620862D01*
X446980Y620816D01*
X447033Y620773D01*
X447089Y620733D01*
X447147Y620696D01*
X447207Y620662D01*
X447269Y620631D01*
X447332Y620604D01*
X447396Y620580D01*
X447462Y620560D01*
X447529Y620544D01*
X447597Y620531D01*
X447665Y620521D01*
X447733Y620516D01*
X447802Y620514D01*
X446532Y621784D02*
X446534Y621863D01*
X446540Y621942D01*
X446549Y622020D01*
X446562Y622098D01*
X446579Y622175D01*
X446600Y622251D01*
X446625Y622326D01*
X446653Y622400D01*
X446684Y622472D01*
X446719Y622543D01*
X446758Y622612D01*
X446799Y622679D01*
X446844Y622744D01*
X446892Y622807D01*
X446943Y622867D01*
X446997Y622925D01*
X447053Y622980D01*
X447112Y623032D01*
X447174Y623081D01*
X447238Y623128D01*
X447304Y623171D01*
X447372Y623211D01*
X447442Y623248D01*
X447514Y623281D01*
X447587Y623310D01*
X447661Y623337D01*
X448790Y620937D02*
X448741Y620889D01*
X448690Y620842D01*
X448636Y620799D01*
X448580Y620758D01*
X448523Y620720D01*
X448463Y620685D01*
X448402Y620653D01*
X448339Y620624D01*
X448275Y620599D01*
X448210Y620576D01*
X448144Y620557D01*
X448076Y620542D01*
X448008Y620530D01*
X447940Y620521D01*
X447871Y620516D01*
X447802Y620514D01*
X448790Y620938D02*
X451612Y623336D01*
X451612Y620514D01*
X426212Y632799D02*
X421132Y634492D01*
X421132Y631105D02*
X426212Y632799D01*
X424236Y627863D02*
X424236Y626593D01*
X424236Y627863D02*
X424238Y627925D01*
X424244Y627987D01*
X424254Y628048D01*
X424267Y628109D01*
X424284Y628168D01*
X424305Y628227D01*
X424330Y628284D01*
X424358Y628339D01*
X424390Y628392D01*
X424425Y628444D01*
X424463Y628493D01*
X424504Y628539D01*
X424548Y628583D01*
X424594Y628624D01*
X424643Y628662D01*
X424695Y628697D01*
X424748Y628729D01*
X424803Y628757D01*
X424860Y628782D01*
X424919Y628803D01*
X424978Y628820D01*
X425039Y628833D01*
X425100Y628843D01*
X425162Y628849D01*
X425224Y628851D01*
X425286Y628849D01*
X425348Y628843D01*
X425409Y628833D01*
X425470Y628820D01*
X425529Y628803D01*
X425588Y628782D01*
X425645Y628757D01*
X425700Y628729D01*
X425753Y628697D01*
X425805Y628662D01*
X425854Y628624D01*
X425900Y628583D01*
X425944Y628539D01*
X425985Y628493D01*
X426023Y628444D01*
X426058Y628392D01*
X426090Y628339D01*
X426118Y628284D01*
X426143Y628227D01*
X426164Y628168D01*
X426181Y628109D01*
X426194Y628048D01*
X426204Y627987D01*
X426210Y627925D01*
X426212Y627863D01*
X426212Y626593D01*
X423672Y626593D01*
X423672Y626592D02*
X423617Y626594D01*
X423561Y626599D01*
X423507Y626608D01*
X423453Y626621D01*
X423400Y626637D01*
X423348Y626656D01*
X423297Y626679D01*
X423249Y626705D01*
X423201Y626735D01*
X423156Y626767D01*
X423114Y626802D01*
X423073Y626840D01*
X423035Y626881D01*
X423000Y626923D01*
X422968Y626968D01*
X422938Y627016D01*
X422912Y627064D01*
X422889Y627115D01*
X422870Y627167D01*
X422854Y627220D01*
X422841Y627274D01*
X422832Y627328D01*
X422827Y627384D01*
X422825Y627439D01*
X422825Y628568D01*
X421132Y623858D02*
X425365Y623858D01*
X425420Y623856D01*
X425476Y623851D01*
X425530Y623842D01*
X425584Y623829D01*
X425637Y623813D01*
X425689Y623794D01*
X425740Y623771D01*
X425789Y623745D01*
X425836Y623715D01*
X425881Y623683D01*
X425923Y623648D01*
X425964Y623610D01*
X426002Y623569D01*
X426037Y623527D01*
X426069Y623482D01*
X426099Y623435D01*
X426125Y623386D01*
X426148Y623335D01*
X426167Y623283D01*
X426183Y623230D01*
X426196Y623176D01*
X426205Y623122D01*
X426210Y623066D01*
X426212Y623011D01*
X426212Y619997D02*
X422825Y621126D01*
X422825Y618868D02*
X426212Y619997D01*
X426212Y615707D02*
X426212Y614296D01*
X426212Y615707D02*
X426210Y615762D01*
X426205Y615818D01*
X426196Y615872D01*
X426183Y615926D01*
X426167Y615979D01*
X426148Y616031D01*
X426125Y616082D01*
X426099Y616131D01*
X426069Y616178D01*
X426037Y616223D01*
X426002Y616265D01*
X425964Y616306D01*
X425923Y616344D01*
X425881Y616379D01*
X425836Y616411D01*
X425789Y616441D01*
X425740Y616467D01*
X425689Y616490D01*
X425637Y616509D01*
X425584Y616525D01*
X425530Y616538D01*
X425476Y616547D01*
X425420Y616552D01*
X425365Y616554D01*
X423954Y616554D01*
X423888Y616552D01*
X423823Y616546D01*
X423758Y616537D01*
X423694Y616524D01*
X423630Y616507D01*
X423568Y616486D01*
X423507Y616462D01*
X423447Y616434D01*
X423390Y616403D01*
X423334Y616368D01*
X423280Y616331D01*
X423228Y616290D01*
X423179Y616246D01*
X423133Y616200D01*
X423089Y616151D01*
X423048Y616099D01*
X423011Y616045D01*
X422976Y615990D01*
X422945Y615932D01*
X422917Y615872D01*
X422893Y615811D01*
X422872Y615749D01*
X422855Y615685D01*
X422842Y615621D01*
X422833Y615556D01*
X422827Y615491D01*
X422825Y615425D01*
X422827Y615359D01*
X422833Y615294D01*
X422842Y615229D01*
X422855Y615165D01*
X422872Y615101D01*
X422893Y615039D01*
X422917Y614978D01*
X422945Y614918D01*
X422976Y614861D01*
X423011Y614805D01*
X423048Y614751D01*
X423089Y614699D01*
X423133Y614650D01*
X423179Y614604D01*
X423228Y614560D01*
X423280Y614519D01*
X423334Y614482D01*
X423390Y614447D01*
X423447Y614416D01*
X423507Y614388D01*
X423568Y614364D01*
X423630Y614343D01*
X423694Y614326D01*
X423758Y614313D01*
X423823Y614304D01*
X423888Y614298D01*
X423954Y614296D01*
X424519Y614296D01*
X424519Y616554D01*
X424236Y611632D02*
X424236Y608246D01*
X390652Y632799D02*
X385572Y634492D01*
X385572Y631105D02*
X390652Y632799D01*
X388676Y627863D02*
X388676Y626593D01*
X388676Y627863D02*
X388678Y627925D01*
X388684Y627987D01*
X388694Y628048D01*
X388707Y628109D01*
X388724Y628168D01*
X388745Y628227D01*
X388770Y628284D01*
X388798Y628339D01*
X388830Y628392D01*
X388865Y628444D01*
X388903Y628493D01*
X388944Y628539D01*
X388988Y628583D01*
X389034Y628624D01*
X389083Y628662D01*
X389135Y628697D01*
X389188Y628729D01*
X389243Y628757D01*
X389300Y628782D01*
X389359Y628803D01*
X389418Y628820D01*
X389479Y628833D01*
X389540Y628843D01*
X389602Y628849D01*
X389664Y628851D01*
X389726Y628849D01*
X389788Y628843D01*
X389849Y628833D01*
X389910Y628820D01*
X389969Y628803D01*
X390028Y628782D01*
X390085Y628757D01*
X390140Y628729D01*
X390193Y628697D01*
X390245Y628662D01*
X390294Y628624D01*
X390340Y628583D01*
X390384Y628539D01*
X390425Y628493D01*
X390463Y628444D01*
X390498Y628392D01*
X390530Y628339D01*
X390558Y628284D01*
X390583Y628227D01*
X390604Y628168D01*
X390621Y628109D01*
X390634Y628048D01*
X390644Y627987D01*
X390650Y627925D01*
X390652Y627863D01*
X390652Y626593D01*
X388112Y626593D01*
X388112Y626592D02*
X388057Y626594D01*
X388001Y626599D01*
X387947Y626608D01*
X387893Y626621D01*
X387840Y626637D01*
X387788Y626656D01*
X387737Y626679D01*
X387689Y626705D01*
X387641Y626735D01*
X387596Y626767D01*
X387554Y626802D01*
X387513Y626840D01*
X387475Y626881D01*
X387440Y626923D01*
X387408Y626968D01*
X387378Y627016D01*
X387352Y627064D01*
X387329Y627115D01*
X387310Y627167D01*
X387294Y627220D01*
X387281Y627274D01*
X387272Y627328D01*
X387267Y627384D01*
X387265Y627439D01*
X387265Y628568D01*
X385572Y623858D02*
X389805Y623858D01*
X389860Y623856D01*
X389916Y623851D01*
X389970Y623842D01*
X390024Y623829D01*
X390077Y623813D01*
X390129Y623794D01*
X390180Y623771D01*
X390229Y623745D01*
X390276Y623715D01*
X390321Y623683D01*
X390363Y623648D01*
X390404Y623610D01*
X390442Y623569D01*
X390477Y623527D01*
X390509Y623482D01*
X390539Y623435D01*
X390565Y623386D01*
X390588Y623335D01*
X390607Y623283D01*
X390623Y623230D01*
X390636Y623176D01*
X390645Y623122D01*
X390650Y623066D01*
X390652Y623011D01*
X390652Y619997D02*
X387265Y621126D01*
X387265Y618868D02*
X390652Y619997D01*
X390652Y615707D02*
X390652Y614296D01*
X390652Y615707D02*
X390650Y615762D01*
X390645Y615818D01*
X390636Y615872D01*
X390623Y615926D01*
X390607Y615979D01*
X390588Y616031D01*
X390565Y616082D01*
X390539Y616131D01*
X390509Y616178D01*
X390477Y616223D01*
X390442Y616265D01*
X390404Y616306D01*
X390363Y616344D01*
X390321Y616379D01*
X390276Y616411D01*
X390229Y616441D01*
X390180Y616467D01*
X390129Y616490D01*
X390077Y616509D01*
X390024Y616525D01*
X389970Y616538D01*
X389916Y616547D01*
X389860Y616552D01*
X389805Y616554D01*
X388394Y616554D01*
X388328Y616552D01*
X388263Y616546D01*
X388198Y616537D01*
X388134Y616524D01*
X388070Y616507D01*
X388008Y616486D01*
X387947Y616462D01*
X387887Y616434D01*
X387830Y616403D01*
X387774Y616368D01*
X387720Y616331D01*
X387668Y616290D01*
X387619Y616246D01*
X387573Y616200D01*
X387529Y616151D01*
X387488Y616099D01*
X387451Y616045D01*
X387416Y615990D01*
X387385Y615932D01*
X387357Y615872D01*
X387333Y615811D01*
X387312Y615749D01*
X387295Y615685D01*
X387282Y615621D01*
X387273Y615556D01*
X387267Y615491D01*
X387265Y615425D01*
X387267Y615359D01*
X387273Y615294D01*
X387282Y615229D01*
X387295Y615165D01*
X387312Y615101D01*
X387333Y615039D01*
X387357Y614978D01*
X387385Y614918D01*
X387416Y614861D01*
X387451Y614805D01*
X387488Y614751D01*
X387529Y614699D01*
X387573Y614650D01*
X387619Y614604D01*
X387668Y614560D01*
X387720Y614519D01*
X387774Y614482D01*
X387830Y614447D01*
X387887Y614416D01*
X387947Y614388D01*
X388008Y614364D01*
X388070Y614343D01*
X388134Y614326D01*
X388198Y614313D01*
X388263Y614304D01*
X388328Y614298D01*
X388394Y614296D01*
X388959Y614296D01*
X388959Y616554D01*
X388676Y611632D02*
X388676Y608246D01*
X390370Y609939D02*
X386983Y609939D01*
X365252Y633363D02*
X360172Y634492D01*
X361865Y632234D02*
X365252Y633363D01*
X365252Y631105D02*
X361865Y632234D01*
X360172Y629976D02*
X365252Y631105D01*
X365252Y627662D02*
X361865Y627662D01*
X360454Y627803D02*
X360172Y627803D01*
X360172Y627521D01*
X360454Y627521D01*
X360454Y627803D01*
X361865Y625090D02*
X366945Y625090D01*
X361865Y625090D02*
X361865Y623679D01*
X361867Y623624D01*
X361872Y623568D01*
X361881Y623514D01*
X361894Y623460D01*
X361910Y623407D01*
X361929Y623355D01*
X361952Y623304D01*
X361978Y623256D01*
X362008Y623208D01*
X362040Y623163D01*
X362075Y623121D01*
X362113Y623080D01*
X362154Y623042D01*
X362196Y623007D01*
X362241Y622975D01*
X362289Y622945D01*
X362337Y622919D01*
X362388Y622896D01*
X362440Y622877D01*
X362493Y622861D01*
X362547Y622848D01*
X362601Y622839D01*
X362657Y622834D01*
X362712Y622832D01*
X364405Y622832D01*
X364460Y622834D01*
X364516Y622839D01*
X364570Y622848D01*
X364624Y622861D01*
X364677Y622877D01*
X364729Y622896D01*
X364780Y622919D01*
X364829Y622945D01*
X364876Y622975D01*
X364921Y623007D01*
X364963Y623042D01*
X365004Y623080D01*
X365042Y623121D01*
X365077Y623163D01*
X365109Y623208D01*
X365139Y623256D01*
X365165Y623304D01*
X365188Y623355D01*
X365207Y623407D01*
X365223Y623460D01*
X365236Y623514D01*
X365245Y623568D01*
X365250Y623624D01*
X365252Y623679D01*
X365252Y625090D01*
X365252Y619532D02*
X365252Y618121D01*
X365252Y619532D02*
X365250Y619587D01*
X365245Y619643D01*
X365236Y619697D01*
X365223Y619751D01*
X365207Y619804D01*
X365188Y619856D01*
X365165Y619907D01*
X365139Y619956D01*
X365109Y620003D01*
X365077Y620048D01*
X365042Y620090D01*
X365004Y620131D01*
X364963Y620169D01*
X364921Y620204D01*
X364876Y620236D01*
X364829Y620266D01*
X364780Y620292D01*
X364729Y620315D01*
X364677Y620334D01*
X364624Y620350D01*
X364570Y620363D01*
X364516Y620372D01*
X364460Y620377D01*
X364405Y620379D01*
X362994Y620379D01*
X362928Y620377D01*
X362863Y620371D01*
X362798Y620362D01*
X362734Y620349D01*
X362670Y620332D01*
X362608Y620311D01*
X362547Y620287D01*
X362487Y620259D01*
X362430Y620228D01*
X362374Y620193D01*
X362320Y620156D01*
X362268Y620115D01*
X362219Y620071D01*
X362173Y620025D01*
X362129Y619976D01*
X362088Y619924D01*
X362051Y619870D01*
X362016Y619815D01*
X361985Y619757D01*
X361957Y619697D01*
X361933Y619636D01*
X361912Y619574D01*
X361895Y619510D01*
X361882Y619446D01*
X361873Y619381D01*
X361867Y619316D01*
X361865Y619250D01*
X361867Y619184D01*
X361873Y619119D01*
X361882Y619054D01*
X361895Y618990D01*
X361912Y618926D01*
X361933Y618864D01*
X361957Y618803D01*
X361985Y618743D01*
X362016Y618686D01*
X362051Y618630D01*
X362088Y618576D01*
X362129Y618524D01*
X362173Y618475D01*
X362219Y618429D01*
X362268Y618385D01*
X362320Y618344D01*
X362374Y618307D01*
X362430Y618272D01*
X362487Y618241D01*
X362547Y618213D01*
X362608Y618189D01*
X362670Y618168D01*
X362734Y618151D01*
X362798Y618138D01*
X362863Y618129D01*
X362928Y618123D01*
X362994Y618121D01*
X363559Y618121D01*
X363559Y620379D01*
X365252Y615392D02*
X361865Y615392D01*
X361865Y613699D01*
X362430Y613699D01*
X337030Y633081D02*
X337030Y634492D01*
X337030Y633081D02*
X337032Y633007D01*
X337038Y632934D01*
X337047Y632860D01*
X337061Y632788D01*
X337078Y632716D01*
X337099Y632645D01*
X337124Y632575D01*
X337152Y632507D01*
X337184Y632440D01*
X337219Y632376D01*
X337258Y632313D01*
X337299Y632252D01*
X337344Y632193D01*
X337392Y632137D01*
X337443Y632083D01*
X337497Y632032D01*
X337553Y631984D01*
X337612Y631939D01*
X337673Y631898D01*
X337736Y631859D01*
X337800Y631824D01*
X337867Y631792D01*
X337935Y631764D01*
X338005Y631739D01*
X338076Y631718D01*
X338148Y631701D01*
X338220Y631687D01*
X338294Y631678D01*
X338367Y631672D01*
X338441Y631670D01*
X338515Y631672D01*
X338588Y631678D01*
X338662Y631687D01*
X338734Y631701D01*
X338806Y631718D01*
X338877Y631739D01*
X338947Y631764D01*
X339015Y631792D01*
X339082Y631824D01*
X339147Y631859D01*
X339209Y631898D01*
X339270Y631939D01*
X339329Y631984D01*
X339385Y632032D01*
X339439Y632083D01*
X339490Y632137D01*
X339538Y632193D01*
X339583Y632252D01*
X339624Y632313D01*
X339663Y632376D01*
X339698Y632440D01*
X339730Y632507D01*
X339758Y632575D01*
X339783Y632645D01*
X339804Y632716D01*
X339821Y632788D01*
X339835Y632860D01*
X339844Y632934D01*
X339850Y633007D01*
X339852Y633081D01*
X339852Y634492D01*
X334772Y634492D01*
X334772Y633081D01*
X334774Y633015D01*
X334780Y632950D01*
X334789Y632885D01*
X334802Y632821D01*
X334819Y632757D01*
X334840Y632695D01*
X334864Y632634D01*
X334892Y632574D01*
X334923Y632517D01*
X334958Y632461D01*
X334995Y632407D01*
X335036Y632355D01*
X335080Y632306D01*
X335126Y632260D01*
X335175Y632216D01*
X335227Y632175D01*
X335281Y632138D01*
X335337Y632103D01*
X335394Y632072D01*
X335454Y632044D01*
X335515Y632020D01*
X335577Y631999D01*
X335641Y631982D01*
X335705Y631969D01*
X335770Y631960D01*
X335835Y631954D01*
X335901Y631952D01*
X335967Y631954D01*
X336032Y631960D01*
X336097Y631969D01*
X336161Y631982D01*
X336225Y631999D01*
X336287Y632020D01*
X336348Y632044D01*
X336408Y632072D01*
X336466Y632103D01*
X336521Y632138D01*
X336575Y632175D01*
X336627Y632216D01*
X336676Y632260D01*
X336722Y632306D01*
X336766Y632355D01*
X336807Y632407D01*
X336844Y632461D01*
X336879Y632517D01*
X336910Y632574D01*
X336938Y632634D01*
X336962Y632695D01*
X336983Y632757D01*
X337000Y632821D01*
X337013Y632885D01*
X337022Y632950D01*
X337028Y633015D01*
X337030Y633081D01*
X339852Y628210D02*
X339852Y627081D01*
X339852Y628210D02*
X339850Y628276D01*
X339844Y628341D01*
X339835Y628406D01*
X339822Y628470D01*
X339805Y628534D01*
X339784Y628596D01*
X339760Y628657D01*
X339732Y628717D01*
X339701Y628775D01*
X339666Y628830D01*
X339629Y628884D01*
X339588Y628936D01*
X339544Y628985D01*
X339498Y629031D01*
X339449Y629075D01*
X339397Y629116D01*
X339343Y629153D01*
X339288Y629188D01*
X339230Y629219D01*
X339170Y629247D01*
X339109Y629271D01*
X339047Y629292D01*
X338983Y629309D01*
X338919Y629322D01*
X338854Y629331D01*
X338789Y629337D01*
X338723Y629339D01*
X338723Y629338D02*
X335901Y629338D01*
X335835Y629336D01*
X335770Y629330D01*
X335705Y629321D01*
X335641Y629308D01*
X335577Y629291D01*
X335515Y629270D01*
X335454Y629246D01*
X335394Y629218D01*
X335337Y629187D01*
X335281Y629152D01*
X335227Y629115D01*
X335175Y629074D01*
X335126Y629030D01*
X335080Y628984D01*
X335036Y628935D01*
X334995Y628883D01*
X334958Y628829D01*
X334923Y628774D01*
X334892Y628716D01*
X334864Y628656D01*
X334840Y628595D01*
X334819Y628533D01*
X334802Y628469D01*
X334789Y628405D01*
X334780Y628340D01*
X334774Y628275D01*
X334772Y628209D01*
X334772Y628210D02*
X334772Y627081D01*
X334772Y624559D02*
X338441Y624559D01*
X338515Y624557D01*
X338588Y624551D01*
X338662Y624542D01*
X338734Y624528D01*
X338806Y624511D01*
X338877Y624490D01*
X338947Y624465D01*
X339015Y624437D01*
X339082Y624405D01*
X339147Y624370D01*
X339209Y624331D01*
X339270Y624290D01*
X339329Y624245D01*
X339385Y624197D01*
X339439Y624146D01*
X339490Y624092D01*
X339538Y624036D01*
X339583Y623977D01*
X339624Y623916D01*
X339663Y623854D01*
X339698Y623789D01*
X339730Y623722D01*
X339758Y623654D01*
X339783Y623584D01*
X339804Y623513D01*
X339821Y623441D01*
X339835Y623369D01*
X339844Y623295D01*
X339850Y623222D01*
X339852Y623148D01*
X339850Y623074D01*
X339844Y623001D01*
X339835Y622927D01*
X339821Y622855D01*
X339804Y622783D01*
X339783Y622712D01*
X339758Y622642D01*
X339730Y622574D01*
X339698Y622507D01*
X339663Y622443D01*
X339624Y622380D01*
X339583Y622319D01*
X339538Y622260D01*
X339490Y622204D01*
X339439Y622150D01*
X339385Y622099D01*
X339329Y622051D01*
X339270Y622006D01*
X339209Y621965D01*
X339147Y621926D01*
X339082Y621891D01*
X339015Y621859D01*
X338947Y621831D01*
X338877Y621806D01*
X338806Y621785D01*
X338734Y621768D01*
X338662Y621754D01*
X338588Y621745D01*
X338515Y621739D01*
X338441Y621737D01*
X334772Y621737D01*
X337876Y618806D02*
X337876Y615420D01*
X311630Y633081D02*
X311630Y634492D01*
X311630Y633081D02*
X311632Y633007D01*
X311638Y632934D01*
X311647Y632860D01*
X311661Y632788D01*
X311678Y632716D01*
X311699Y632645D01*
X311724Y632575D01*
X311752Y632507D01*
X311784Y632440D01*
X311819Y632376D01*
X311858Y632313D01*
X311899Y632252D01*
X311944Y632193D01*
X311992Y632137D01*
X312043Y632083D01*
X312097Y632032D01*
X312153Y631984D01*
X312212Y631939D01*
X312273Y631898D01*
X312336Y631859D01*
X312400Y631824D01*
X312467Y631792D01*
X312535Y631764D01*
X312605Y631739D01*
X312676Y631718D01*
X312748Y631701D01*
X312820Y631687D01*
X312894Y631678D01*
X312967Y631672D01*
X313041Y631670D01*
X313115Y631672D01*
X313188Y631678D01*
X313262Y631687D01*
X313334Y631701D01*
X313406Y631718D01*
X313477Y631739D01*
X313547Y631764D01*
X313615Y631792D01*
X313682Y631824D01*
X313747Y631859D01*
X313809Y631898D01*
X313870Y631939D01*
X313929Y631984D01*
X313985Y632032D01*
X314039Y632083D01*
X314090Y632137D01*
X314138Y632193D01*
X314183Y632252D01*
X314224Y632313D01*
X314263Y632376D01*
X314298Y632440D01*
X314330Y632507D01*
X314358Y632575D01*
X314383Y632645D01*
X314404Y632716D01*
X314421Y632788D01*
X314435Y632860D01*
X314444Y632934D01*
X314450Y633007D01*
X314452Y633081D01*
X314452Y634492D01*
X309372Y634492D01*
X309372Y633081D01*
X309374Y633015D01*
X309380Y632950D01*
X309389Y632885D01*
X309402Y632821D01*
X309419Y632757D01*
X309440Y632695D01*
X309464Y632634D01*
X309492Y632574D01*
X309523Y632517D01*
X309558Y632461D01*
X309595Y632407D01*
X309636Y632355D01*
X309680Y632306D01*
X309726Y632260D01*
X309775Y632216D01*
X309827Y632175D01*
X309881Y632138D01*
X309937Y632103D01*
X309994Y632072D01*
X310054Y632044D01*
X310115Y632020D01*
X310177Y631999D01*
X310241Y631982D01*
X310305Y631969D01*
X310370Y631960D01*
X310435Y631954D01*
X310501Y631952D01*
X310567Y631954D01*
X310632Y631960D01*
X310697Y631969D01*
X310761Y631982D01*
X310825Y631999D01*
X310887Y632020D01*
X310948Y632044D01*
X311008Y632072D01*
X311066Y632103D01*
X311121Y632138D01*
X311175Y632175D01*
X311227Y632216D01*
X311276Y632260D01*
X311322Y632306D01*
X311366Y632355D01*
X311407Y632407D01*
X311444Y632461D01*
X311479Y632517D01*
X311510Y632574D01*
X311538Y632634D01*
X311562Y632695D01*
X311583Y632757D01*
X311600Y632821D01*
X311613Y632885D01*
X311622Y632950D01*
X311628Y633015D01*
X311630Y633081D01*
X314452Y628210D02*
X314452Y627081D01*
X314452Y628210D02*
X314450Y628276D01*
X314444Y628341D01*
X314435Y628406D01*
X314422Y628470D01*
X314405Y628534D01*
X314384Y628596D01*
X314360Y628657D01*
X314332Y628717D01*
X314301Y628775D01*
X314266Y628830D01*
X314229Y628884D01*
X314188Y628936D01*
X314144Y628985D01*
X314098Y629031D01*
X314049Y629075D01*
X313997Y629116D01*
X313943Y629153D01*
X313888Y629188D01*
X313830Y629219D01*
X313770Y629247D01*
X313709Y629271D01*
X313647Y629292D01*
X313583Y629309D01*
X313519Y629322D01*
X313454Y629331D01*
X313389Y629337D01*
X313323Y629339D01*
X313323Y629338D02*
X310501Y629338D01*
X310435Y629336D01*
X310370Y629330D01*
X310305Y629321D01*
X310241Y629308D01*
X310177Y629291D01*
X310115Y629270D01*
X310054Y629246D01*
X309994Y629218D01*
X309937Y629187D01*
X309881Y629152D01*
X309827Y629115D01*
X309775Y629074D01*
X309726Y629030D01*
X309680Y628984D01*
X309636Y628935D01*
X309595Y628883D01*
X309558Y628829D01*
X309523Y628774D01*
X309492Y628716D01*
X309464Y628656D01*
X309440Y628595D01*
X309419Y628533D01*
X309402Y628469D01*
X309389Y628405D01*
X309380Y628340D01*
X309374Y628275D01*
X309372Y628209D01*
X309372Y628210D02*
X309372Y627081D01*
X309372Y624559D02*
X313041Y624559D01*
X313115Y624557D01*
X313188Y624551D01*
X313262Y624542D01*
X313334Y624528D01*
X313406Y624511D01*
X313477Y624490D01*
X313547Y624465D01*
X313615Y624437D01*
X313682Y624405D01*
X313747Y624370D01*
X313809Y624331D01*
X313870Y624290D01*
X313929Y624245D01*
X313985Y624197D01*
X314039Y624146D01*
X314090Y624092D01*
X314138Y624036D01*
X314183Y623977D01*
X314224Y623916D01*
X314263Y623854D01*
X314298Y623789D01*
X314330Y623722D01*
X314358Y623654D01*
X314383Y623584D01*
X314404Y623513D01*
X314421Y623441D01*
X314435Y623369D01*
X314444Y623295D01*
X314450Y623222D01*
X314452Y623148D01*
X314450Y623074D01*
X314444Y623001D01*
X314435Y622927D01*
X314421Y622855D01*
X314404Y622783D01*
X314383Y622712D01*
X314358Y622642D01*
X314330Y622574D01*
X314298Y622507D01*
X314263Y622443D01*
X314224Y622380D01*
X314183Y622319D01*
X314138Y622260D01*
X314090Y622204D01*
X314039Y622150D01*
X313985Y622099D01*
X313929Y622051D01*
X313870Y622006D01*
X313809Y621965D01*
X313747Y621926D01*
X313682Y621891D01*
X313615Y621859D01*
X313547Y621831D01*
X313477Y621806D01*
X313406Y621785D01*
X313334Y621768D01*
X313262Y621754D01*
X313188Y621745D01*
X313115Y621739D01*
X313041Y621737D01*
X309372Y621737D01*
X312476Y618806D02*
X312476Y615420D01*
X314170Y617113D02*
X310783Y617113D01*
X289052Y633081D02*
X289052Y634492D01*
X289052Y633081D02*
X289050Y633007D01*
X289044Y632934D01*
X289035Y632860D01*
X289021Y632788D01*
X289004Y632716D01*
X288983Y632645D01*
X288958Y632575D01*
X288930Y632507D01*
X288898Y632440D01*
X288863Y632376D01*
X288824Y632313D01*
X288783Y632252D01*
X288738Y632193D01*
X288690Y632137D01*
X288639Y632083D01*
X288585Y632032D01*
X288529Y631984D01*
X288470Y631939D01*
X288409Y631898D01*
X288347Y631859D01*
X288282Y631824D01*
X288215Y631792D01*
X288147Y631764D01*
X288077Y631739D01*
X288006Y631718D01*
X287934Y631701D01*
X287862Y631687D01*
X287788Y631678D01*
X287715Y631672D01*
X287641Y631670D01*
X287567Y631672D01*
X287494Y631678D01*
X287420Y631687D01*
X287348Y631701D01*
X287276Y631718D01*
X287205Y631739D01*
X287135Y631764D01*
X287067Y631792D01*
X287000Y631824D01*
X286936Y631859D01*
X286873Y631898D01*
X286812Y631939D01*
X286753Y631984D01*
X286697Y632032D01*
X286643Y632083D01*
X286592Y632137D01*
X286544Y632193D01*
X286499Y632252D01*
X286458Y632313D01*
X286419Y632376D01*
X286384Y632440D01*
X286352Y632507D01*
X286324Y632575D01*
X286299Y632645D01*
X286278Y632716D01*
X286261Y632788D01*
X286247Y632860D01*
X286238Y632934D01*
X286232Y633007D01*
X286230Y633081D01*
X283972Y632799D02*
X283972Y634492D01*
X283972Y632799D02*
X283974Y632733D01*
X283980Y632668D01*
X283989Y632603D01*
X284002Y632539D01*
X284019Y632475D01*
X284040Y632413D01*
X284064Y632352D01*
X284092Y632292D01*
X284123Y632235D01*
X284158Y632179D01*
X284195Y632125D01*
X284236Y632073D01*
X284280Y632024D01*
X284326Y631978D01*
X284375Y631934D01*
X284427Y631893D01*
X284481Y631856D01*
X284537Y631821D01*
X284594Y631790D01*
X284654Y631762D01*
X284715Y631738D01*
X284777Y631717D01*
X284841Y631700D01*
X284905Y631687D01*
X284970Y631678D01*
X285035Y631672D01*
X285101Y631670D01*
X285167Y631672D01*
X285232Y631678D01*
X285297Y631687D01*
X285361Y631700D01*
X285425Y631717D01*
X285487Y631738D01*
X285548Y631762D01*
X285608Y631790D01*
X285666Y631821D01*
X285721Y631856D01*
X285775Y631893D01*
X285827Y631934D01*
X285876Y631978D01*
X285922Y632024D01*
X285966Y632073D01*
X286007Y632125D01*
X286044Y632179D01*
X286079Y632235D01*
X286110Y632292D01*
X286138Y632352D01*
X286162Y632413D01*
X286183Y632475D01*
X286200Y632539D01*
X286213Y632603D01*
X286222Y632668D01*
X286228Y632733D01*
X286230Y632799D01*
X286230Y633928D01*
X283972Y629288D02*
X289052Y627595D01*
X283972Y625901D01*
X289052Y623519D02*
X289052Y622108D01*
X289050Y622034D01*
X289044Y621961D01*
X289035Y621887D01*
X289021Y621815D01*
X289004Y621743D01*
X288983Y621672D01*
X288958Y621602D01*
X288930Y621534D01*
X288898Y621467D01*
X288863Y621403D01*
X288824Y621340D01*
X288783Y621279D01*
X288738Y621220D01*
X288690Y621164D01*
X288639Y621110D01*
X288585Y621059D01*
X288529Y621011D01*
X288470Y620966D01*
X288409Y620925D01*
X288347Y620886D01*
X288282Y620851D01*
X288215Y620819D01*
X288147Y620791D01*
X288077Y620766D01*
X288006Y620745D01*
X287934Y620728D01*
X287862Y620714D01*
X287788Y620705D01*
X287715Y620699D01*
X287641Y620697D01*
X287567Y620699D01*
X287494Y620705D01*
X287420Y620714D01*
X287348Y620728D01*
X287276Y620745D01*
X287205Y620766D01*
X287135Y620791D01*
X287067Y620819D01*
X287000Y620851D01*
X286936Y620886D01*
X286873Y620925D01*
X286812Y620966D01*
X286753Y621011D01*
X286697Y621059D01*
X286643Y621110D01*
X286592Y621164D01*
X286544Y621220D01*
X286499Y621279D01*
X286458Y621340D01*
X286419Y621403D01*
X286384Y621467D01*
X286352Y621534D01*
X286324Y621602D01*
X286299Y621672D01*
X286278Y621743D01*
X286261Y621815D01*
X286247Y621887D01*
X286238Y621961D01*
X286232Y622034D01*
X286230Y622108D01*
X283972Y621826D02*
X283972Y623519D01*
X283972Y621826D02*
X283974Y621760D01*
X283980Y621695D01*
X283989Y621630D01*
X284002Y621566D01*
X284019Y621502D01*
X284040Y621440D01*
X284064Y621379D01*
X284092Y621319D01*
X284123Y621262D01*
X284158Y621206D01*
X284195Y621152D01*
X284236Y621100D01*
X284280Y621051D01*
X284326Y621005D01*
X284375Y620961D01*
X284427Y620920D01*
X284481Y620883D01*
X284537Y620848D01*
X284594Y620817D01*
X284654Y620789D01*
X284715Y620765D01*
X284777Y620744D01*
X284841Y620727D01*
X284905Y620714D01*
X284970Y620705D01*
X285035Y620699D01*
X285101Y620697D01*
X285167Y620699D01*
X285232Y620705D01*
X285297Y620714D01*
X285361Y620727D01*
X285425Y620744D01*
X285487Y620765D01*
X285548Y620789D01*
X285608Y620817D01*
X285666Y620848D01*
X285721Y620883D01*
X285775Y620920D01*
X285827Y620961D01*
X285876Y621005D01*
X285922Y621051D01*
X285966Y621100D01*
X286007Y621152D01*
X286044Y621206D01*
X286079Y621262D01*
X286110Y621319D01*
X286138Y621379D01*
X286162Y621440D01*
X286183Y621502D01*
X286200Y621566D01*
X286213Y621630D01*
X286222Y621695D01*
X286228Y621760D01*
X286230Y621826D01*
X286230Y622955D01*
X260830Y631670D02*
X260830Y632516D01*
X260830Y631670D02*
X263652Y631670D01*
X263652Y633363D01*
X263650Y633429D01*
X263644Y633494D01*
X263635Y633559D01*
X263622Y633623D01*
X263605Y633687D01*
X263584Y633749D01*
X263560Y633810D01*
X263532Y633870D01*
X263501Y633928D01*
X263466Y633983D01*
X263429Y634037D01*
X263388Y634089D01*
X263344Y634138D01*
X263298Y634184D01*
X263249Y634228D01*
X263197Y634269D01*
X263143Y634306D01*
X263088Y634341D01*
X263030Y634372D01*
X262970Y634400D01*
X262909Y634424D01*
X262847Y634445D01*
X262783Y634462D01*
X262719Y634475D01*
X262654Y634484D01*
X262589Y634490D01*
X262523Y634492D01*
X259701Y634492D01*
X259635Y634490D01*
X259570Y634484D01*
X259505Y634475D01*
X259441Y634462D01*
X259377Y634445D01*
X259315Y634424D01*
X259254Y634400D01*
X259194Y634372D01*
X259137Y634341D01*
X259081Y634306D01*
X259027Y634269D01*
X258975Y634228D01*
X258926Y634184D01*
X258880Y634138D01*
X258836Y634089D01*
X258795Y634037D01*
X258758Y633983D01*
X258723Y633928D01*
X258692Y633870D01*
X258664Y633810D01*
X258640Y633749D01*
X258619Y633687D01*
X258602Y633623D01*
X258589Y633559D01*
X258580Y633494D01*
X258574Y633429D01*
X258572Y633363D01*
X258572Y631670D01*
X258572Y628640D02*
X263652Y628640D01*
X263652Y625818D02*
X258572Y628640D01*
X258572Y625818D02*
X263652Y625818D01*
X263652Y622788D02*
X258572Y622788D01*
X258572Y621377D01*
X258574Y621303D01*
X258580Y621230D01*
X258589Y621156D01*
X258603Y621084D01*
X258620Y621012D01*
X258641Y620941D01*
X258666Y620871D01*
X258694Y620803D01*
X258726Y620736D01*
X258761Y620672D01*
X258800Y620609D01*
X258841Y620548D01*
X258886Y620489D01*
X258934Y620433D01*
X258985Y620379D01*
X259039Y620328D01*
X259095Y620280D01*
X259154Y620235D01*
X259215Y620194D01*
X259278Y620155D01*
X259342Y620120D01*
X259409Y620088D01*
X259477Y620060D01*
X259547Y620035D01*
X259618Y620014D01*
X259690Y619997D01*
X259762Y619983D01*
X259836Y619974D01*
X259909Y619968D01*
X259983Y619966D01*
X259983Y619965D02*
X262241Y619965D01*
X262241Y619966D02*
X262315Y619968D01*
X262388Y619974D01*
X262462Y619983D01*
X262534Y619997D01*
X262606Y620014D01*
X262677Y620035D01*
X262747Y620060D01*
X262815Y620088D01*
X262882Y620120D01*
X262947Y620155D01*
X263009Y620194D01*
X263070Y620235D01*
X263129Y620280D01*
X263185Y620328D01*
X263239Y620379D01*
X263290Y620433D01*
X263338Y620489D01*
X263383Y620548D01*
X263424Y620609D01*
X263463Y620672D01*
X263498Y620736D01*
X263530Y620803D01*
X263558Y620871D01*
X263583Y620941D01*
X263604Y621012D01*
X263621Y621084D01*
X263635Y621156D01*
X263644Y621230D01*
X263650Y621303D01*
X263652Y621377D01*
X263652Y622788D01*
X238252Y633928D02*
X233172Y633928D01*
X238252Y634492D02*
X238252Y633363D01*
X233172Y633363D02*
X233172Y634492D01*
X233172Y630683D02*
X238252Y630683D01*
X235994Y628990D02*
X233172Y630683D01*
X235994Y628990D02*
X233172Y627297D01*
X238252Y627297D01*
X236841Y624183D02*
X233172Y624183D01*
X236841Y624183D02*
X236915Y624181D01*
X236988Y624175D01*
X237062Y624166D01*
X237134Y624152D01*
X237206Y624135D01*
X237277Y624114D01*
X237347Y624089D01*
X237415Y624061D01*
X237482Y624029D01*
X237546Y623994D01*
X237609Y623955D01*
X237670Y623914D01*
X237729Y623869D01*
X237785Y623821D01*
X237839Y623770D01*
X237890Y623716D01*
X237938Y623660D01*
X237983Y623601D01*
X238024Y623540D01*
X238063Y623478D01*
X238098Y623413D01*
X238130Y623346D01*
X238158Y623278D01*
X238183Y623208D01*
X238204Y623137D01*
X238221Y623065D01*
X238235Y622993D01*
X238244Y622919D01*
X238250Y622846D01*
X238252Y622772D01*
X238250Y622698D01*
X238244Y622625D01*
X238235Y622551D01*
X238221Y622479D01*
X238204Y622407D01*
X238183Y622336D01*
X238158Y622266D01*
X238130Y622198D01*
X238098Y622131D01*
X238063Y622067D01*
X238024Y622004D01*
X237983Y621943D01*
X237938Y621884D01*
X237890Y621828D01*
X237839Y621774D01*
X237785Y621723D01*
X237729Y621675D01*
X237670Y621630D01*
X237609Y621589D01*
X237547Y621550D01*
X237482Y621515D01*
X237415Y621483D01*
X237347Y621455D01*
X237277Y621430D01*
X237206Y621409D01*
X237134Y621392D01*
X237062Y621378D01*
X236988Y621369D01*
X236915Y621363D01*
X236841Y621361D01*
X233172Y621361D01*
X238252Y614077D02*
X238250Y614011D01*
X238244Y613946D01*
X238235Y613881D01*
X238222Y613817D01*
X238205Y613753D01*
X238184Y613691D01*
X238160Y613630D01*
X238132Y613570D01*
X238101Y613513D01*
X238066Y613457D01*
X238029Y613403D01*
X237988Y613351D01*
X237944Y613302D01*
X237898Y613256D01*
X237849Y613212D01*
X237797Y613171D01*
X237743Y613134D01*
X237688Y613099D01*
X237630Y613068D01*
X237570Y613040D01*
X237509Y613016D01*
X237447Y612995D01*
X237383Y612978D01*
X237319Y612965D01*
X237254Y612956D01*
X237189Y612950D01*
X237123Y612948D01*
X238252Y614077D02*
X238250Y614171D01*
X238245Y614265D01*
X238235Y614359D01*
X238222Y614452D01*
X238206Y614545D01*
X238185Y614637D01*
X238162Y614728D01*
X238134Y614818D01*
X238103Y614907D01*
X238069Y614994D01*
X238031Y615080D01*
X237989Y615165D01*
X237945Y615248D01*
X237897Y615329D01*
X237846Y615408D01*
X237792Y615485D01*
X237735Y615560D01*
X237675Y615633D01*
X237612Y615703D01*
X237546Y615770D01*
X234301Y615630D02*
X234235Y615628D01*
X234170Y615622D01*
X234105Y615613D01*
X234041Y615600D01*
X233977Y615583D01*
X233915Y615562D01*
X233854Y615538D01*
X233794Y615510D01*
X233737Y615479D01*
X233681Y615444D01*
X233627Y615407D01*
X233575Y615366D01*
X233526Y615322D01*
X233480Y615276D01*
X233436Y615227D01*
X233395Y615175D01*
X233358Y615121D01*
X233323Y615066D01*
X233292Y615008D01*
X233264Y614948D01*
X233240Y614887D01*
X233219Y614825D01*
X233202Y614761D01*
X233189Y614697D01*
X233180Y614632D01*
X233174Y614567D01*
X233172Y614501D01*
X233174Y614410D01*
X233180Y614320D01*
X233189Y614229D01*
X233203Y614140D01*
X233220Y614051D01*
X233242Y613962D01*
X233267Y613875D01*
X233295Y613789D01*
X233328Y613704D01*
X233364Y613621D01*
X233403Y613539D01*
X233446Y613459D01*
X233493Y613381D01*
X233542Y613305D01*
X233595Y613231D01*
X235289Y615065D02*
X235254Y615121D01*
X235216Y615175D01*
X235174Y615227D01*
X235130Y615276D01*
X235083Y615322D01*
X235033Y615366D01*
X234981Y615407D01*
X234927Y615444D01*
X234870Y615479D01*
X234812Y615510D01*
X234752Y615538D01*
X234690Y615562D01*
X234627Y615583D01*
X234563Y615600D01*
X234499Y615613D01*
X234433Y615622D01*
X234367Y615628D01*
X234301Y615630D01*
X236135Y613513D02*
X236170Y613457D01*
X236208Y613403D01*
X236250Y613351D01*
X236294Y613302D01*
X236341Y613256D01*
X236391Y613212D01*
X236443Y613171D01*
X236497Y613134D01*
X236554Y613099D01*
X236612Y613068D01*
X236672Y613040D01*
X236734Y613016D01*
X236797Y612995D01*
X236861Y612978D01*
X236925Y612965D01*
X236991Y612956D01*
X237057Y612950D01*
X237123Y612948D01*
X236135Y613513D02*
X235289Y615065D01*
X233172Y610284D02*
X238252Y610284D01*
X233172Y610284D02*
X233172Y608873D01*
X233174Y608799D01*
X233180Y608726D01*
X233189Y608652D01*
X233203Y608580D01*
X233220Y608508D01*
X233241Y608437D01*
X233266Y608367D01*
X233294Y608299D01*
X233326Y608232D01*
X233361Y608168D01*
X233400Y608105D01*
X233441Y608044D01*
X233486Y607985D01*
X233534Y607929D01*
X233585Y607875D01*
X233639Y607824D01*
X233695Y607776D01*
X233754Y607731D01*
X233815Y607690D01*
X233878Y607651D01*
X233942Y607616D01*
X234009Y607584D01*
X234077Y607556D01*
X234147Y607531D01*
X234218Y607510D01*
X234290Y607493D01*
X234362Y607479D01*
X234436Y607470D01*
X234509Y607464D01*
X234583Y607462D01*
X236841Y607462D01*
X236915Y607464D01*
X236988Y607470D01*
X237062Y607479D01*
X237134Y607493D01*
X237206Y607510D01*
X237277Y607531D01*
X237347Y607556D01*
X237415Y607584D01*
X237482Y607616D01*
X237547Y607651D01*
X237609Y607690D01*
X237670Y607731D01*
X237729Y607776D01*
X237785Y607824D01*
X237839Y607875D01*
X237890Y607929D01*
X237938Y607985D01*
X237983Y608044D01*
X238024Y608105D01*
X238063Y608168D01*
X238098Y608232D01*
X238130Y608299D01*
X238158Y608367D01*
X238183Y608437D01*
X238204Y608508D01*
X238221Y608580D01*
X238235Y608652D01*
X238244Y608726D01*
X238250Y608799D01*
X238252Y608873D01*
X238252Y610284D01*
X238252Y604897D02*
X233172Y603204D01*
X238252Y601511D01*
X236982Y601934D02*
X236982Y604474D01*
X212852Y633928D02*
X207772Y633928D01*
X212852Y634492D02*
X212852Y633363D01*
X207772Y633363D02*
X207772Y634492D01*
X207772Y630683D02*
X212852Y630683D01*
X210594Y628990D02*
X207772Y630683D01*
X210594Y628990D02*
X207772Y627297D01*
X212852Y627297D01*
X211441Y624183D02*
X207772Y624183D01*
X211441Y624183D02*
X211515Y624181D01*
X211588Y624175D01*
X211662Y624166D01*
X211734Y624152D01*
X211806Y624135D01*
X211877Y624114D01*
X211947Y624089D01*
X212015Y624061D01*
X212082Y624029D01*
X212146Y623994D01*
X212209Y623955D01*
X212270Y623914D01*
X212329Y623869D01*
X212385Y623821D01*
X212439Y623770D01*
X212490Y623716D01*
X212538Y623660D01*
X212583Y623601D01*
X212624Y623540D01*
X212663Y623478D01*
X212698Y623413D01*
X212730Y623346D01*
X212758Y623278D01*
X212783Y623208D01*
X212804Y623137D01*
X212821Y623065D01*
X212835Y622993D01*
X212844Y622919D01*
X212850Y622846D01*
X212852Y622772D01*
X212850Y622698D01*
X212844Y622625D01*
X212835Y622551D01*
X212821Y622479D01*
X212804Y622407D01*
X212783Y622336D01*
X212758Y622266D01*
X212730Y622198D01*
X212698Y622131D01*
X212663Y622067D01*
X212624Y622004D01*
X212583Y621943D01*
X212538Y621884D01*
X212490Y621828D01*
X212439Y621774D01*
X212385Y621723D01*
X212329Y621675D01*
X212270Y621630D01*
X212209Y621589D01*
X212147Y621550D01*
X212082Y621515D01*
X212015Y621483D01*
X211947Y621455D01*
X211877Y621430D01*
X211806Y621409D01*
X211734Y621392D01*
X211662Y621378D01*
X211588Y621369D01*
X211515Y621363D01*
X211441Y621361D01*
X207772Y621361D01*
X212852Y614077D02*
X212850Y614011D01*
X212844Y613946D01*
X212835Y613881D01*
X212822Y613817D01*
X212805Y613753D01*
X212784Y613691D01*
X212760Y613630D01*
X212732Y613570D01*
X212701Y613513D01*
X212666Y613457D01*
X212629Y613403D01*
X212588Y613351D01*
X212544Y613302D01*
X212498Y613256D01*
X212449Y613212D01*
X212397Y613171D01*
X212343Y613134D01*
X212288Y613099D01*
X212230Y613068D01*
X212170Y613040D01*
X212109Y613016D01*
X212047Y612995D01*
X211983Y612978D01*
X211919Y612965D01*
X211854Y612956D01*
X211789Y612950D01*
X211723Y612948D01*
X212852Y614077D02*
X212850Y614171D01*
X212845Y614265D01*
X212835Y614359D01*
X212822Y614452D01*
X212806Y614545D01*
X212785Y614637D01*
X212762Y614728D01*
X212734Y614818D01*
X212703Y614907D01*
X212669Y614994D01*
X212631Y615080D01*
X212589Y615165D01*
X212545Y615248D01*
X212497Y615329D01*
X212446Y615408D01*
X212392Y615485D01*
X212335Y615560D01*
X212275Y615633D01*
X212212Y615703D01*
X212146Y615770D01*
X208901Y615630D02*
X208835Y615628D01*
X208770Y615622D01*
X208705Y615613D01*
X208641Y615600D01*
X208577Y615583D01*
X208515Y615562D01*
X208454Y615538D01*
X208394Y615510D01*
X208337Y615479D01*
X208281Y615444D01*
X208227Y615407D01*
X208175Y615366D01*
X208126Y615322D01*
X208080Y615276D01*
X208036Y615227D01*
X207995Y615175D01*
X207958Y615121D01*
X207923Y615066D01*
X207892Y615008D01*
X207864Y614948D01*
X207840Y614887D01*
X207819Y614825D01*
X207802Y614761D01*
X207789Y614697D01*
X207780Y614632D01*
X207774Y614567D01*
X207772Y614501D01*
X207774Y614410D01*
X207780Y614320D01*
X207789Y614229D01*
X207803Y614140D01*
X207820Y614051D01*
X207842Y613962D01*
X207867Y613875D01*
X207895Y613789D01*
X207928Y613704D01*
X207964Y613621D01*
X208003Y613539D01*
X208046Y613459D01*
X208093Y613381D01*
X208142Y613305D01*
X208195Y613231D01*
X209889Y615065D02*
X209854Y615121D01*
X209816Y615175D01*
X209774Y615227D01*
X209730Y615276D01*
X209683Y615322D01*
X209633Y615366D01*
X209581Y615407D01*
X209527Y615444D01*
X209470Y615479D01*
X209412Y615510D01*
X209352Y615538D01*
X209290Y615562D01*
X209227Y615583D01*
X209163Y615600D01*
X209099Y615613D01*
X209033Y615622D01*
X208967Y615628D01*
X208901Y615630D01*
X210735Y613513D02*
X210770Y613457D01*
X210808Y613403D01*
X210850Y613351D01*
X210894Y613302D01*
X210941Y613256D01*
X210991Y613212D01*
X211043Y613171D01*
X211097Y613134D01*
X211154Y613099D01*
X211212Y613068D01*
X211272Y613040D01*
X211334Y613016D01*
X211397Y612995D01*
X211461Y612978D01*
X211525Y612965D01*
X211591Y612956D01*
X211657Y612950D01*
X211723Y612948D01*
X210735Y613513D02*
X209889Y615065D01*
X212852Y609363D02*
X212852Y608234D01*
X212852Y609363D02*
X212850Y609429D01*
X212844Y609494D01*
X212835Y609559D01*
X212822Y609623D01*
X212805Y609687D01*
X212784Y609749D01*
X212760Y609810D01*
X212732Y609870D01*
X212701Y609928D01*
X212666Y609983D01*
X212629Y610037D01*
X212588Y610089D01*
X212544Y610138D01*
X212498Y610184D01*
X212449Y610228D01*
X212397Y610269D01*
X212343Y610306D01*
X212288Y610341D01*
X212230Y610372D01*
X212170Y610400D01*
X212109Y610424D01*
X212047Y610445D01*
X211983Y610462D01*
X211919Y610475D01*
X211854Y610484D01*
X211789Y610490D01*
X211723Y610492D01*
X208901Y610492D01*
X208835Y610490D01*
X208770Y610484D01*
X208705Y610475D01*
X208641Y610462D01*
X208577Y610445D01*
X208515Y610424D01*
X208454Y610400D01*
X208394Y610372D01*
X208337Y610341D01*
X208281Y610306D01*
X208227Y610269D01*
X208175Y610228D01*
X208126Y610184D01*
X208080Y610138D01*
X208036Y610089D01*
X207995Y610037D01*
X207958Y609983D01*
X207923Y609928D01*
X207892Y609870D01*
X207864Y609810D01*
X207840Y609749D01*
X207819Y609687D01*
X207802Y609623D01*
X207789Y609559D01*
X207780Y609494D01*
X207774Y609429D01*
X207772Y609363D01*
X207772Y608234D01*
X207772Y605696D02*
X212852Y605696D01*
X212852Y603438D01*
D11*
X201930Y215646D02*
X306070Y215646D01*
X306070Y114554D01*
X201930Y114554D01*
X201930Y215646D01*
X212344Y222504D02*
X212344Y229108D01*
X225044Y229108D02*
X225044Y222504D01*
X237744Y222504D02*
X237744Y229108D01*
X250444Y229108D02*
X250444Y222504D01*
X263144Y222504D02*
X263144Y229108D01*
X275844Y229108D02*
X275844Y222504D01*
X288544Y222504D02*
X288544Y229108D01*
X219456Y229108D02*
X219456Y222504D01*
X232156Y222504D02*
X232156Y229108D01*
X244856Y229108D02*
X244856Y222504D01*
X257556Y222504D02*
X257556Y229108D01*
X270256Y229108D02*
X270256Y222504D01*
X282956Y222504D02*
X282956Y229108D01*
X295656Y229108D02*
X295656Y222504D01*
D12*
X201387Y243473D02*
X201387Y247452D01*
X203708Y250437D01*
X201387Y247452D02*
X199065Y250437D01*
X201387Y247452D02*
X205034Y246126D01*
X201387Y247452D02*
X197739Y246126D01*
D13*
X249301Y111633D02*
X249301Y107823D01*
X249301Y111633D02*
X250994Y111633D01*
X252497Y111633D02*
X252497Y107823D01*
X253767Y109940D01*
X255037Y107823D01*
X255037Y111633D01*
X256610Y107823D02*
X258726Y107823D01*
X256610Y111633D01*
X258726Y111633D01*
X260145Y108670D02*
X261204Y107823D01*
X261204Y111633D01*
X262262Y111633D02*
X260145Y111633D01*
X295529Y282616D02*
X298323Y282616D01*
X298323Y283392D01*
X298321Y283447D01*
X298315Y283502D01*
X298305Y283557D01*
X298292Y283611D01*
X298274Y283663D01*
X298253Y283714D01*
X298228Y283764D01*
X298200Y283812D01*
X298168Y283857D01*
X298133Y283900D01*
X298096Y283941D01*
X298055Y283978D01*
X298012Y284013D01*
X297967Y284045D01*
X297919Y284073D01*
X297869Y284098D01*
X297818Y284119D01*
X297766Y284137D01*
X297712Y284150D01*
X297657Y284160D01*
X297602Y284166D01*
X297547Y284168D01*
X297492Y284166D01*
X297437Y284160D01*
X297382Y284150D01*
X297328Y284137D01*
X297276Y284119D01*
X297225Y284098D01*
X297175Y284073D01*
X297127Y284045D01*
X297082Y284013D01*
X297039Y283978D01*
X296998Y283941D01*
X296961Y283900D01*
X296926Y283857D01*
X296894Y283812D01*
X296866Y283764D01*
X296841Y283714D01*
X296820Y283663D01*
X296802Y283611D01*
X296789Y283557D01*
X296779Y283502D01*
X296773Y283447D01*
X296771Y283392D01*
X296771Y282616D01*
X296771Y283547D02*
X295529Y284168D01*
X297702Y285341D02*
X298323Y286117D01*
X295529Y286117D01*
X295529Y285341D02*
X295529Y286893D01*
X295529Y308016D02*
X298323Y308016D01*
X298323Y308792D01*
X298321Y308847D01*
X298315Y308902D01*
X298305Y308957D01*
X298292Y309011D01*
X298274Y309063D01*
X298253Y309114D01*
X298228Y309164D01*
X298200Y309212D01*
X298168Y309257D01*
X298133Y309300D01*
X298096Y309341D01*
X298055Y309378D01*
X298012Y309413D01*
X297967Y309445D01*
X297919Y309473D01*
X297869Y309498D01*
X297818Y309519D01*
X297766Y309537D01*
X297712Y309550D01*
X297657Y309560D01*
X297602Y309566D01*
X297547Y309568D01*
X297492Y309566D01*
X297437Y309560D01*
X297382Y309550D01*
X297328Y309537D01*
X297276Y309519D01*
X297225Y309498D01*
X297175Y309473D01*
X297127Y309445D01*
X297082Y309413D01*
X297039Y309378D01*
X296998Y309341D01*
X296961Y309300D01*
X296926Y309257D01*
X296894Y309212D01*
X296866Y309164D01*
X296841Y309114D01*
X296820Y309063D01*
X296802Y309011D01*
X296789Y308957D01*
X296779Y308902D01*
X296773Y308847D01*
X296771Y308792D01*
X296771Y308016D01*
X296771Y308947D02*
X295529Y309568D01*
X297625Y312294D02*
X297675Y312292D01*
X297724Y312287D01*
X297774Y312278D01*
X297822Y312266D01*
X297869Y312250D01*
X297915Y312231D01*
X297960Y312208D01*
X298003Y312183D01*
X298044Y312155D01*
X298083Y312123D01*
X298119Y312089D01*
X298153Y312053D01*
X298185Y312014D01*
X298213Y311973D01*
X298238Y311930D01*
X298261Y311885D01*
X298280Y311839D01*
X298296Y311792D01*
X298308Y311744D01*
X298317Y311694D01*
X298322Y311645D01*
X298324Y311595D01*
X298323Y311595D02*
X298321Y311539D01*
X298316Y311482D01*
X298307Y311427D01*
X298295Y311372D01*
X298279Y311318D01*
X298260Y311265D01*
X298238Y311213D01*
X298212Y311163D01*
X298183Y311114D01*
X298151Y311067D01*
X298117Y311023D01*
X298080Y310981D01*
X298040Y310941D01*
X297997Y310903D01*
X297953Y310869D01*
X297906Y310837D01*
X297858Y310809D01*
X297807Y310783D01*
X297755Y310761D01*
X297702Y310742D01*
X297082Y312060D02*
X297118Y312096D01*
X297156Y312129D01*
X297197Y312159D01*
X297240Y312186D01*
X297284Y312211D01*
X297330Y312232D01*
X297377Y312251D01*
X297425Y312266D01*
X297474Y312278D01*
X297524Y312286D01*
X297574Y312291D01*
X297625Y312293D01*
X297081Y312060D02*
X295529Y310741D01*
X295529Y312293D01*
X232283Y322199D02*
X232283Y325501D01*
X231366Y325501D01*
X231307Y325499D01*
X231249Y325493D01*
X231191Y325484D01*
X231133Y325471D01*
X231077Y325454D01*
X231022Y325434D01*
X230968Y325410D01*
X230916Y325383D01*
X230866Y325353D01*
X230818Y325319D01*
X230772Y325282D01*
X230728Y325243D01*
X230687Y325200D01*
X230649Y325156D01*
X230614Y325109D01*
X230582Y325059D01*
X230553Y325008D01*
X230527Y324955D01*
X230505Y324901D01*
X230487Y324845D01*
X230472Y324788D01*
X230461Y324730D01*
X230453Y324672D01*
X230449Y324613D01*
X230449Y324555D01*
X230453Y324496D01*
X230461Y324438D01*
X230472Y324380D01*
X230487Y324323D01*
X230505Y324267D01*
X230527Y324213D01*
X230553Y324160D01*
X230582Y324109D01*
X230614Y324059D01*
X230649Y324012D01*
X230687Y323968D01*
X230728Y323925D01*
X230772Y323886D01*
X230818Y323849D01*
X230866Y323815D01*
X230916Y323785D01*
X230968Y323758D01*
X231022Y323734D01*
X231077Y323714D01*
X231133Y323697D01*
X231191Y323684D01*
X231249Y323675D01*
X231307Y323669D01*
X231366Y323667D01*
X232283Y323667D01*
X231182Y323667D02*
X230449Y322199D01*
X229102Y322933D02*
X228368Y325501D01*
X229102Y322933D02*
X227268Y322933D01*
X227818Y323667D02*
X227818Y322199D01*
X208153Y322707D02*
X208153Y325501D01*
X207377Y325501D01*
X207322Y325499D01*
X207267Y325493D01*
X207212Y325483D01*
X207158Y325470D01*
X207106Y325452D01*
X207055Y325431D01*
X207005Y325406D01*
X206957Y325378D01*
X206912Y325346D01*
X206869Y325311D01*
X206828Y325274D01*
X206791Y325233D01*
X206756Y325190D01*
X206724Y325145D01*
X206696Y325097D01*
X206671Y325047D01*
X206650Y324996D01*
X206632Y324944D01*
X206619Y324890D01*
X206609Y324835D01*
X206603Y324780D01*
X206601Y324725D01*
X206603Y324670D01*
X206609Y324615D01*
X206619Y324560D01*
X206632Y324506D01*
X206650Y324454D01*
X206671Y324403D01*
X206696Y324353D01*
X206724Y324305D01*
X206756Y324260D01*
X206791Y324217D01*
X206828Y324176D01*
X206869Y324139D01*
X206912Y324104D01*
X206957Y324072D01*
X207005Y324044D01*
X207055Y324019D01*
X207106Y323998D01*
X207158Y323980D01*
X207212Y323967D01*
X207267Y323957D01*
X207322Y323951D01*
X207377Y323949D01*
X208153Y323949D01*
X207222Y323949D02*
X206601Y322707D01*
X205428Y322707D02*
X204652Y322707D01*
X204597Y322709D01*
X204542Y322715D01*
X204487Y322725D01*
X204433Y322738D01*
X204381Y322756D01*
X204330Y322777D01*
X204280Y322802D01*
X204232Y322830D01*
X204187Y322862D01*
X204144Y322897D01*
X204103Y322934D01*
X204066Y322975D01*
X204031Y323018D01*
X203999Y323063D01*
X203971Y323111D01*
X203946Y323161D01*
X203925Y323212D01*
X203907Y323264D01*
X203894Y323318D01*
X203884Y323373D01*
X203878Y323428D01*
X203876Y323483D01*
X203878Y323538D01*
X203884Y323593D01*
X203894Y323648D01*
X203907Y323702D01*
X203925Y323754D01*
X203946Y323805D01*
X203971Y323855D01*
X203999Y323903D01*
X204031Y323948D01*
X204066Y323991D01*
X204103Y324032D01*
X204144Y324069D01*
X204187Y324104D01*
X204232Y324136D01*
X204280Y324164D01*
X204330Y324189D01*
X204381Y324210D01*
X204433Y324228D01*
X204487Y324241D01*
X204542Y324251D01*
X204597Y324257D01*
X204652Y324259D01*
X204497Y325501D02*
X205428Y325501D01*
X204497Y325501D02*
X204448Y325499D01*
X204400Y325493D01*
X204352Y325484D01*
X204305Y325471D01*
X204259Y325454D01*
X204215Y325433D01*
X204173Y325409D01*
X204132Y325382D01*
X204094Y325352D01*
X204058Y325319D01*
X204025Y325283D01*
X203995Y325245D01*
X203968Y325204D01*
X203944Y325162D01*
X203923Y325118D01*
X203906Y325072D01*
X203893Y325025D01*
X203884Y324977D01*
X203878Y324929D01*
X203876Y324880D01*
X203878Y324831D01*
X203884Y324783D01*
X203893Y324735D01*
X203906Y324688D01*
X203923Y324642D01*
X203944Y324598D01*
X203968Y324556D01*
X203995Y324515D01*
X204025Y324477D01*
X204058Y324441D01*
X204094Y324408D01*
X204132Y324378D01*
X204173Y324351D01*
X204215Y324327D01*
X204259Y324306D01*
X204305Y324289D01*
X204352Y324276D01*
X204400Y324267D01*
X204448Y324261D01*
X204497Y324259D01*
X205117Y324259D01*
D11*
X201930Y456946D02*
X306070Y456946D01*
X306070Y355854D01*
X201930Y355854D01*
X201930Y456946D01*
X212344Y463804D02*
X212344Y470408D01*
X225044Y470408D02*
X225044Y463804D01*
X237744Y463804D02*
X237744Y470408D01*
X250444Y470408D02*
X250444Y463804D01*
X263144Y463804D02*
X263144Y470408D01*
X275844Y470408D02*
X275844Y463804D01*
X288544Y463804D02*
X288544Y470408D01*
X219456Y470408D02*
X219456Y463804D01*
X232156Y463804D02*
X232156Y470408D01*
X244856Y470408D02*
X244856Y463804D01*
X257556Y463804D02*
X257556Y470408D01*
X270256Y470408D02*
X270256Y463804D01*
X282956Y463804D02*
X282956Y470408D01*
X295656Y470408D02*
X295656Y463804D01*
D12*
X201387Y484773D02*
X201387Y488752D01*
X203708Y491737D01*
X201387Y488752D02*
X199065Y491737D01*
X201387Y488752D02*
X205034Y487426D01*
X201387Y488752D02*
X197739Y487426D01*
D13*
X249301Y352933D02*
X249301Y349123D01*
X249301Y352933D02*
X250994Y352933D01*
X252497Y352933D02*
X252497Y349123D01*
X253767Y351240D01*
X255037Y349123D01*
X255037Y352933D01*
X256610Y349123D02*
X258726Y349123D01*
X256610Y352933D01*
X258726Y352933D01*
X262263Y350076D02*
X262261Y350016D01*
X262255Y349957D01*
X262246Y349897D01*
X262233Y349839D01*
X262216Y349782D01*
X262196Y349725D01*
X262172Y349670D01*
X262145Y349617D01*
X262115Y349565D01*
X262081Y349516D01*
X262044Y349469D01*
X262005Y349424D01*
X261962Y349381D01*
X261917Y349342D01*
X261870Y349305D01*
X261821Y349271D01*
X261769Y349241D01*
X261716Y349214D01*
X261661Y349190D01*
X261604Y349170D01*
X261547Y349153D01*
X261489Y349140D01*
X261429Y349131D01*
X261370Y349125D01*
X261310Y349123D01*
X261243Y349125D01*
X261176Y349130D01*
X261110Y349139D01*
X261044Y349152D01*
X260980Y349168D01*
X260916Y349188D01*
X260853Y349212D01*
X260791Y349238D01*
X260732Y349268D01*
X260674Y349301D01*
X260617Y349338D01*
X260563Y349377D01*
X260511Y349419D01*
X260462Y349464D01*
X260415Y349512D01*
X260371Y349562D01*
X260329Y349615D01*
X260291Y349670D01*
X260255Y349726D01*
X260223Y349785D01*
X260194Y349845D01*
X260168Y349907D01*
X260146Y349970D01*
X261944Y350817D02*
X261986Y350775D01*
X262025Y350730D01*
X262062Y350684D01*
X262096Y350635D01*
X262126Y350585D01*
X262154Y350533D01*
X262179Y350479D01*
X262201Y350424D01*
X262220Y350368D01*
X262235Y350311D01*
X262247Y350253D01*
X262255Y350194D01*
X262260Y350135D01*
X262262Y350076D01*
X261945Y350816D02*
X260145Y352933D01*
X262262Y352933D01*
X265492Y513461D02*
X265492Y516763D01*
X264575Y516763D01*
X264516Y516761D01*
X264458Y516755D01*
X264400Y516746D01*
X264342Y516733D01*
X264286Y516716D01*
X264231Y516696D01*
X264177Y516672D01*
X264125Y516645D01*
X264075Y516615D01*
X264027Y516581D01*
X263981Y516544D01*
X263937Y516505D01*
X263896Y516462D01*
X263858Y516418D01*
X263823Y516371D01*
X263791Y516321D01*
X263762Y516270D01*
X263736Y516217D01*
X263714Y516163D01*
X263696Y516107D01*
X263681Y516050D01*
X263670Y515992D01*
X263662Y515934D01*
X263658Y515875D01*
X263658Y515817D01*
X263662Y515758D01*
X263670Y515700D01*
X263681Y515642D01*
X263696Y515585D01*
X263714Y515529D01*
X263736Y515475D01*
X263762Y515422D01*
X263791Y515371D01*
X263823Y515321D01*
X263858Y515274D01*
X263896Y515230D01*
X263937Y515187D01*
X263981Y515148D01*
X264027Y515111D01*
X264075Y515077D01*
X264125Y515047D01*
X264177Y515020D01*
X264231Y514996D01*
X264286Y514976D01*
X264342Y514959D01*
X264400Y514946D01*
X264458Y514937D01*
X264516Y514931D01*
X264575Y514929D01*
X265492Y514929D01*
X264392Y514929D02*
X263658Y513461D01*
X262311Y513461D02*
X261211Y513461D01*
X261159Y513463D01*
X261107Y513468D01*
X261055Y513478D01*
X261004Y513491D01*
X260955Y513507D01*
X260906Y513527D01*
X260859Y513551D01*
X260814Y513578D01*
X260771Y513607D01*
X260730Y513640D01*
X260692Y513676D01*
X260656Y513714D01*
X260623Y513755D01*
X260594Y513798D01*
X260567Y513843D01*
X260543Y513890D01*
X260523Y513938D01*
X260507Y513988D01*
X260494Y514039D01*
X260484Y514090D01*
X260479Y514143D01*
X260477Y514195D01*
X260477Y514562D01*
X260479Y514614D01*
X260484Y514666D01*
X260494Y514718D01*
X260507Y514769D01*
X260523Y514819D01*
X260543Y514867D01*
X260567Y514914D01*
X260594Y514959D01*
X260623Y515002D01*
X260656Y515043D01*
X260692Y515081D01*
X260730Y515117D01*
X260771Y515150D01*
X260814Y515179D01*
X260859Y515206D01*
X260906Y515230D01*
X260955Y515250D01*
X261004Y515266D01*
X261055Y515279D01*
X261107Y515289D01*
X261159Y515294D01*
X261211Y515296D01*
X261211Y515295D02*
X262311Y515295D01*
X262311Y516763D01*
X260477Y516763D01*
X265492Y566801D02*
X265492Y570103D01*
X264575Y570103D01*
X264516Y570101D01*
X264458Y570095D01*
X264400Y570086D01*
X264342Y570073D01*
X264286Y570056D01*
X264231Y570036D01*
X264177Y570012D01*
X264125Y569985D01*
X264075Y569955D01*
X264027Y569921D01*
X263981Y569884D01*
X263937Y569845D01*
X263896Y569802D01*
X263858Y569758D01*
X263823Y569711D01*
X263791Y569661D01*
X263762Y569610D01*
X263736Y569557D01*
X263714Y569503D01*
X263696Y569447D01*
X263681Y569390D01*
X263670Y569332D01*
X263662Y569274D01*
X263658Y569215D01*
X263658Y569157D01*
X263662Y569098D01*
X263670Y569040D01*
X263681Y568982D01*
X263696Y568925D01*
X263714Y568869D01*
X263736Y568815D01*
X263762Y568762D01*
X263791Y568711D01*
X263823Y568661D01*
X263858Y568614D01*
X263896Y568570D01*
X263937Y568527D01*
X263981Y568488D01*
X264027Y568451D01*
X264075Y568417D01*
X264125Y568387D01*
X264177Y568360D01*
X264231Y568336D01*
X264286Y568316D01*
X264342Y568299D01*
X264400Y568286D01*
X264458Y568277D01*
X264516Y568271D01*
X264575Y568269D01*
X265492Y568269D01*
X264392Y568269D02*
X263658Y566801D01*
X262311Y568635D02*
X261211Y568635D01*
X261211Y568636D02*
X261159Y568634D01*
X261107Y568629D01*
X261055Y568619D01*
X261004Y568606D01*
X260954Y568590D01*
X260906Y568570D01*
X260859Y568546D01*
X260814Y568519D01*
X260771Y568490D01*
X260730Y568457D01*
X260692Y568421D01*
X260656Y568383D01*
X260623Y568342D01*
X260594Y568299D01*
X260567Y568254D01*
X260543Y568207D01*
X260523Y568159D01*
X260507Y568109D01*
X260494Y568058D01*
X260484Y568006D01*
X260479Y567954D01*
X260477Y567902D01*
X260477Y567718D01*
X260479Y567659D01*
X260485Y567601D01*
X260494Y567543D01*
X260507Y567485D01*
X260524Y567429D01*
X260544Y567374D01*
X260568Y567320D01*
X260595Y567268D01*
X260625Y567218D01*
X260659Y567170D01*
X260696Y567124D01*
X260735Y567080D01*
X260778Y567039D01*
X260822Y567001D01*
X260869Y566966D01*
X260919Y566934D01*
X260970Y566905D01*
X261023Y566879D01*
X261077Y566857D01*
X261133Y566839D01*
X261190Y566824D01*
X261248Y566813D01*
X261306Y566805D01*
X261365Y566801D01*
X261423Y566801D01*
X261482Y566805D01*
X261540Y566813D01*
X261598Y566824D01*
X261655Y566839D01*
X261711Y566857D01*
X261765Y566879D01*
X261818Y566905D01*
X261869Y566934D01*
X261919Y566966D01*
X261966Y567001D01*
X262010Y567039D01*
X262053Y567080D01*
X262092Y567124D01*
X262129Y567170D01*
X262163Y567218D01*
X262193Y567268D01*
X262220Y567320D01*
X262244Y567374D01*
X262264Y567429D01*
X262281Y567485D01*
X262294Y567543D01*
X262303Y567601D01*
X262309Y567659D01*
X262311Y567718D01*
X262311Y568635D01*
X262312Y568635D02*
X262310Y568709D01*
X262304Y568784D01*
X262295Y568857D01*
X262282Y568930D01*
X262265Y569003D01*
X262245Y569074D01*
X262221Y569145D01*
X262193Y569214D01*
X262162Y569281D01*
X262128Y569347D01*
X262090Y569412D01*
X262049Y569474D01*
X262005Y569534D01*
X261958Y569591D01*
X261908Y569646D01*
X261855Y569699D01*
X261800Y569749D01*
X261743Y569796D01*
X261683Y569840D01*
X261621Y569881D01*
X261556Y569919D01*
X261491Y569953D01*
X261423Y569984D01*
X261354Y570012D01*
X261284Y570036D01*
X261212Y570056D01*
X261140Y570073D01*
X261066Y570086D01*
X260993Y570095D01*
X260918Y570101D01*
X260844Y570103D01*
X232472Y567563D02*
X232472Y564261D01*
X232472Y567563D02*
X231555Y567563D01*
X231496Y567561D01*
X231438Y567555D01*
X231380Y567546D01*
X231322Y567533D01*
X231266Y567516D01*
X231211Y567496D01*
X231157Y567472D01*
X231105Y567445D01*
X231055Y567415D01*
X231007Y567381D01*
X230961Y567344D01*
X230917Y567305D01*
X230876Y567262D01*
X230838Y567218D01*
X230803Y567171D01*
X230771Y567121D01*
X230742Y567070D01*
X230716Y567017D01*
X230694Y566963D01*
X230676Y566907D01*
X230661Y566850D01*
X230650Y566792D01*
X230642Y566734D01*
X230638Y566675D01*
X230638Y566617D01*
X230642Y566558D01*
X230650Y566500D01*
X230661Y566442D01*
X230676Y566385D01*
X230694Y566329D01*
X230716Y566275D01*
X230742Y566222D01*
X230771Y566171D01*
X230803Y566121D01*
X230838Y566074D01*
X230876Y566030D01*
X230917Y565987D01*
X230961Y565948D01*
X231007Y565911D01*
X231055Y565877D01*
X231105Y565847D01*
X231157Y565820D01*
X231211Y565796D01*
X231266Y565776D01*
X231322Y565759D01*
X231380Y565746D01*
X231438Y565737D01*
X231496Y565731D01*
X231555Y565729D01*
X232472Y565729D01*
X231372Y565729D02*
X230638Y564261D01*
X229291Y565178D02*
X229289Y565237D01*
X229283Y565295D01*
X229274Y565353D01*
X229261Y565411D01*
X229244Y565467D01*
X229224Y565522D01*
X229200Y565576D01*
X229173Y565628D01*
X229143Y565678D01*
X229109Y565726D01*
X229072Y565772D01*
X229033Y565816D01*
X228990Y565857D01*
X228946Y565895D01*
X228899Y565930D01*
X228849Y565962D01*
X228798Y565991D01*
X228745Y566017D01*
X228691Y566039D01*
X228635Y566057D01*
X228578Y566072D01*
X228520Y566083D01*
X228462Y566091D01*
X228403Y566095D01*
X228345Y566095D01*
X228286Y566091D01*
X228228Y566083D01*
X228170Y566072D01*
X228113Y566057D01*
X228057Y566039D01*
X228003Y566017D01*
X227950Y565991D01*
X227899Y565962D01*
X227849Y565930D01*
X227802Y565895D01*
X227758Y565857D01*
X227715Y565816D01*
X227676Y565772D01*
X227639Y565726D01*
X227605Y565678D01*
X227575Y565628D01*
X227548Y565576D01*
X227524Y565522D01*
X227504Y565467D01*
X227487Y565411D01*
X227474Y565353D01*
X227465Y565295D01*
X227459Y565237D01*
X227457Y565178D01*
X227459Y565119D01*
X227465Y565061D01*
X227474Y565003D01*
X227487Y564945D01*
X227504Y564889D01*
X227524Y564834D01*
X227548Y564780D01*
X227575Y564728D01*
X227605Y564678D01*
X227639Y564630D01*
X227676Y564584D01*
X227715Y564540D01*
X227758Y564499D01*
X227802Y564461D01*
X227849Y564426D01*
X227899Y564394D01*
X227950Y564365D01*
X228003Y564339D01*
X228057Y564317D01*
X228113Y564299D01*
X228170Y564284D01*
X228228Y564273D01*
X228286Y564265D01*
X228345Y564261D01*
X228403Y564261D01*
X228462Y564265D01*
X228520Y564273D01*
X228578Y564284D01*
X228635Y564299D01*
X228691Y564317D01*
X228745Y564339D01*
X228798Y564365D01*
X228849Y564394D01*
X228899Y564426D01*
X228946Y564461D01*
X228990Y564499D01*
X229033Y564540D01*
X229072Y564584D01*
X229109Y564630D01*
X229143Y564678D01*
X229173Y564728D01*
X229200Y564780D01*
X229224Y564834D01*
X229244Y564889D01*
X229261Y564945D01*
X229274Y565003D01*
X229283Y565061D01*
X229289Y565119D01*
X229291Y565178D01*
X229108Y566829D02*
X229106Y566881D01*
X229101Y566933D01*
X229091Y566985D01*
X229078Y567036D01*
X229062Y567086D01*
X229042Y567134D01*
X229018Y567181D01*
X228991Y567226D01*
X228962Y567269D01*
X228929Y567310D01*
X228893Y567348D01*
X228855Y567384D01*
X228814Y567417D01*
X228771Y567446D01*
X228726Y567473D01*
X228679Y567497D01*
X228631Y567517D01*
X228581Y567533D01*
X228530Y567546D01*
X228478Y567556D01*
X228426Y567561D01*
X228374Y567563D01*
X228322Y567561D01*
X228270Y567556D01*
X228218Y567546D01*
X228167Y567533D01*
X228117Y567517D01*
X228069Y567497D01*
X228022Y567473D01*
X227977Y567446D01*
X227934Y567417D01*
X227893Y567384D01*
X227855Y567348D01*
X227819Y567310D01*
X227786Y567269D01*
X227757Y567226D01*
X227730Y567181D01*
X227706Y567134D01*
X227686Y567086D01*
X227670Y567036D01*
X227657Y566985D01*
X227647Y566933D01*
X227642Y566881D01*
X227640Y566829D01*
X227642Y566777D01*
X227647Y566725D01*
X227657Y566673D01*
X227670Y566622D01*
X227686Y566572D01*
X227706Y566524D01*
X227730Y566477D01*
X227757Y566432D01*
X227786Y566389D01*
X227819Y566348D01*
X227855Y566310D01*
X227893Y566274D01*
X227934Y566241D01*
X227977Y566212D01*
X228022Y566185D01*
X228069Y566161D01*
X228117Y566141D01*
X228167Y566125D01*
X228218Y566112D01*
X228270Y566102D01*
X228322Y566097D01*
X228374Y566095D01*
X228426Y566097D01*
X228478Y566102D01*
X228530Y566112D01*
X228581Y566125D01*
X228631Y566141D01*
X228679Y566161D01*
X228726Y566185D01*
X228771Y566212D01*
X228814Y566241D01*
X228855Y566274D01*
X228893Y566310D01*
X228929Y566348D01*
X228962Y566389D01*
X228991Y566432D01*
X229018Y566477D01*
X229042Y566524D01*
X229062Y566572D01*
X229078Y566622D01*
X229091Y566673D01*
X229101Y566725D01*
X229106Y566777D01*
X229108Y566829D01*
X209612Y567563D02*
X209612Y564261D01*
X209612Y567563D02*
X208695Y567563D01*
X208636Y567561D01*
X208578Y567555D01*
X208520Y567546D01*
X208462Y567533D01*
X208406Y567516D01*
X208351Y567496D01*
X208297Y567472D01*
X208245Y567445D01*
X208195Y567415D01*
X208147Y567381D01*
X208101Y567344D01*
X208057Y567305D01*
X208016Y567262D01*
X207978Y567218D01*
X207943Y567171D01*
X207911Y567121D01*
X207882Y567070D01*
X207856Y567017D01*
X207834Y566963D01*
X207816Y566907D01*
X207801Y566850D01*
X207790Y566792D01*
X207782Y566734D01*
X207778Y566675D01*
X207778Y566617D01*
X207782Y566558D01*
X207790Y566500D01*
X207801Y566442D01*
X207816Y566385D01*
X207834Y566329D01*
X207856Y566275D01*
X207882Y566222D01*
X207911Y566171D01*
X207943Y566121D01*
X207978Y566074D01*
X208016Y566030D01*
X208057Y565987D01*
X208101Y565948D01*
X208147Y565911D01*
X208195Y565877D01*
X208245Y565847D01*
X208297Y565820D01*
X208351Y565796D01*
X208406Y565776D01*
X208462Y565759D01*
X208520Y565746D01*
X208578Y565737D01*
X208636Y565731D01*
X208695Y565729D01*
X209612Y565729D01*
X208512Y565729D02*
X207778Y564261D01*
X206431Y567196D02*
X206431Y567563D01*
X204597Y567563D01*
X205514Y564261D01*
D14*
X340783Y223774D02*
X342646Y223774D01*
X340783Y223774D02*
X340713Y223776D01*
X340644Y223782D01*
X340575Y223792D01*
X340507Y223805D01*
X340439Y223823D01*
X340373Y223844D01*
X340308Y223869D01*
X340244Y223897D01*
X340182Y223929D01*
X340122Y223964D01*
X340064Y224003D01*
X340009Y224045D01*
X339955Y224090D01*
X339905Y224138D01*
X339857Y224188D01*
X339812Y224242D01*
X339770Y224297D01*
X339731Y224355D01*
X339696Y224415D01*
X339664Y224477D01*
X339636Y224541D01*
X339611Y224606D01*
X339590Y224672D01*
X339572Y224740D01*
X339559Y224808D01*
X339549Y224877D01*
X339543Y224946D01*
X339541Y225016D01*
X339542Y225016D02*
X339542Y225637D01*
X339541Y225637D02*
X339543Y225707D01*
X339549Y225776D01*
X339559Y225845D01*
X339572Y225913D01*
X339590Y225981D01*
X339611Y226047D01*
X339636Y226112D01*
X339664Y226176D01*
X339696Y226238D01*
X339731Y226298D01*
X339770Y226356D01*
X339812Y226411D01*
X339857Y226465D01*
X339905Y226515D01*
X339955Y226563D01*
X340009Y226608D01*
X340064Y226650D01*
X340122Y226689D01*
X340182Y226724D01*
X340244Y226756D01*
X340308Y226784D01*
X340373Y226809D01*
X340439Y226830D01*
X340507Y226848D01*
X340575Y226861D01*
X340644Y226871D01*
X340713Y226877D01*
X340783Y226879D01*
X340783Y226878D02*
X342646Y226878D01*
X342646Y229362D01*
X339542Y229362D01*
X337470Y229362D02*
X335607Y223774D01*
X333745Y229362D01*
X344593Y572318D02*
X346456Y572318D01*
X344593Y572319D02*
X344523Y572317D01*
X344454Y572311D01*
X344385Y572301D01*
X344317Y572288D01*
X344249Y572270D01*
X344183Y572249D01*
X344118Y572224D01*
X344054Y572196D01*
X343992Y572164D01*
X343932Y572129D01*
X343874Y572090D01*
X343819Y572048D01*
X343765Y572003D01*
X343715Y571955D01*
X343667Y571905D01*
X343622Y571851D01*
X343580Y571796D01*
X343541Y571738D01*
X343506Y571678D01*
X343474Y571616D01*
X343446Y571552D01*
X343421Y571487D01*
X343400Y571421D01*
X343382Y571353D01*
X343369Y571285D01*
X343359Y571216D01*
X343353Y571147D01*
X343351Y571077D01*
X343352Y571077D02*
X343352Y570766D01*
X343354Y570689D01*
X343360Y570611D01*
X343369Y570535D01*
X343383Y570458D01*
X343400Y570383D01*
X343421Y570309D01*
X343446Y570235D01*
X343474Y570163D01*
X343506Y570093D01*
X343541Y570024D01*
X343580Y569957D01*
X343622Y569892D01*
X343667Y569829D01*
X343715Y569768D01*
X343766Y569710D01*
X343820Y569655D01*
X343877Y569602D01*
X343936Y569553D01*
X343998Y569506D01*
X344062Y569462D01*
X344128Y569422D01*
X344196Y569385D01*
X344266Y569351D01*
X344337Y569321D01*
X344410Y569295D01*
X344484Y569272D01*
X344559Y569253D01*
X344634Y569238D01*
X344711Y569226D01*
X344788Y569218D01*
X344865Y569214D01*
X344943Y569214D01*
X345020Y569218D01*
X345097Y569226D01*
X345174Y569238D01*
X345249Y569253D01*
X345324Y569272D01*
X345398Y569295D01*
X345471Y569321D01*
X345542Y569351D01*
X345612Y569385D01*
X345680Y569422D01*
X345746Y569462D01*
X345810Y569506D01*
X345872Y569553D01*
X345931Y569602D01*
X345988Y569655D01*
X346042Y569710D01*
X346093Y569768D01*
X346141Y569829D01*
X346186Y569892D01*
X346228Y569957D01*
X346267Y570024D01*
X346302Y570093D01*
X346334Y570163D01*
X346362Y570235D01*
X346387Y570309D01*
X346408Y570383D01*
X346425Y570458D01*
X346439Y570535D01*
X346448Y570611D01*
X346454Y570689D01*
X346456Y570766D01*
X346456Y572318D01*
X346454Y572416D01*
X346448Y572513D01*
X346439Y572610D01*
X346425Y572707D01*
X346408Y572803D01*
X346387Y572898D01*
X346363Y572992D01*
X346334Y573086D01*
X346302Y573178D01*
X346267Y573269D01*
X346228Y573358D01*
X346185Y573446D01*
X346139Y573532D01*
X346090Y573616D01*
X346037Y573698D01*
X345982Y573778D01*
X345923Y573856D01*
X345861Y573931D01*
X345796Y574004D01*
X345728Y574074D01*
X345658Y574142D01*
X345585Y574207D01*
X345510Y574269D01*
X345432Y574328D01*
X345352Y574383D01*
X345270Y574436D01*
X345186Y574485D01*
X345100Y574531D01*
X345012Y574574D01*
X344923Y574613D01*
X344832Y574648D01*
X344740Y574680D01*
X344646Y574709D01*
X344552Y574733D01*
X344457Y574754D01*
X344361Y574771D01*
X344264Y574785D01*
X344167Y574794D01*
X344070Y574800D01*
X343972Y574802D01*
X341280Y574802D02*
X339417Y569214D01*
X337555Y574802D01*
D13*
X297561Y267950D02*
X297561Y267216D01*
X297563Y267164D01*
X297568Y267112D01*
X297578Y267060D01*
X297591Y267009D01*
X297607Y266959D01*
X297627Y266911D01*
X297651Y266864D01*
X297678Y266819D01*
X297707Y266776D01*
X297740Y266735D01*
X297776Y266697D01*
X297814Y266661D01*
X297855Y266628D01*
X297898Y266599D01*
X297943Y266572D01*
X297990Y266548D01*
X298038Y266528D01*
X298088Y266512D01*
X298139Y266499D01*
X298191Y266489D01*
X298243Y266484D01*
X298295Y266482D01*
X300129Y266482D01*
X300181Y266484D01*
X300233Y266489D01*
X300285Y266499D01*
X300336Y266512D01*
X300386Y266528D01*
X300434Y266548D01*
X300481Y266572D01*
X300526Y266599D01*
X300569Y266628D01*
X300610Y266661D01*
X300648Y266697D01*
X300684Y266735D01*
X300717Y266776D01*
X300746Y266819D01*
X300773Y266864D01*
X300797Y266911D01*
X300817Y266959D01*
X300833Y267009D01*
X300846Y267060D01*
X300856Y267112D01*
X300861Y267164D01*
X300863Y267216D01*
X300863Y267950D01*
X300129Y269158D02*
X300863Y270075D01*
X297561Y270075D01*
X297561Y269158D02*
X297561Y270993D01*
X297561Y272359D02*
X297561Y273276D01*
X297563Y273335D01*
X297569Y273393D01*
X297578Y273451D01*
X297591Y273509D01*
X297608Y273565D01*
X297628Y273620D01*
X297652Y273674D01*
X297679Y273726D01*
X297709Y273776D01*
X297743Y273824D01*
X297780Y273870D01*
X297819Y273914D01*
X297862Y273955D01*
X297906Y273993D01*
X297953Y274028D01*
X298003Y274060D01*
X298054Y274089D01*
X298107Y274115D01*
X298161Y274137D01*
X298217Y274155D01*
X298274Y274170D01*
X298332Y274181D01*
X298390Y274189D01*
X298449Y274193D01*
X298507Y274193D01*
X298566Y274189D01*
X298624Y274181D01*
X298682Y274170D01*
X298739Y274155D01*
X298795Y274137D01*
X298849Y274115D01*
X298902Y274089D01*
X298953Y274060D01*
X299003Y274028D01*
X299050Y273993D01*
X299094Y273955D01*
X299137Y273914D01*
X299176Y273870D01*
X299213Y273824D01*
X299247Y273776D01*
X299277Y273726D01*
X299304Y273674D01*
X299328Y273620D01*
X299348Y273565D01*
X299365Y273509D01*
X299378Y273451D01*
X299387Y273393D01*
X299393Y273335D01*
X299395Y273276D01*
X300863Y273459D02*
X300863Y272359D01*
X300863Y273459D02*
X300861Y273511D01*
X300856Y273563D01*
X300846Y273615D01*
X300833Y273666D01*
X300817Y273716D01*
X300797Y273764D01*
X300773Y273811D01*
X300746Y273856D01*
X300717Y273899D01*
X300684Y273940D01*
X300648Y273978D01*
X300610Y274014D01*
X300569Y274047D01*
X300526Y274076D01*
X300481Y274103D01*
X300434Y274127D01*
X300386Y274147D01*
X300336Y274163D01*
X300285Y274176D01*
X300233Y274186D01*
X300181Y274191D01*
X300129Y274193D01*
X300077Y274191D01*
X300025Y274186D01*
X299973Y274176D01*
X299922Y274163D01*
X299872Y274147D01*
X299824Y274127D01*
X299777Y274103D01*
X299732Y274076D01*
X299689Y274047D01*
X299648Y274014D01*
X299610Y273978D01*
X299574Y273940D01*
X299541Y273899D01*
X299512Y273856D01*
X299485Y273811D01*
X299461Y273764D01*
X299441Y273716D01*
X299425Y273666D01*
X299412Y273615D01*
X299402Y273563D01*
X299397Y273511D01*
X299395Y273459D01*
X299395Y272725D01*
X320421Y267950D02*
X320421Y267216D01*
X320423Y267164D01*
X320428Y267112D01*
X320438Y267060D01*
X320451Y267009D01*
X320467Y266959D01*
X320487Y266911D01*
X320511Y266864D01*
X320538Y266819D01*
X320567Y266776D01*
X320600Y266735D01*
X320636Y266697D01*
X320674Y266661D01*
X320715Y266628D01*
X320758Y266599D01*
X320803Y266572D01*
X320850Y266548D01*
X320898Y266528D01*
X320948Y266512D01*
X320999Y266499D01*
X321051Y266489D01*
X321103Y266484D01*
X321155Y266482D01*
X322989Y266482D01*
X323041Y266484D01*
X323093Y266489D01*
X323145Y266499D01*
X323196Y266512D01*
X323246Y266528D01*
X323294Y266548D01*
X323341Y266572D01*
X323386Y266599D01*
X323429Y266628D01*
X323470Y266661D01*
X323508Y266697D01*
X323544Y266735D01*
X323577Y266776D01*
X323606Y266819D01*
X323633Y266864D01*
X323657Y266911D01*
X323677Y266959D01*
X323693Y267009D01*
X323706Y267060D01*
X323716Y267112D01*
X323721Y267164D01*
X323723Y267216D01*
X323723Y267950D01*
X322989Y269158D02*
X323723Y270075D01*
X320421Y270075D01*
X320421Y269158D02*
X320421Y270993D01*
X323356Y272359D02*
X323723Y272359D01*
X323723Y274193D01*
X320421Y273276D01*
X317042Y555879D02*
X316422Y555879D01*
X317042Y555879D02*
X317091Y555881D01*
X317139Y555887D01*
X317187Y555896D01*
X317234Y555909D01*
X317280Y555926D01*
X317324Y555947D01*
X317366Y555971D01*
X317407Y555998D01*
X317445Y556028D01*
X317481Y556061D01*
X317514Y556097D01*
X317544Y556135D01*
X317571Y556176D01*
X317595Y556218D01*
X317616Y556262D01*
X317633Y556308D01*
X317646Y556355D01*
X317655Y556403D01*
X317661Y556451D01*
X317663Y556500D01*
X317663Y558052D01*
X317661Y558101D01*
X317655Y558149D01*
X317646Y558197D01*
X317633Y558244D01*
X317616Y558290D01*
X317595Y558334D01*
X317571Y558376D01*
X317544Y558417D01*
X317514Y558455D01*
X317481Y558491D01*
X317445Y558524D01*
X317407Y558554D01*
X317366Y558581D01*
X317324Y558605D01*
X317280Y558626D01*
X317234Y558643D01*
X317187Y558656D01*
X317139Y558665D01*
X317091Y558671D01*
X317042Y558673D01*
X316422Y558673D01*
X314748Y558673D02*
X315369Y556500D01*
X313817Y556500D01*
X314283Y557121D02*
X314283Y555879D01*
X300129Y555117D02*
X299395Y555117D01*
X300129Y555117D02*
X300181Y555119D01*
X300233Y555124D01*
X300285Y555134D01*
X300336Y555147D01*
X300386Y555163D01*
X300434Y555183D01*
X300481Y555207D01*
X300526Y555234D01*
X300569Y555263D01*
X300610Y555296D01*
X300648Y555332D01*
X300684Y555370D01*
X300717Y555411D01*
X300746Y555454D01*
X300773Y555499D01*
X300797Y555546D01*
X300817Y555594D01*
X300833Y555644D01*
X300846Y555695D01*
X300856Y555747D01*
X300861Y555799D01*
X300863Y555851D01*
X300863Y557685D01*
X300861Y557737D01*
X300856Y557789D01*
X300846Y557841D01*
X300833Y557892D01*
X300817Y557942D01*
X300797Y557990D01*
X300773Y558037D01*
X300746Y558082D01*
X300717Y558125D01*
X300684Y558166D01*
X300648Y558204D01*
X300610Y558240D01*
X300569Y558273D01*
X300526Y558302D01*
X300481Y558329D01*
X300434Y558353D01*
X300386Y558373D01*
X300336Y558389D01*
X300285Y558402D01*
X300233Y558412D01*
X300181Y558417D01*
X300129Y558419D01*
X299395Y558419D01*
X298187Y557685D02*
X297270Y558419D01*
X297270Y555117D01*
X298187Y555117D02*
X296353Y555117D01*
X294987Y555851D02*
X294253Y558419D01*
X294987Y555851D02*
X293152Y555851D01*
X293703Y556585D02*
X293703Y555117D01*
X323525Y548767D02*
X324259Y548767D01*
X324311Y548769D01*
X324363Y548774D01*
X324415Y548784D01*
X324466Y548797D01*
X324516Y548813D01*
X324564Y548833D01*
X324611Y548857D01*
X324656Y548884D01*
X324699Y548913D01*
X324740Y548946D01*
X324778Y548982D01*
X324814Y549020D01*
X324847Y549061D01*
X324876Y549104D01*
X324903Y549149D01*
X324927Y549196D01*
X324947Y549244D01*
X324963Y549294D01*
X324976Y549345D01*
X324986Y549397D01*
X324991Y549449D01*
X324993Y549501D01*
X324993Y551335D01*
X324991Y551387D01*
X324986Y551439D01*
X324976Y551491D01*
X324963Y551542D01*
X324947Y551592D01*
X324927Y551640D01*
X324903Y551687D01*
X324876Y551732D01*
X324847Y551775D01*
X324814Y551816D01*
X324778Y551854D01*
X324740Y551890D01*
X324699Y551923D01*
X324656Y551952D01*
X324611Y551979D01*
X324564Y552003D01*
X324516Y552023D01*
X324466Y552039D01*
X324415Y552052D01*
X324363Y552062D01*
X324311Y552067D01*
X324259Y552069D01*
X323525Y552069D01*
X322317Y551335D02*
X321400Y552069D01*
X321400Y548767D01*
X322317Y548767D02*
X320483Y548767D01*
X319117Y549684D02*
X319115Y549743D01*
X319109Y549801D01*
X319100Y549859D01*
X319087Y549917D01*
X319070Y549973D01*
X319050Y550028D01*
X319026Y550082D01*
X318999Y550134D01*
X318969Y550184D01*
X318935Y550232D01*
X318898Y550278D01*
X318859Y550322D01*
X318816Y550363D01*
X318772Y550401D01*
X318725Y550436D01*
X318675Y550468D01*
X318624Y550497D01*
X318571Y550523D01*
X318517Y550545D01*
X318461Y550563D01*
X318404Y550578D01*
X318346Y550589D01*
X318288Y550597D01*
X318229Y550601D01*
X318171Y550601D01*
X318112Y550597D01*
X318054Y550589D01*
X317996Y550578D01*
X317939Y550563D01*
X317883Y550545D01*
X317829Y550523D01*
X317776Y550497D01*
X317725Y550468D01*
X317675Y550436D01*
X317628Y550401D01*
X317584Y550363D01*
X317541Y550322D01*
X317502Y550278D01*
X317465Y550232D01*
X317431Y550184D01*
X317401Y550134D01*
X317374Y550082D01*
X317350Y550028D01*
X317330Y549973D01*
X317313Y549917D01*
X317300Y549859D01*
X317291Y549801D01*
X317285Y549743D01*
X317283Y549684D01*
X317285Y549625D01*
X317291Y549567D01*
X317300Y549509D01*
X317313Y549451D01*
X317330Y549395D01*
X317350Y549340D01*
X317374Y549286D01*
X317401Y549234D01*
X317431Y549184D01*
X317465Y549136D01*
X317502Y549090D01*
X317541Y549046D01*
X317584Y549005D01*
X317628Y548967D01*
X317675Y548932D01*
X317725Y548900D01*
X317776Y548871D01*
X317829Y548845D01*
X317883Y548823D01*
X317939Y548805D01*
X317996Y548790D01*
X318054Y548779D01*
X318112Y548771D01*
X318171Y548767D01*
X318229Y548767D01*
X318288Y548771D01*
X318346Y548779D01*
X318404Y548790D01*
X318461Y548805D01*
X318517Y548823D01*
X318571Y548845D01*
X318624Y548871D01*
X318675Y548900D01*
X318725Y548932D01*
X318772Y548967D01*
X318816Y549005D01*
X318859Y549046D01*
X318898Y549090D01*
X318935Y549136D01*
X318969Y549184D01*
X318999Y549234D01*
X319026Y549286D01*
X319050Y549340D01*
X319070Y549395D01*
X319087Y549451D01*
X319100Y549509D01*
X319109Y549567D01*
X319115Y549625D01*
X319117Y549684D01*
X318934Y551335D02*
X318932Y551387D01*
X318927Y551439D01*
X318917Y551491D01*
X318904Y551542D01*
X318888Y551592D01*
X318868Y551640D01*
X318844Y551687D01*
X318817Y551732D01*
X318788Y551775D01*
X318755Y551816D01*
X318719Y551854D01*
X318681Y551890D01*
X318640Y551923D01*
X318597Y551952D01*
X318552Y551979D01*
X318505Y552003D01*
X318457Y552023D01*
X318407Y552039D01*
X318356Y552052D01*
X318304Y552062D01*
X318252Y552067D01*
X318200Y552069D01*
X318148Y552067D01*
X318096Y552062D01*
X318044Y552052D01*
X317993Y552039D01*
X317943Y552023D01*
X317895Y552003D01*
X317848Y551979D01*
X317803Y551952D01*
X317760Y551923D01*
X317719Y551890D01*
X317681Y551854D01*
X317645Y551816D01*
X317612Y551775D01*
X317583Y551732D01*
X317556Y551687D01*
X317532Y551640D01*
X317512Y551592D01*
X317496Y551542D01*
X317483Y551491D01*
X317473Y551439D01*
X317468Y551387D01*
X317466Y551335D01*
X317468Y551283D01*
X317473Y551231D01*
X317483Y551179D01*
X317496Y551128D01*
X317512Y551078D01*
X317532Y551030D01*
X317556Y550983D01*
X317583Y550938D01*
X317612Y550895D01*
X317645Y550854D01*
X317681Y550816D01*
X317719Y550780D01*
X317760Y550747D01*
X317803Y550718D01*
X317848Y550691D01*
X317895Y550667D01*
X317943Y550647D01*
X317993Y550631D01*
X318044Y550618D01*
X318096Y550608D01*
X318148Y550603D01*
X318200Y550601D01*
X318252Y550603D01*
X318304Y550608D01*
X318356Y550618D01*
X318407Y550631D01*
X318457Y550647D01*
X318505Y550667D01*
X318552Y550691D01*
X318597Y550718D01*
X318640Y550747D01*
X318681Y550780D01*
X318719Y550816D01*
X318755Y550854D01*
X318788Y550895D01*
X318817Y550938D01*
X318844Y550983D01*
X318868Y551030D01*
X318888Y551078D01*
X318904Y551128D01*
X318917Y551179D01*
X318927Y551231D01*
X318932Y551283D01*
X318934Y551335D01*
X502595Y284607D02*
X503329Y284607D01*
X503381Y284609D01*
X503433Y284614D01*
X503485Y284624D01*
X503536Y284637D01*
X503586Y284653D01*
X503634Y284673D01*
X503681Y284697D01*
X503726Y284724D01*
X503769Y284753D01*
X503810Y284786D01*
X503848Y284822D01*
X503884Y284860D01*
X503917Y284901D01*
X503946Y284944D01*
X503973Y284989D01*
X503997Y285036D01*
X504017Y285084D01*
X504033Y285134D01*
X504046Y285185D01*
X504056Y285237D01*
X504061Y285289D01*
X504063Y285341D01*
X504063Y287175D01*
X504061Y287227D01*
X504056Y287279D01*
X504046Y287331D01*
X504033Y287382D01*
X504017Y287432D01*
X503997Y287480D01*
X503973Y287527D01*
X503946Y287572D01*
X503917Y287615D01*
X503884Y287656D01*
X503848Y287694D01*
X503810Y287730D01*
X503769Y287763D01*
X503726Y287792D01*
X503681Y287819D01*
X503634Y287843D01*
X503586Y287863D01*
X503536Y287879D01*
X503485Y287892D01*
X503433Y287902D01*
X503381Y287907D01*
X503329Y287909D01*
X502595Y287909D01*
X501387Y287175D02*
X500470Y287909D01*
X500470Y284607D01*
X501387Y284607D02*
X499553Y284607D01*
X497453Y286075D02*
X496352Y286075D01*
X497453Y286074D02*
X497505Y286076D01*
X497557Y286081D01*
X497609Y286091D01*
X497660Y286104D01*
X497710Y286120D01*
X497758Y286140D01*
X497805Y286164D01*
X497850Y286191D01*
X497893Y286220D01*
X497934Y286253D01*
X497972Y286289D01*
X498008Y286327D01*
X498041Y286368D01*
X498070Y286411D01*
X498097Y286456D01*
X498121Y286503D01*
X498141Y286552D01*
X498157Y286601D01*
X498170Y286652D01*
X498180Y286704D01*
X498185Y286756D01*
X498187Y286808D01*
X498187Y286992D01*
X498185Y287051D01*
X498179Y287109D01*
X498170Y287167D01*
X498157Y287225D01*
X498140Y287281D01*
X498120Y287336D01*
X498096Y287390D01*
X498069Y287442D01*
X498039Y287492D01*
X498005Y287540D01*
X497968Y287586D01*
X497929Y287630D01*
X497886Y287671D01*
X497842Y287709D01*
X497795Y287744D01*
X497745Y287776D01*
X497694Y287805D01*
X497641Y287831D01*
X497587Y287853D01*
X497531Y287871D01*
X497474Y287886D01*
X497416Y287897D01*
X497358Y287905D01*
X497299Y287909D01*
X497241Y287909D01*
X497182Y287905D01*
X497124Y287897D01*
X497066Y287886D01*
X497009Y287871D01*
X496953Y287853D01*
X496899Y287831D01*
X496846Y287805D01*
X496795Y287776D01*
X496745Y287744D01*
X496698Y287709D01*
X496654Y287671D01*
X496611Y287630D01*
X496572Y287586D01*
X496535Y287540D01*
X496501Y287492D01*
X496471Y287442D01*
X496444Y287390D01*
X496420Y287336D01*
X496400Y287281D01*
X496383Y287225D01*
X496370Y287167D01*
X496361Y287109D01*
X496355Y287051D01*
X496353Y286992D01*
X496352Y286992D02*
X496352Y286075D01*
X496354Y286001D01*
X496360Y285926D01*
X496369Y285853D01*
X496382Y285779D01*
X496399Y285707D01*
X496419Y285636D01*
X496443Y285565D01*
X496471Y285496D01*
X496502Y285429D01*
X496536Y285363D01*
X496574Y285298D01*
X496615Y285236D01*
X496659Y285176D01*
X496706Y285119D01*
X496756Y285064D01*
X496809Y285011D01*
X496864Y284961D01*
X496921Y284914D01*
X496981Y284870D01*
X497043Y284829D01*
X497108Y284791D01*
X497174Y284757D01*
X497241Y284726D01*
X497310Y284698D01*
X497381Y284674D01*
X497452Y284654D01*
X497524Y284637D01*
X497598Y284624D01*
X497671Y284615D01*
X497746Y284609D01*
X497820Y284607D01*
X479806Y280289D02*
X479185Y280289D01*
X479806Y280289D02*
X479855Y280291D01*
X479903Y280297D01*
X479951Y280306D01*
X479998Y280319D01*
X480044Y280336D01*
X480088Y280357D01*
X480130Y280381D01*
X480171Y280408D01*
X480209Y280438D01*
X480245Y280471D01*
X480278Y280507D01*
X480308Y280545D01*
X480335Y280586D01*
X480359Y280628D01*
X480380Y280672D01*
X480397Y280718D01*
X480410Y280765D01*
X480419Y280813D01*
X480425Y280861D01*
X480427Y280910D01*
X480427Y282462D01*
X480425Y282511D01*
X480419Y282559D01*
X480410Y282607D01*
X480397Y282654D01*
X480380Y282700D01*
X480359Y282744D01*
X480335Y282786D01*
X480308Y282827D01*
X480278Y282865D01*
X480245Y282901D01*
X480209Y282934D01*
X480171Y282964D01*
X480130Y282991D01*
X480088Y283015D01*
X480044Y283036D01*
X479998Y283053D01*
X479951Y283066D01*
X479903Y283075D01*
X479855Y283081D01*
X479806Y283083D01*
X479185Y283083D01*
X477279Y283084D02*
X477229Y283082D01*
X477180Y283077D01*
X477130Y283068D01*
X477082Y283056D01*
X477035Y283040D01*
X476989Y283021D01*
X476944Y282998D01*
X476901Y282973D01*
X476860Y282945D01*
X476821Y282913D01*
X476785Y282879D01*
X476751Y282843D01*
X476719Y282804D01*
X476691Y282763D01*
X476666Y282720D01*
X476643Y282675D01*
X476624Y282629D01*
X476608Y282582D01*
X476596Y282534D01*
X476587Y282484D01*
X476582Y282435D01*
X476580Y282385D01*
X477279Y283083D02*
X477335Y283081D01*
X477392Y283076D01*
X477447Y283067D01*
X477502Y283055D01*
X477556Y283039D01*
X477609Y283020D01*
X477661Y282997D01*
X477711Y282972D01*
X477760Y282943D01*
X477807Y282911D01*
X477851Y282877D01*
X477893Y282840D01*
X477933Y282800D01*
X477971Y282757D01*
X478005Y282713D01*
X478037Y282666D01*
X478065Y282617D01*
X478091Y282567D01*
X478113Y282515D01*
X478132Y282462D01*
X476813Y281842D02*
X476777Y281878D01*
X476744Y281916D01*
X476714Y281957D01*
X476687Y281999D01*
X476662Y282044D01*
X476641Y282090D01*
X476622Y282137D01*
X476607Y282185D01*
X476595Y282234D01*
X476587Y282284D01*
X476582Y282334D01*
X476580Y282385D01*
X476813Y281841D02*
X478132Y280289D01*
X476580Y280289D01*
X475390Y281686D02*
X475388Y281781D01*
X475382Y281876D01*
X475372Y281970D01*
X475359Y282064D01*
X475341Y282157D01*
X475320Y282250D01*
X475295Y282342D01*
X475266Y282432D01*
X475233Y282521D01*
X475197Y282609D01*
X475157Y282695D01*
X475156Y282695D02*
X475140Y282737D01*
X475121Y282777D01*
X475098Y282815D01*
X475073Y282852D01*
X475045Y282887D01*
X475015Y282919D01*
X474982Y282949D01*
X474947Y282976D01*
X474909Y283001D01*
X474870Y283022D01*
X474830Y283040D01*
X474788Y283056D01*
X474745Y283068D01*
X474702Y283076D01*
X474657Y283081D01*
X474613Y283083D01*
X474569Y283081D01*
X474524Y283076D01*
X474481Y283068D01*
X474438Y283056D01*
X474396Y283040D01*
X474356Y283022D01*
X474317Y283001D01*
X474279Y282976D01*
X474244Y282949D01*
X474211Y282919D01*
X474181Y282887D01*
X474153Y282852D01*
X474128Y282815D01*
X474105Y282777D01*
X474086Y282737D01*
X474070Y282695D01*
X474030Y282609D01*
X473994Y282521D01*
X473961Y282432D01*
X473932Y282341D01*
X473907Y282250D01*
X473886Y282157D01*
X473868Y282064D01*
X473855Y281970D01*
X473845Y281876D01*
X473839Y281781D01*
X473837Y281686D01*
X475389Y281686D02*
X475387Y281591D01*
X475381Y281496D01*
X475371Y281402D01*
X475358Y281308D01*
X475340Y281215D01*
X475319Y281122D01*
X475294Y281031D01*
X475265Y280940D01*
X475232Y280851D01*
X475196Y280763D01*
X475156Y280677D01*
X475140Y280635D01*
X475121Y280595D01*
X475098Y280557D01*
X475073Y280520D01*
X475045Y280485D01*
X475015Y280453D01*
X474982Y280423D01*
X474947Y280396D01*
X474909Y280371D01*
X474870Y280350D01*
X474830Y280332D01*
X474788Y280316D01*
X474745Y280304D01*
X474702Y280296D01*
X474657Y280291D01*
X474613Y280289D01*
X474070Y280677D02*
X474030Y280763D01*
X473994Y280851D01*
X473961Y280940D01*
X473932Y281030D01*
X473907Y281122D01*
X473886Y281215D01*
X473868Y281308D01*
X473855Y281402D01*
X473845Y281496D01*
X473839Y281591D01*
X473837Y281686D01*
X474070Y280677D02*
X474086Y280635D01*
X474105Y280595D01*
X474128Y280557D01*
X474153Y280520D01*
X474181Y280485D01*
X474211Y280453D01*
X474244Y280423D01*
X474279Y280396D01*
X474317Y280371D01*
X474356Y280350D01*
X474396Y280332D01*
X474438Y280316D01*
X474481Y280304D01*
X474524Y280296D01*
X474569Y280291D01*
X474613Y280289D01*
X475234Y280910D02*
X473992Y282462D01*
X566815Y327279D02*
X567436Y327279D01*
X567485Y327281D01*
X567533Y327287D01*
X567581Y327296D01*
X567628Y327309D01*
X567674Y327326D01*
X567718Y327347D01*
X567760Y327371D01*
X567801Y327398D01*
X567839Y327428D01*
X567875Y327461D01*
X567908Y327497D01*
X567938Y327535D01*
X567965Y327576D01*
X567989Y327618D01*
X568010Y327662D01*
X568027Y327708D01*
X568040Y327755D01*
X568049Y327803D01*
X568055Y327851D01*
X568057Y327900D01*
X568057Y329452D01*
X568055Y329501D01*
X568049Y329549D01*
X568040Y329597D01*
X568027Y329644D01*
X568010Y329690D01*
X567989Y329734D01*
X567965Y329776D01*
X567938Y329817D01*
X567908Y329855D01*
X567875Y329891D01*
X567839Y329924D01*
X567801Y329954D01*
X567760Y329981D01*
X567718Y330005D01*
X567674Y330026D01*
X567628Y330043D01*
X567581Y330056D01*
X567533Y330065D01*
X567485Y330071D01*
X567436Y330073D01*
X566815Y330073D01*
X564909Y330074D02*
X564859Y330072D01*
X564810Y330067D01*
X564760Y330058D01*
X564712Y330046D01*
X564665Y330030D01*
X564619Y330011D01*
X564574Y329988D01*
X564531Y329963D01*
X564490Y329935D01*
X564451Y329903D01*
X564415Y329869D01*
X564381Y329833D01*
X564349Y329794D01*
X564321Y329753D01*
X564296Y329710D01*
X564273Y329665D01*
X564254Y329619D01*
X564238Y329572D01*
X564226Y329524D01*
X564217Y329474D01*
X564212Y329425D01*
X564210Y329375D01*
X564909Y330073D02*
X564965Y330071D01*
X565022Y330066D01*
X565077Y330057D01*
X565132Y330045D01*
X565186Y330029D01*
X565239Y330010D01*
X565291Y329987D01*
X565341Y329962D01*
X565390Y329933D01*
X565437Y329901D01*
X565481Y329867D01*
X565523Y329830D01*
X565563Y329790D01*
X565601Y329747D01*
X565635Y329703D01*
X565667Y329656D01*
X565695Y329607D01*
X565721Y329557D01*
X565743Y329505D01*
X565762Y329452D01*
X564443Y328832D02*
X564407Y328868D01*
X564374Y328906D01*
X564344Y328947D01*
X564317Y328989D01*
X564292Y329034D01*
X564271Y329080D01*
X564252Y329127D01*
X564237Y329175D01*
X564225Y329224D01*
X564217Y329274D01*
X564212Y329324D01*
X564210Y329375D01*
X564443Y328831D02*
X565762Y327279D01*
X564210Y327279D01*
X563019Y329452D02*
X562243Y330073D01*
X562243Y327279D01*
X563019Y327279D02*
X561467Y327279D01*
X590945Y327279D02*
X591566Y327279D01*
X591615Y327281D01*
X591663Y327287D01*
X591711Y327296D01*
X591758Y327309D01*
X591804Y327326D01*
X591848Y327347D01*
X591890Y327371D01*
X591931Y327398D01*
X591969Y327428D01*
X592005Y327461D01*
X592038Y327497D01*
X592068Y327535D01*
X592095Y327576D01*
X592119Y327618D01*
X592140Y327662D01*
X592157Y327708D01*
X592170Y327755D01*
X592179Y327803D01*
X592185Y327851D01*
X592187Y327900D01*
X592187Y329452D01*
X592185Y329501D01*
X592179Y329549D01*
X592170Y329597D01*
X592157Y329644D01*
X592140Y329690D01*
X592119Y329734D01*
X592095Y329776D01*
X592068Y329817D01*
X592038Y329855D01*
X592005Y329891D01*
X591969Y329924D01*
X591931Y329954D01*
X591890Y329981D01*
X591848Y330005D01*
X591804Y330026D01*
X591758Y330043D01*
X591711Y330056D01*
X591663Y330065D01*
X591615Y330071D01*
X591566Y330073D01*
X590945Y330073D01*
X589039Y330074D02*
X588989Y330072D01*
X588940Y330067D01*
X588890Y330058D01*
X588842Y330046D01*
X588795Y330030D01*
X588749Y330011D01*
X588704Y329988D01*
X588661Y329963D01*
X588620Y329935D01*
X588581Y329903D01*
X588545Y329869D01*
X588511Y329833D01*
X588479Y329794D01*
X588451Y329753D01*
X588426Y329710D01*
X588403Y329665D01*
X588384Y329619D01*
X588368Y329572D01*
X588356Y329524D01*
X588347Y329474D01*
X588342Y329425D01*
X588340Y329375D01*
X589039Y330073D02*
X589095Y330071D01*
X589152Y330066D01*
X589207Y330057D01*
X589262Y330045D01*
X589316Y330029D01*
X589369Y330010D01*
X589421Y329987D01*
X589471Y329962D01*
X589520Y329933D01*
X589567Y329901D01*
X589611Y329867D01*
X589653Y329830D01*
X589693Y329790D01*
X589731Y329747D01*
X589765Y329703D01*
X589797Y329656D01*
X589825Y329607D01*
X589851Y329557D01*
X589873Y329505D01*
X589892Y329452D01*
X588573Y328832D02*
X588537Y328868D01*
X588504Y328906D01*
X588474Y328947D01*
X588447Y328989D01*
X588422Y329034D01*
X588401Y329080D01*
X588382Y329127D01*
X588367Y329175D01*
X588355Y329224D01*
X588347Y329274D01*
X588342Y329324D01*
X588340Y329375D01*
X588573Y328831D02*
X589892Y327279D01*
X588340Y327279D01*
X585597Y329375D02*
X585599Y329425D01*
X585604Y329474D01*
X585613Y329524D01*
X585625Y329572D01*
X585641Y329619D01*
X585660Y329665D01*
X585683Y329710D01*
X585708Y329753D01*
X585736Y329794D01*
X585768Y329833D01*
X585802Y329869D01*
X585838Y329903D01*
X585877Y329935D01*
X585918Y329963D01*
X585961Y329988D01*
X586006Y330011D01*
X586052Y330030D01*
X586099Y330046D01*
X586147Y330058D01*
X586197Y330067D01*
X586246Y330072D01*
X586296Y330074D01*
X586296Y330073D02*
X586352Y330071D01*
X586409Y330066D01*
X586464Y330057D01*
X586519Y330045D01*
X586573Y330029D01*
X586626Y330010D01*
X586678Y329987D01*
X586728Y329962D01*
X586777Y329933D01*
X586824Y329901D01*
X586868Y329867D01*
X586910Y329830D01*
X586950Y329790D01*
X586988Y329747D01*
X587022Y329703D01*
X587054Y329656D01*
X587082Y329607D01*
X587108Y329557D01*
X587130Y329505D01*
X587149Y329452D01*
X585830Y328832D02*
X585794Y328868D01*
X585761Y328906D01*
X585731Y328947D01*
X585704Y328989D01*
X585679Y329034D01*
X585658Y329080D01*
X585639Y329127D01*
X585624Y329175D01*
X585612Y329224D01*
X585604Y329274D01*
X585599Y329324D01*
X585597Y329375D01*
X585830Y328831D02*
X587149Y327279D01*
X585597Y327279D01*
X75228Y74803D02*
X75228Y71501D01*
X75228Y74803D02*
X74311Y74803D01*
X74252Y74801D01*
X74194Y74795D01*
X74136Y74786D01*
X74078Y74773D01*
X74022Y74756D01*
X73967Y74736D01*
X73913Y74712D01*
X73861Y74685D01*
X73811Y74655D01*
X73763Y74621D01*
X73717Y74584D01*
X73673Y74545D01*
X73632Y74502D01*
X73594Y74458D01*
X73559Y74411D01*
X73527Y74361D01*
X73498Y74310D01*
X73472Y74257D01*
X73450Y74203D01*
X73432Y74147D01*
X73417Y74090D01*
X73406Y74032D01*
X73398Y73974D01*
X73394Y73915D01*
X73394Y73857D01*
X73398Y73798D01*
X73406Y73740D01*
X73417Y73682D01*
X73432Y73625D01*
X73450Y73569D01*
X73472Y73515D01*
X73498Y73462D01*
X73527Y73411D01*
X73559Y73361D01*
X73594Y73314D01*
X73632Y73270D01*
X73673Y73227D01*
X73717Y73188D01*
X73763Y73151D01*
X73811Y73117D01*
X73861Y73087D01*
X73913Y73060D01*
X73967Y73036D01*
X74022Y73016D01*
X74078Y72999D01*
X74136Y72986D01*
X74194Y72977D01*
X74252Y72971D01*
X74311Y72969D01*
X75228Y72969D01*
X74127Y72969D02*
X73393Y71501D01*
X72047Y74069D02*
X71130Y74803D01*
X71130Y71501D01*
X72047Y71501D02*
X70213Y71501D01*
X67012Y73978D02*
X67014Y74034D01*
X67020Y74090D01*
X67029Y74146D01*
X67043Y74201D01*
X67060Y74255D01*
X67080Y74307D01*
X67105Y74358D01*
X67132Y74407D01*
X67163Y74454D01*
X67197Y74499D01*
X67234Y74542D01*
X67274Y74582D01*
X67317Y74619D01*
X67362Y74653D01*
X67409Y74684D01*
X67458Y74711D01*
X67509Y74736D01*
X67561Y74756D01*
X67615Y74773D01*
X67670Y74787D01*
X67726Y74796D01*
X67782Y74802D01*
X67838Y74804D01*
X67838Y74803D02*
X67902Y74801D01*
X67965Y74795D01*
X68028Y74786D01*
X68090Y74773D01*
X68151Y74756D01*
X68211Y74735D01*
X68270Y74711D01*
X68327Y74684D01*
X68383Y74653D01*
X68436Y74618D01*
X68487Y74581D01*
X68537Y74541D01*
X68583Y74497D01*
X68627Y74451D01*
X68668Y74403D01*
X68706Y74352D01*
X68741Y74299D01*
X68773Y74244D01*
X68801Y74187D01*
X68826Y74129D01*
X68847Y74069D01*
X67287Y73336D02*
X67249Y73375D01*
X67212Y73417D01*
X67179Y73461D01*
X67148Y73506D01*
X67120Y73554D01*
X67095Y73603D01*
X67073Y73654D01*
X67055Y73706D01*
X67039Y73759D01*
X67027Y73813D01*
X67019Y73868D01*
X67014Y73923D01*
X67012Y73978D01*
X67287Y73335D02*
X68847Y71501D01*
X67012Y71501D01*
X59988Y37973D02*
X59988Y34671D01*
X59988Y37973D02*
X59071Y37973D01*
X59012Y37971D01*
X58954Y37965D01*
X58896Y37956D01*
X58838Y37943D01*
X58782Y37926D01*
X58727Y37906D01*
X58673Y37882D01*
X58621Y37855D01*
X58571Y37825D01*
X58523Y37791D01*
X58477Y37754D01*
X58433Y37715D01*
X58392Y37672D01*
X58354Y37628D01*
X58319Y37581D01*
X58287Y37531D01*
X58258Y37480D01*
X58232Y37427D01*
X58210Y37373D01*
X58192Y37317D01*
X58177Y37260D01*
X58166Y37202D01*
X58158Y37144D01*
X58154Y37085D01*
X58154Y37027D01*
X58158Y36968D01*
X58166Y36910D01*
X58177Y36852D01*
X58192Y36795D01*
X58210Y36739D01*
X58232Y36685D01*
X58258Y36632D01*
X58287Y36581D01*
X58319Y36531D01*
X58354Y36484D01*
X58392Y36440D01*
X58433Y36397D01*
X58477Y36358D01*
X58523Y36321D01*
X58571Y36287D01*
X58621Y36257D01*
X58673Y36230D01*
X58727Y36206D01*
X58782Y36186D01*
X58838Y36169D01*
X58896Y36156D01*
X58954Y36147D01*
X59012Y36141D01*
X59071Y36139D01*
X59988Y36139D01*
X58887Y36139D02*
X58153Y34671D01*
X56807Y37239D02*
X55890Y37973D01*
X55890Y34671D01*
X56807Y34671D02*
X54973Y34671D01*
X53607Y34671D02*
X52689Y34671D01*
X52630Y34673D01*
X52572Y34679D01*
X52514Y34688D01*
X52456Y34701D01*
X52400Y34718D01*
X52345Y34738D01*
X52291Y34762D01*
X52239Y34789D01*
X52189Y34819D01*
X52141Y34853D01*
X52095Y34890D01*
X52051Y34929D01*
X52010Y34972D01*
X51972Y35016D01*
X51937Y35063D01*
X51905Y35113D01*
X51876Y35164D01*
X51850Y35217D01*
X51828Y35271D01*
X51810Y35327D01*
X51795Y35384D01*
X51784Y35442D01*
X51776Y35500D01*
X51772Y35559D01*
X51772Y35617D01*
X51776Y35676D01*
X51784Y35734D01*
X51795Y35792D01*
X51810Y35849D01*
X51828Y35905D01*
X51850Y35959D01*
X51876Y36012D01*
X51905Y36063D01*
X51937Y36113D01*
X51972Y36160D01*
X52010Y36204D01*
X52051Y36247D01*
X52095Y36286D01*
X52141Y36323D01*
X52189Y36357D01*
X52239Y36387D01*
X52291Y36414D01*
X52345Y36438D01*
X52400Y36458D01*
X52456Y36475D01*
X52514Y36488D01*
X52572Y36497D01*
X52630Y36503D01*
X52689Y36505D01*
X52506Y37973D02*
X53607Y37973D01*
X52506Y37973D02*
X52454Y37971D01*
X52402Y37966D01*
X52350Y37956D01*
X52299Y37943D01*
X52249Y37927D01*
X52201Y37907D01*
X52154Y37883D01*
X52109Y37856D01*
X52066Y37827D01*
X52025Y37794D01*
X51987Y37758D01*
X51951Y37720D01*
X51918Y37679D01*
X51889Y37636D01*
X51862Y37591D01*
X51838Y37544D01*
X51818Y37496D01*
X51802Y37446D01*
X51789Y37395D01*
X51779Y37343D01*
X51774Y37291D01*
X51772Y37239D01*
X51774Y37187D01*
X51779Y37135D01*
X51789Y37083D01*
X51802Y37032D01*
X51818Y36982D01*
X51838Y36934D01*
X51862Y36887D01*
X51889Y36842D01*
X51918Y36799D01*
X51951Y36758D01*
X51987Y36720D01*
X52025Y36684D01*
X52066Y36651D01*
X52109Y36622D01*
X52154Y36595D01*
X52201Y36571D01*
X52249Y36551D01*
X52299Y36535D01*
X52350Y36522D01*
X52402Y36512D01*
X52454Y36507D01*
X52506Y36505D01*
X53240Y36505D01*
X279698Y579501D02*
X279698Y582803D01*
X278781Y582803D01*
X278722Y582801D01*
X278664Y582795D01*
X278606Y582786D01*
X278548Y582773D01*
X278492Y582756D01*
X278437Y582736D01*
X278383Y582712D01*
X278331Y582685D01*
X278281Y582655D01*
X278233Y582621D01*
X278187Y582584D01*
X278143Y582545D01*
X278102Y582502D01*
X278064Y582458D01*
X278029Y582411D01*
X277997Y582361D01*
X277968Y582310D01*
X277942Y582257D01*
X277920Y582203D01*
X277902Y582147D01*
X277887Y582090D01*
X277876Y582032D01*
X277868Y581974D01*
X277864Y581915D01*
X277864Y581857D01*
X277868Y581798D01*
X277876Y581740D01*
X277887Y581682D01*
X277902Y581625D01*
X277920Y581569D01*
X277942Y581515D01*
X277968Y581462D01*
X277997Y581411D01*
X278029Y581361D01*
X278064Y581314D01*
X278102Y581270D01*
X278143Y581227D01*
X278187Y581188D01*
X278233Y581151D01*
X278281Y581117D01*
X278331Y581087D01*
X278383Y581060D01*
X278437Y581036D01*
X278492Y581016D01*
X278548Y580999D01*
X278606Y580986D01*
X278664Y580977D01*
X278722Y580971D01*
X278781Y580969D01*
X279698Y580969D01*
X278597Y580969D02*
X277863Y579501D01*
X276517Y582069D02*
X275600Y582803D01*
X275600Y579501D01*
X276517Y579501D02*
X274683Y579501D01*
X273317Y580235D02*
X272583Y582803D01*
X273317Y580235D02*
X271482Y580235D01*
X272033Y580969D02*
X272033Y579501D01*
X228898Y580517D02*
X228898Y583819D01*
X227981Y583819D01*
X227922Y583817D01*
X227864Y583811D01*
X227806Y583802D01*
X227748Y583789D01*
X227692Y583772D01*
X227637Y583752D01*
X227583Y583728D01*
X227531Y583701D01*
X227481Y583671D01*
X227433Y583637D01*
X227387Y583600D01*
X227343Y583561D01*
X227302Y583518D01*
X227264Y583474D01*
X227229Y583427D01*
X227197Y583377D01*
X227168Y583326D01*
X227142Y583273D01*
X227120Y583219D01*
X227102Y583163D01*
X227087Y583106D01*
X227076Y583048D01*
X227068Y582990D01*
X227064Y582931D01*
X227064Y582873D01*
X227068Y582814D01*
X227076Y582756D01*
X227087Y582698D01*
X227102Y582641D01*
X227120Y582585D01*
X227142Y582531D01*
X227168Y582478D01*
X227197Y582427D01*
X227229Y582377D01*
X227264Y582330D01*
X227302Y582286D01*
X227343Y582243D01*
X227387Y582204D01*
X227433Y582167D01*
X227481Y582133D01*
X227531Y582103D01*
X227583Y582076D01*
X227637Y582052D01*
X227692Y582032D01*
X227748Y582015D01*
X227806Y582002D01*
X227864Y581993D01*
X227922Y581987D01*
X227981Y581985D01*
X228898Y581985D01*
X227797Y581985D02*
X227063Y580517D01*
X225717Y583085D02*
X224800Y583819D01*
X224800Y580517D01*
X225717Y580517D02*
X223883Y580517D01*
X222517Y580517D02*
X221416Y580517D01*
X221364Y580519D01*
X221312Y580524D01*
X221260Y580534D01*
X221209Y580547D01*
X221160Y580563D01*
X221111Y580583D01*
X221064Y580607D01*
X221019Y580634D01*
X220976Y580663D01*
X220935Y580696D01*
X220897Y580732D01*
X220861Y580770D01*
X220828Y580811D01*
X220799Y580854D01*
X220772Y580899D01*
X220748Y580946D01*
X220728Y580994D01*
X220712Y581044D01*
X220699Y581095D01*
X220689Y581146D01*
X220684Y581199D01*
X220682Y581251D01*
X220682Y581618D01*
X220684Y581670D01*
X220689Y581722D01*
X220699Y581774D01*
X220712Y581825D01*
X220728Y581875D01*
X220748Y581923D01*
X220772Y581970D01*
X220799Y582015D01*
X220828Y582058D01*
X220861Y582099D01*
X220897Y582137D01*
X220935Y582173D01*
X220976Y582206D01*
X221019Y582235D01*
X221064Y582262D01*
X221111Y582286D01*
X221160Y582306D01*
X221209Y582322D01*
X221260Y582335D01*
X221312Y582345D01*
X221364Y582350D01*
X221416Y582352D01*
X221416Y582351D02*
X222517Y582351D01*
X222517Y583819D01*
X220682Y583819D01*
D15*
X177150Y311730D02*
X177150Y299230D01*
X177150Y311730D01*
X177150Y299230D02*
X177150Y286730D01*
X191150Y299230D02*
X191150Y311730D01*
X191150Y299230D02*
X191150Y286730D01*
X177150Y286730D01*
X177150Y311730D02*
X191150Y311730D01*
D13*
X186563Y323197D02*
X186563Y325991D01*
X185787Y325991D01*
X185732Y325989D01*
X185677Y325983D01*
X185622Y325973D01*
X185568Y325960D01*
X185516Y325942D01*
X185465Y325921D01*
X185415Y325896D01*
X185367Y325868D01*
X185322Y325836D01*
X185279Y325801D01*
X185238Y325764D01*
X185201Y325723D01*
X185166Y325680D01*
X185134Y325635D01*
X185106Y325587D01*
X185081Y325537D01*
X185060Y325486D01*
X185042Y325434D01*
X185029Y325380D01*
X185019Y325325D01*
X185013Y325270D01*
X185011Y325215D01*
X185011Y323973D01*
X185013Y323918D01*
X185019Y323863D01*
X185029Y323808D01*
X185042Y323754D01*
X185060Y323702D01*
X185081Y323651D01*
X185106Y323601D01*
X185134Y323553D01*
X185166Y323508D01*
X185201Y323465D01*
X185238Y323424D01*
X185279Y323387D01*
X185322Y323352D01*
X185367Y323320D01*
X185415Y323292D01*
X185465Y323267D01*
X185516Y323246D01*
X185568Y323228D01*
X185622Y323215D01*
X185677Y323205D01*
X185732Y323199D01*
X185787Y323197D01*
X186563Y323197D01*
X183728Y325370D02*
X182952Y325991D01*
X182952Y323197D01*
X183728Y323197D02*
X182176Y323197D01*
D15*
X177150Y541800D02*
X177150Y554300D01*
X177150Y541800D01*
X177150Y529300D01*
X191150Y541800D02*
X191150Y554300D01*
X191150Y541800D02*
X191150Y529300D01*
X177150Y529300D01*
X177150Y554300D02*
X191150Y554300D01*
D13*
X186124Y517543D02*
X186124Y514749D01*
X186124Y517543D02*
X185348Y517543D01*
X185293Y517541D01*
X185238Y517535D01*
X185183Y517525D01*
X185129Y517512D01*
X185077Y517494D01*
X185026Y517473D01*
X184976Y517448D01*
X184928Y517420D01*
X184883Y517388D01*
X184840Y517353D01*
X184799Y517316D01*
X184762Y517275D01*
X184727Y517232D01*
X184695Y517187D01*
X184667Y517139D01*
X184642Y517089D01*
X184621Y517038D01*
X184603Y516986D01*
X184590Y516932D01*
X184580Y516877D01*
X184574Y516822D01*
X184572Y516767D01*
X184572Y515525D01*
X184574Y515470D01*
X184580Y515415D01*
X184590Y515360D01*
X184603Y515306D01*
X184621Y515254D01*
X184642Y515203D01*
X184667Y515153D01*
X184695Y515105D01*
X184727Y515060D01*
X184762Y515017D01*
X184799Y514976D01*
X184840Y514939D01*
X184883Y514904D01*
X184928Y514872D01*
X184976Y514844D01*
X185026Y514819D01*
X185077Y514798D01*
X185129Y514780D01*
X185183Y514767D01*
X185238Y514757D01*
X185293Y514751D01*
X185348Y514749D01*
X186124Y514749D01*
X182436Y517544D02*
X182386Y517542D01*
X182337Y517537D01*
X182287Y517528D01*
X182239Y517516D01*
X182192Y517500D01*
X182146Y517481D01*
X182101Y517458D01*
X182058Y517433D01*
X182017Y517405D01*
X181978Y517373D01*
X181942Y517339D01*
X181908Y517303D01*
X181876Y517264D01*
X181848Y517223D01*
X181823Y517180D01*
X181800Y517135D01*
X181781Y517089D01*
X181765Y517042D01*
X181753Y516994D01*
X181744Y516944D01*
X181739Y516895D01*
X181737Y516845D01*
X182436Y517543D02*
X182492Y517541D01*
X182549Y517536D01*
X182604Y517527D01*
X182659Y517515D01*
X182713Y517499D01*
X182766Y517480D01*
X182818Y517457D01*
X182868Y517432D01*
X182917Y517403D01*
X182964Y517371D01*
X183008Y517337D01*
X183050Y517300D01*
X183090Y517260D01*
X183128Y517217D01*
X183162Y517173D01*
X183194Y517126D01*
X183222Y517077D01*
X183248Y517027D01*
X183270Y516975D01*
X183289Y516922D01*
X181970Y516302D02*
X181934Y516338D01*
X181901Y516376D01*
X181871Y516417D01*
X181844Y516459D01*
X181819Y516504D01*
X181798Y516550D01*
X181779Y516597D01*
X181764Y516645D01*
X181752Y516694D01*
X181744Y516744D01*
X181739Y516794D01*
X181737Y516845D01*
X181970Y516301D02*
X183289Y514749D01*
X181737Y514749D01*
X185321Y266827D02*
X185942Y266827D01*
X185991Y266829D01*
X186039Y266835D01*
X186087Y266844D01*
X186134Y266857D01*
X186180Y266874D01*
X186224Y266895D01*
X186266Y266919D01*
X186307Y266946D01*
X186345Y266976D01*
X186381Y267009D01*
X186414Y267045D01*
X186444Y267083D01*
X186471Y267124D01*
X186495Y267166D01*
X186516Y267210D01*
X186533Y267256D01*
X186546Y267303D01*
X186555Y267351D01*
X186561Y267399D01*
X186563Y267448D01*
X186563Y269000D01*
X186561Y269049D01*
X186555Y269097D01*
X186546Y269145D01*
X186533Y269192D01*
X186516Y269238D01*
X186495Y269282D01*
X186471Y269324D01*
X186444Y269365D01*
X186414Y269403D01*
X186381Y269439D01*
X186345Y269472D01*
X186307Y269502D01*
X186266Y269529D01*
X186224Y269553D01*
X186180Y269574D01*
X186134Y269591D01*
X186087Y269604D01*
X186039Y269613D01*
X185991Y269619D01*
X185942Y269621D01*
X185321Y269621D01*
X184269Y269000D02*
X183493Y269621D01*
X183493Y266827D01*
X184269Y266827D02*
X182717Y266827D01*
X191130Y457581D02*
X191863Y457581D01*
X191915Y457583D01*
X191967Y457588D01*
X192019Y457598D01*
X192070Y457611D01*
X192120Y457627D01*
X192168Y457647D01*
X192215Y457671D01*
X192260Y457698D01*
X192303Y457727D01*
X192344Y457760D01*
X192382Y457796D01*
X192418Y457834D01*
X192451Y457875D01*
X192480Y457918D01*
X192507Y457963D01*
X192531Y458010D01*
X192551Y458058D01*
X192567Y458108D01*
X192580Y458159D01*
X192590Y458211D01*
X192595Y458263D01*
X192597Y458315D01*
X192597Y460149D01*
X192595Y460201D01*
X192590Y460253D01*
X192580Y460305D01*
X192567Y460356D01*
X192551Y460406D01*
X192531Y460454D01*
X192507Y460501D01*
X192480Y460546D01*
X192451Y460589D01*
X192418Y460630D01*
X192382Y460668D01*
X192344Y460704D01*
X192303Y460737D01*
X192260Y460766D01*
X192215Y460793D01*
X192168Y460817D01*
X192120Y460837D01*
X192070Y460853D01*
X192019Y460866D01*
X191967Y460876D01*
X191915Y460881D01*
X191863Y460883D01*
X191130Y460883D01*
X189921Y457581D02*
X189004Y457581D01*
X188945Y457583D01*
X188887Y457589D01*
X188829Y457598D01*
X188771Y457611D01*
X188715Y457628D01*
X188660Y457648D01*
X188606Y457672D01*
X188554Y457699D01*
X188504Y457729D01*
X188456Y457763D01*
X188410Y457800D01*
X188366Y457839D01*
X188325Y457882D01*
X188287Y457926D01*
X188252Y457973D01*
X188220Y458023D01*
X188191Y458074D01*
X188165Y458127D01*
X188143Y458181D01*
X188125Y458237D01*
X188110Y458294D01*
X188099Y458352D01*
X188091Y458410D01*
X188087Y458469D01*
X188087Y458527D01*
X188091Y458586D01*
X188099Y458644D01*
X188110Y458702D01*
X188125Y458759D01*
X188143Y458815D01*
X188165Y458869D01*
X188191Y458922D01*
X188220Y458973D01*
X188252Y459023D01*
X188287Y459070D01*
X188325Y459114D01*
X188366Y459157D01*
X188410Y459196D01*
X188456Y459233D01*
X188504Y459267D01*
X188554Y459297D01*
X188606Y459324D01*
X188660Y459348D01*
X188715Y459368D01*
X188771Y459385D01*
X188829Y459398D01*
X188887Y459407D01*
X188945Y459413D01*
X189004Y459415D01*
X188821Y460883D02*
X189921Y460883D01*
X188821Y460883D02*
X188769Y460881D01*
X188717Y460876D01*
X188665Y460866D01*
X188614Y460853D01*
X188564Y460837D01*
X188516Y460817D01*
X188469Y460793D01*
X188424Y460766D01*
X188381Y460737D01*
X188340Y460704D01*
X188302Y460668D01*
X188266Y460630D01*
X188233Y460589D01*
X188204Y460546D01*
X188177Y460501D01*
X188153Y460454D01*
X188133Y460406D01*
X188117Y460356D01*
X188104Y460305D01*
X188094Y460253D01*
X188089Y460201D01*
X188087Y460149D01*
X188089Y460097D01*
X188094Y460045D01*
X188104Y459993D01*
X188117Y459942D01*
X188133Y459892D01*
X188153Y459844D01*
X188177Y459797D01*
X188204Y459752D01*
X188233Y459709D01*
X188266Y459668D01*
X188302Y459630D01*
X188340Y459594D01*
X188381Y459561D01*
X188424Y459532D01*
X188469Y459505D01*
X188516Y459481D01*
X188564Y459461D01*
X188614Y459445D01*
X188665Y459432D01*
X188717Y459422D01*
X188769Y459417D01*
X188821Y459415D01*
X189555Y459415D01*
D11*
X97790Y101600D02*
X49530Y101600D01*
X97790Y101600D02*
X97948Y101602D01*
X98107Y101608D01*
X98265Y101618D01*
X98422Y101632D01*
X98580Y101649D01*
X98736Y101671D01*
X98893Y101696D01*
X99048Y101726D01*
X99203Y101759D01*
X99357Y101796D01*
X99510Y101837D01*
X99662Y101882D01*
X99812Y101931D01*
X99962Y101983D01*
X100110Y102039D01*
X100257Y102099D01*
X100402Y102162D01*
X100545Y102229D01*
X100687Y102299D01*
X100827Y102373D01*
X100965Y102451D01*
X101101Y102532D01*
X101235Y102616D01*
X101367Y102703D01*
X101497Y102794D01*
X101624Y102888D01*
X101749Y102985D01*
X101872Y103086D01*
X101992Y103189D01*
X102109Y103295D01*
X102224Y103404D01*
X102336Y103516D01*
X102445Y103631D01*
X102551Y103748D01*
X102654Y103868D01*
X102755Y103991D01*
X102852Y104116D01*
X102946Y104243D01*
X103037Y104373D01*
X103124Y104505D01*
X103208Y104639D01*
X103289Y104775D01*
X103367Y104913D01*
X103441Y105053D01*
X103511Y105195D01*
X103578Y105338D01*
X103641Y105483D01*
X103701Y105630D01*
X103757Y105778D01*
X103809Y105928D01*
X103858Y106078D01*
X103903Y106230D01*
X103944Y106383D01*
X103981Y106537D01*
X104014Y106692D01*
X104044Y106847D01*
X104069Y107004D01*
X104091Y107160D01*
X104108Y107318D01*
X104122Y107475D01*
X104132Y107633D01*
X104138Y107792D01*
X104140Y107950D01*
X49530Y101600D02*
X49372Y101602D01*
X49213Y101608D01*
X49055Y101618D01*
X48898Y101632D01*
X48740Y101649D01*
X48584Y101671D01*
X48427Y101696D01*
X48272Y101726D01*
X48117Y101759D01*
X47963Y101796D01*
X47810Y101837D01*
X47658Y101882D01*
X47508Y101931D01*
X47358Y101983D01*
X47210Y102039D01*
X47063Y102099D01*
X46918Y102162D01*
X46775Y102229D01*
X46633Y102299D01*
X46493Y102373D01*
X46355Y102451D01*
X46219Y102532D01*
X46085Y102616D01*
X45953Y102703D01*
X45823Y102794D01*
X45696Y102888D01*
X45571Y102985D01*
X45448Y103086D01*
X45328Y103189D01*
X45211Y103295D01*
X45096Y103404D01*
X44984Y103516D01*
X44875Y103631D01*
X44769Y103748D01*
X44666Y103868D01*
X44565Y103991D01*
X44468Y104116D01*
X44374Y104243D01*
X44283Y104373D01*
X44196Y104505D01*
X44112Y104639D01*
X44031Y104775D01*
X43953Y104913D01*
X43879Y105053D01*
X43809Y105195D01*
X43742Y105338D01*
X43679Y105483D01*
X43619Y105630D01*
X43563Y105778D01*
X43511Y105928D01*
X43462Y106078D01*
X43417Y106230D01*
X43376Y106383D01*
X43339Y106537D01*
X43306Y106692D01*
X43276Y106847D01*
X43251Y107004D01*
X43229Y107160D01*
X43212Y107318D01*
X43198Y107475D01*
X43188Y107633D01*
X43182Y107792D01*
X43180Y107950D01*
X104140Y107950D02*
X104140Y603250D01*
X97790Y609600D02*
X49530Y609600D01*
X43180Y603250D02*
X43180Y107950D01*
X104140Y603250D02*
X104138Y603408D01*
X104132Y603567D01*
X104122Y603725D01*
X104108Y603882D01*
X104091Y604040D01*
X104069Y604196D01*
X104044Y604353D01*
X104014Y604508D01*
X103981Y604663D01*
X103944Y604817D01*
X103903Y604970D01*
X103858Y605122D01*
X103809Y605272D01*
X103757Y605422D01*
X103701Y605570D01*
X103641Y605717D01*
X103578Y605862D01*
X103511Y606005D01*
X103441Y606147D01*
X103367Y606287D01*
X103289Y606425D01*
X103208Y606561D01*
X103124Y606695D01*
X103037Y606827D01*
X102946Y606957D01*
X102852Y607084D01*
X102755Y607209D01*
X102654Y607332D01*
X102551Y607452D01*
X102445Y607569D01*
X102336Y607684D01*
X102224Y607796D01*
X102109Y607905D01*
X101992Y608011D01*
X101872Y608114D01*
X101749Y608215D01*
X101624Y608312D01*
X101497Y608406D01*
X101367Y608497D01*
X101235Y608584D01*
X101101Y608668D01*
X100965Y608749D01*
X100827Y608827D01*
X100687Y608901D01*
X100545Y608971D01*
X100402Y609038D01*
X100257Y609101D01*
X100110Y609161D01*
X99962Y609217D01*
X99812Y609269D01*
X99662Y609318D01*
X99510Y609363D01*
X99357Y609404D01*
X99203Y609441D01*
X99048Y609474D01*
X98893Y609504D01*
X98736Y609529D01*
X98580Y609551D01*
X98422Y609568D01*
X98265Y609582D01*
X98107Y609592D01*
X97948Y609598D01*
X97790Y609600D01*
X49530Y609600D02*
X49372Y609598D01*
X49213Y609592D01*
X49055Y609582D01*
X48898Y609568D01*
X48740Y609551D01*
X48584Y609529D01*
X48427Y609504D01*
X48272Y609474D01*
X48117Y609441D01*
X47963Y609404D01*
X47810Y609363D01*
X47658Y609318D01*
X47508Y609269D01*
X47358Y609217D01*
X47210Y609161D01*
X47063Y609101D01*
X46918Y609038D01*
X46775Y608971D01*
X46633Y608901D01*
X46493Y608827D01*
X46355Y608749D01*
X46219Y608668D01*
X46085Y608584D01*
X45953Y608497D01*
X45823Y608406D01*
X45696Y608312D01*
X45571Y608215D01*
X45448Y608114D01*
X45328Y608011D01*
X45211Y607905D01*
X45096Y607796D01*
X44984Y607684D01*
X44875Y607569D01*
X44769Y607452D01*
X44666Y607332D01*
X44565Y607209D01*
X44468Y607084D01*
X44374Y606957D01*
X44283Y606827D01*
X44196Y606695D01*
X44112Y606561D01*
X44031Y606425D01*
X43953Y606287D01*
X43879Y606147D01*
X43809Y606005D01*
X43742Y605862D01*
X43679Y605717D01*
X43619Y605570D01*
X43563Y605422D01*
X43511Y605272D01*
X43462Y605122D01*
X43417Y604970D01*
X43376Y604817D01*
X43339Y604663D01*
X43306Y604508D01*
X43276Y604353D01*
X43251Y604196D01*
X43229Y604040D01*
X43212Y603882D01*
X43198Y603725D01*
X43188Y603567D01*
X43182Y603408D01*
X43180Y603250D01*
D15*
X120015Y114300D02*
X117475Y111125D01*
X120015Y114300D02*
X108585Y114300D01*
X108585Y111125D02*
X108585Y117475D01*
X29845Y588645D02*
X38735Y591185D01*
X29845Y588645D02*
X29845Y594995D01*
X32385Y593090D02*
X27305Y593090D01*
X33020Y600075D02*
X33245Y600078D01*
X33470Y600086D01*
X33694Y600099D01*
X33918Y600118D01*
X34142Y600142D01*
X34365Y600171D01*
X34587Y600206D01*
X34808Y600246D01*
X35028Y600292D01*
X35247Y600342D01*
X35465Y600398D01*
X35682Y600459D01*
X35897Y600525D01*
X36110Y600596D01*
X36321Y600673D01*
X36531Y600754D01*
X36739Y600840D01*
X36944Y600931D01*
X37147Y601027D01*
X37148Y601027D02*
X37236Y601059D01*
X37323Y601095D01*
X37409Y601134D01*
X37493Y601177D01*
X37575Y601223D01*
X37655Y601272D01*
X37733Y601324D01*
X37809Y601380D01*
X37883Y601438D01*
X37954Y601500D01*
X38023Y601564D01*
X38089Y601631D01*
X38152Y601700D01*
X38213Y601772D01*
X38271Y601846D01*
X38325Y601923D01*
X38377Y602001D01*
X38425Y602082D01*
X38470Y602164D01*
X38512Y602249D01*
X38550Y602335D01*
X38585Y602422D01*
X38617Y602510D01*
X38644Y602600D01*
X38669Y602691D01*
X38689Y602783D01*
X38706Y602875D01*
X38719Y602969D01*
X38728Y603062D01*
X38734Y603156D01*
X38736Y603250D01*
X38734Y603344D01*
X38728Y603438D01*
X38719Y603531D01*
X38706Y603625D01*
X38689Y603717D01*
X38669Y603809D01*
X38644Y603900D01*
X38617Y603990D01*
X38585Y604078D01*
X38550Y604165D01*
X38512Y604251D01*
X38470Y604336D01*
X38425Y604418D01*
X38377Y604499D01*
X38325Y604577D01*
X38271Y604654D01*
X38213Y604728D01*
X38152Y604800D01*
X38089Y604869D01*
X38023Y604936D01*
X37954Y605000D01*
X37883Y605062D01*
X37809Y605120D01*
X37733Y605176D01*
X37655Y605228D01*
X37575Y605277D01*
X37493Y605323D01*
X37409Y605366D01*
X37323Y605405D01*
X37236Y605441D01*
X37148Y605473D01*
X37147Y605473D02*
X36944Y605569D01*
X36739Y605660D01*
X36531Y605746D01*
X36321Y605827D01*
X36110Y605904D01*
X35897Y605975D01*
X35682Y606041D01*
X35465Y606102D01*
X35247Y606158D01*
X35028Y606208D01*
X34808Y606254D01*
X34587Y606294D01*
X34365Y606329D01*
X34142Y606358D01*
X33918Y606382D01*
X33694Y606401D01*
X33470Y606414D01*
X33245Y606422D01*
X33020Y606425D01*
X33020Y600075D02*
X32795Y600078D01*
X32570Y600086D01*
X32346Y600099D01*
X32122Y600118D01*
X31898Y600142D01*
X31675Y600171D01*
X31453Y600206D01*
X31232Y600246D01*
X31012Y600292D01*
X30793Y600342D01*
X30575Y600398D01*
X30358Y600459D01*
X30143Y600525D01*
X29930Y600596D01*
X29719Y600673D01*
X29509Y600754D01*
X29301Y600840D01*
X29096Y600931D01*
X28893Y601027D01*
X28805Y601059D01*
X28718Y601095D01*
X28632Y601134D01*
X28548Y601177D01*
X28466Y601223D01*
X28386Y601272D01*
X28308Y601324D01*
X28232Y601380D01*
X28158Y601438D01*
X28087Y601500D01*
X28018Y601564D01*
X27952Y601631D01*
X27889Y601700D01*
X27828Y601772D01*
X27770Y601846D01*
X27716Y601923D01*
X27664Y602001D01*
X27616Y602082D01*
X27571Y602164D01*
X27529Y602249D01*
X27491Y602335D01*
X27456Y602422D01*
X27424Y602510D01*
X27397Y602600D01*
X27372Y602691D01*
X27352Y602783D01*
X27335Y602875D01*
X27322Y602969D01*
X27313Y603062D01*
X27307Y603156D01*
X27305Y603250D01*
X28893Y605473D02*
X29096Y605569D01*
X29301Y605660D01*
X29509Y605746D01*
X29719Y605827D01*
X29930Y605904D01*
X30143Y605975D01*
X30358Y606041D01*
X30575Y606102D01*
X30793Y606158D01*
X31012Y606208D01*
X31232Y606254D01*
X31453Y606294D01*
X31675Y606329D01*
X31898Y606358D01*
X32122Y606382D01*
X32346Y606401D01*
X32570Y606414D01*
X32795Y606422D01*
X33020Y606425D01*
X28893Y605473D02*
X28805Y605441D01*
X28718Y605405D01*
X28632Y605366D01*
X28548Y605323D01*
X28466Y605277D01*
X28386Y605228D01*
X28308Y605176D01*
X28232Y605120D01*
X28158Y605062D01*
X28087Y605000D01*
X28018Y604936D01*
X27952Y604869D01*
X27889Y604800D01*
X27828Y604728D01*
X27770Y604654D01*
X27716Y604577D01*
X27664Y604499D01*
X27616Y604418D01*
X27571Y604336D01*
X27529Y604251D01*
X27491Y604165D01*
X27456Y604078D01*
X27424Y603990D01*
X27397Y603900D01*
X27372Y603809D01*
X27352Y603717D01*
X27335Y603625D01*
X27322Y603531D01*
X27313Y603438D01*
X27307Y603344D01*
X27305Y603250D01*
X29845Y600710D02*
X36195Y605790D01*
D13*
X526923Y165481D02*
X526923Y162687D01*
X525371Y162687D02*
X526923Y165481D01*
X525371Y165481D02*
X525371Y162687D01*
X523991Y162687D02*
X523991Y165481D01*
X522750Y165481D01*
X522750Y164239D02*
X523991Y164239D01*
X521866Y162687D02*
X520935Y165481D01*
X520004Y162687D01*
X520236Y163386D02*
X521633Y163386D01*
X518876Y163463D02*
X518876Y165481D01*
X518876Y163463D02*
X518874Y163408D01*
X518868Y163353D01*
X518858Y163298D01*
X518845Y163244D01*
X518827Y163192D01*
X518806Y163141D01*
X518781Y163091D01*
X518753Y163043D01*
X518721Y162998D01*
X518686Y162955D01*
X518649Y162914D01*
X518608Y162877D01*
X518565Y162842D01*
X518520Y162810D01*
X518472Y162782D01*
X518422Y162757D01*
X518371Y162736D01*
X518319Y162718D01*
X518265Y162705D01*
X518210Y162695D01*
X518155Y162689D01*
X518100Y162687D01*
X518045Y162689D01*
X517990Y162695D01*
X517935Y162705D01*
X517881Y162718D01*
X517829Y162736D01*
X517778Y162757D01*
X517728Y162782D01*
X517680Y162810D01*
X517635Y162842D01*
X517592Y162877D01*
X517551Y162914D01*
X517514Y162955D01*
X517479Y162998D01*
X517447Y163043D01*
X517419Y163091D01*
X517394Y163141D01*
X517373Y163192D01*
X517355Y163244D01*
X517342Y163298D01*
X517332Y163353D01*
X517326Y163408D01*
X517324Y163463D01*
X517324Y165481D01*
X515945Y165481D02*
X515945Y162687D01*
X514703Y162687D01*
X513071Y162687D02*
X513071Y165481D01*
X513847Y165481D02*
X512295Y165481D01*
X565277Y125857D02*
X568071Y125857D01*
X568071Y126633D01*
X568069Y126688D01*
X568063Y126743D01*
X568053Y126798D01*
X568040Y126852D01*
X568022Y126904D01*
X568001Y126955D01*
X567976Y127005D01*
X567948Y127053D01*
X567916Y127098D01*
X567881Y127141D01*
X567844Y127182D01*
X567803Y127219D01*
X567760Y127254D01*
X567715Y127286D01*
X567667Y127314D01*
X567617Y127339D01*
X567566Y127360D01*
X567514Y127378D01*
X567460Y127391D01*
X567405Y127401D01*
X567350Y127407D01*
X567295Y127409D01*
X567240Y127407D01*
X567185Y127401D01*
X567130Y127391D01*
X567076Y127378D01*
X567024Y127360D01*
X566973Y127339D01*
X566923Y127314D01*
X566875Y127286D01*
X566830Y127254D01*
X566787Y127219D01*
X566746Y127182D01*
X566709Y127141D01*
X566674Y127098D01*
X566642Y127053D01*
X566614Y127005D01*
X566589Y126955D01*
X566568Y126904D01*
X566550Y126852D01*
X566537Y126798D01*
X566527Y126743D01*
X566521Y126688D01*
X566519Y126633D01*
X566519Y125857D01*
X566519Y126788D02*
X565277Y127409D01*
X567373Y130135D02*
X567423Y130133D01*
X567472Y130128D01*
X567522Y130119D01*
X567570Y130107D01*
X567617Y130091D01*
X567663Y130072D01*
X567708Y130049D01*
X567751Y130024D01*
X567792Y129996D01*
X567831Y129964D01*
X567867Y129930D01*
X567901Y129894D01*
X567933Y129855D01*
X567961Y129814D01*
X567986Y129771D01*
X568009Y129726D01*
X568028Y129680D01*
X568044Y129633D01*
X568056Y129585D01*
X568065Y129535D01*
X568070Y129486D01*
X568072Y129436D01*
X568071Y129436D02*
X568069Y129380D01*
X568064Y129323D01*
X568055Y129268D01*
X568043Y129213D01*
X568027Y129159D01*
X568008Y129106D01*
X567986Y129054D01*
X567960Y129004D01*
X567931Y128955D01*
X567899Y128908D01*
X567865Y128864D01*
X567828Y128822D01*
X567788Y128782D01*
X567745Y128744D01*
X567701Y128710D01*
X567654Y128678D01*
X567606Y128650D01*
X567555Y128624D01*
X567503Y128602D01*
X567450Y128583D01*
X566830Y129901D02*
X566866Y129937D01*
X566904Y129970D01*
X566945Y130000D01*
X566988Y130027D01*
X567032Y130052D01*
X567078Y130073D01*
X567125Y130092D01*
X567173Y130107D01*
X567222Y130119D01*
X567272Y130127D01*
X567322Y130132D01*
X567373Y130134D01*
X566829Y129902D02*
X565277Y128582D01*
X565277Y130134D01*
X567373Y132878D02*
X567423Y132876D01*
X567472Y132871D01*
X567522Y132862D01*
X567570Y132850D01*
X567617Y132834D01*
X567663Y132815D01*
X567708Y132792D01*
X567751Y132767D01*
X567792Y132739D01*
X567831Y132707D01*
X567867Y132673D01*
X567901Y132637D01*
X567933Y132598D01*
X567961Y132557D01*
X567986Y132514D01*
X568009Y132469D01*
X568028Y132423D01*
X568044Y132376D01*
X568056Y132328D01*
X568065Y132278D01*
X568070Y132229D01*
X568072Y132179D01*
X568071Y132179D02*
X568069Y132123D01*
X568064Y132066D01*
X568055Y132011D01*
X568043Y131956D01*
X568027Y131902D01*
X568008Y131849D01*
X567986Y131797D01*
X567960Y131747D01*
X567931Y131698D01*
X567899Y131651D01*
X567865Y131607D01*
X567828Y131565D01*
X567788Y131525D01*
X567745Y131487D01*
X567701Y131453D01*
X567654Y131421D01*
X567606Y131393D01*
X567555Y131367D01*
X567503Y131345D01*
X567450Y131326D01*
X566830Y132644D02*
X566866Y132680D01*
X566904Y132713D01*
X566945Y132743D01*
X566988Y132770D01*
X567032Y132795D01*
X567078Y132816D01*
X567125Y132835D01*
X567173Y132850D01*
X567222Y132862D01*
X567272Y132870D01*
X567322Y132875D01*
X567373Y132877D01*
X566829Y132645D02*
X565277Y131325D01*
X565277Y132878D01*
M02*
