G04 EAGLE Gerber RS-274X export*
G75*
%MOMM*%
%FSLAX34Y34*%
%LPD*%
%INSolderpaste Top*%
%IPPOS*%
%AMOC8*
5,1,8,0,0,1.08239X$1,22.5*%
G01*
%ADD10R,1.000000X1.100000*%
%ADD11R,1.320800X0.558800*%
%ADD12R,1.100000X1.000000*%
%ADD13R,1.300000X1.500000*%
%ADD14R,1.500000X1.300000*%
%ADD15R,1.600000X1.300000*%
%ADD16R,1.752600X0.660400*%
%ADD17C,0.660400*%
%ADD18R,2.200000X0.600000*%
%ADD19R,1.300000X1.600000*%
%ADD20R,0.609600X0.279909*%
%ADD21R,0.900000X2.000000*%
%ADD22R,0.762000X0.280000*%
%ADD23R,0.762000X0.304800*%

G36*
X531259Y116191D02*
X531259Y116191D01*
X531261Y116190D01*
X531304Y116210D01*
X531348Y116228D01*
X531348Y116230D01*
X531350Y116231D01*
X531383Y116316D01*
X531383Y127270D01*
X531382Y127272D01*
X531383Y127274D01*
X531363Y127317D01*
X531345Y127361D01*
X531343Y127361D01*
X531342Y127363D01*
X531257Y127396D01*
X515223Y127396D01*
X515221Y127395D01*
X515219Y127396D01*
X515176Y127376D01*
X515132Y127358D01*
X515132Y127356D01*
X515130Y127355D01*
X515097Y127270D01*
X515097Y116316D01*
X515098Y116314D01*
X515097Y116312D01*
X515117Y116269D01*
X515135Y116225D01*
X515137Y116225D01*
X515138Y116223D01*
X515223Y116190D01*
X531257Y116190D01*
X531259Y116191D01*
G37*
G36*
X531259Y129145D02*
X531259Y129145D01*
X531261Y129144D01*
X531304Y129164D01*
X531348Y129182D01*
X531348Y129184D01*
X531350Y129185D01*
X531383Y129270D01*
X531383Y140224D01*
X531382Y140226D01*
X531383Y140228D01*
X531363Y140271D01*
X531345Y140315D01*
X531343Y140315D01*
X531342Y140317D01*
X531257Y140350D01*
X515223Y140350D01*
X515221Y140349D01*
X515219Y140350D01*
X515176Y140330D01*
X515132Y140312D01*
X515132Y140310D01*
X515130Y140309D01*
X515097Y140224D01*
X515097Y129270D01*
X515098Y129268D01*
X515097Y129266D01*
X515117Y129223D01*
X515135Y129179D01*
X515137Y129179D01*
X515138Y129177D01*
X515223Y129144D01*
X531257Y129144D01*
X531259Y129145D01*
G37*
G36*
X442089Y555738D02*
X442089Y555738D01*
X442092Y555737D01*
X442175Y555774D01*
X443589Y557188D01*
X443591Y557191D01*
X443593Y557192D01*
X443626Y557277D01*
X443626Y560323D01*
X443625Y560326D01*
X443626Y560329D01*
X443589Y560412D01*
X442175Y561826D01*
X442172Y561828D01*
X442171Y561830D01*
X442086Y561863D01*
X440749Y561863D01*
X440747Y561862D01*
X440745Y561863D01*
X440702Y561843D01*
X440659Y561825D01*
X440658Y561823D01*
X440656Y561822D01*
X440623Y561737D01*
X440623Y555863D01*
X440624Y555861D01*
X440623Y555859D01*
X440643Y555816D01*
X440661Y555772D01*
X440664Y555772D01*
X440664Y555770D01*
X440749Y555737D01*
X442086Y555737D01*
X442089Y555738D01*
G37*
G36*
X448253Y555738D02*
X448253Y555738D01*
X448255Y555737D01*
X448298Y555757D01*
X448341Y555775D01*
X448342Y555777D01*
X448344Y555778D01*
X448377Y555863D01*
X448377Y561737D01*
X448376Y561739D01*
X448377Y561741D01*
X448357Y561784D01*
X448339Y561828D01*
X448337Y561828D01*
X448336Y561830D01*
X448251Y561863D01*
X446914Y561863D01*
X446911Y561862D01*
X446908Y561863D01*
X446825Y561826D01*
X445411Y560412D01*
X445410Y560409D01*
X445407Y560408D01*
X445374Y560323D01*
X445374Y557277D01*
X445375Y557274D01*
X445374Y557271D01*
X445411Y557188D01*
X446825Y555774D01*
X446828Y555773D01*
X446829Y555770D01*
X446914Y555737D01*
X448251Y555737D01*
X448253Y555738D01*
G37*
G36*
X562739Y555738D02*
X562739Y555738D01*
X562742Y555737D01*
X562825Y555774D01*
X564239Y557188D01*
X564241Y557191D01*
X564243Y557192D01*
X564276Y557277D01*
X564276Y560323D01*
X564275Y560326D01*
X564276Y560329D01*
X564239Y560412D01*
X562825Y561826D01*
X562822Y561828D01*
X562821Y561830D01*
X562736Y561863D01*
X561454Y561863D01*
X561452Y561862D01*
X561450Y561863D01*
X561407Y561843D01*
X561364Y561825D01*
X561363Y561823D01*
X561361Y561822D01*
X561328Y561737D01*
X561328Y555863D01*
X561329Y555861D01*
X561328Y555859D01*
X561348Y555816D01*
X561366Y555772D01*
X561369Y555772D01*
X561369Y555770D01*
X561454Y555737D01*
X562736Y555737D01*
X562739Y555738D01*
G37*
G36*
X568848Y555738D02*
X568848Y555738D01*
X568850Y555737D01*
X568893Y555757D01*
X568936Y555775D01*
X568937Y555777D01*
X568939Y555778D01*
X568972Y555863D01*
X568972Y561737D01*
X568971Y561739D01*
X568972Y561741D01*
X568952Y561784D01*
X568934Y561828D01*
X568932Y561828D01*
X568931Y561830D01*
X568846Y561863D01*
X567564Y561863D01*
X567561Y561862D01*
X567558Y561863D01*
X567475Y561826D01*
X566061Y560412D01*
X566060Y560409D01*
X566057Y560408D01*
X566024Y560323D01*
X566024Y557277D01*
X566025Y557274D01*
X566024Y557271D01*
X566061Y557188D01*
X567475Y555774D01*
X567478Y555773D01*
X567479Y555770D01*
X567564Y555737D01*
X568846Y555737D01*
X568848Y555738D01*
G37*
G36*
X448253Y563612D02*
X448253Y563612D01*
X448255Y563611D01*
X448298Y563631D01*
X448341Y563649D01*
X448342Y563651D01*
X448344Y563652D01*
X448377Y563737D01*
X448377Y568051D01*
X448376Y568053D01*
X448377Y568055D01*
X448357Y568098D01*
X448339Y568141D01*
X448337Y568142D01*
X448336Y568144D01*
X448251Y568177D01*
X445500Y568177D01*
X445498Y568176D01*
X445496Y568177D01*
X445453Y568157D01*
X445409Y568139D01*
X445409Y568137D01*
X445407Y568136D01*
X445374Y568051D01*
X445374Y565151D01*
X445375Y565148D01*
X445374Y565145D01*
X445411Y565062D01*
X446825Y563648D01*
X446828Y563647D01*
X446829Y563644D01*
X446914Y563611D01*
X448251Y563611D01*
X448253Y563612D01*
G37*
G36*
X442089Y563612D02*
X442089Y563612D01*
X442092Y563611D01*
X442175Y563648D01*
X443589Y565062D01*
X443591Y565065D01*
X443593Y565066D01*
X443626Y565151D01*
X443626Y568051D01*
X443625Y568053D01*
X443626Y568055D01*
X443606Y568098D01*
X443588Y568141D01*
X443586Y568142D01*
X443585Y568144D01*
X443500Y568177D01*
X440749Y568177D01*
X440747Y568176D01*
X440745Y568177D01*
X440702Y568157D01*
X440659Y568139D01*
X440658Y568137D01*
X440656Y568136D01*
X440623Y568051D01*
X440623Y563737D01*
X440624Y563735D01*
X440623Y563733D01*
X440643Y563690D01*
X440661Y563646D01*
X440664Y563646D01*
X440664Y563644D01*
X440749Y563611D01*
X442086Y563611D01*
X442089Y563612D01*
G37*
G36*
X448253Y549424D02*
X448253Y549424D01*
X448255Y549423D01*
X448298Y549443D01*
X448341Y549461D01*
X448342Y549463D01*
X448344Y549464D01*
X448377Y549549D01*
X448377Y553863D01*
X448376Y553865D01*
X448377Y553867D01*
X448357Y553910D01*
X448339Y553954D01*
X448337Y553954D01*
X448336Y553956D01*
X448251Y553989D01*
X446914Y553989D01*
X446911Y553988D01*
X446908Y553989D01*
X446825Y553952D01*
X445411Y552538D01*
X445410Y552535D01*
X445407Y552534D01*
X445374Y552449D01*
X445374Y549549D01*
X445375Y549547D01*
X445374Y549545D01*
X445394Y549502D01*
X445412Y549459D01*
X445414Y549458D01*
X445415Y549456D01*
X445500Y549423D01*
X448251Y549423D01*
X448253Y549424D01*
G37*
G36*
X443502Y549424D02*
X443502Y549424D01*
X443504Y549423D01*
X443547Y549443D01*
X443591Y549461D01*
X443591Y549463D01*
X443593Y549464D01*
X443626Y549549D01*
X443626Y552449D01*
X443625Y552452D01*
X443626Y552455D01*
X443589Y552538D01*
X442175Y553952D01*
X442172Y553954D01*
X442171Y553956D01*
X442086Y553989D01*
X440749Y553989D01*
X440747Y553988D01*
X440745Y553989D01*
X440702Y553969D01*
X440659Y553951D01*
X440658Y553949D01*
X440656Y553948D01*
X440623Y553863D01*
X440623Y549549D01*
X440624Y549547D01*
X440623Y549545D01*
X440643Y549502D01*
X440661Y549459D01*
X440664Y549458D01*
X440664Y549456D01*
X440749Y549423D01*
X443500Y549423D01*
X443502Y549424D01*
G37*
G36*
X437166Y570024D02*
X437166Y570024D01*
X437169Y570023D01*
X437212Y570043D01*
X437255Y570062D01*
X437256Y570064D01*
X437258Y570064D01*
X437291Y570149D01*
X437291Y572451D01*
X437290Y572453D01*
X437291Y572455D01*
X437271Y572498D01*
X437252Y572541D01*
X437250Y572542D01*
X437249Y572544D01*
X437164Y572577D01*
X432661Y572577D01*
X432659Y572576D01*
X432657Y572577D01*
X432614Y572557D01*
X432570Y572538D01*
X432570Y572536D01*
X432568Y572536D01*
X432535Y572451D01*
X432535Y570149D01*
X432536Y570147D01*
X432535Y570145D01*
X432555Y570102D01*
X432573Y570059D01*
X432575Y570058D01*
X432576Y570056D01*
X432661Y570023D01*
X437164Y570023D01*
X437166Y570024D01*
G37*
G36*
X456341Y565024D02*
X456341Y565024D01*
X456343Y565023D01*
X456386Y565043D01*
X456430Y565062D01*
X456430Y565064D01*
X456432Y565064D01*
X456465Y565149D01*
X456465Y567451D01*
X456464Y567453D01*
X456465Y567455D01*
X456445Y567498D01*
X456427Y567541D01*
X456425Y567542D01*
X456424Y567544D01*
X456339Y567577D01*
X451836Y567577D01*
X451834Y567576D01*
X451832Y567577D01*
X451788Y567557D01*
X451745Y567538D01*
X451744Y567536D01*
X451742Y567536D01*
X451709Y567451D01*
X451709Y565149D01*
X451710Y565147D01*
X451709Y565145D01*
X451729Y565102D01*
X451748Y565059D01*
X451750Y565058D01*
X451751Y565056D01*
X451836Y565023D01*
X456339Y565023D01*
X456341Y565024D01*
G37*
G36*
X437166Y565024D02*
X437166Y565024D01*
X437169Y565023D01*
X437212Y565043D01*
X437255Y565062D01*
X437256Y565064D01*
X437258Y565064D01*
X437291Y565149D01*
X437291Y567451D01*
X437290Y567453D01*
X437291Y567455D01*
X437271Y567498D01*
X437252Y567541D01*
X437250Y567542D01*
X437249Y567544D01*
X437164Y567577D01*
X432661Y567577D01*
X432659Y567576D01*
X432657Y567577D01*
X432614Y567557D01*
X432570Y567538D01*
X432570Y567536D01*
X432568Y567536D01*
X432535Y567451D01*
X432535Y565149D01*
X432536Y565147D01*
X432535Y565145D01*
X432555Y565102D01*
X432573Y565059D01*
X432575Y565058D01*
X432576Y565056D01*
X432661Y565023D01*
X437164Y565023D01*
X437166Y565024D01*
G37*
G36*
X456341Y560024D02*
X456341Y560024D01*
X456343Y560023D01*
X456386Y560043D01*
X456430Y560062D01*
X456430Y560064D01*
X456432Y560064D01*
X456465Y560149D01*
X456465Y562451D01*
X456464Y562453D01*
X456465Y562455D01*
X456445Y562498D01*
X456427Y562541D01*
X456425Y562542D01*
X456424Y562544D01*
X456339Y562577D01*
X451836Y562577D01*
X451834Y562576D01*
X451832Y562577D01*
X451788Y562557D01*
X451745Y562538D01*
X451744Y562536D01*
X451742Y562536D01*
X451709Y562451D01*
X451709Y560149D01*
X451710Y560147D01*
X451709Y560145D01*
X451729Y560102D01*
X451748Y560059D01*
X451750Y560058D01*
X451751Y560056D01*
X451836Y560023D01*
X456339Y560023D01*
X456341Y560024D01*
G37*
G36*
X437166Y560024D02*
X437166Y560024D01*
X437169Y560023D01*
X437212Y560043D01*
X437255Y560062D01*
X437256Y560064D01*
X437258Y560064D01*
X437291Y560149D01*
X437291Y562451D01*
X437290Y562453D01*
X437291Y562455D01*
X437271Y562498D01*
X437252Y562541D01*
X437250Y562542D01*
X437249Y562544D01*
X437164Y562577D01*
X432661Y562577D01*
X432659Y562576D01*
X432657Y562577D01*
X432614Y562557D01*
X432570Y562538D01*
X432570Y562536D01*
X432568Y562536D01*
X432535Y562451D01*
X432535Y560149D01*
X432536Y560147D01*
X432535Y560145D01*
X432555Y560102D01*
X432573Y560059D01*
X432575Y560058D01*
X432576Y560056D01*
X432661Y560023D01*
X437164Y560023D01*
X437166Y560024D01*
G37*
G36*
X456341Y555024D02*
X456341Y555024D01*
X456343Y555023D01*
X456386Y555043D01*
X456430Y555062D01*
X456430Y555064D01*
X456432Y555064D01*
X456465Y555149D01*
X456465Y557451D01*
X456464Y557453D01*
X456465Y557455D01*
X456445Y557498D01*
X456427Y557541D01*
X456425Y557542D01*
X456424Y557544D01*
X456339Y557577D01*
X451836Y557577D01*
X451834Y557576D01*
X451832Y557577D01*
X451788Y557557D01*
X451745Y557538D01*
X451744Y557536D01*
X451742Y557536D01*
X451709Y557451D01*
X451709Y555149D01*
X451710Y555147D01*
X451709Y555145D01*
X451729Y555102D01*
X451748Y555059D01*
X451750Y555058D01*
X451751Y555056D01*
X451836Y555023D01*
X456339Y555023D01*
X456341Y555024D01*
G37*
G36*
X437166Y555024D02*
X437166Y555024D01*
X437169Y555023D01*
X437212Y555043D01*
X437255Y555062D01*
X437256Y555064D01*
X437258Y555064D01*
X437291Y555149D01*
X437291Y557451D01*
X437290Y557453D01*
X437291Y557455D01*
X437271Y557498D01*
X437252Y557541D01*
X437250Y557542D01*
X437249Y557544D01*
X437164Y557577D01*
X432661Y557577D01*
X432659Y557576D01*
X432657Y557577D01*
X432614Y557557D01*
X432570Y557538D01*
X432570Y557536D01*
X432568Y557536D01*
X432535Y557451D01*
X432535Y555149D01*
X432536Y555147D01*
X432535Y555145D01*
X432555Y555102D01*
X432573Y555059D01*
X432575Y555058D01*
X432576Y555056D01*
X432661Y555023D01*
X437164Y555023D01*
X437166Y555024D01*
G37*
G36*
X437166Y550024D02*
X437166Y550024D01*
X437169Y550023D01*
X437212Y550043D01*
X437255Y550062D01*
X437256Y550064D01*
X437258Y550064D01*
X437291Y550149D01*
X437291Y552451D01*
X437290Y552453D01*
X437291Y552455D01*
X437271Y552498D01*
X437252Y552541D01*
X437250Y552542D01*
X437249Y552544D01*
X437164Y552577D01*
X432661Y552577D01*
X432659Y552576D01*
X432657Y552577D01*
X432614Y552557D01*
X432570Y552538D01*
X432570Y552536D01*
X432568Y552536D01*
X432535Y552451D01*
X432535Y550149D01*
X432536Y550147D01*
X432535Y550145D01*
X432555Y550102D01*
X432573Y550059D01*
X432575Y550058D01*
X432576Y550056D01*
X432661Y550023D01*
X437164Y550023D01*
X437166Y550024D01*
G37*
G36*
X456341Y550024D02*
X456341Y550024D01*
X456343Y550023D01*
X456386Y550043D01*
X456430Y550062D01*
X456430Y550064D01*
X456432Y550064D01*
X456465Y550149D01*
X456465Y552451D01*
X456464Y552453D01*
X456465Y552455D01*
X456445Y552498D01*
X456427Y552541D01*
X456425Y552542D01*
X456424Y552544D01*
X456339Y552577D01*
X451836Y552577D01*
X451834Y552576D01*
X451832Y552577D01*
X451788Y552557D01*
X451745Y552538D01*
X451744Y552536D01*
X451742Y552536D01*
X451709Y552451D01*
X451709Y550149D01*
X451710Y550147D01*
X451709Y550145D01*
X451729Y550102D01*
X451748Y550059D01*
X451750Y550058D01*
X451751Y550056D01*
X451836Y550023D01*
X456339Y550023D01*
X456341Y550024D01*
G37*
G36*
X456341Y545024D02*
X456341Y545024D01*
X456343Y545023D01*
X456386Y545043D01*
X456430Y545062D01*
X456430Y545064D01*
X456432Y545064D01*
X456465Y545149D01*
X456465Y547451D01*
X456464Y547453D01*
X456465Y547455D01*
X456445Y547498D01*
X456427Y547541D01*
X456425Y547542D01*
X456424Y547544D01*
X456339Y547577D01*
X451836Y547577D01*
X451834Y547576D01*
X451832Y547577D01*
X451788Y547557D01*
X451745Y547538D01*
X451744Y547536D01*
X451742Y547536D01*
X451709Y547451D01*
X451709Y545149D01*
X451710Y545147D01*
X451709Y545145D01*
X451729Y545102D01*
X451748Y545059D01*
X451750Y545058D01*
X451751Y545056D01*
X451836Y545023D01*
X456339Y545023D01*
X456341Y545024D01*
G37*
G36*
X437166Y545024D02*
X437166Y545024D01*
X437169Y545023D01*
X437212Y545043D01*
X437255Y545062D01*
X437256Y545064D01*
X437258Y545064D01*
X437291Y545149D01*
X437291Y547451D01*
X437290Y547453D01*
X437291Y547455D01*
X437271Y547498D01*
X437252Y547541D01*
X437250Y547542D01*
X437249Y547544D01*
X437164Y547577D01*
X432661Y547577D01*
X432659Y547576D01*
X432657Y547577D01*
X432614Y547557D01*
X432570Y547538D01*
X432570Y547536D01*
X432568Y547536D01*
X432535Y547451D01*
X432535Y545149D01*
X432536Y545147D01*
X432535Y545145D01*
X432555Y545102D01*
X432573Y545059D01*
X432575Y545058D01*
X432576Y545056D01*
X432661Y545023D01*
X437164Y545023D01*
X437166Y545024D01*
G37*
G36*
X456341Y570024D02*
X456341Y570024D01*
X456343Y570023D01*
X456386Y570043D01*
X456430Y570062D01*
X456430Y570064D01*
X456432Y570064D01*
X456465Y570149D01*
X456465Y572451D01*
X456464Y572453D01*
X456465Y572455D01*
X456445Y572498D01*
X456427Y572541D01*
X456425Y572542D01*
X456424Y572544D01*
X456339Y572577D01*
X451836Y572577D01*
X451834Y572576D01*
X451832Y572577D01*
X451788Y572557D01*
X451745Y572538D01*
X451744Y572536D01*
X451742Y572536D01*
X451709Y572451D01*
X451709Y570149D01*
X451710Y570147D01*
X451709Y570145D01*
X451729Y570102D01*
X451748Y570059D01*
X451750Y570058D01*
X451751Y570056D01*
X451836Y570023D01*
X456339Y570023D01*
X456341Y570024D01*
G37*
G36*
X576902Y565025D02*
X576902Y565025D01*
X576904Y565024D01*
X576947Y565044D01*
X576991Y565062D01*
X576991Y565064D01*
X576993Y565065D01*
X577026Y565150D01*
X577026Y567450D01*
X577025Y567452D01*
X577026Y567454D01*
X577006Y567497D01*
X576988Y567541D01*
X576986Y567541D01*
X576985Y567543D01*
X576900Y567576D01*
X572400Y567576D01*
X572398Y567575D01*
X572396Y567576D01*
X572353Y567556D01*
X572309Y567538D01*
X572309Y567536D01*
X572307Y567535D01*
X572274Y567450D01*
X572274Y565150D01*
X572275Y565148D01*
X572274Y565146D01*
X572294Y565103D01*
X572312Y565059D01*
X572314Y565059D01*
X572315Y565057D01*
X572400Y565024D01*
X576900Y565024D01*
X576902Y565025D01*
G37*
G36*
X557902Y565025D02*
X557902Y565025D01*
X557904Y565024D01*
X557947Y565044D01*
X557991Y565062D01*
X557991Y565064D01*
X557993Y565065D01*
X558026Y565150D01*
X558026Y567450D01*
X558025Y567452D01*
X558026Y567454D01*
X558006Y567497D01*
X557988Y567541D01*
X557986Y567541D01*
X557985Y567543D01*
X557900Y567576D01*
X553400Y567576D01*
X553398Y567575D01*
X553396Y567576D01*
X553353Y567556D01*
X553309Y567538D01*
X553309Y567536D01*
X553307Y567535D01*
X553274Y567450D01*
X553274Y565150D01*
X553275Y565148D01*
X553274Y565146D01*
X553294Y565103D01*
X553312Y565059D01*
X553314Y565059D01*
X553315Y565057D01*
X553400Y565024D01*
X557900Y565024D01*
X557902Y565025D01*
G37*
G36*
X576902Y560025D02*
X576902Y560025D01*
X576904Y560024D01*
X576947Y560044D01*
X576991Y560062D01*
X576991Y560064D01*
X576993Y560065D01*
X577026Y560150D01*
X577026Y562450D01*
X577025Y562452D01*
X577026Y562454D01*
X577006Y562497D01*
X576988Y562541D01*
X576986Y562541D01*
X576985Y562543D01*
X576900Y562576D01*
X572400Y562576D01*
X572398Y562575D01*
X572396Y562576D01*
X572353Y562556D01*
X572309Y562538D01*
X572309Y562536D01*
X572307Y562535D01*
X572274Y562450D01*
X572274Y560150D01*
X572275Y560148D01*
X572274Y560146D01*
X572294Y560103D01*
X572312Y560059D01*
X572314Y560059D01*
X572315Y560057D01*
X572400Y560024D01*
X576900Y560024D01*
X576902Y560025D01*
G37*
G36*
X557902Y560025D02*
X557902Y560025D01*
X557904Y560024D01*
X557947Y560044D01*
X557991Y560062D01*
X557991Y560064D01*
X557993Y560065D01*
X558026Y560150D01*
X558026Y562450D01*
X558025Y562452D01*
X558026Y562454D01*
X558006Y562497D01*
X557988Y562541D01*
X557986Y562541D01*
X557985Y562543D01*
X557900Y562576D01*
X553400Y562576D01*
X553398Y562575D01*
X553396Y562576D01*
X553353Y562556D01*
X553309Y562538D01*
X553309Y562536D01*
X553307Y562535D01*
X553274Y562450D01*
X553274Y560150D01*
X553275Y560148D01*
X553274Y560146D01*
X553294Y560103D01*
X553312Y560059D01*
X553314Y560059D01*
X553315Y560057D01*
X553400Y560024D01*
X557900Y560024D01*
X557902Y560025D01*
G37*
G36*
X557902Y555025D02*
X557902Y555025D01*
X557904Y555024D01*
X557947Y555044D01*
X557991Y555062D01*
X557991Y555064D01*
X557993Y555065D01*
X558026Y555150D01*
X558026Y557450D01*
X558025Y557452D01*
X558026Y557454D01*
X558006Y557497D01*
X557988Y557541D01*
X557986Y557541D01*
X557985Y557543D01*
X557900Y557576D01*
X553400Y557576D01*
X553398Y557575D01*
X553396Y557576D01*
X553353Y557556D01*
X553309Y557538D01*
X553309Y557536D01*
X553307Y557535D01*
X553274Y557450D01*
X553274Y555150D01*
X553275Y555148D01*
X553274Y555146D01*
X553294Y555103D01*
X553312Y555059D01*
X553314Y555059D01*
X553315Y555057D01*
X553400Y555024D01*
X557900Y555024D01*
X557902Y555025D01*
G37*
G36*
X576902Y555025D02*
X576902Y555025D01*
X576904Y555024D01*
X576947Y555044D01*
X576991Y555062D01*
X576991Y555064D01*
X576993Y555065D01*
X577026Y555150D01*
X577026Y557450D01*
X577025Y557452D01*
X577026Y557454D01*
X577006Y557497D01*
X576988Y557541D01*
X576986Y557541D01*
X576985Y557543D01*
X576900Y557576D01*
X572400Y557576D01*
X572398Y557575D01*
X572396Y557576D01*
X572353Y557556D01*
X572309Y557538D01*
X572309Y557536D01*
X572307Y557535D01*
X572274Y557450D01*
X572274Y555150D01*
X572275Y555148D01*
X572274Y555146D01*
X572294Y555103D01*
X572312Y555059D01*
X572314Y555059D01*
X572315Y555057D01*
X572400Y555024D01*
X576900Y555024D01*
X576902Y555025D01*
G37*
G36*
X557902Y550025D02*
X557902Y550025D01*
X557904Y550024D01*
X557947Y550044D01*
X557991Y550062D01*
X557991Y550064D01*
X557993Y550065D01*
X558026Y550150D01*
X558026Y552450D01*
X558025Y552452D01*
X558026Y552454D01*
X558006Y552497D01*
X557988Y552541D01*
X557986Y552541D01*
X557985Y552543D01*
X557900Y552576D01*
X553400Y552576D01*
X553398Y552575D01*
X553396Y552576D01*
X553353Y552556D01*
X553309Y552538D01*
X553309Y552536D01*
X553307Y552535D01*
X553274Y552450D01*
X553274Y550150D01*
X553275Y550148D01*
X553274Y550146D01*
X553294Y550103D01*
X553312Y550059D01*
X553314Y550059D01*
X553315Y550057D01*
X553400Y550024D01*
X557900Y550024D01*
X557902Y550025D01*
G37*
G36*
X576902Y550025D02*
X576902Y550025D01*
X576904Y550024D01*
X576947Y550044D01*
X576991Y550062D01*
X576991Y550064D01*
X576993Y550065D01*
X577026Y550150D01*
X577026Y552450D01*
X577025Y552452D01*
X577026Y552454D01*
X577006Y552497D01*
X576988Y552541D01*
X576986Y552541D01*
X576985Y552543D01*
X576900Y552576D01*
X572400Y552576D01*
X572398Y552575D01*
X572396Y552576D01*
X572353Y552556D01*
X572309Y552538D01*
X572309Y552536D01*
X572307Y552535D01*
X572274Y552450D01*
X572274Y550150D01*
X572275Y550148D01*
X572274Y550146D01*
X572294Y550103D01*
X572312Y550059D01*
X572314Y550059D01*
X572315Y550057D01*
X572400Y550024D01*
X576900Y550024D01*
X576902Y550025D01*
G37*
G36*
X568848Y563612D02*
X568848Y563612D01*
X568850Y563611D01*
X568893Y563631D01*
X568936Y563649D01*
X568937Y563651D01*
X568939Y563652D01*
X568972Y563737D01*
X568972Y566052D01*
X568971Y566054D01*
X568972Y566056D01*
X568952Y566099D01*
X568934Y566142D01*
X568932Y566143D01*
X568931Y566145D01*
X568846Y566178D01*
X566150Y566178D01*
X566148Y566177D01*
X566146Y566178D01*
X566103Y566158D01*
X566059Y566140D01*
X566059Y566138D01*
X566057Y566137D01*
X566024Y566052D01*
X566024Y565151D01*
X566025Y565148D01*
X566024Y565145D01*
X566061Y565062D01*
X567475Y563648D01*
X567478Y563647D01*
X567479Y563644D01*
X567564Y563611D01*
X568846Y563611D01*
X568848Y563612D01*
G37*
G36*
X562739Y563612D02*
X562739Y563612D01*
X562742Y563611D01*
X562825Y563648D01*
X564239Y565062D01*
X564241Y565065D01*
X564243Y565066D01*
X564276Y565151D01*
X564276Y566052D01*
X564275Y566054D01*
X564276Y566056D01*
X564256Y566099D01*
X564238Y566142D01*
X564236Y566143D01*
X564235Y566145D01*
X564150Y566178D01*
X561454Y566178D01*
X561452Y566177D01*
X561450Y566178D01*
X561407Y566158D01*
X561364Y566140D01*
X561363Y566138D01*
X561361Y566137D01*
X561328Y566052D01*
X561328Y563737D01*
X561329Y563735D01*
X561328Y563733D01*
X561348Y563690D01*
X561366Y563646D01*
X561369Y563646D01*
X561369Y563644D01*
X561454Y563611D01*
X562736Y563611D01*
X562739Y563612D01*
G37*
G36*
X568848Y551423D02*
X568848Y551423D01*
X568850Y551422D01*
X568893Y551442D01*
X568936Y551460D01*
X568937Y551463D01*
X568939Y551463D01*
X568972Y551548D01*
X568972Y553863D01*
X568971Y553865D01*
X568972Y553867D01*
X568952Y553910D01*
X568934Y553954D01*
X568932Y553954D01*
X568931Y553956D01*
X568846Y553989D01*
X567564Y553989D01*
X567561Y553988D01*
X567558Y553989D01*
X567475Y553952D01*
X566061Y552538D01*
X566060Y552535D01*
X566057Y552534D01*
X566024Y552449D01*
X566024Y551548D01*
X566025Y551546D01*
X566024Y551544D01*
X566044Y551501D01*
X566062Y551458D01*
X566064Y551457D01*
X566065Y551455D01*
X566150Y551422D01*
X568846Y551422D01*
X568848Y551423D01*
G37*
G36*
X564152Y551423D02*
X564152Y551423D01*
X564154Y551422D01*
X564197Y551442D01*
X564241Y551460D01*
X564241Y551463D01*
X564243Y551463D01*
X564276Y551548D01*
X564276Y552449D01*
X564275Y552452D01*
X564276Y552455D01*
X564239Y552538D01*
X562825Y553952D01*
X562822Y553954D01*
X562821Y553956D01*
X562736Y553989D01*
X561454Y553989D01*
X561452Y553988D01*
X561450Y553989D01*
X561407Y553969D01*
X561364Y553951D01*
X561363Y553949D01*
X561361Y553948D01*
X561328Y553863D01*
X561328Y551548D01*
X561329Y551546D01*
X561328Y551544D01*
X561348Y551501D01*
X561366Y551458D01*
X561369Y551457D01*
X561369Y551455D01*
X561454Y551422D01*
X564150Y551422D01*
X564152Y551423D01*
G37*
D10*
X322580Y451240D03*
X322580Y468240D03*
X341630Y468240D03*
X341630Y451240D03*
X158750Y131690D03*
X158750Y114690D03*
D11*
X546862Y60300D03*
X546862Y50800D03*
X546862Y41300D03*
X570738Y41300D03*
X570738Y50800D03*
X570738Y60300D03*
D12*
X505850Y41910D03*
X522850Y41910D03*
X505850Y62230D03*
X522850Y62230D03*
X578730Y82550D03*
X561730Y82550D03*
D10*
X594750Y82750D03*
X611750Y82750D03*
D13*
X598930Y55880D03*
X617930Y55880D03*
D14*
X279400Y290220D03*
X279400Y309220D03*
X543560Y200000D03*
X543560Y181000D03*
D15*
X511810Y200000D03*
X511810Y181000D03*
D14*
X487680Y181000D03*
X487680Y200000D03*
D15*
X565150Y295300D03*
X565150Y314300D03*
X612140Y295300D03*
X612140Y314300D03*
D16*
X530800Y400050D03*
D17*
X525339Y387350D02*
X536261Y387350D01*
X536261Y374650D02*
X525339Y374650D01*
X525339Y361950D02*
X536261Y361950D01*
X581339Y361950D02*
X592261Y361950D01*
X592261Y374650D02*
X581339Y374650D01*
X581339Y387350D02*
X592261Y387350D01*
X592261Y400050D02*
X581339Y400050D01*
D15*
X617220Y390500D03*
X617220Y371500D03*
D12*
X567300Y419100D03*
X550300Y419100D03*
D10*
X499110Y338700D03*
X499110Y321700D03*
D12*
X588400Y419000D03*
X605400Y419000D03*
D16*
X416500Y400150D03*
D17*
X411039Y387450D02*
X421961Y387450D01*
X421961Y374750D02*
X411039Y374750D01*
X411039Y362050D02*
X421961Y362050D01*
X467039Y362050D02*
X477961Y362050D01*
X477961Y374750D02*
X467039Y374750D01*
X467039Y387450D02*
X477961Y387450D01*
X477961Y400150D02*
X467039Y400150D01*
D15*
X501650Y371500D03*
X501650Y390500D03*
D10*
X474980Y338700D03*
X474980Y321700D03*
D12*
X453000Y419100D03*
X436000Y419100D03*
X474100Y419000D03*
X491100Y419000D03*
D18*
X532900Y254000D03*
X584900Y254000D03*
X532900Y266700D03*
X532900Y241300D03*
X532900Y228600D03*
X584900Y266700D03*
X584900Y241300D03*
X584900Y228600D03*
D19*
X606400Y203200D03*
X587400Y203200D03*
D15*
X487680Y231800D03*
X487680Y250800D03*
D19*
X606400Y177900D03*
X587400Y177900D03*
D15*
X612140Y239420D03*
X612140Y258420D03*
D20*
X434365Y571300D03*
X434365Y566300D03*
X434365Y561300D03*
X434365Y556300D03*
X434365Y551300D03*
X434365Y546300D03*
X454635Y546300D03*
X454635Y551300D03*
X454635Y556300D03*
X454635Y561300D03*
X454635Y566300D03*
X454635Y571300D03*
D21*
X444500Y558800D03*
D15*
X490220Y549300D03*
X490220Y568300D03*
D10*
X490220Y277250D03*
X490220Y294250D03*
X472440Y277250D03*
X472440Y294250D03*
D14*
X571500Y117500D03*
X571500Y136500D03*
D12*
X423300Y596900D03*
X440300Y596900D03*
X461400Y596900D03*
X478400Y596900D03*
D22*
X554340Y566300D03*
X554340Y561300D03*
X554340Y556300D03*
X554340Y551300D03*
X575960Y551300D03*
X575960Y556300D03*
X575960Y561300D03*
X575960Y566300D03*
D12*
X516500Y596900D03*
X499500Y596900D03*
D10*
X600710Y567300D03*
X600710Y550300D03*
D19*
X581050Y596900D03*
X600050Y596900D03*
D23*
X508508Y140770D03*
X508508Y135770D03*
X508508Y130770D03*
X508508Y125770D03*
X508508Y120770D03*
X508508Y115770D03*
X537972Y115770D03*
X537972Y120770D03*
X537972Y125770D03*
X537972Y130770D03*
X537972Y135770D03*
X537972Y140770D03*
M02*
