M48
;GenerationSoftware,Autodesk,EAGLE,9.5.1*%
;CreationDate,2020-06-25T02:45:24Z*%
FMAT,2
ICI,OFF
METRIC,TZ,000.000
T8C0.200
T7C0.279
T6C0.330
T5C0.350
T4C0.737
T3C0.914
T2C1.000
T1C1.100
%
G90
M71
T1
X49987Y64747
X55067Y64747
X60147Y64747
X57607Y64747
X43180Y18415
X43180Y23495
X43180Y20955
X43170Y5588
X43170Y8128
X52527Y64747
X38859Y64747
X36319Y64747
X42367Y64747
X31239Y64747
X43180Y12192
X33779Y64747
X44907Y64747
X47447Y64747
X28699Y64747
X26159Y64747
X23619Y64747
X21079Y64747
X43180Y14732
T2
X13970Y27940
X13970Y25400
X13970Y22860
X13970Y20320
X13970Y17780
X13970Y15240
X13970Y12700
X13970Y10160
X36830Y10160
X36830Y12700
X36830Y15240
X36830Y17780
X36830Y20320
X36830Y22860
X36830Y25400
X36830Y27940
X36830Y30480
X36830Y33020
X36830Y35560
X36830Y38100
X36830Y43180
X36830Y45720
X36830Y48260
X36830Y50800
X36830Y53340
X36830Y55880
X36830Y58420
X13970Y58420
X13970Y55880
X13970Y53340
X13970Y50800
X13970Y48260
X13970Y45720
X13970Y43180
X36830Y40640
X13970Y40640
X13970Y38100
X13970Y35560
X13970Y33020
X13970Y30480
T3
X8636Y24130
X6096Y24130
X8636Y26670
X6096Y26670
X8636Y29210
X6096Y29210
X8636Y31750
X6096Y31750
X6096Y21590
X6096Y34290
X8636Y36830
X6096Y36830
X6096Y39370
X8636Y41910
X6096Y41910
X8636Y44450
X6096Y44450
X8636Y46990
X6096Y46990
X8636Y49530
X6096Y49530
X8636Y52070
X6096Y52070
X6096Y13970
X6096Y54610
X8636Y57150
X6096Y57150
X8636Y59690
X6096Y59690
X8636Y13970
X6096Y11430
X8636Y11430
X8636Y34290
X8636Y54610
X8636Y16510
X8636Y39370
X6096Y16510
X8636Y19050
X6096Y19050
X8636Y21590
T4
X8382Y5207
X8382Y6477
X42672Y29591
X7112Y5207
X43942Y29591
X9652Y6477
X42672Y28321
X42672Y30861
X43942Y28321
X43942Y30861
X9652Y5207
X7112Y6477
T5
X31750Y6350
X30480Y6350
X41910Y31750
X27940Y6350
X34953Y29210
X12700Y16510
X29210Y6350
X35306Y28067
X11656Y16383
X38354Y26797
X52959Y33020
X60579Y33020
X41529Y57785
X54610Y7620
X34671Y61595
X43307Y62611
X46101Y61468
X24511Y10160
X10735Y5080
X6223Y9652
X11811Y5080
X41910Y26670
X30734Y34798
X23876Y35072
X17272Y50800
X17780Y57150
X19050Y59690
X16510Y59690
X46990Y55880
X30988Y60706
X36830Y60579
X39271Y60452
X46736Y54737
X30480Y62230
X37465Y62230
X40005Y62230
X49911Y10922
X41783Y10033
X41402Y66040
X58547Y4064
X38735Y37846
X61214Y9652
X12954Y34290
X23876Y34163
X34290Y43180
X27940Y26289
X28829Y57150
X27940Y50292
X53340Y59690
X37465Y59690
X53086Y41148
X54991Y37973
X53975Y56134
X55880Y20320
X50673Y22225
X51181Y24130
X50292Y27686
X56515Y18288
X61087Y21844
X50800Y40640
X47244Y43434
X56515Y23495
X52070Y34925
X52578Y55753
X40005Y38735
X44069Y51435
X34798Y48260
X56261Y53947
X54610Y59690
X57658Y53848
X58928Y53848
X59690Y58039
X53594Y10414
X51775Y12123
X36830Y6350
X40259Y23495
X40640Y34290
X52832Y17653
X52197Y10033
X35560Y6350
X30099Y44450
X19177Y50927
X16510Y48209
X53467Y5207
X45466Y27813
X51181Y30988
X40894Y7239
X40894Y4572
X39370Y11811
X41910Y17018
X39370Y12827
X39370Y10795
X31242Y22098
X31242Y21082
X12446Y46863
X12446Y45212
X12446Y43561
X12446Y41910
X16510Y40640
X16510Y39370
X16510Y38100
X16510Y36830
X49149Y6604
X49149Y5461
X43815Y43688
X44831Y43688
X45847Y43688
X50419Y44069
X51562Y44069
X52705Y44069
X58420Y15240
X59690Y15240
X60960Y15240
X59690Y13970
X60960Y13970
X59690Y12700
X60960Y12700
X59690Y11430
X60960Y11430
X43180Y25400
X41910Y25400
X15621Y16510
X15621Y15494
X15621Y14478
X53340Y58420
X52070Y58166
X52070Y57150
X62103Y20574
X62103Y19050
X62103Y17272
X51181Y29845
X41910Y15875
X45593Y19050
X44577Y19812
X31369Y62992
X34671Y62992
X36322Y62992
X55753Y37084
X56769Y37084
X55753Y36068
X56769Y36068
X31242Y20066
X19558Y27178
X18415Y29972
X34290Y6350
X33020Y6350
X52324Y12827
X52873Y13531
X51775Y13531
X52873Y12123
T6
X24917Y40792
X25908Y40792
X26899Y40792
X27889Y40792
X22936Y41783
X23927Y41783
X24917Y41783
X25908Y41783
X26899Y41783
X27889Y41783
X22936Y42774
X23927Y42774
X24917Y42774
X25908Y42774
X26899Y42774
X27889Y42774
X22936Y43764
X24917Y12700
X24917Y43764
X25908Y43764
X26899Y43764
X27889Y43764
X22936Y44755
X23927Y44755
X24917Y44755
X25908Y44755
X26899Y44755
X27889Y44755
X22936Y40792
X23927Y40792
X23927Y12700
X22936Y12700
X26899Y12700
X27889Y12700
X22936Y13691
X23927Y13691
X24917Y13691
X25908Y13691
X26899Y13691
X27889Y13691
X22936Y14681
X23927Y14681
X24917Y14681
X25908Y14681
X26899Y14681
X27889Y14681
X22936Y15672
X23927Y15672
X24917Y15672
X25908Y15672
X26899Y15672
X27889Y15672
X22936Y16662
X23927Y16662
X24917Y16662
X25908Y16662
X26899Y16662
X27889Y16662
X22936Y17653
X23927Y17653
X24917Y17653
X25908Y17653
X26899Y17653
X27889Y17653
X25908Y12700
X22936Y18644
X23927Y18644
X24917Y18644
X25908Y18644
X26899Y18644
X27889Y18644
X22936Y19634
X23927Y19634
X24917Y19634
X25908Y19634
X26899Y19634
X27889Y19634
X22936Y20625
X23927Y20625
X24917Y20625
X25908Y20625
X26899Y20625
X22936Y38811
X27889Y20625
X22936Y36830
X23927Y36830
X24917Y36830
X25908Y36830
X26899Y36830
X27889Y36830
X22936Y37821
X23927Y37821
X24917Y37821
X25908Y37821
X26899Y37821
X27889Y37821
X23927Y43764
X23927Y38811
X24917Y38811
X25908Y38811
X26899Y38811
X27889Y38811
X22936Y39802
X23927Y39802
X24917Y39802
X25908Y39802
X26899Y39802
X27889Y39802
T7
X44450Y56388
X44450Y55372
T8
X56515Y56430
X56515Y55330
M30