G04 EAGLE Gerber RS-274X export*
G75*
%MOMM*%
%FSLAX34Y34*%
%LPD*%
%INSilkscreen Top*%
%IPPOS*%
%AMOC8*
5,1,8,0,0,1.08239X$1,22.5*%
G01*
%ADD10C,0.101600*%
%ADD11C,0.076200*%
%ADD12C,0.127000*%
%ADD13C,0.025400*%
%ADD14C,0.152400*%
%ADD15C,0.203200*%
%ADD16C,0.050800*%
%ADD17C,0.254000*%

G36*
X463130Y559270D02*
X463130Y559270D01*
X463132Y559269D01*
X463175Y559289D01*
X463219Y559307D01*
X463219Y559309D01*
X463221Y559310D01*
X463254Y559395D01*
X463254Y563205D01*
X463253Y563207D01*
X463254Y563209D01*
X463234Y563252D01*
X463216Y563296D01*
X463214Y563296D01*
X463213Y563298D01*
X463128Y563331D01*
X460588Y563331D01*
X460586Y563330D01*
X460584Y563331D01*
X460541Y563311D01*
X460497Y563293D01*
X460497Y563291D01*
X460495Y563290D01*
X460462Y563205D01*
X460462Y559395D01*
X460463Y559393D01*
X460462Y559391D01*
X460482Y559348D01*
X460500Y559304D01*
X460502Y559304D01*
X460503Y559302D01*
X460588Y559269D01*
X463128Y559269D01*
X463130Y559270D01*
G37*
D10*
X469223Y54582D02*
X477012Y54582D01*
X473117Y58476D02*
X473117Y50687D01*
X472468Y79248D02*
X472468Y87037D01*
X471819Y178737D02*
X474077Y178737D01*
X471819Y178737D02*
X471745Y178739D01*
X471672Y178745D01*
X471598Y178754D01*
X471526Y178768D01*
X471454Y178785D01*
X471383Y178806D01*
X471313Y178831D01*
X471245Y178859D01*
X471178Y178891D01*
X471114Y178926D01*
X471051Y178965D01*
X470990Y179006D01*
X470931Y179051D01*
X470875Y179099D01*
X470821Y179150D01*
X470770Y179204D01*
X470722Y179260D01*
X470677Y179319D01*
X470636Y179380D01*
X470597Y179443D01*
X470562Y179507D01*
X470530Y179574D01*
X470502Y179642D01*
X470477Y179712D01*
X470456Y179783D01*
X470439Y179855D01*
X470425Y179927D01*
X470416Y180001D01*
X470410Y180074D01*
X470408Y180148D01*
X470410Y180222D01*
X470416Y180295D01*
X470425Y180369D01*
X470439Y180441D01*
X470456Y180513D01*
X470477Y180584D01*
X470502Y180654D01*
X470530Y180722D01*
X470562Y180789D01*
X470597Y180854D01*
X470636Y180916D01*
X470677Y180977D01*
X470722Y181036D01*
X470770Y181092D01*
X470821Y181146D01*
X470875Y181197D01*
X470931Y181245D01*
X470990Y181290D01*
X471051Y181331D01*
X471114Y181370D01*
X471178Y181405D01*
X471245Y181437D01*
X471313Y181465D01*
X471383Y181490D01*
X471454Y181511D01*
X471526Y181528D01*
X471598Y181542D01*
X471672Y181551D01*
X471745Y181557D01*
X471819Y181559D01*
X474077Y181559D01*
X474151Y181557D01*
X474224Y181551D01*
X474298Y181542D01*
X474370Y181528D01*
X474442Y181511D01*
X474513Y181490D01*
X474583Y181465D01*
X474651Y181437D01*
X474718Y181405D01*
X474783Y181370D01*
X474845Y181331D01*
X474906Y181290D01*
X474965Y181245D01*
X475021Y181197D01*
X475075Y181146D01*
X475126Y181092D01*
X475174Y181036D01*
X475219Y180977D01*
X475260Y180916D01*
X475299Y180854D01*
X475334Y180789D01*
X475366Y180722D01*
X475394Y180654D01*
X475419Y180584D01*
X475440Y180513D01*
X475457Y180441D01*
X475471Y180369D01*
X475480Y180295D01*
X475486Y180222D01*
X475488Y180148D01*
X475486Y180074D01*
X475480Y180001D01*
X475471Y179927D01*
X475457Y179855D01*
X475440Y179783D01*
X475419Y179712D01*
X475394Y179642D01*
X475366Y179574D01*
X475334Y179507D01*
X475299Y179443D01*
X475260Y179380D01*
X475219Y179319D01*
X475174Y179260D01*
X475126Y179204D01*
X475075Y179150D01*
X475021Y179099D01*
X474965Y179051D01*
X474906Y179006D01*
X474845Y178965D01*
X474783Y178926D01*
X474718Y178891D01*
X474651Y178859D01*
X474583Y178831D01*
X474513Y178806D01*
X474442Y178785D01*
X474370Y178768D01*
X474298Y178754D01*
X474224Y178745D01*
X474151Y178739D01*
X474077Y178737D01*
X474077Y184406D02*
X470408Y184406D01*
X474077Y184406D02*
X474151Y184408D01*
X474224Y184414D01*
X474298Y184423D01*
X474370Y184437D01*
X474442Y184454D01*
X474513Y184475D01*
X474583Y184500D01*
X474651Y184528D01*
X474718Y184560D01*
X474783Y184595D01*
X474845Y184634D01*
X474906Y184675D01*
X474965Y184720D01*
X475021Y184768D01*
X475075Y184819D01*
X475126Y184873D01*
X475174Y184929D01*
X475219Y184988D01*
X475260Y185049D01*
X475299Y185112D01*
X475334Y185176D01*
X475366Y185243D01*
X475394Y185311D01*
X475419Y185381D01*
X475440Y185452D01*
X475457Y185524D01*
X475471Y185596D01*
X475480Y185670D01*
X475486Y185743D01*
X475488Y185817D01*
X475486Y185891D01*
X475480Y185964D01*
X475471Y186038D01*
X475457Y186110D01*
X475440Y186182D01*
X475419Y186253D01*
X475394Y186323D01*
X475366Y186391D01*
X475334Y186458D01*
X475299Y186523D01*
X475260Y186585D01*
X475219Y186646D01*
X475174Y186705D01*
X475126Y186761D01*
X475075Y186815D01*
X475021Y186866D01*
X474965Y186914D01*
X474906Y186959D01*
X474845Y187000D01*
X474783Y187039D01*
X474718Y187074D01*
X474651Y187106D01*
X474583Y187134D01*
X474513Y187159D01*
X474442Y187180D01*
X474370Y187197D01*
X474298Y187211D01*
X474224Y187220D01*
X474151Y187226D01*
X474077Y187228D01*
X474077Y187229D02*
X470408Y187229D01*
X470408Y191121D02*
X475488Y191121D01*
X470408Y189710D02*
X470408Y192532D01*
X472666Y205381D02*
X472666Y206228D01*
X475488Y206228D01*
X475488Y204534D01*
X475486Y204468D01*
X475480Y204403D01*
X475471Y204338D01*
X475458Y204274D01*
X475441Y204210D01*
X475420Y204148D01*
X475396Y204087D01*
X475368Y204027D01*
X475337Y203970D01*
X475302Y203914D01*
X475265Y203860D01*
X475224Y203808D01*
X475180Y203759D01*
X475134Y203713D01*
X475085Y203669D01*
X475033Y203628D01*
X474979Y203591D01*
X474924Y203556D01*
X474866Y203525D01*
X474806Y203497D01*
X474745Y203473D01*
X474683Y203452D01*
X474619Y203435D01*
X474555Y203422D01*
X474490Y203413D01*
X474425Y203407D01*
X474359Y203405D01*
X471537Y203405D01*
X471471Y203407D01*
X471406Y203413D01*
X471341Y203422D01*
X471277Y203435D01*
X471213Y203452D01*
X471151Y203473D01*
X471090Y203497D01*
X471030Y203525D01*
X470973Y203556D01*
X470917Y203591D01*
X470863Y203628D01*
X470811Y203669D01*
X470762Y203713D01*
X470716Y203759D01*
X470672Y203808D01*
X470631Y203860D01*
X470594Y203914D01*
X470559Y203969D01*
X470528Y204027D01*
X470500Y204087D01*
X470476Y204148D01*
X470455Y204210D01*
X470438Y204274D01*
X470425Y204338D01*
X470416Y204403D01*
X470410Y204468D01*
X470408Y204534D01*
X470408Y206228D01*
X470408Y209258D02*
X475488Y209258D01*
X475488Y212080D02*
X470408Y209258D01*
X470408Y212080D02*
X475488Y212080D01*
X475488Y215110D02*
X470408Y215110D01*
X470408Y216521D01*
X470410Y216595D01*
X470416Y216668D01*
X470425Y216742D01*
X470439Y216814D01*
X470456Y216886D01*
X470477Y216957D01*
X470502Y217027D01*
X470530Y217095D01*
X470562Y217162D01*
X470597Y217227D01*
X470636Y217289D01*
X470677Y217350D01*
X470722Y217409D01*
X470770Y217465D01*
X470821Y217519D01*
X470875Y217570D01*
X470931Y217618D01*
X470990Y217663D01*
X471051Y217704D01*
X471114Y217743D01*
X471178Y217778D01*
X471245Y217810D01*
X471313Y217838D01*
X471383Y217863D01*
X471454Y217884D01*
X471526Y217901D01*
X471598Y217915D01*
X471672Y217924D01*
X471745Y217930D01*
X471819Y217932D01*
X474077Y217932D01*
X474151Y217930D01*
X474224Y217924D01*
X474298Y217915D01*
X474370Y217901D01*
X474442Y217884D01*
X474513Y217863D01*
X474583Y217838D01*
X474651Y217810D01*
X474718Y217778D01*
X474783Y217743D01*
X474845Y217704D01*
X474906Y217663D01*
X474965Y217618D01*
X475021Y217570D01*
X475075Y217519D01*
X475126Y217465D01*
X475174Y217409D01*
X475219Y217350D01*
X475260Y217289D01*
X475299Y217226D01*
X475334Y217162D01*
X475366Y217095D01*
X475394Y217027D01*
X475419Y216957D01*
X475440Y216886D01*
X475457Y216814D01*
X475471Y216742D01*
X475480Y216668D01*
X475486Y216595D01*
X475488Y216521D01*
X475488Y215110D01*
X473512Y226067D02*
X473512Y229454D01*
X471819Y227760D02*
X475206Y227760D01*
X475488Y232201D02*
X475488Y233895D01*
X475486Y233961D01*
X475480Y234026D01*
X475471Y234091D01*
X475458Y234155D01*
X475441Y234219D01*
X475420Y234281D01*
X475396Y234342D01*
X475368Y234402D01*
X475337Y234460D01*
X475302Y234515D01*
X475265Y234569D01*
X475224Y234621D01*
X475180Y234670D01*
X475134Y234716D01*
X475085Y234760D01*
X475033Y234801D01*
X474979Y234838D01*
X474924Y234873D01*
X474866Y234904D01*
X474806Y234932D01*
X474745Y234956D01*
X474683Y234977D01*
X474619Y234994D01*
X474555Y235007D01*
X474490Y235016D01*
X474425Y235022D01*
X474359Y235024D01*
X474359Y235023D02*
X473795Y235023D01*
X473729Y235021D01*
X473664Y235015D01*
X473599Y235006D01*
X473535Y234993D01*
X473471Y234976D01*
X473409Y234955D01*
X473348Y234931D01*
X473288Y234903D01*
X473231Y234872D01*
X473175Y234837D01*
X473121Y234800D01*
X473069Y234759D01*
X473020Y234715D01*
X472974Y234669D01*
X472930Y234620D01*
X472889Y234568D01*
X472852Y234514D01*
X472817Y234459D01*
X472786Y234401D01*
X472758Y234341D01*
X472734Y234280D01*
X472713Y234218D01*
X472696Y234154D01*
X472683Y234090D01*
X472674Y234025D01*
X472668Y233960D01*
X472666Y233894D01*
X472666Y233895D02*
X472666Y232201D01*
X470408Y232201D01*
X470408Y235023D01*
X470408Y237405D02*
X475488Y239099D01*
X470408Y240792D01*
D11*
X420949Y340741D02*
X419481Y340741D01*
X419481Y344043D01*
X420949Y344043D01*
X420582Y342575D02*
X419481Y342575D01*
X422335Y340741D02*
X423802Y342942D01*
X422335Y342942D02*
X423802Y340741D01*
X425029Y342942D02*
X426130Y342942D01*
X425396Y344043D02*
X425396Y341291D01*
X425398Y341246D01*
X425404Y341200D01*
X425413Y341156D01*
X425426Y341112D01*
X425442Y341070D01*
X425462Y341029D01*
X425486Y340990D01*
X425512Y340953D01*
X425541Y340918D01*
X425574Y340886D01*
X425608Y340857D01*
X425645Y340831D01*
X425684Y340807D01*
X425725Y340787D01*
X425767Y340771D01*
X425811Y340758D01*
X425856Y340748D01*
X425901Y340743D01*
X425946Y340741D01*
X426130Y340741D01*
X427856Y340741D02*
X427856Y342942D01*
X428957Y342942D01*
X428957Y342575D01*
X430870Y342025D02*
X431695Y342025D01*
X430870Y342025D02*
X430821Y342023D01*
X430772Y342017D01*
X430724Y342008D01*
X430676Y341995D01*
X430630Y341978D01*
X430585Y341958D01*
X430542Y341935D01*
X430501Y341908D01*
X430462Y341878D01*
X430425Y341846D01*
X430391Y341810D01*
X430359Y341772D01*
X430331Y341732D01*
X430306Y341690D01*
X430284Y341646D01*
X430266Y341600D01*
X430251Y341553D01*
X430240Y341505D01*
X430232Y341457D01*
X430228Y341408D01*
X430228Y341358D01*
X430232Y341309D01*
X430240Y341261D01*
X430251Y341213D01*
X430266Y341166D01*
X430284Y341120D01*
X430306Y341076D01*
X430331Y341034D01*
X430359Y340994D01*
X430391Y340956D01*
X430425Y340920D01*
X430462Y340888D01*
X430501Y340858D01*
X430542Y340831D01*
X430585Y340808D01*
X430630Y340788D01*
X430676Y340771D01*
X430724Y340758D01*
X430772Y340749D01*
X430821Y340743D01*
X430870Y340741D01*
X431695Y340741D01*
X431695Y342392D01*
X431693Y342437D01*
X431687Y342483D01*
X431678Y342527D01*
X431665Y342571D01*
X431649Y342613D01*
X431629Y342654D01*
X431605Y342693D01*
X431579Y342730D01*
X431550Y342765D01*
X431518Y342797D01*
X431483Y342826D01*
X431446Y342852D01*
X431407Y342876D01*
X431366Y342896D01*
X431324Y342912D01*
X431280Y342925D01*
X431236Y342934D01*
X431190Y342940D01*
X431145Y342942D01*
X430411Y342942D01*
X435748Y344043D02*
X435748Y340741D01*
X435381Y340741D02*
X436115Y340741D01*
X436115Y344043D02*
X435381Y344043D01*
X437939Y344043D02*
X437939Y340741D01*
X439040Y342209D02*
X437939Y344043D01*
X439040Y342209D02*
X440140Y344043D01*
X440140Y340741D01*
X442268Y341658D02*
X442268Y344043D01*
X442268Y341658D02*
X442270Y341599D01*
X442276Y341541D01*
X442285Y341483D01*
X442298Y341425D01*
X442315Y341369D01*
X442335Y341314D01*
X442359Y341260D01*
X442386Y341208D01*
X442416Y341158D01*
X442450Y341110D01*
X442487Y341064D01*
X442526Y341020D01*
X442569Y340979D01*
X442613Y340941D01*
X442660Y340906D01*
X442710Y340874D01*
X442761Y340845D01*
X442814Y340819D01*
X442868Y340797D01*
X442924Y340779D01*
X442981Y340764D01*
X443039Y340753D01*
X443097Y340745D01*
X443156Y340741D01*
X443214Y340741D01*
X443273Y340745D01*
X443331Y340753D01*
X443389Y340764D01*
X443446Y340779D01*
X443502Y340797D01*
X443556Y340819D01*
X443609Y340845D01*
X443660Y340874D01*
X443710Y340906D01*
X443757Y340941D01*
X443801Y340979D01*
X443844Y341020D01*
X443883Y341064D01*
X443920Y341110D01*
X443954Y341158D01*
X443984Y341208D01*
X444011Y341260D01*
X444035Y341314D01*
X444055Y341369D01*
X444072Y341425D01*
X444085Y341483D01*
X444094Y341541D01*
X444100Y341599D01*
X444102Y341658D01*
X444102Y344043D01*
D12*
X393700Y76200D02*
X279400Y76200D01*
X228600Y76200D01*
X114300Y76200D01*
X114300Y609600D01*
X393700Y609600D01*
X393700Y76200D01*
X228600Y76200D02*
X228600Y101600D01*
X279400Y101600D01*
X279400Y76200D01*
D13*
X319070Y438277D02*
X319070Y441071D01*
X319846Y441071D01*
X319901Y441069D01*
X319956Y441063D01*
X320011Y441053D01*
X320065Y441040D01*
X320117Y441022D01*
X320168Y441001D01*
X320218Y440976D01*
X320266Y440948D01*
X320311Y440916D01*
X320354Y440881D01*
X320395Y440844D01*
X320432Y440803D01*
X320467Y440760D01*
X320499Y440715D01*
X320527Y440667D01*
X320552Y440617D01*
X320573Y440566D01*
X320591Y440514D01*
X320604Y440460D01*
X320614Y440405D01*
X320620Y440350D01*
X320622Y440295D01*
X320620Y440240D01*
X320614Y440185D01*
X320604Y440130D01*
X320591Y440076D01*
X320573Y440024D01*
X320552Y439973D01*
X320527Y439923D01*
X320499Y439875D01*
X320467Y439830D01*
X320432Y439787D01*
X320395Y439746D01*
X320354Y439709D01*
X320311Y439674D01*
X320266Y439642D01*
X320218Y439614D01*
X320168Y439589D01*
X320117Y439568D01*
X320065Y439550D01*
X320011Y439537D01*
X319956Y439527D01*
X319901Y439521D01*
X319846Y439519D01*
X319070Y439519D01*
X320001Y439519D02*
X320622Y438277D01*
X321795Y440450D02*
X322571Y441071D01*
X322571Y438277D01*
X321795Y438277D02*
X323347Y438277D01*
X325159Y439519D02*
X326090Y439519D01*
X325159Y439519D02*
X325110Y439521D01*
X325062Y439527D01*
X325014Y439536D01*
X324967Y439549D01*
X324921Y439566D01*
X324877Y439587D01*
X324835Y439611D01*
X324794Y439638D01*
X324756Y439668D01*
X324720Y439701D01*
X324687Y439737D01*
X324657Y439775D01*
X324629Y439816D01*
X324606Y439858D01*
X324585Y439902D01*
X324568Y439948D01*
X324555Y439995D01*
X324546Y440043D01*
X324540Y440091D01*
X324538Y440140D01*
X324538Y440295D01*
X324540Y440350D01*
X324546Y440405D01*
X324556Y440460D01*
X324569Y440514D01*
X324587Y440566D01*
X324608Y440617D01*
X324633Y440667D01*
X324661Y440715D01*
X324693Y440760D01*
X324728Y440803D01*
X324765Y440844D01*
X324806Y440881D01*
X324849Y440916D01*
X324894Y440948D01*
X324942Y440976D01*
X324992Y441001D01*
X325043Y441022D01*
X325095Y441040D01*
X325149Y441053D01*
X325204Y441063D01*
X325259Y441069D01*
X325314Y441071D01*
X325369Y441069D01*
X325424Y441063D01*
X325479Y441053D01*
X325533Y441040D01*
X325585Y441022D01*
X325636Y441001D01*
X325686Y440976D01*
X325734Y440948D01*
X325779Y440916D01*
X325822Y440881D01*
X325863Y440844D01*
X325900Y440803D01*
X325935Y440760D01*
X325967Y440715D01*
X325995Y440667D01*
X326020Y440617D01*
X326041Y440566D01*
X326059Y440514D01*
X326072Y440460D01*
X326082Y440405D01*
X326088Y440350D01*
X326090Y440295D01*
X326090Y439519D01*
X326091Y439519D02*
X326089Y439449D01*
X326083Y439380D01*
X326073Y439311D01*
X326060Y439243D01*
X326042Y439175D01*
X326021Y439109D01*
X325996Y439044D01*
X325968Y438980D01*
X325936Y438918D01*
X325901Y438858D01*
X325862Y438800D01*
X325820Y438745D01*
X325775Y438691D01*
X325727Y438641D01*
X325677Y438593D01*
X325623Y438548D01*
X325568Y438506D01*
X325510Y438467D01*
X325450Y438432D01*
X325388Y438400D01*
X325324Y438372D01*
X325259Y438347D01*
X325193Y438326D01*
X325125Y438308D01*
X325057Y438295D01*
X324988Y438285D01*
X324919Y438279D01*
X324849Y438277D01*
X338120Y438277D02*
X338120Y441071D01*
X338896Y441071D01*
X338951Y441069D01*
X339006Y441063D01*
X339061Y441053D01*
X339115Y441040D01*
X339167Y441022D01*
X339218Y441001D01*
X339268Y440976D01*
X339316Y440948D01*
X339361Y440916D01*
X339404Y440881D01*
X339445Y440844D01*
X339482Y440803D01*
X339517Y440760D01*
X339549Y440715D01*
X339577Y440667D01*
X339602Y440617D01*
X339623Y440566D01*
X339641Y440514D01*
X339654Y440460D01*
X339664Y440405D01*
X339670Y440350D01*
X339672Y440295D01*
X339670Y440240D01*
X339664Y440185D01*
X339654Y440130D01*
X339641Y440076D01*
X339623Y440024D01*
X339602Y439973D01*
X339577Y439923D01*
X339549Y439875D01*
X339517Y439830D01*
X339482Y439787D01*
X339445Y439746D01*
X339404Y439709D01*
X339361Y439674D01*
X339316Y439642D01*
X339268Y439614D01*
X339218Y439589D01*
X339167Y439568D01*
X339115Y439550D01*
X339061Y439537D01*
X339006Y439527D01*
X338951Y439521D01*
X338896Y439519D01*
X338120Y439519D01*
X339051Y439519D02*
X339672Y438277D01*
X342398Y440373D02*
X342396Y440423D01*
X342391Y440472D01*
X342382Y440522D01*
X342370Y440570D01*
X342354Y440617D01*
X342335Y440663D01*
X342312Y440708D01*
X342287Y440751D01*
X342259Y440792D01*
X342227Y440831D01*
X342193Y440867D01*
X342157Y440901D01*
X342118Y440933D01*
X342077Y440961D01*
X342034Y440986D01*
X341989Y441009D01*
X341943Y441028D01*
X341896Y441044D01*
X341848Y441056D01*
X341798Y441065D01*
X341749Y441070D01*
X341699Y441072D01*
X341699Y441071D02*
X341643Y441069D01*
X341586Y441064D01*
X341531Y441055D01*
X341476Y441043D01*
X341422Y441027D01*
X341369Y441008D01*
X341317Y440986D01*
X341267Y440960D01*
X341218Y440931D01*
X341171Y440899D01*
X341127Y440865D01*
X341085Y440828D01*
X341045Y440788D01*
X341007Y440745D01*
X340973Y440701D01*
X340941Y440654D01*
X340913Y440606D01*
X340887Y440555D01*
X340865Y440503D01*
X340846Y440450D01*
X342164Y439830D02*
X342200Y439866D01*
X342233Y439904D01*
X342263Y439945D01*
X342290Y439988D01*
X342315Y440032D01*
X342336Y440078D01*
X342355Y440125D01*
X342370Y440173D01*
X342382Y440222D01*
X342390Y440272D01*
X342395Y440322D01*
X342397Y440373D01*
X342164Y439829D02*
X340845Y438277D01*
X342397Y438277D01*
X343588Y439674D02*
X343590Y439769D01*
X343596Y439864D01*
X343606Y439958D01*
X343619Y440052D01*
X343637Y440145D01*
X343658Y440238D01*
X343683Y440330D01*
X343712Y440420D01*
X343745Y440509D01*
X343781Y440597D01*
X343821Y440683D01*
X343837Y440725D01*
X343856Y440765D01*
X343879Y440803D01*
X343904Y440840D01*
X343932Y440875D01*
X343962Y440907D01*
X343995Y440937D01*
X344030Y440964D01*
X344068Y440989D01*
X344107Y441010D01*
X344147Y441028D01*
X344189Y441044D01*
X344232Y441056D01*
X344275Y441064D01*
X344320Y441069D01*
X344364Y441071D01*
X344408Y441069D01*
X344453Y441064D01*
X344496Y441056D01*
X344539Y441044D01*
X344581Y441028D01*
X344621Y441010D01*
X344660Y440989D01*
X344698Y440964D01*
X344733Y440937D01*
X344766Y440907D01*
X344796Y440875D01*
X344824Y440840D01*
X344849Y440803D01*
X344872Y440765D01*
X344891Y440725D01*
X344907Y440683D01*
X344947Y440597D01*
X344983Y440509D01*
X345016Y440420D01*
X345045Y440329D01*
X345070Y440238D01*
X345091Y440145D01*
X345109Y440052D01*
X345122Y439958D01*
X345132Y439864D01*
X345138Y439769D01*
X345140Y439674D01*
X343588Y439674D02*
X343590Y439579D01*
X343596Y439484D01*
X343606Y439390D01*
X343619Y439296D01*
X343637Y439203D01*
X343658Y439110D01*
X343683Y439019D01*
X343712Y438928D01*
X343745Y438839D01*
X343781Y438751D01*
X343821Y438665D01*
X343837Y438623D01*
X343856Y438583D01*
X343879Y438545D01*
X343904Y438508D01*
X343932Y438473D01*
X343962Y438441D01*
X343995Y438411D01*
X344030Y438384D01*
X344068Y438359D01*
X344107Y438338D01*
X344147Y438320D01*
X344189Y438304D01*
X344232Y438292D01*
X344275Y438284D01*
X344320Y438279D01*
X344364Y438277D01*
X344908Y438665D02*
X344948Y438751D01*
X344984Y438839D01*
X345017Y438928D01*
X345046Y439018D01*
X345071Y439110D01*
X345092Y439203D01*
X345110Y439296D01*
X345123Y439390D01*
X345133Y439484D01*
X345139Y439579D01*
X345141Y439674D01*
X344907Y438665D02*
X344891Y438623D01*
X344872Y438583D01*
X344849Y438545D01*
X344824Y438508D01*
X344796Y438473D01*
X344766Y438441D01*
X344733Y438411D01*
X344698Y438384D01*
X344660Y438359D01*
X344621Y438338D01*
X344581Y438320D01*
X344539Y438304D01*
X344496Y438292D01*
X344453Y438284D01*
X344408Y438279D01*
X344364Y438277D01*
X343743Y438898D02*
X344985Y440450D01*
X154642Y105283D02*
X154642Y101981D01*
X154642Y105283D02*
X155559Y105283D01*
X155618Y105281D01*
X155676Y105275D01*
X155734Y105266D01*
X155792Y105253D01*
X155848Y105236D01*
X155903Y105216D01*
X155957Y105192D01*
X156009Y105165D01*
X156059Y105135D01*
X156107Y105101D01*
X156153Y105064D01*
X156197Y105025D01*
X156238Y104982D01*
X156276Y104938D01*
X156311Y104891D01*
X156343Y104841D01*
X156372Y104790D01*
X156398Y104737D01*
X156420Y104683D01*
X156438Y104627D01*
X156453Y104570D01*
X156464Y104512D01*
X156472Y104454D01*
X156476Y104395D01*
X156476Y104337D01*
X156472Y104278D01*
X156464Y104220D01*
X156453Y104162D01*
X156438Y104105D01*
X156420Y104049D01*
X156398Y103995D01*
X156372Y103942D01*
X156343Y103891D01*
X156311Y103841D01*
X156276Y103794D01*
X156238Y103750D01*
X156197Y103707D01*
X156153Y103668D01*
X156107Y103631D01*
X156059Y103597D01*
X156009Y103567D01*
X155957Y103540D01*
X155903Y103516D01*
X155848Y103496D01*
X155792Y103479D01*
X155734Y103466D01*
X155676Y103457D01*
X155618Y103451D01*
X155559Y103449D01*
X154642Y103449D01*
X155743Y103449D02*
X156477Y101981D01*
X157823Y104549D02*
X158740Y105283D01*
X158740Y101981D01*
X157823Y101981D02*
X159657Y101981D01*
X161023Y103815D02*
X162124Y103815D01*
X162124Y103816D02*
X162176Y103814D01*
X162228Y103809D01*
X162280Y103799D01*
X162331Y103786D01*
X162381Y103770D01*
X162429Y103750D01*
X162476Y103726D01*
X162521Y103699D01*
X162564Y103670D01*
X162605Y103637D01*
X162643Y103601D01*
X162679Y103563D01*
X162712Y103522D01*
X162741Y103479D01*
X162768Y103434D01*
X162792Y103387D01*
X162812Y103339D01*
X162828Y103289D01*
X162841Y103238D01*
X162851Y103186D01*
X162856Y103134D01*
X162858Y103082D01*
X162858Y102898D01*
X162856Y102839D01*
X162850Y102781D01*
X162841Y102723D01*
X162828Y102665D01*
X162811Y102609D01*
X162791Y102554D01*
X162767Y102500D01*
X162740Y102448D01*
X162710Y102398D01*
X162676Y102350D01*
X162639Y102304D01*
X162600Y102260D01*
X162557Y102219D01*
X162513Y102181D01*
X162466Y102146D01*
X162416Y102114D01*
X162365Y102085D01*
X162312Y102059D01*
X162258Y102037D01*
X162202Y102019D01*
X162145Y102004D01*
X162087Y101993D01*
X162029Y101985D01*
X161970Y101981D01*
X161912Y101981D01*
X161853Y101985D01*
X161795Y101993D01*
X161737Y102004D01*
X161680Y102019D01*
X161624Y102037D01*
X161570Y102059D01*
X161517Y102085D01*
X161466Y102114D01*
X161416Y102146D01*
X161369Y102181D01*
X161325Y102219D01*
X161282Y102260D01*
X161243Y102304D01*
X161206Y102350D01*
X161172Y102398D01*
X161142Y102448D01*
X161115Y102500D01*
X161091Y102554D01*
X161071Y102609D01*
X161054Y102665D01*
X161041Y102723D01*
X161032Y102781D01*
X161026Y102839D01*
X161024Y102898D01*
X161023Y102898D02*
X161023Y103815D01*
X161025Y103889D01*
X161031Y103964D01*
X161040Y104037D01*
X161053Y104111D01*
X161070Y104183D01*
X161090Y104254D01*
X161114Y104325D01*
X161142Y104394D01*
X161173Y104461D01*
X161207Y104527D01*
X161245Y104592D01*
X161286Y104654D01*
X161330Y104714D01*
X161377Y104771D01*
X161427Y104826D01*
X161480Y104879D01*
X161535Y104929D01*
X161592Y104976D01*
X161652Y105020D01*
X161714Y105061D01*
X161779Y105099D01*
X161844Y105133D01*
X161912Y105164D01*
X161981Y105192D01*
X162052Y105216D01*
X162123Y105236D01*
X162195Y105253D01*
X162269Y105266D01*
X162342Y105275D01*
X162417Y105281D01*
X162491Y105283D01*
D14*
X548640Y34544D02*
X568960Y34544D01*
X568960Y67056D02*
X548640Y67056D01*
D11*
X542509Y69540D02*
X542509Y73519D01*
X542509Y69540D02*
X544830Y66555D01*
X542509Y69540D02*
X540187Y66555D01*
X542509Y69540D02*
X546156Y70866D01*
X542509Y69540D02*
X538861Y70866D01*
D13*
X549021Y32131D02*
X549021Y29337D01*
X549952Y30579D02*
X549021Y32131D01*
X549952Y30579D02*
X550884Y32131D01*
X550884Y29337D01*
X552039Y29337D02*
X552970Y32131D01*
X553901Y29337D01*
X553668Y30036D02*
X552271Y30036D01*
X554782Y29337D02*
X556644Y32131D01*
X554782Y32131D02*
X556644Y29337D01*
X557680Y31510D02*
X558456Y32131D01*
X558456Y29337D01*
X557680Y29337D02*
X559232Y29337D01*
X560423Y30889D02*
X561355Y30889D01*
X561404Y30887D01*
X561452Y30881D01*
X561500Y30872D01*
X561547Y30859D01*
X561593Y30842D01*
X561637Y30821D01*
X561679Y30797D01*
X561720Y30770D01*
X561758Y30740D01*
X561794Y30707D01*
X561827Y30671D01*
X561857Y30633D01*
X561884Y30592D01*
X561908Y30550D01*
X561929Y30506D01*
X561946Y30460D01*
X561959Y30413D01*
X561968Y30365D01*
X561974Y30317D01*
X561976Y30268D01*
X561976Y30113D01*
X561975Y30113D02*
X561973Y30058D01*
X561967Y30003D01*
X561957Y29948D01*
X561944Y29894D01*
X561926Y29842D01*
X561905Y29791D01*
X561880Y29741D01*
X561852Y29693D01*
X561820Y29648D01*
X561785Y29605D01*
X561748Y29564D01*
X561707Y29527D01*
X561664Y29492D01*
X561619Y29460D01*
X561571Y29432D01*
X561521Y29407D01*
X561470Y29386D01*
X561418Y29368D01*
X561364Y29355D01*
X561309Y29345D01*
X561254Y29339D01*
X561199Y29337D01*
X561144Y29339D01*
X561089Y29345D01*
X561034Y29355D01*
X560980Y29368D01*
X560928Y29386D01*
X560877Y29407D01*
X560827Y29432D01*
X560779Y29460D01*
X560734Y29492D01*
X560691Y29527D01*
X560650Y29564D01*
X560613Y29605D01*
X560578Y29648D01*
X560546Y29693D01*
X560518Y29741D01*
X560493Y29791D01*
X560472Y29842D01*
X560454Y29894D01*
X560441Y29948D01*
X560431Y30003D01*
X560425Y30058D01*
X560423Y30113D01*
X560423Y30889D01*
X560425Y30959D01*
X560431Y31028D01*
X560441Y31097D01*
X560454Y31165D01*
X560472Y31233D01*
X560493Y31299D01*
X560518Y31364D01*
X560546Y31428D01*
X560578Y31490D01*
X560613Y31550D01*
X560652Y31608D01*
X560694Y31663D01*
X560739Y31717D01*
X560787Y31767D01*
X560837Y31815D01*
X560891Y31860D01*
X560946Y31902D01*
X561004Y31941D01*
X561064Y31976D01*
X561126Y32008D01*
X561190Y32036D01*
X561255Y32061D01*
X561321Y32082D01*
X561389Y32100D01*
X561457Y32113D01*
X561526Y32123D01*
X561595Y32129D01*
X561665Y32131D01*
X563399Y31743D02*
X563359Y31657D01*
X563323Y31569D01*
X563290Y31480D01*
X563261Y31390D01*
X563236Y31298D01*
X563215Y31205D01*
X563197Y31112D01*
X563184Y31018D01*
X563174Y30924D01*
X563168Y30829D01*
X563166Y30734D01*
X563400Y31743D02*
X563416Y31785D01*
X563435Y31825D01*
X563458Y31863D01*
X563483Y31900D01*
X563511Y31935D01*
X563541Y31967D01*
X563574Y31997D01*
X563609Y32024D01*
X563647Y32049D01*
X563686Y32070D01*
X563726Y32088D01*
X563768Y32104D01*
X563811Y32116D01*
X563854Y32124D01*
X563899Y32129D01*
X563943Y32131D01*
X563987Y32129D01*
X564032Y32124D01*
X564075Y32116D01*
X564118Y32104D01*
X564160Y32088D01*
X564200Y32070D01*
X564239Y32049D01*
X564277Y32024D01*
X564312Y31997D01*
X564345Y31967D01*
X564375Y31935D01*
X564403Y31900D01*
X564428Y31863D01*
X564451Y31825D01*
X564470Y31785D01*
X564486Y31743D01*
X564485Y31743D02*
X564525Y31657D01*
X564561Y31569D01*
X564594Y31480D01*
X564623Y31389D01*
X564648Y31298D01*
X564669Y31205D01*
X564687Y31112D01*
X564700Y31018D01*
X564710Y30924D01*
X564716Y30829D01*
X564718Y30734D01*
X563166Y30734D02*
X563168Y30639D01*
X563174Y30544D01*
X563184Y30450D01*
X563197Y30356D01*
X563215Y30263D01*
X563236Y30170D01*
X563261Y30079D01*
X563290Y29988D01*
X563323Y29899D01*
X563359Y29811D01*
X563399Y29725D01*
X563400Y29725D02*
X563416Y29683D01*
X563435Y29643D01*
X563458Y29605D01*
X563483Y29568D01*
X563511Y29533D01*
X563541Y29501D01*
X563574Y29471D01*
X563609Y29444D01*
X563647Y29419D01*
X563686Y29398D01*
X563726Y29380D01*
X563768Y29364D01*
X563811Y29352D01*
X563854Y29344D01*
X563899Y29339D01*
X563943Y29337D01*
X564486Y29725D02*
X564526Y29811D01*
X564562Y29899D01*
X564595Y29988D01*
X564624Y30078D01*
X564649Y30170D01*
X564670Y30263D01*
X564688Y30356D01*
X564701Y30450D01*
X564711Y30544D01*
X564717Y30639D01*
X564719Y30734D01*
X564486Y29725D02*
X564470Y29683D01*
X564451Y29643D01*
X564428Y29605D01*
X564403Y29568D01*
X564375Y29533D01*
X564345Y29501D01*
X564312Y29471D01*
X564277Y29444D01*
X564239Y29419D01*
X564200Y29398D01*
X564160Y29380D01*
X564118Y29364D01*
X564075Y29352D01*
X564032Y29344D01*
X563987Y29339D01*
X563943Y29337D01*
X563322Y29958D02*
X564564Y31510D01*
X565910Y29337D02*
X566841Y29337D01*
X566890Y29339D01*
X566938Y29345D01*
X566986Y29354D01*
X567033Y29367D01*
X567079Y29384D01*
X567123Y29405D01*
X567165Y29429D01*
X567206Y29456D01*
X567244Y29486D01*
X567280Y29519D01*
X567313Y29555D01*
X567343Y29593D01*
X567370Y29634D01*
X567394Y29676D01*
X567415Y29720D01*
X567432Y29766D01*
X567445Y29813D01*
X567454Y29861D01*
X567460Y29909D01*
X567462Y29958D01*
X567462Y30268D01*
X567460Y30317D01*
X567454Y30365D01*
X567445Y30413D01*
X567432Y30460D01*
X567415Y30506D01*
X567394Y30550D01*
X567370Y30592D01*
X567343Y30633D01*
X567313Y30671D01*
X567280Y30707D01*
X567244Y30740D01*
X567206Y30770D01*
X567165Y30797D01*
X567123Y30821D01*
X567079Y30842D01*
X567033Y30859D01*
X566986Y30872D01*
X566938Y30881D01*
X566890Y30887D01*
X566841Y30889D01*
X565910Y30889D01*
X565910Y32131D01*
X567462Y32131D01*
X569507Y32132D02*
X569557Y32130D01*
X569606Y32125D01*
X569656Y32116D01*
X569704Y32104D01*
X569751Y32088D01*
X569797Y32069D01*
X569842Y32046D01*
X569885Y32021D01*
X569926Y31993D01*
X569965Y31961D01*
X570001Y31927D01*
X570035Y31891D01*
X570067Y31852D01*
X570095Y31811D01*
X570120Y31768D01*
X570143Y31723D01*
X570162Y31677D01*
X570178Y31630D01*
X570190Y31582D01*
X570199Y31532D01*
X570204Y31483D01*
X570206Y31433D01*
X569507Y32131D02*
X569451Y32129D01*
X569394Y32124D01*
X569339Y32115D01*
X569284Y32103D01*
X569230Y32087D01*
X569177Y32068D01*
X569125Y32046D01*
X569075Y32020D01*
X569026Y31991D01*
X568979Y31959D01*
X568935Y31925D01*
X568893Y31888D01*
X568853Y31848D01*
X568815Y31805D01*
X568781Y31761D01*
X568749Y31714D01*
X568721Y31666D01*
X568695Y31615D01*
X568673Y31563D01*
X568654Y31510D01*
X569972Y30890D02*
X570008Y30926D01*
X570041Y30964D01*
X570071Y31005D01*
X570098Y31048D01*
X570123Y31092D01*
X570144Y31138D01*
X570163Y31185D01*
X570178Y31233D01*
X570190Y31282D01*
X570198Y31332D01*
X570203Y31382D01*
X570205Y31433D01*
X569972Y30889D02*
X568653Y29337D01*
X570205Y29337D01*
D11*
X511993Y28575D02*
X511993Y31369D01*
X512769Y31369D01*
X512824Y31367D01*
X512879Y31361D01*
X512934Y31351D01*
X512988Y31338D01*
X513040Y31320D01*
X513091Y31299D01*
X513141Y31274D01*
X513189Y31246D01*
X513234Y31214D01*
X513277Y31179D01*
X513318Y31142D01*
X513355Y31101D01*
X513390Y31058D01*
X513422Y31013D01*
X513450Y30965D01*
X513475Y30915D01*
X513496Y30864D01*
X513514Y30812D01*
X513527Y30758D01*
X513537Y30703D01*
X513543Y30648D01*
X513545Y30593D01*
X513543Y30538D01*
X513537Y30483D01*
X513527Y30428D01*
X513514Y30374D01*
X513496Y30322D01*
X513475Y30271D01*
X513450Y30221D01*
X513422Y30173D01*
X513390Y30128D01*
X513355Y30085D01*
X513318Y30044D01*
X513277Y30007D01*
X513234Y29972D01*
X513189Y29940D01*
X513141Y29912D01*
X513091Y29887D01*
X513040Y29866D01*
X512988Y29848D01*
X512934Y29835D01*
X512879Y29825D01*
X512824Y29819D01*
X512769Y29817D01*
X511993Y29817D01*
X512924Y29817D02*
X513545Y28575D01*
X515776Y29817D02*
X516707Y29817D01*
X515776Y29817D02*
X515727Y29819D01*
X515679Y29825D01*
X515631Y29834D01*
X515584Y29847D01*
X515538Y29864D01*
X515494Y29885D01*
X515452Y29909D01*
X515411Y29936D01*
X515373Y29966D01*
X515337Y29999D01*
X515304Y30035D01*
X515274Y30073D01*
X515246Y30114D01*
X515223Y30156D01*
X515202Y30200D01*
X515185Y30246D01*
X515172Y30293D01*
X515163Y30341D01*
X515157Y30389D01*
X515155Y30438D01*
X515155Y30593D01*
X515157Y30648D01*
X515163Y30703D01*
X515173Y30758D01*
X515186Y30812D01*
X515204Y30864D01*
X515225Y30915D01*
X515250Y30965D01*
X515278Y31013D01*
X515310Y31058D01*
X515345Y31101D01*
X515382Y31142D01*
X515423Y31179D01*
X515466Y31214D01*
X515511Y31246D01*
X515559Y31274D01*
X515609Y31299D01*
X515660Y31320D01*
X515712Y31338D01*
X515766Y31351D01*
X515821Y31361D01*
X515876Y31367D01*
X515931Y31369D01*
X515986Y31367D01*
X516041Y31361D01*
X516096Y31351D01*
X516150Y31338D01*
X516202Y31320D01*
X516253Y31299D01*
X516303Y31274D01*
X516351Y31246D01*
X516396Y31214D01*
X516439Y31179D01*
X516480Y31142D01*
X516517Y31101D01*
X516552Y31058D01*
X516584Y31013D01*
X516612Y30965D01*
X516637Y30915D01*
X516658Y30864D01*
X516676Y30812D01*
X516689Y30758D01*
X516699Y30703D01*
X516705Y30648D01*
X516707Y30593D01*
X516707Y29817D01*
X516708Y29817D02*
X516706Y29747D01*
X516700Y29678D01*
X516690Y29609D01*
X516677Y29541D01*
X516659Y29473D01*
X516638Y29407D01*
X516613Y29342D01*
X516585Y29278D01*
X516553Y29216D01*
X516518Y29156D01*
X516479Y29098D01*
X516437Y29043D01*
X516392Y28989D01*
X516344Y28939D01*
X516294Y28891D01*
X516240Y28846D01*
X516185Y28804D01*
X516127Y28765D01*
X516067Y28730D01*
X516005Y28698D01*
X515941Y28670D01*
X515876Y28645D01*
X515810Y28624D01*
X515742Y28606D01*
X515674Y28593D01*
X515605Y28583D01*
X515536Y28577D01*
X515466Y28575D01*
X510393Y50165D02*
X510393Y52959D01*
X511169Y52959D01*
X511224Y52957D01*
X511279Y52951D01*
X511334Y52941D01*
X511388Y52928D01*
X511440Y52910D01*
X511491Y52889D01*
X511541Y52864D01*
X511589Y52836D01*
X511634Y52804D01*
X511677Y52769D01*
X511718Y52732D01*
X511755Y52691D01*
X511790Y52648D01*
X511822Y52603D01*
X511850Y52555D01*
X511875Y52505D01*
X511896Y52454D01*
X511914Y52402D01*
X511927Y52348D01*
X511937Y52293D01*
X511943Y52238D01*
X511945Y52183D01*
X511943Y52128D01*
X511937Y52073D01*
X511927Y52018D01*
X511914Y51964D01*
X511896Y51912D01*
X511875Y51861D01*
X511850Y51811D01*
X511822Y51763D01*
X511790Y51718D01*
X511755Y51675D01*
X511718Y51634D01*
X511677Y51597D01*
X511634Y51562D01*
X511589Y51530D01*
X511541Y51502D01*
X511491Y51477D01*
X511440Y51456D01*
X511388Y51438D01*
X511334Y51425D01*
X511279Y51415D01*
X511224Y51409D01*
X511169Y51407D01*
X510393Y51407D01*
X511324Y51407D02*
X511945Y50165D01*
X513555Y52338D02*
X514331Y52959D01*
X514331Y50165D01*
X513555Y50165D02*
X515107Y50165D01*
X516755Y51562D02*
X516757Y51657D01*
X516763Y51752D01*
X516773Y51846D01*
X516786Y51940D01*
X516804Y52033D01*
X516825Y52126D01*
X516850Y52218D01*
X516879Y52308D01*
X516912Y52397D01*
X516948Y52485D01*
X516988Y52571D01*
X517004Y52613D01*
X517023Y52653D01*
X517046Y52691D01*
X517071Y52728D01*
X517099Y52763D01*
X517129Y52795D01*
X517162Y52825D01*
X517197Y52852D01*
X517235Y52877D01*
X517274Y52898D01*
X517314Y52916D01*
X517356Y52932D01*
X517399Y52944D01*
X517442Y52952D01*
X517487Y52957D01*
X517531Y52959D01*
X517575Y52957D01*
X517620Y52952D01*
X517663Y52944D01*
X517706Y52932D01*
X517748Y52916D01*
X517788Y52898D01*
X517827Y52877D01*
X517865Y52852D01*
X517900Y52825D01*
X517933Y52795D01*
X517963Y52763D01*
X517991Y52728D01*
X518016Y52691D01*
X518039Y52653D01*
X518058Y52613D01*
X518074Y52571D01*
X518114Y52485D01*
X518150Y52397D01*
X518183Y52308D01*
X518212Y52217D01*
X518237Y52126D01*
X518258Y52033D01*
X518276Y51940D01*
X518289Y51846D01*
X518299Y51752D01*
X518305Y51657D01*
X518307Y51562D01*
X516755Y51562D02*
X516757Y51467D01*
X516763Y51372D01*
X516773Y51278D01*
X516786Y51184D01*
X516804Y51091D01*
X516825Y50998D01*
X516850Y50907D01*
X516879Y50816D01*
X516912Y50727D01*
X516948Y50639D01*
X516988Y50553D01*
X517004Y50511D01*
X517023Y50471D01*
X517046Y50433D01*
X517071Y50396D01*
X517099Y50361D01*
X517129Y50329D01*
X517162Y50299D01*
X517197Y50272D01*
X517235Y50247D01*
X517274Y50226D01*
X517314Y50208D01*
X517356Y50192D01*
X517399Y50180D01*
X517442Y50172D01*
X517487Y50167D01*
X517531Y50165D01*
X518075Y50553D02*
X518115Y50639D01*
X518151Y50727D01*
X518184Y50816D01*
X518213Y50906D01*
X518238Y50998D01*
X518259Y51091D01*
X518277Y51184D01*
X518290Y51278D01*
X518300Y51372D01*
X518306Y51467D01*
X518308Y51562D01*
X518074Y50553D02*
X518058Y50511D01*
X518039Y50471D01*
X518016Y50433D01*
X517991Y50396D01*
X517963Y50361D01*
X517933Y50329D01*
X517900Y50299D01*
X517865Y50272D01*
X517827Y50247D01*
X517788Y50226D01*
X517748Y50208D01*
X517706Y50192D01*
X517663Y50180D01*
X517620Y50172D01*
X517575Y50167D01*
X517531Y50165D01*
X516911Y50786D02*
X518152Y52338D01*
D13*
X567281Y68707D02*
X568015Y68707D01*
X567281Y68707D02*
X567229Y68709D01*
X567177Y68714D01*
X567125Y68724D01*
X567074Y68737D01*
X567024Y68753D01*
X566976Y68773D01*
X566929Y68797D01*
X566884Y68824D01*
X566841Y68853D01*
X566800Y68886D01*
X566762Y68922D01*
X566726Y68960D01*
X566693Y69001D01*
X566664Y69044D01*
X566637Y69089D01*
X566613Y69136D01*
X566593Y69184D01*
X566577Y69234D01*
X566564Y69285D01*
X566554Y69337D01*
X566549Y69389D01*
X566547Y69441D01*
X566547Y71275D01*
X566549Y71327D01*
X566554Y71379D01*
X566564Y71431D01*
X566577Y71482D01*
X566593Y71532D01*
X566613Y71580D01*
X566637Y71627D01*
X566664Y71672D01*
X566693Y71715D01*
X566726Y71756D01*
X566762Y71794D01*
X566800Y71830D01*
X566841Y71863D01*
X566884Y71892D01*
X566929Y71919D01*
X566976Y71943D01*
X567024Y71963D01*
X567074Y71979D01*
X567125Y71992D01*
X567177Y72002D01*
X567229Y72007D01*
X567281Y72009D01*
X568015Y72009D01*
X569223Y70541D02*
X570323Y70541D01*
X570323Y70542D02*
X570375Y70540D01*
X570427Y70535D01*
X570479Y70525D01*
X570530Y70512D01*
X570580Y70496D01*
X570628Y70476D01*
X570675Y70452D01*
X570720Y70425D01*
X570763Y70396D01*
X570804Y70363D01*
X570842Y70327D01*
X570878Y70289D01*
X570911Y70248D01*
X570940Y70205D01*
X570967Y70160D01*
X570991Y70113D01*
X571011Y70065D01*
X571027Y70015D01*
X571040Y69964D01*
X571050Y69912D01*
X571055Y69860D01*
X571057Y69808D01*
X571057Y69624D01*
X571055Y69565D01*
X571049Y69507D01*
X571040Y69449D01*
X571027Y69391D01*
X571010Y69335D01*
X570990Y69280D01*
X570966Y69226D01*
X570939Y69174D01*
X570909Y69124D01*
X570875Y69076D01*
X570838Y69030D01*
X570799Y68986D01*
X570756Y68945D01*
X570712Y68907D01*
X570665Y68872D01*
X570615Y68840D01*
X570564Y68811D01*
X570511Y68785D01*
X570457Y68763D01*
X570401Y68745D01*
X570344Y68730D01*
X570286Y68719D01*
X570228Y68711D01*
X570169Y68707D01*
X570111Y68707D01*
X570052Y68711D01*
X569994Y68719D01*
X569936Y68730D01*
X569879Y68745D01*
X569823Y68763D01*
X569769Y68785D01*
X569716Y68811D01*
X569665Y68840D01*
X569615Y68872D01*
X569568Y68907D01*
X569524Y68945D01*
X569481Y68986D01*
X569442Y69030D01*
X569405Y69076D01*
X569371Y69124D01*
X569341Y69174D01*
X569314Y69226D01*
X569290Y69280D01*
X569270Y69335D01*
X569253Y69391D01*
X569240Y69449D01*
X569231Y69507D01*
X569225Y69565D01*
X569223Y69624D01*
X569223Y70541D01*
X569222Y70541D02*
X569224Y70615D01*
X569230Y70690D01*
X569239Y70763D01*
X569252Y70837D01*
X569269Y70909D01*
X569289Y70980D01*
X569313Y71051D01*
X569341Y71120D01*
X569372Y71187D01*
X569406Y71253D01*
X569444Y71318D01*
X569485Y71380D01*
X569529Y71440D01*
X569576Y71497D01*
X569626Y71552D01*
X569679Y71605D01*
X569734Y71655D01*
X569791Y71702D01*
X569851Y71746D01*
X569913Y71787D01*
X569978Y71825D01*
X570043Y71859D01*
X570111Y71890D01*
X570180Y71918D01*
X570251Y71942D01*
X570322Y71962D01*
X570394Y71979D01*
X570468Y71992D01*
X570541Y72001D01*
X570616Y72007D01*
X570690Y72009D01*
X599712Y70993D02*
X599712Y68199D01*
X599712Y70993D02*
X600489Y70993D01*
X600544Y70991D01*
X600599Y70985D01*
X600654Y70975D01*
X600708Y70962D01*
X600760Y70944D01*
X600811Y70923D01*
X600861Y70898D01*
X600909Y70870D01*
X600954Y70838D01*
X600997Y70803D01*
X601038Y70766D01*
X601075Y70725D01*
X601110Y70682D01*
X601142Y70637D01*
X601170Y70589D01*
X601195Y70539D01*
X601216Y70488D01*
X601234Y70436D01*
X601247Y70382D01*
X601257Y70327D01*
X601263Y70272D01*
X601265Y70217D01*
X601263Y70162D01*
X601257Y70107D01*
X601247Y70052D01*
X601234Y69998D01*
X601216Y69946D01*
X601195Y69895D01*
X601170Y69845D01*
X601142Y69797D01*
X601110Y69752D01*
X601075Y69709D01*
X601038Y69668D01*
X600997Y69631D01*
X600954Y69596D01*
X600909Y69564D01*
X600861Y69536D01*
X600811Y69511D01*
X600760Y69490D01*
X600708Y69472D01*
X600654Y69459D01*
X600599Y69449D01*
X600544Y69443D01*
X600489Y69441D01*
X599712Y69441D01*
X600644Y69441D02*
X601265Y68199D01*
X602438Y70372D02*
X603214Y70993D01*
X603214Y68199D01*
X602438Y68199D02*
X603990Y68199D01*
X605181Y70372D02*
X605957Y70993D01*
X605957Y68199D01*
X605181Y68199D02*
X606733Y68199D01*
X607518Y41629D02*
X608138Y41629D01*
X607518Y41629D02*
X607469Y41631D01*
X607421Y41637D01*
X607373Y41646D01*
X607326Y41659D01*
X607280Y41676D01*
X607236Y41697D01*
X607194Y41721D01*
X607153Y41748D01*
X607115Y41778D01*
X607079Y41811D01*
X607046Y41847D01*
X607016Y41885D01*
X606989Y41926D01*
X606965Y41968D01*
X606944Y42012D01*
X606927Y42058D01*
X606914Y42105D01*
X606905Y42153D01*
X606899Y42201D01*
X606897Y42250D01*
X606897Y43802D01*
X606899Y43851D01*
X606905Y43899D01*
X606914Y43947D01*
X606927Y43994D01*
X606944Y44040D01*
X606965Y44084D01*
X606989Y44126D01*
X607016Y44167D01*
X607046Y44205D01*
X607079Y44241D01*
X607115Y44274D01*
X607153Y44304D01*
X607194Y44331D01*
X607236Y44355D01*
X607280Y44376D01*
X607326Y44393D01*
X607373Y44406D01*
X607421Y44415D01*
X607469Y44421D01*
X607518Y44423D01*
X608138Y44423D01*
X609191Y41629D02*
X610122Y41629D01*
X610171Y41631D01*
X610219Y41637D01*
X610267Y41646D01*
X610314Y41659D01*
X610360Y41676D01*
X610404Y41697D01*
X610446Y41721D01*
X610487Y41748D01*
X610525Y41778D01*
X610561Y41811D01*
X610594Y41847D01*
X610624Y41885D01*
X610651Y41926D01*
X610675Y41968D01*
X610696Y42012D01*
X610713Y42058D01*
X610726Y42105D01*
X610735Y42153D01*
X610741Y42201D01*
X610743Y42250D01*
X610743Y42560D01*
X610741Y42609D01*
X610735Y42657D01*
X610726Y42705D01*
X610713Y42752D01*
X610696Y42798D01*
X610675Y42842D01*
X610651Y42884D01*
X610624Y42925D01*
X610594Y42963D01*
X610561Y42999D01*
X610525Y43032D01*
X610487Y43062D01*
X610446Y43089D01*
X610404Y43113D01*
X610360Y43134D01*
X610314Y43151D01*
X610267Y43164D01*
X610219Y43173D01*
X610171Y43179D01*
X610122Y43181D01*
X609191Y43181D01*
X609191Y44423D01*
X610743Y44423D01*
X267843Y298041D02*
X267843Y298775D01*
X267843Y298041D02*
X267841Y297989D01*
X267836Y297937D01*
X267826Y297885D01*
X267813Y297834D01*
X267797Y297784D01*
X267777Y297736D01*
X267753Y297689D01*
X267726Y297644D01*
X267697Y297601D01*
X267664Y297560D01*
X267628Y297522D01*
X267590Y297486D01*
X267549Y297453D01*
X267506Y297424D01*
X267461Y297397D01*
X267414Y297373D01*
X267366Y297353D01*
X267316Y297337D01*
X267265Y297324D01*
X267213Y297314D01*
X267161Y297309D01*
X267109Y297307D01*
X265275Y297307D01*
X265223Y297309D01*
X265171Y297314D01*
X265119Y297324D01*
X265068Y297337D01*
X265019Y297353D01*
X264970Y297373D01*
X264923Y297397D01*
X264878Y297424D01*
X264835Y297453D01*
X264794Y297486D01*
X264756Y297522D01*
X264720Y297560D01*
X264687Y297601D01*
X264658Y297644D01*
X264631Y297689D01*
X264607Y297736D01*
X264587Y297784D01*
X264571Y297834D01*
X264558Y297885D01*
X264548Y297936D01*
X264543Y297989D01*
X264541Y298041D01*
X264541Y298775D01*
X264541Y300992D02*
X264543Y301048D01*
X264549Y301104D01*
X264558Y301160D01*
X264572Y301215D01*
X264589Y301269D01*
X264609Y301321D01*
X264634Y301372D01*
X264661Y301421D01*
X264692Y301468D01*
X264726Y301513D01*
X264763Y301556D01*
X264803Y301596D01*
X264846Y301633D01*
X264891Y301667D01*
X264938Y301698D01*
X264987Y301725D01*
X265038Y301750D01*
X265090Y301770D01*
X265144Y301787D01*
X265199Y301801D01*
X265255Y301810D01*
X265311Y301816D01*
X265367Y301818D01*
X264541Y300992D02*
X264543Y300928D01*
X264549Y300865D01*
X264558Y300802D01*
X264571Y300740D01*
X264588Y300679D01*
X264609Y300619D01*
X264633Y300560D01*
X264660Y300503D01*
X264691Y300447D01*
X264726Y300394D01*
X264763Y300343D01*
X264803Y300293D01*
X264847Y300247D01*
X264893Y300203D01*
X264941Y300162D01*
X264992Y300124D01*
X265045Y300089D01*
X265100Y300057D01*
X265157Y300029D01*
X265215Y300004D01*
X265275Y299983D01*
X266009Y301543D02*
X265970Y301581D01*
X265928Y301618D01*
X265884Y301651D01*
X265839Y301682D01*
X265791Y301710D01*
X265742Y301735D01*
X265691Y301757D01*
X265639Y301775D01*
X265586Y301791D01*
X265532Y301803D01*
X265477Y301811D01*
X265422Y301816D01*
X265367Y301818D01*
X266009Y301542D02*
X267843Y299983D01*
X267843Y301817D01*
X542748Y212979D02*
X543368Y212979D01*
X542748Y212979D02*
X542699Y212981D01*
X542651Y212987D01*
X542603Y212996D01*
X542556Y213009D01*
X542510Y213026D01*
X542466Y213047D01*
X542424Y213071D01*
X542383Y213098D01*
X542345Y213128D01*
X542309Y213161D01*
X542276Y213197D01*
X542246Y213235D01*
X542219Y213276D01*
X542195Y213318D01*
X542174Y213362D01*
X542157Y213408D01*
X542144Y213455D01*
X542135Y213503D01*
X542129Y213551D01*
X542127Y213600D01*
X542127Y215152D01*
X542129Y215201D01*
X542135Y215249D01*
X542144Y215297D01*
X542157Y215344D01*
X542174Y215390D01*
X542195Y215434D01*
X542219Y215476D01*
X542246Y215517D01*
X542276Y215555D01*
X542309Y215591D01*
X542345Y215624D01*
X542383Y215654D01*
X542424Y215681D01*
X542466Y215705D01*
X542510Y215726D01*
X542556Y215743D01*
X542603Y215756D01*
X542651Y215765D01*
X542699Y215771D01*
X542748Y215773D01*
X543368Y215773D01*
X544421Y215773D02*
X544421Y215463D01*
X544421Y215773D02*
X545973Y215773D01*
X545197Y212979D01*
X508472Y212979D02*
X508472Y215773D01*
X509249Y215773D01*
X509304Y215771D01*
X509359Y215765D01*
X509414Y215755D01*
X509468Y215742D01*
X509520Y215724D01*
X509571Y215703D01*
X509621Y215678D01*
X509669Y215650D01*
X509714Y215618D01*
X509757Y215583D01*
X509798Y215546D01*
X509835Y215505D01*
X509870Y215462D01*
X509902Y215417D01*
X509930Y215369D01*
X509955Y215319D01*
X509976Y215268D01*
X509994Y215216D01*
X510007Y215162D01*
X510017Y215107D01*
X510023Y215052D01*
X510025Y214997D01*
X510023Y214942D01*
X510017Y214887D01*
X510007Y214832D01*
X509994Y214778D01*
X509976Y214726D01*
X509955Y214675D01*
X509930Y214625D01*
X509902Y214577D01*
X509870Y214532D01*
X509835Y214489D01*
X509798Y214448D01*
X509757Y214411D01*
X509714Y214376D01*
X509669Y214344D01*
X509621Y214316D01*
X509571Y214291D01*
X509520Y214270D01*
X509468Y214252D01*
X509414Y214239D01*
X509359Y214229D01*
X509304Y214223D01*
X509249Y214221D01*
X508472Y214221D01*
X509404Y214221D02*
X510025Y212979D01*
X512750Y215075D02*
X512748Y215125D01*
X512743Y215174D01*
X512734Y215224D01*
X512722Y215272D01*
X512706Y215319D01*
X512687Y215365D01*
X512664Y215410D01*
X512639Y215453D01*
X512611Y215494D01*
X512579Y215533D01*
X512545Y215569D01*
X512509Y215603D01*
X512470Y215635D01*
X512429Y215663D01*
X512386Y215688D01*
X512341Y215711D01*
X512295Y215730D01*
X512248Y215746D01*
X512200Y215758D01*
X512150Y215767D01*
X512101Y215772D01*
X512051Y215774D01*
X512051Y215773D02*
X511995Y215771D01*
X511938Y215766D01*
X511883Y215757D01*
X511828Y215745D01*
X511774Y215729D01*
X511721Y215710D01*
X511669Y215688D01*
X511619Y215662D01*
X511570Y215633D01*
X511523Y215601D01*
X511479Y215567D01*
X511437Y215530D01*
X511397Y215490D01*
X511359Y215447D01*
X511325Y215403D01*
X511293Y215356D01*
X511265Y215308D01*
X511239Y215257D01*
X511217Y215205D01*
X511198Y215152D01*
X512517Y214532D02*
X512553Y214568D01*
X512586Y214606D01*
X512616Y214647D01*
X512643Y214690D01*
X512668Y214734D01*
X512689Y214780D01*
X512708Y214827D01*
X512723Y214875D01*
X512735Y214924D01*
X512743Y214974D01*
X512748Y215024D01*
X512750Y215075D01*
X512517Y214531D02*
X511198Y212979D01*
X512750Y212979D01*
X513941Y215152D02*
X514717Y215773D01*
X514717Y212979D01*
X513941Y212979D02*
X515493Y212979D01*
X487488Y211709D02*
X486868Y211709D01*
X486819Y211711D01*
X486771Y211717D01*
X486723Y211726D01*
X486676Y211739D01*
X486630Y211756D01*
X486586Y211777D01*
X486544Y211801D01*
X486503Y211828D01*
X486465Y211858D01*
X486429Y211891D01*
X486396Y211927D01*
X486366Y211965D01*
X486339Y212006D01*
X486315Y212048D01*
X486294Y212092D01*
X486277Y212138D01*
X486264Y212185D01*
X486255Y212233D01*
X486249Y212281D01*
X486247Y212330D01*
X486247Y213882D01*
X486249Y213931D01*
X486255Y213979D01*
X486264Y214027D01*
X486277Y214074D01*
X486294Y214120D01*
X486315Y214164D01*
X486339Y214206D01*
X486366Y214247D01*
X486396Y214285D01*
X486429Y214321D01*
X486465Y214354D01*
X486503Y214384D01*
X486544Y214411D01*
X486586Y214435D01*
X486630Y214456D01*
X486676Y214473D01*
X486723Y214486D01*
X486771Y214495D01*
X486819Y214501D01*
X486868Y214503D01*
X487488Y214503D01*
X488541Y212485D02*
X488543Y212540D01*
X488549Y212595D01*
X488559Y212650D01*
X488572Y212704D01*
X488590Y212756D01*
X488611Y212807D01*
X488636Y212857D01*
X488664Y212905D01*
X488696Y212950D01*
X488731Y212993D01*
X488768Y213034D01*
X488809Y213071D01*
X488852Y213106D01*
X488897Y213138D01*
X488945Y213166D01*
X488995Y213191D01*
X489046Y213212D01*
X489098Y213230D01*
X489152Y213243D01*
X489207Y213253D01*
X489262Y213259D01*
X489317Y213261D01*
X489372Y213259D01*
X489427Y213253D01*
X489482Y213243D01*
X489536Y213230D01*
X489588Y213212D01*
X489639Y213191D01*
X489689Y213166D01*
X489737Y213138D01*
X489782Y213106D01*
X489825Y213071D01*
X489866Y213034D01*
X489903Y212993D01*
X489938Y212950D01*
X489970Y212905D01*
X489998Y212857D01*
X490023Y212807D01*
X490044Y212756D01*
X490062Y212704D01*
X490075Y212650D01*
X490085Y212595D01*
X490091Y212540D01*
X490093Y212485D01*
X490091Y212430D01*
X490085Y212375D01*
X490075Y212320D01*
X490062Y212266D01*
X490044Y212214D01*
X490023Y212163D01*
X489998Y212113D01*
X489970Y212065D01*
X489938Y212020D01*
X489903Y211977D01*
X489866Y211936D01*
X489825Y211899D01*
X489782Y211864D01*
X489737Y211832D01*
X489689Y211804D01*
X489639Y211779D01*
X489588Y211758D01*
X489536Y211740D01*
X489482Y211727D01*
X489427Y211717D01*
X489372Y211711D01*
X489317Y211709D01*
X489262Y211711D01*
X489207Y211717D01*
X489152Y211727D01*
X489098Y211740D01*
X489046Y211758D01*
X488995Y211779D01*
X488945Y211804D01*
X488897Y211832D01*
X488852Y211864D01*
X488809Y211899D01*
X488768Y211936D01*
X488731Y211977D01*
X488696Y212020D01*
X488664Y212065D01*
X488636Y212113D01*
X488611Y212163D01*
X488590Y212214D01*
X488572Y212266D01*
X488559Y212320D01*
X488549Y212375D01*
X488543Y212430D01*
X488541Y212485D01*
X488696Y213882D02*
X488698Y213931D01*
X488704Y213979D01*
X488713Y214027D01*
X488726Y214074D01*
X488743Y214120D01*
X488764Y214164D01*
X488788Y214206D01*
X488815Y214247D01*
X488845Y214285D01*
X488878Y214321D01*
X488914Y214354D01*
X488952Y214384D01*
X488993Y214411D01*
X489035Y214435D01*
X489079Y214456D01*
X489125Y214473D01*
X489172Y214486D01*
X489220Y214495D01*
X489268Y214501D01*
X489317Y214503D01*
X489366Y214501D01*
X489414Y214495D01*
X489462Y214486D01*
X489509Y214473D01*
X489555Y214456D01*
X489599Y214435D01*
X489641Y214411D01*
X489682Y214384D01*
X489720Y214354D01*
X489756Y214321D01*
X489789Y214285D01*
X489819Y214247D01*
X489846Y214206D01*
X489870Y214164D01*
X489891Y214120D01*
X489908Y214074D01*
X489921Y214027D01*
X489930Y213979D01*
X489936Y213931D01*
X489938Y213882D01*
X489936Y213833D01*
X489930Y213785D01*
X489921Y213737D01*
X489908Y213690D01*
X489891Y213644D01*
X489870Y213600D01*
X489846Y213558D01*
X489819Y213517D01*
X489789Y213479D01*
X489756Y213443D01*
X489720Y213410D01*
X489682Y213380D01*
X489641Y213353D01*
X489599Y213329D01*
X489555Y213308D01*
X489509Y213291D01*
X489462Y213278D01*
X489414Y213269D01*
X489366Y213263D01*
X489317Y213261D01*
X489268Y213263D01*
X489220Y213269D01*
X489172Y213278D01*
X489125Y213291D01*
X489079Y213308D01*
X489035Y213329D01*
X488993Y213353D01*
X488952Y213380D01*
X488914Y213410D01*
X488878Y213443D01*
X488845Y213479D01*
X488815Y213517D01*
X488788Y213558D01*
X488764Y213600D01*
X488743Y213644D01*
X488726Y213690D01*
X488713Y213737D01*
X488704Y213785D01*
X488698Y213833D01*
X488696Y213882D01*
X560617Y279781D02*
X560617Y283083D01*
X561535Y283083D01*
X561594Y283081D01*
X561652Y283075D01*
X561710Y283066D01*
X561768Y283053D01*
X561824Y283036D01*
X561879Y283016D01*
X561933Y282992D01*
X561985Y282965D01*
X562035Y282935D01*
X562083Y282901D01*
X562129Y282864D01*
X562173Y282825D01*
X562214Y282782D01*
X562252Y282738D01*
X562287Y282691D01*
X562319Y282641D01*
X562348Y282590D01*
X562374Y282537D01*
X562396Y282483D01*
X562414Y282427D01*
X562429Y282370D01*
X562440Y282312D01*
X562448Y282254D01*
X562452Y282195D01*
X562452Y282137D01*
X562448Y282078D01*
X562440Y282020D01*
X562429Y281962D01*
X562414Y281905D01*
X562396Y281849D01*
X562374Y281795D01*
X562348Y281742D01*
X562319Y281691D01*
X562287Y281641D01*
X562252Y281594D01*
X562214Y281550D01*
X562173Y281507D01*
X562129Y281468D01*
X562083Y281431D01*
X562035Y281397D01*
X561985Y281367D01*
X561933Y281340D01*
X561879Y281316D01*
X561824Y281296D01*
X561768Y281279D01*
X561710Y281266D01*
X561652Y281257D01*
X561594Y281251D01*
X561535Y281249D01*
X560617Y281249D01*
X561718Y281249D02*
X562452Y279781D01*
X565633Y282258D02*
X565631Y282314D01*
X565625Y282370D01*
X565616Y282426D01*
X565602Y282481D01*
X565585Y282535D01*
X565565Y282587D01*
X565540Y282638D01*
X565513Y282687D01*
X565482Y282734D01*
X565448Y282779D01*
X565411Y282822D01*
X565371Y282862D01*
X565328Y282899D01*
X565283Y282933D01*
X565236Y282964D01*
X565187Y282991D01*
X565136Y283016D01*
X565084Y283036D01*
X565030Y283053D01*
X564975Y283067D01*
X564919Y283076D01*
X564863Y283082D01*
X564807Y283084D01*
X564807Y283083D02*
X564743Y283081D01*
X564680Y283075D01*
X564617Y283066D01*
X564555Y283053D01*
X564494Y283036D01*
X564434Y283015D01*
X564375Y282991D01*
X564318Y282964D01*
X564262Y282933D01*
X564209Y282898D01*
X564158Y282861D01*
X564108Y282821D01*
X564062Y282777D01*
X564018Y282731D01*
X563977Y282683D01*
X563939Y282632D01*
X563904Y282579D01*
X563872Y282524D01*
X563844Y282467D01*
X563819Y282409D01*
X563798Y282349D01*
X565358Y281616D02*
X565396Y281655D01*
X565433Y281697D01*
X565466Y281741D01*
X565497Y281786D01*
X565525Y281834D01*
X565550Y281883D01*
X565572Y281934D01*
X565590Y281986D01*
X565606Y282039D01*
X565618Y282093D01*
X565626Y282148D01*
X565631Y282203D01*
X565633Y282258D01*
X565357Y281615D02*
X563798Y279781D01*
X565633Y279781D01*
X567732Y281249D02*
X568833Y281249D01*
X567732Y281248D02*
X567680Y281250D01*
X567628Y281255D01*
X567576Y281265D01*
X567525Y281278D01*
X567475Y281294D01*
X567427Y281314D01*
X567380Y281338D01*
X567335Y281365D01*
X567292Y281394D01*
X567251Y281427D01*
X567213Y281463D01*
X567177Y281501D01*
X567144Y281542D01*
X567115Y281585D01*
X567088Y281630D01*
X567064Y281677D01*
X567044Y281726D01*
X567028Y281775D01*
X567015Y281826D01*
X567005Y281878D01*
X567000Y281930D01*
X566998Y281982D01*
X566999Y281982D02*
X566999Y282166D01*
X567001Y282225D01*
X567007Y282283D01*
X567016Y282341D01*
X567029Y282399D01*
X567046Y282455D01*
X567066Y282510D01*
X567090Y282564D01*
X567117Y282616D01*
X567147Y282666D01*
X567181Y282714D01*
X567218Y282760D01*
X567257Y282804D01*
X567300Y282845D01*
X567344Y282883D01*
X567391Y282918D01*
X567441Y282950D01*
X567492Y282979D01*
X567545Y283005D01*
X567599Y283027D01*
X567655Y283045D01*
X567712Y283060D01*
X567770Y283071D01*
X567828Y283079D01*
X567887Y283083D01*
X567945Y283083D01*
X568004Y283079D01*
X568062Y283071D01*
X568120Y283060D01*
X568177Y283045D01*
X568233Y283027D01*
X568287Y283005D01*
X568340Y282979D01*
X568391Y282950D01*
X568441Y282918D01*
X568488Y282883D01*
X568532Y282845D01*
X568575Y282804D01*
X568614Y282760D01*
X568651Y282714D01*
X568685Y282666D01*
X568715Y282616D01*
X568742Y282564D01*
X568766Y282510D01*
X568786Y282455D01*
X568803Y282399D01*
X568816Y282341D01*
X568825Y282283D01*
X568831Y282225D01*
X568833Y282166D01*
X568833Y281249D01*
X568831Y281175D01*
X568825Y281100D01*
X568816Y281027D01*
X568803Y280953D01*
X568786Y280881D01*
X568766Y280810D01*
X568742Y280739D01*
X568714Y280670D01*
X568683Y280602D01*
X568649Y280537D01*
X568611Y280472D01*
X568570Y280410D01*
X568526Y280350D01*
X568479Y280293D01*
X568429Y280238D01*
X568376Y280185D01*
X568321Y280135D01*
X568264Y280088D01*
X568204Y280044D01*
X568142Y280003D01*
X568077Y279965D01*
X568011Y279931D01*
X567944Y279900D01*
X567875Y279872D01*
X567804Y279848D01*
X567733Y279828D01*
X567660Y279811D01*
X567587Y279798D01*
X567513Y279789D01*
X567439Y279783D01*
X567365Y279781D01*
X608457Y279527D02*
X608457Y282829D01*
X609374Y282829D01*
X609433Y282827D01*
X609491Y282821D01*
X609549Y282812D01*
X609607Y282799D01*
X609663Y282782D01*
X609718Y282762D01*
X609772Y282738D01*
X609824Y282711D01*
X609874Y282681D01*
X609922Y282647D01*
X609968Y282610D01*
X610012Y282571D01*
X610053Y282528D01*
X610091Y282484D01*
X610126Y282437D01*
X610158Y282387D01*
X610187Y282336D01*
X610213Y282283D01*
X610235Y282229D01*
X610253Y282173D01*
X610268Y282116D01*
X610279Y282058D01*
X610287Y282000D01*
X610291Y281941D01*
X610291Y281883D01*
X610287Y281824D01*
X610279Y281766D01*
X610268Y281708D01*
X610253Y281651D01*
X610235Y281595D01*
X610213Y281541D01*
X610187Y281488D01*
X610158Y281437D01*
X610126Y281387D01*
X610091Y281340D01*
X610053Y281296D01*
X610012Y281253D01*
X609968Y281214D01*
X609922Y281177D01*
X609874Y281143D01*
X609824Y281113D01*
X609772Y281086D01*
X609718Y281062D01*
X609663Y281042D01*
X609607Y281025D01*
X609549Y281012D01*
X609491Y281003D01*
X609433Y280997D01*
X609374Y280995D01*
X608457Y280995D01*
X609558Y280995D02*
X610291Y279527D01*
X611638Y279527D02*
X612555Y279527D01*
X612614Y279529D01*
X612672Y279535D01*
X612730Y279544D01*
X612788Y279557D01*
X612844Y279574D01*
X612899Y279594D01*
X612953Y279618D01*
X613005Y279645D01*
X613055Y279675D01*
X613103Y279709D01*
X613149Y279746D01*
X613193Y279785D01*
X613234Y279828D01*
X613272Y279872D01*
X613307Y279919D01*
X613339Y279969D01*
X613368Y280020D01*
X613394Y280073D01*
X613416Y280127D01*
X613434Y280183D01*
X613449Y280240D01*
X613460Y280298D01*
X613468Y280356D01*
X613472Y280415D01*
X613472Y280473D01*
X613468Y280532D01*
X613460Y280590D01*
X613449Y280648D01*
X613434Y280705D01*
X613416Y280761D01*
X613394Y280815D01*
X613368Y280868D01*
X613339Y280919D01*
X613307Y280969D01*
X613272Y281016D01*
X613234Y281060D01*
X613193Y281103D01*
X613149Y281142D01*
X613103Y281179D01*
X613055Y281213D01*
X613005Y281243D01*
X612953Y281270D01*
X612899Y281294D01*
X612844Y281314D01*
X612788Y281331D01*
X612730Y281344D01*
X612672Y281353D01*
X612614Y281359D01*
X612555Y281361D01*
X612739Y282829D02*
X611638Y282829D01*
X612739Y282829D02*
X612791Y282827D01*
X612843Y282822D01*
X612895Y282812D01*
X612946Y282799D01*
X612996Y282783D01*
X613044Y282763D01*
X613091Y282739D01*
X613136Y282712D01*
X613179Y282683D01*
X613220Y282650D01*
X613258Y282614D01*
X613294Y282576D01*
X613327Y282535D01*
X613356Y282492D01*
X613383Y282447D01*
X613407Y282400D01*
X613427Y282352D01*
X613443Y282302D01*
X613456Y282251D01*
X613466Y282199D01*
X613471Y282147D01*
X613473Y282095D01*
X613471Y282043D01*
X613466Y281991D01*
X613456Y281939D01*
X613443Y281888D01*
X613427Y281838D01*
X613407Y281790D01*
X613383Y281743D01*
X613356Y281698D01*
X613327Y281655D01*
X613294Y281614D01*
X613258Y281576D01*
X613220Y281540D01*
X613179Y281507D01*
X613136Y281478D01*
X613091Y281451D01*
X613044Y281427D01*
X612996Y281407D01*
X612946Y281391D01*
X612895Y281378D01*
X612843Y281368D01*
X612791Y281363D01*
X612739Y281361D01*
X612005Y281361D01*
X614838Y281178D02*
X614840Y281281D01*
X614846Y281384D01*
X614855Y281486D01*
X614869Y281588D01*
X614886Y281689D01*
X614908Y281790D01*
X614933Y281890D01*
X614961Y281988D01*
X614994Y282086D01*
X615030Y282182D01*
X615070Y282277D01*
X615113Y282370D01*
X615130Y282416D01*
X615152Y282461D01*
X615176Y282504D01*
X615203Y282546D01*
X615234Y282585D01*
X615267Y282622D01*
X615302Y282656D01*
X615340Y282688D01*
X615381Y282717D01*
X615423Y282742D01*
X615467Y282765D01*
X615513Y282784D01*
X615560Y282800D01*
X615608Y282813D01*
X615656Y282822D01*
X615705Y282827D01*
X615755Y282829D01*
X615805Y282827D01*
X615854Y282822D01*
X615902Y282813D01*
X615950Y282800D01*
X615997Y282784D01*
X616043Y282765D01*
X616087Y282742D01*
X616129Y282717D01*
X616170Y282688D01*
X616208Y282656D01*
X616243Y282622D01*
X616276Y282585D01*
X616307Y282546D01*
X616334Y282504D01*
X616358Y282461D01*
X616380Y282416D01*
X616397Y282370D01*
X616398Y282370D02*
X616441Y282277D01*
X616481Y282182D01*
X616517Y282086D01*
X616550Y281988D01*
X616578Y281890D01*
X616603Y281790D01*
X616625Y281689D01*
X616642Y281588D01*
X616656Y281486D01*
X616665Y281384D01*
X616671Y281281D01*
X616673Y281178D01*
X614839Y281178D02*
X614841Y281075D01*
X614847Y280973D01*
X614856Y280870D01*
X614870Y280768D01*
X614887Y280667D01*
X614909Y280566D01*
X614934Y280466D01*
X614962Y280368D01*
X614995Y280270D01*
X615031Y280174D01*
X615071Y280079D01*
X615114Y279986D01*
X615113Y279986D02*
X615130Y279940D01*
X615152Y279895D01*
X615176Y279852D01*
X615203Y279810D01*
X615234Y279771D01*
X615267Y279734D01*
X615302Y279700D01*
X615340Y279668D01*
X615381Y279639D01*
X615423Y279614D01*
X615467Y279591D01*
X615513Y279572D01*
X615560Y279556D01*
X615608Y279543D01*
X615656Y279534D01*
X615705Y279529D01*
X615755Y279527D01*
X616398Y279986D02*
X616441Y280079D01*
X616481Y280174D01*
X616517Y280270D01*
X616550Y280368D01*
X616578Y280466D01*
X616603Y280566D01*
X616625Y280667D01*
X616642Y280768D01*
X616656Y280870D01*
X616665Y280972D01*
X616671Y281075D01*
X616673Y281178D01*
X616397Y279986D02*
X616380Y279940D01*
X616358Y279895D01*
X616334Y279852D01*
X616307Y279810D01*
X616276Y279771D01*
X616243Y279734D01*
X616208Y279700D01*
X616170Y279668D01*
X616129Y279639D01*
X616087Y279614D01*
X616043Y279591D01*
X615997Y279572D01*
X615950Y279556D01*
X615902Y279543D01*
X615854Y279534D01*
X615805Y279529D01*
X615755Y279527D01*
X615022Y280261D02*
X616489Y282095D01*
D14*
X515366Y400050D02*
X515364Y399996D01*
X515358Y399942D01*
X515349Y399888D01*
X515335Y399835D01*
X515318Y399784D01*
X515297Y399733D01*
X515273Y399685D01*
X515245Y399638D01*
X515214Y399593D01*
X515180Y399551D01*
X515143Y399511D01*
X515103Y399474D01*
X515061Y399440D01*
X515016Y399409D01*
X514969Y399381D01*
X514921Y399357D01*
X514870Y399336D01*
X514819Y399319D01*
X514766Y399305D01*
X514712Y399296D01*
X514658Y399290D01*
X514604Y399288D01*
X514550Y399290D01*
X514496Y399296D01*
X514442Y399305D01*
X514389Y399319D01*
X514338Y399336D01*
X514287Y399357D01*
X514239Y399381D01*
X514192Y399409D01*
X514147Y399440D01*
X514105Y399474D01*
X514065Y399511D01*
X514028Y399551D01*
X513994Y399593D01*
X513963Y399638D01*
X513935Y399685D01*
X513911Y399733D01*
X513890Y399784D01*
X513873Y399835D01*
X513859Y399888D01*
X513850Y399942D01*
X513844Y399996D01*
X513842Y400050D01*
X513844Y400104D01*
X513850Y400158D01*
X513859Y400212D01*
X513873Y400265D01*
X513890Y400316D01*
X513911Y400367D01*
X513935Y400415D01*
X513963Y400462D01*
X513994Y400507D01*
X514028Y400549D01*
X514065Y400589D01*
X514105Y400626D01*
X514147Y400660D01*
X514192Y400691D01*
X514239Y400719D01*
X514287Y400743D01*
X514338Y400764D01*
X514389Y400781D01*
X514442Y400795D01*
X514496Y400804D01*
X514550Y400810D01*
X514604Y400812D01*
X514658Y400810D01*
X514712Y400804D01*
X514766Y400795D01*
X514819Y400781D01*
X514870Y400764D01*
X514921Y400743D01*
X514969Y400719D01*
X515016Y400691D01*
X515061Y400660D01*
X515103Y400626D01*
X515143Y400589D01*
X515180Y400549D01*
X515214Y400507D01*
X515245Y400462D01*
X515273Y400415D01*
X515297Y400367D01*
X515318Y400316D01*
X515335Y400265D01*
X515349Y400212D01*
X515358Y400158D01*
X515364Y400104D01*
X515366Y400050D01*
X538988Y356108D02*
X578612Y356108D01*
X578612Y406400D02*
X538988Y406400D01*
D13*
X544872Y353441D02*
X543941Y350647D01*
X545804Y350647D02*
X544872Y353441D01*
X545571Y351346D02*
X544174Y351346D01*
X547452Y350647D02*
X548073Y350647D01*
X547452Y350647D02*
X547403Y350649D01*
X547355Y350655D01*
X547307Y350664D01*
X547260Y350677D01*
X547214Y350694D01*
X547170Y350715D01*
X547128Y350739D01*
X547087Y350766D01*
X547049Y350796D01*
X547013Y350829D01*
X546980Y350865D01*
X546950Y350903D01*
X546923Y350944D01*
X546899Y350986D01*
X546878Y351030D01*
X546861Y351076D01*
X546848Y351123D01*
X546839Y351171D01*
X546833Y351219D01*
X546831Y351268D01*
X546831Y352820D01*
X546833Y352869D01*
X546839Y352917D01*
X546848Y352965D01*
X546861Y353012D01*
X546878Y353058D01*
X546899Y353102D01*
X546923Y353144D01*
X546950Y353185D01*
X546980Y353223D01*
X547013Y353259D01*
X547049Y353292D01*
X547087Y353322D01*
X547128Y353349D01*
X547170Y353373D01*
X547214Y353394D01*
X547260Y353411D01*
X547307Y353424D01*
X547355Y353433D01*
X547403Y353439D01*
X547452Y353441D01*
X548073Y353441D01*
X550586Y351268D02*
X550584Y351219D01*
X550578Y351171D01*
X550569Y351123D01*
X550556Y351076D01*
X550539Y351030D01*
X550518Y350986D01*
X550494Y350944D01*
X550467Y350903D01*
X550437Y350865D01*
X550404Y350829D01*
X550368Y350796D01*
X550330Y350766D01*
X550289Y350739D01*
X550247Y350715D01*
X550203Y350694D01*
X550157Y350677D01*
X550110Y350664D01*
X550062Y350655D01*
X550014Y350649D01*
X549965Y350647D01*
X549896Y350649D01*
X549827Y350654D01*
X549759Y350663D01*
X549691Y350676D01*
X549624Y350692D01*
X549557Y350712D01*
X549492Y350735D01*
X549429Y350762D01*
X549366Y350791D01*
X549306Y350825D01*
X549247Y350861D01*
X549190Y350900D01*
X549136Y350942D01*
X549083Y350987D01*
X549033Y351035D01*
X549111Y352820D02*
X549113Y352869D01*
X549119Y352917D01*
X549128Y352965D01*
X549141Y353012D01*
X549158Y353058D01*
X549179Y353102D01*
X549203Y353144D01*
X549230Y353185D01*
X549260Y353223D01*
X549293Y353259D01*
X549329Y353292D01*
X549367Y353322D01*
X549408Y353350D01*
X549450Y353373D01*
X549494Y353394D01*
X549540Y353411D01*
X549587Y353424D01*
X549635Y353433D01*
X549683Y353439D01*
X549732Y353441D01*
X549794Y353439D01*
X549857Y353434D01*
X549918Y353426D01*
X549980Y353414D01*
X550040Y353399D01*
X550100Y353381D01*
X550159Y353360D01*
X550216Y353336D01*
X550272Y353308D01*
X550327Y353278D01*
X550379Y353244D01*
X550430Y353208D01*
X549422Y352276D02*
X549382Y352302D01*
X549345Y352330D01*
X549310Y352360D01*
X549277Y352394D01*
X549246Y352429D01*
X549219Y352467D01*
X549194Y352507D01*
X549172Y352548D01*
X549154Y352591D01*
X549139Y352636D01*
X549127Y352681D01*
X549118Y352727D01*
X549113Y352773D01*
X549111Y352820D01*
X550276Y351812D02*
X550316Y351786D01*
X550353Y351758D01*
X550388Y351728D01*
X550421Y351694D01*
X550452Y351659D01*
X550479Y351621D01*
X550504Y351581D01*
X550526Y351540D01*
X550544Y351497D01*
X550559Y351452D01*
X550571Y351407D01*
X550580Y351361D01*
X550585Y351315D01*
X550587Y351268D01*
X550276Y351811D02*
X549422Y352277D01*
X551686Y353131D02*
X551686Y353441D01*
X553238Y353441D01*
X552462Y350647D01*
X554429Y352820D02*
X555205Y353441D01*
X555205Y350647D01*
X554429Y350647D02*
X555981Y350647D01*
X557172Y350647D02*
X558103Y350647D01*
X558152Y350649D01*
X558200Y350655D01*
X558248Y350664D01*
X558295Y350677D01*
X558341Y350694D01*
X558385Y350715D01*
X558427Y350739D01*
X558468Y350766D01*
X558506Y350796D01*
X558542Y350829D01*
X558575Y350865D01*
X558605Y350903D01*
X558632Y350944D01*
X558656Y350986D01*
X558677Y351030D01*
X558694Y351076D01*
X558707Y351123D01*
X558716Y351171D01*
X558722Y351219D01*
X558724Y351268D01*
X558724Y351578D01*
X558722Y351627D01*
X558716Y351675D01*
X558707Y351723D01*
X558694Y351770D01*
X558677Y351816D01*
X558656Y351860D01*
X558632Y351902D01*
X558605Y351943D01*
X558575Y351981D01*
X558542Y352017D01*
X558506Y352050D01*
X558468Y352080D01*
X558427Y352107D01*
X558385Y352131D01*
X558341Y352152D01*
X558295Y352169D01*
X558248Y352182D01*
X558200Y352191D01*
X558152Y352197D01*
X558103Y352199D01*
X557172Y352199D01*
X557172Y353441D01*
X558724Y353441D01*
X559796Y350337D02*
X561038Y350337D01*
X562886Y350647D02*
X561955Y353441D01*
X563817Y353441D02*
X562886Y350647D01*
X564698Y350647D02*
X565629Y353441D01*
X566560Y350647D01*
X566328Y351346D02*
X564931Y351346D01*
X567693Y350647D02*
X567693Y353441D01*
X567693Y350647D02*
X568935Y350647D01*
X570750Y350647D02*
X569818Y353441D01*
X571681Y353441D02*
X570750Y350647D01*
X572814Y350647D02*
X574055Y350647D01*
X572814Y350647D02*
X572814Y353441D01*
X574055Y353441D01*
X573745Y352199D02*
X572814Y352199D01*
X613217Y356207D02*
X613217Y359001D01*
X613993Y359001D01*
X614048Y358999D01*
X614103Y358993D01*
X614158Y358983D01*
X614212Y358970D01*
X614264Y358952D01*
X614315Y358931D01*
X614365Y358906D01*
X614413Y358878D01*
X614458Y358846D01*
X614501Y358811D01*
X614542Y358774D01*
X614579Y358733D01*
X614614Y358690D01*
X614646Y358645D01*
X614674Y358597D01*
X614699Y358547D01*
X614720Y358496D01*
X614738Y358444D01*
X614751Y358390D01*
X614761Y358335D01*
X614767Y358280D01*
X614769Y358225D01*
X614767Y358170D01*
X614761Y358115D01*
X614751Y358060D01*
X614738Y358006D01*
X614720Y357954D01*
X614699Y357903D01*
X614674Y357853D01*
X614646Y357805D01*
X614614Y357760D01*
X614579Y357717D01*
X614542Y357676D01*
X614501Y357639D01*
X614458Y357604D01*
X614413Y357572D01*
X614365Y357544D01*
X614315Y357519D01*
X614264Y357498D01*
X614212Y357480D01*
X614158Y357467D01*
X614103Y357457D01*
X614048Y357451D01*
X613993Y357449D01*
X613217Y357449D01*
X614148Y357449D02*
X614769Y356207D01*
X617495Y358303D02*
X617493Y358353D01*
X617488Y358402D01*
X617479Y358452D01*
X617467Y358500D01*
X617451Y358547D01*
X617432Y358593D01*
X617409Y358638D01*
X617384Y358681D01*
X617356Y358722D01*
X617324Y358761D01*
X617290Y358797D01*
X617254Y358831D01*
X617215Y358863D01*
X617174Y358891D01*
X617131Y358916D01*
X617086Y358939D01*
X617040Y358958D01*
X616993Y358974D01*
X616945Y358986D01*
X616895Y358995D01*
X616846Y359000D01*
X616796Y359002D01*
X616796Y359001D02*
X616740Y358999D01*
X616683Y358994D01*
X616628Y358985D01*
X616573Y358973D01*
X616519Y358957D01*
X616466Y358938D01*
X616414Y358916D01*
X616364Y358890D01*
X616315Y358861D01*
X616268Y358829D01*
X616224Y358795D01*
X616182Y358758D01*
X616142Y358718D01*
X616104Y358675D01*
X616070Y358631D01*
X616038Y358584D01*
X616010Y358536D01*
X615984Y358485D01*
X615962Y358433D01*
X615943Y358380D01*
X617261Y357760D02*
X617297Y357796D01*
X617330Y357834D01*
X617360Y357875D01*
X617387Y357918D01*
X617412Y357962D01*
X617433Y358008D01*
X617452Y358055D01*
X617467Y358103D01*
X617479Y358152D01*
X617487Y358202D01*
X617492Y358252D01*
X617494Y358303D01*
X617262Y357759D02*
X615942Y356207D01*
X617494Y356207D01*
X618685Y356207D02*
X619461Y356207D01*
X619516Y356209D01*
X619571Y356215D01*
X619626Y356225D01*
X619680Y356238D01*
X619732Y356256D01*
X619783Y356277D01*
X619833Y356302D01*
X619881Y356330D01*
X619926Y356362D01*
X619969Y356397D01*
X620010Y356434D01*
X620047Y356475D01*
X620082Y356518D01*
X620114Y356563D01*
X620142Y356611D01*
X620167Y356661D01*
X620188Y356712D01*
X620206Y356764D01*
X620219Y356818D01*
X620229Y356873D01*
X620235Y356928D01*
X620237Y356983D01*
X620235Y357038D01*
X620229Y357093D01*
X620219Y357148D01*
X620206Y357202D01*
X620188Y357254D01*
X620167Y357305D01*
X620142Y357355D01*
X620114Y357403D01*
X620082Y357448D01*
X620047Y357491D01*
X620010Y357532D01*
X619969Y357569D01*
X619926Y357604D01*
X619881Y357636D01*
X619833Y357664D01*
X619783Y357689D01*
X619732Y357710D01*
X619680Y357728D01*
X619626Y357741D01*
X619571Y357751D01*
X619516Y357757D01*
X619461Y357759D01*
X619617Y359001D02*
X618685Y359001D01*
X619617Y359001D02*
X619666Y358999D01*
X619714Y358993D01*
X619762Y358984D01*
X619809Y358971D01*
X619855Y358954D01*
X619899Y358933D01*
X619941Y358909D01*
X619982Y358882D01*
X620020Y358852D01*
X620056Y358819D01*
X620089Y358783D01*
X620119Y358745D01*
X620146Y358704D01*
X620170Y358662D01*
X620191Y358618D01*
X620208Y358572D01*
X620221Y358525D01*
X620230Y358477D01*
X620236Y358429D01*
X620238Y358380D01*
X620236Y358331D01*
X620230Y358283D01*
X620221Y358235D01*
X620208Y358188D01*
X620191Y358142D01*
X620170Y358098D01*
X620146Y358056D01*
X620119Y358015D01*
X620089Y357977D01*
X620056Y357941D01*
X620020Y357908D01*
X619982Y357878D01*
X619941Y357851D01*
X619899Y357827D01*
X619855Y357806D01*
X619809Y357789D01*
X619762Y357776D01*
X619714Y357767D01*
X619666Y357761D01*
X619617Y357759D01*
X618996Y357759D01*
X558608Y431419D02*
X557988Y431419D01*
X557939Y431421D01*
X557891Y431427D01*
X557843Y431436D01*
X557796Y431449D01*
X557750Y431466D01*
X557706Y431487D01*
X557664Y431511D01*
X557623Y431538D01*
X557585Y431568D01*
X557549Y431601D01*
X557516Y431637D01*
X557486Y431675D01*
X557459Y431716D01*
X557435Y431758D01*
X557414Y431802D01*
X557397Y431848D01*
X557384Y431895D01*
X557375Y431943D01*
X557369Y431991D01*
X557367Y432040D01*
X557367Y433592D01*
X557369Y433641D01*
X557375Y433689D01*
X557384Y433737D01*
X557397Y433784D01*
X557414Y433830D01*
X557435Y433874D01*
X557459Y433916D01*
X557486Y433957D01*
X557516Y433995D01*
X557549Y434031D01*
X557585Y434064D01*
X557623Y434094D01*
X557664Y434121D01*
X557706Y434145D01*
X557750Y434166D01*
X557796Y434183D01*
X557843Y434196D01*
X557891Y434205D01*
X557939Y434211D01*
X557988Y434213D01*
X558608Y434213D01*
X560282Y432661D02*
X561213Y432661D01*
X560282Y432661D02*
X560233Y432663D01*
X560185Y432669D01*
X560137Y432678D01*
X560090Y432691D01*
X560044Y432708D01*
X560000Y432729D01*
X559958Y432753D01*
X559917Y432780D01*
X559879Y432810D01*
X559843Y432843D01*
X559810Y432879D01*
X559780Y432917D01*
X559752Y432958D01*
X559729Y433000D01*
X559708Y433044D01*
X559691Y433090D01*
X559678Y433137D01*
X559669Y433185D01*
X559663Y433233D01*
X559661Y433282D01*
X559661Y433437D01*
X559663Y433492D01*
X559669Y433547D01*
X559679Y433602D01*
X559692Y433656D01*
X559710Y433708D01*
X559731Y433759D01*
X559756Y433809D01*
X559784Y433857D01*
X559816Y433902D01*
X559851Y433945D01*
X559888Y433986D01*
X559929Y434023D01*
X559972Y434058D01*
X560017Y434090D01*
X560065Y434118D01*
X560115Y434143D01*
X560166Y434164D01*
X560218Y434182D01*
X560272Y434195D01*
X560327Y434205D01*
X560382Y434211D01*
X560437Y434213D01*
X560492Y434211D01*
X560547Y434205D01*
X560602Y434195D01*
X560656Y434182D01*
X560708Y434164D01*
X560759Y434143D01*
X560809Y434118D01*
X560857Y434090D01*
X560902Y434058D01*
X560945Y434023D01*
X560986Y433986D01*
X561023Y433945D01*
X561058Y433902D01*
X561090Y433857D01*
X561118Y433809D01*
X561143Y433759D01*
X561164Y433708D01*
X561182Y433656D01*
X561195Y433602D01*
X561205Y433547D01*
X561211Y433492D01*
X561213Y433437D01*
X561213Y432661D01*
X561211Y432591D01*
X561205Y432522D01*
X561195Y432453D01*
X561182Y432385D01*
X561164Y432317D01*
X561143Y432251D01*
X561118Y432186D01*
X561090Y432122D01*
X561058Y432060D01*
X561023Y432000D01*
X560984Y431942D01*
X560942Y431887D01*
X560897Y431833D01*
X560849Y431783D01*
X560799Y431735D01*
X560745Y431690D01*
X560690Y431648D01*
X560632Y431609D01*
X560572Y431574D01*
X560510Y431542D01*
X560446Y431514D01*
X560381Y431489D01*
X560315Y431468D01*
X560247Y431450D01*
X560179Y431437D01*
X560110Y431427D01*
X560041Y431421D01*
X559971Y431419D01*
X497445Y346329D02*
X496824Y346329D01*
X496775Y346331D01*
X496727Y346337D01*
X496679Y346346D01*
X496632Y346359D01*
X496586Y346376D01*
X496542Y346397D01*
X496500Y346421D01*
X496459Y346448D01*
X496421Y346478D01*
X496385Y346511D01*
X496352Y346547D01*
X496322Y346585D01*
X496295Y346626D01*
X496271Y346668D01*
X496250Y346712D01*
X496233Y346758D01*
X496220Y346805D01*
X496211Y346853D01*
X496205Y346901D01*
X496203Y346950D01*
X496203Y348502D01*
X496205Y348551D01*
X496211Y348599D01*
X496220Y348647D01*
X496233Y348694D01*
X496250Y348740D01*
X496271Y348784D01*
X496295Y348826D01*
X496322Y348867D01*
X496352Y348905D01*
X496385Y348941D01*
X496421Y348974D01*
X496459Y349004D01*
X496500Y349031D01*
X496542Y349055D01*
X496586Y349076D01*
X496632Y349093D01*
X496679Y349106D01*
X496727Y349115D01*
X496775Y349121D01*
X496824Y349123D01*
X497445Y349123D01*
X498498Y348502D02*
X499274Y349123D01*
X499274Y346329D01*
X498498Y346329D02*
X500050Y346329D01*
X501241Y346329D02*
X502172Y346329D01*
X502221Y346331D01*
X502269Y346337D01*
X502317Y346346D01*
X502364Y346359D01*
X502410Y346376D01*
X502454Y346397D01*
X502496Y346421D01*
X502537Y346448D01*
X502575Y346478D01*
X502611Y346511D01*
X502644Y346547D01*
X502674Y346585D01*
X502701Y346626D01*
X502725Y346668D01*
X502746Y346712D01*
X502763Y346758D01*
X502776Y346805D01*
X502785Y346853D01*
X502791Y346901D01*
X502793Y346950D01*
X502793Y347260D01*
X502791Y347309D01*
X502785Y347357D01*
X502776Y347405D01*
X502763Y347452D01*
X502746Y347498D01*
X502725Y347542D01*
X502701Y347584D01*
X502674Y347625D01*
X502644Y347663D01*
X502611Y347699D01*
X502575Y347732D01*
X502537Y347762D01*
X502496Y347789D01*
X502454Y347813D01*
X502410Y347834D01*
X502364Y347851D01*
X502317Y347864D01*
X502269Y347873D01*
X502221Y347879D01*
X502172Y347881D01*
X501241Y347881D01*
X501241Y349123D01*
X502793Y349123D01*
X593706Y430911D02*
X594440Y430911D01*
X593706Y430911D02*
X593654Y430913D01*
X593602Y430918D01*
X593550Y430928D01*
X593499Y430941D01*
X593449Y430957D01*
X593401Y430977D01*
X593354Y431001D01*
X593309Y431028D01*
X593266Y431057D01*
X593225Y431090D01*
X593187Y431126D01*
X593151Y431164D01*
X593118Y431205D01*
X593089Y431248D01*
X593062Y431293D01*
X593038Y431340D01*
X593018Y431388D01*
X593002Y431438D01*
X592989Y431489D01*
X592979Y431541D01*
X592974Y431593D01*
X592972Y431645D01*
X592972Y433479D01*
X592974Y433531D01*
X592979Y433583D01*
X592989Y433635D01*
X593002Y433686D01*
X593018Y433736D01*
X593038Y433784D01*
X593062Y433831D01*
X593089Y433876D01*
X593118Y433919D01*
X593151Y433960D01*
X593187Y433998D01*
X593225Y434034D01*
X593266Y434067D01*
X593309Y434096D01*
X593354Y434123D01*
X593401Y434147D01*
X593449Y434167D01*
X593499Y434183D01*
X593550Y434196D01*
X593602Y434206D01*
X593654Y434211D01*
X593706Y434213D01*
X594440Y434213D01*
X595648Y433479D02*
X596565Y434213D01*
X596565Y430911D01*
X595648Y430911D02*
X597483Y430911D01*
X598849Y432562D02*
X598851Y432665D01*
X598857Y432768D01*
X598866Y432870D01*
X598880Y432972D01*
X598897Y433073D01*
X598919Y433174D01*
X598944Y433274D01*
X598972Y433372D01*
X599005Y433470D01*
X599041Y433566D01*
X599081Y433661D01*
X599124Y433754D01*
X599141Y433800D01*
X599163Y433845D01*
X599187Y433888D01*
X599214Y433930D01*
X599245Y433969D01*
X599278Y434006D01*
X599313Y434040D01*
X599351Y434072D01*
X599392Y434101D01*
X599434Y434126D01*
X599478Y434149D01*
X599524Y434168D01*
X599571Y434184D01*
X599619Y434197D01*
X599667Y434206D01*
X599716Y434211D01*
X599766Y434213D01*
X599816Y434211D01*
X599865Y434206D01*
X599913Y434197D01*
X599961Y434184D01*
X600008Y434168D01*
X600054Y434149D01*
X600098Y434126D01*
X600140Y434101D01*
X600181Y434072D01*
X600219Y434040D01*
X600254Y434006D01*
X600287Y433969D01*
X600318Y433930D01*
X600345Y433888D01*
X600369Y433845D01*
X600391Y433800D01*
X600408Y433754D01*
X600451Y433661D01*
X600491Y433566D01*
X600527Y433470D01*
X600560Y433372D01*
X600588Y433274D01*
X600613Y433174D01*
X600635Y433073D01*
X600652Y432972D01*
X600666Y432870D01*
X600675Y432768D01*
X600681Y432665D01*
X600683Y432562D01*
X598849Y432562D02*
X598851Y432459D01*
X598857Y432357D01*
X598866Y432254D01*
X598880Y432152D01*
X598897Y432051D01*
X598919Y431950D01*
X598944Y431850D01*
X598972Y431752D01*
X599005Y431654D01*
X599041Y431558D01*
X599081Y431463D01*
X599124Y431370D01*
X599141Y431324D01*
X599163Y431279D01*
X599187Y431236D01*
X599214Y431194D01*
X599245Y431155D01*
X599278Y431118D01*
X599313Y431084D01*
X599351Y431052D01*
X599392Y431023D01*
X599434Y430998D01*
X599478Y430975D01*
X599524Y430956D01*
X599571Y430940D01*
X599619Y430927D01*
X599667Y430918D01*
X599716Y430913D01*
X599766Y430911D01*
X600408Y431370D02*
X600451Y431463D01*
X600491Y431558D01*
X600527Y431654D01*
X600560Y431752D01*
X600588Y431850D01*
X600613Y431950D01*
X600635Y432051D01*
X600652Y432152D01*
X600666Y432254D01*
X600675Y432356D01*
X600681Y432459D01*
X600683Y432562D01*
X600408Y431370D02*
X600391Y431324D01*
X600369Y431279D01*
X600345Y431236D01*
X600318Y431194D01*
X600287Y431155D01*
X600254Y431118D01*
X600219Y431084D01*
X600181Y431052D01*
X600140Y431023D01*
X600098Y430998D01*
X600054Y430975D01*
X600008Y430956D01*
X599961Y430940D01*
X599913Y430927D01*
X599865Y430918D01*
X599816Y430913D01*
X599766Y430911D01*
X599032Y431645D02*
X600500Y433479D01*
D14*
X401066Y400150D02*
X401064Y400096D01*
X401058Y400042D01*
X401049Y399988D01*
X401035Y399935D01*
X401018Y399884D01*
X400997Y399833D01*
X400973Y399785D01*
X400945Y399738D01*
X400914Y399693D01*
X400880Y399651D01*
X400843Y399611D01*
X400803Y399574D01*
X400761Y399540D01*
X400716Y399509D01*
X400669Y399481D01*
X400621Y399457D01*
X400570Y399436D01*
X400519Y399419D01*
X400466Y399405D01*
X400412Y399396D01*
X400358Y399390D01*
X400304Y399388D01*
X400250Y399390D01*
X400196Y399396D01*
X400142Y399405D01*
X400089Y399419D01*
X400038Y399436D01*
X399987Y399457D01*
X399939Y399481D01*
X399892Y399509D01*
X399847Y399540D01*
X399805Y399574D01*
X399765Y399611D01*
X399728Y399651D01*
X399694Y399693D01*
X399663Y399738D01*
X399635Y399785D01*
X399611Y399833D01*
X399590Y399884D01*
X399573Y399935D01*
X399559Y399988D01*
X399550Y400042D01*
X399544Y400096D01*
X399542Y400150D01*
X399544Y400204D01*
X399550Y400258D01*
X399559Y400312D01*
X399573Y400365D01*
X399590Y400416D01*
X399611Y400467D01*
X399635Y400515D01*
X399663Y400562D01*
X399694Y400607D01*
X399728Y400649D01*
X399765Y400689D01*
X399805Y400726D01*
X399847Y400760D01*
X399892Y400791D01*
X399939Y400819D01*
X399987Y400843D01*
X400038Y400864D01*
X400089Y400881D01*
X400142Y400895D01*
X400196Y400904D01*
X400250Y400910D01*
X400304Y400912D01*
X400358Y400910D01*
X400412Y400904D01*
X400466Y400895D01*
X400519Y400881D01*
X400570Y400864D01*
X400621Y400843D01*
X400669Y400819D01*
X400716Y400791D01*
X400761Y400760D01*
X400803Y400726D01*
X400843Y400689D01*
X400880Y400649D01*
X400914Y400607D01*
X400945Y400562D01*
X400973Y400515D01*
X400997Y400467D01*
X401018Y400416D01*
X401035Y400365D01*
X401049Y400312D01*
X401058Y400258D01*
X401064Y400204D01*
X401066Y400150D01*
X424688Y356208D02*
X464312Y356208D01*
X464312Y406500D02*
X424688Y406500D01*
D13*
X433112Y353541D02*
X432181Y350747D01*
X434044Y350747D02*
X433112Y353541D01*
X433811Y351446D02*
X432414Y351446D01*
X435692Y350747D02*
X436313Y350747D01*
X435692Y350747D02*
X435643Y350749D01*
X435595Y350755D01*
X435547Y350764D01*
X435500Y350777D01*
X435454Y350794D01*
X435410Y350815D01*
X435368Y350839D01*
X435327Y350866D01*
X435289Y350896D01*
X435253Y350929D01*
X435220Y350965D01*
X435190Y351003D01*
X435163Y351044D01*
X435139Y351086D01*
X435118Y351130D01*
X435101Y351176D01*
X435088Y351223D01*
X435079Y351271D01*
X435073Y351319D01*
X435071Y351368D01*
X435071Y352920D01*
X435073Y352969D01*
X435079Y353017D01*
X435088Y353065D01*
X435101Y353112D01*
X435118Y353158D01*
X435139Y353202D01*
X435163Y353244D01*
X435190Y353285D01*
X435220Y353323D01*
X435253Y353359D01*
X435289Y353392D01*
X435327Y353422D01*
X435368Y353449D01*
X435410Y353473D01*
X435454Y353494D01*
X435500Y353511D01*
X435547Y353524D01*
X435595Y353533D01*
X435643Y353539D01*
X435692Y353541D01*
X436313Y353541D01*
X438826Y351368D02*
X438824Y351319D01*
X438818Y351271D01*
X438809Y351223D01*
X438796Y351176D01*
X438779Y351130D01*
X438758Y351086D01*
X438734Y351044D01*
X438707Y351003D01*
X438677Y350965D01*
X438644Y350929D01*
X438608Y350896D01*
X438570Y350866D01*
X438529Y350839D01*
X438487Y350815D01*
X438443Y350794D01*
X438397Y350777D01*
X438350Y350764D01*
X438302Y350755D01*
X438254Y350749D01*
X438205Y350747D01*
X438136Y350749D01*
X438067Y350754D01*
X437999Y350763D01*
X437931Y350776D01*
X437864Y350792D01*
X437797Y350812D01*
X437732Y350835D01*
X437669Y350862D01*
X437606Y350891D01*
X437546Y350925D01*
X437487Y350961D01*
X437430Y351000D01*
X437376Y351042D01*
X437323Y351087D01*
X437273Y351135D01*
X437351Y352920D02*
X437353Y352969D01*
X437359Y353017D01*
X437368Y353065D01*
X437381Y353112D01*
X437398Y353158D01*
X437419Y353202D01*
X437443Y353244D01*
X437470Y353285D01*
X437500Y353323D01*
X437533Y353359D01*
X437569Y353392D01*
X437607Y353422D01*
X437648Y353450D01*
X437690Y353473D01*
X437734Y353494D01*
X437780Y353511D01*
X437827Y353524D01*
X437875Y353533D01*
X437923Y353539D01*
X437972Y353541D01*
X438034Y353539D01*
X438097Y353534D01*
X438158Y353526D01*
X438220Y353514D01*
X438280Y353499D01*
X438340Y353481D01*
X438399Y353460D01*
X438456Y353436D01*
X438512Y353408D01*
X438567Y353378D01*
X438619Y353344D01*
X438670Y353308D01*
X437662Y352376D02*
X437622Y352402D01*
X437585Y352430D01*
X437550Y352460D01*
X437517Y352494D01*
X437486Y352529D01*
X437459Y352567D01*
X437434Y352607D01*
X437412Y352648D01*
X437394Y352691D01*
X437379Y352736D01*
X437367Y352781D01*
X437358Y352827D01*
X437353Y352873D01*
X437351Y352920D01*
X438516Y351912D02*
X438556Y351886D01*
X438593Y351858D01*
X438628Y351828D01*
X438661Y351794D01*
X438692Y351759D01*
X438719Y351721D01*
X438744Y351681D01*
X438766Y351640D01*
X438784Y351597D01*
X438799Y351552D01*
X438811Y351507D01*
X438820Y351461D01*
X438825Y351415D01*
X438827Y351368D01*
X438516Y351911D02*
X437662Y352377D01*
X439926Y353231D02*
X439926Y353541D01*
X441478Y353541D01*
X440702Y350747D01*
X442669Y352920D02*
X443445Y353541D01*
X443445Y350747D01*
X442669Y350747D02*
X444221Y350747D01*
X445412Y350747D02*
X446343Y350747D01*
X446392Y350749D01*
X446440Y350755D01*
X446488Y350764D01*
X446535Y350777D01*
X446581Y350794D01*
X446625Y350815D01*
X446667Y350839D01*
X446708Y350866D01*
X446746Y350896D01*
X446782Y350929D01*
X446815Y350965D01*
X446845Y351003D01*
X446872Y351044D01*
X446896Y351086D01*
X446917Y351130D01*
X446934Y351176D01*
X446947Y351223D01*
X446956Y351271D01*
X446962Y351319D01*
X446964Y351368D01*
X446964Y351678D01*
X446962Y351727D01*
X446956Y351775D01*
X446947Y351823D01*
X446934Y351870D01*
X446917Y351916D01*
X446896Y351960D01*
X446872Y352002D01*
X446845Y352043D01*
X446815Y352081D01*
X446782Y352117D01*
X446746Y352150D01*
X446708Y352180D01*
X446667Y352207D01*
X446625Y352231D01*
X446581Y352252D01*
X446535Y352269D01*
X446488Y352282D01*
X446440Y352291D01*
X446392Y352297D01*
X446343Y352299D01*
X445412Y352299D01*
X445412Y353541D01*
X446964Y353541D01*
X448036Y350437D02*
X449278Y350437D01*
X450483Y352299D02*
X451259Y352299D01*
X451314Y352297D01*
X451369Y352291D01*
X451424Y352281D01*
X451478Y352268D01*
X451530Y352250D01*
X451581Y352229D01*
X451631Y352204D01*
X451679Y352176D01*
X451724Y352144D01*
X451767Y352109D01*
X451808Y352072D01*
X451845Y352031D01*
X451880Y351988D01*
X451912Y351943D01*
X451940Y351895D01*
X451965Y351845D01*
X451986Y351794D01*
X452004Y351742D01*
X452017Y351688D01*
X452027Y351633D01*
X452033Y351578D01*
X452035Y351523D01*
X452033Y351468D01*
X452027Y351413D01*
X452017Y351358D01*
X452004Y351304D01*
X451986Y351252D01*
X451965Y351201D01*
X451940Y351151D01*
X451912Y351103D01*
X451880Y351058D01*
X451845Y351015D01*
X451808Y350974D01*
X451767Y350937D01*
X451724Y350902D01*
X451679Y350870D01*
X451631Y350842D01*
X451581Y350817D01*
X451530Y350796D01*
X451478Y350778D01*
X451424Y350765D01*
X451369Y350755D01*
X451314Y350749D01*
X451259Y350747D01*
X450483Y350747D01*
X450483Y353541D01*
X451259Y353541D01*
X451308Y353539D01*
X451356Y353533D01*
X451404Y353524D01*
X451451Y353511D01*
X451497Y353494D01*
X451541Y353473D01*
X451583Y353449D01*
X451624Y353422D01*
X451662Y353392D01*
X451698Y353359D01*
X451731Y353323D01*
X451761Y353285D01*
X451788Y353244D01*
X451812Y353202D01*
X451833Y353158D01*
X451850Y353112D01*
X451863Y353065D01*
X451872Y353017D01*
X451878Y352969D01*
X451880Y352920D01*
X451878Y352871D01*
X451872Y352823D01*
X451863Y352775D01*
X451850Y352728D01*
X451833Y352682D01*
X451812Y352638D01*
X451788Y352596D01*
X451761Y352555D01*
X451731Y352517D01*
X451698Y352481D01*
X451662Y352448D01*
X451624Y352418D01*
X451583Y352391D01*
X451541Y352367D01*
X451497Y352346D01*
X451451Y352329D01*
X451404Y352316D01*
X451356Y352307D01*
X451308Y352301D01*
X451259Y352299D01*
X453706Y350747D02*
X454327Y350747D01*
X453706Y350747D02*
X453657Y350749D01*
X453609Y350755D01*
X453561Y350764D01*
X453514Y350777D01*
X453468Y350794D01*
X453424Y350815D01*
X453382Y350839D01*
X453341Y350866D01*
X453303Y350896D01*
X453267Y350929D01*
X453234Y350965D01*
X453204Y351003D01*
X453177Y351044D01*
X453153Y351086D01*
X453132Y351130D01*
X453115Y351176D01*
X453102Y351223D01*
X453093Y351271D01*
X453087Y351319D01*
X453085Y351368D01*
X453085Y352920D01*
X453087Y352969D01*
X453093Y353017D01*
X453102Y353065D01*
X453115Y353112D01*
X453132Y353158D01*
X453153Y353202D01*
X453177Y353244D01*
X453204Y353285D01*
X453234Y353323D01*
X453267Y353359D01*
X453303Y353392D01*
X453341Y353422D01*
X453382Y353449D01*
X453424Y353473D01*
X453468Y353494D01*
X453514Y353511D01*
X453561Y353524D01*
X453609Y353533D01*
X453657Y353539D01*
X453706Y353541D01*
X454327Y353541D01*
X455470Y353541D02*
X455470Y351523D01*
X455471Y351523D02*
X455473Y351468D01*
X455479Y351413D01*
X455489Y351358D01*
X455502Y351304D01*
X455520Y351252D01*
X455541Y351201D01*
X455566Y351151D01*
X455594Y351103D01*
X455626Y351058D01*
X455661Y351015D01*
X455698Y350974D01*
X455739Y350937D01*
X455782Y350902D01*
X455827Y350870D01*
X455875Y350842D01*
X455925Y350817D01*
X455976Y350796D01*
X456028Y350778D01*
X456082Y350765D01*
X456137Y350755D01*
X456192Y350749D01*
X456247Y350747D01*
X456302Y350749D01*
X456357Y350755D01*
X456412Y350765D01*
X456466Y350778D01*
X456518Y350796D01*
X456569Y350817D01*
X456619Y350842D01*
X456667Y350870D01*
X456712Y350902D01*
X456755Y350937D01*
X456796Y350974D01*
X456833Y351015D01*
X456868Y351058D01*
X456900Y351103D01*
X456928Y351151D01*
X456953Y351201D01*
X456974Y351252D01*
X456992Y351304D01*
X457005Y351358D01*
X457015Y351413D01*
X457021Y351468D01*
X457023Y351523D01*
X457023Y353541D01*
X497117Y355981D02*
X497117Y359283D01*
X498035Y359283D01*
X498094Y359281D01*
X498152Y359275D01*
X498210Y359266D01*
X498268Y359253D01*
X498324Y359236D01*
X498379Y359216D01*
X498433Y359192D01*
X498485Y359165D01*
X498535Y359135D01*
X498583Y359101D01*
X498629Y359064D01*
X498673Y359025D01*
X498714Y358982D01*
X498752Y358938D01*
X498787Y358891D01*
X498819Y358841D01*
X498848Y358790D01*
X498874Y358737D01*
X498896Y358683D01*
X498914Y358627D01*
X498929Y358570D01*
X498940Y358512D01*
X498948Y358454D01*
X498952Y358395D01*
X498952Y358337D01*
X498948Y358278D01*
X498940Y358220D01*
X498929Y358162D01*
X498914Y358105D01*
X498896Y358049D01*
X498874Y357995D01*
X498848Y357942D01*
X498819Y357891D01*
X498787Y357841D01*
X498752Y357794D01*
X498714Y357750D01*
X498673Y357707D01*
X498629Y357668D01*
X498583Y357631D01*
X498535Y357597D01*
X498485Y357567D01*
X498433Y357540D01*
X498379Y357516D01*
X498324Y357496D01*
X498268Y357479D01*
X498210Y357466D01*
X498152Y357457D01*
X498094Y357451D01*
X498035Y357449D01*
X497117Y357449D01*
X498218Y357449D02*
X498952Y355981D01*
X502133Y358458D02*
X502131Y358514D01*
X502125Y358570D01*
X502116Y358626D01*
X502102Y358681D01*
X502085Y358735D01*
X502065Y358787D01*
X502040Y358838D01*
X502013Y358887D01*
X501982Y358934D01*
X501948Y358979D01*
X501911Y359022D01*
X501871Y359062D01*
X501828Y359099D01*
X501783Y359133D01*
X501736Y359164D01*
X501687Y359191D01*
X501636Y359216D01*
X501584Y359236D01*
X501530Y359253D01*
X501475Y359267D01*
X501419Y359276D01*
X501363Y359282D01*
X501307Y359284D01*
X501307Y359283D02*
X501243Y359281D01*
X501180Y359275D01*
X501117Y359266D01*
X501055Y359253D01*
X500994Y359236D01*
X500934Y359215D01*
X500875Y359191D01*
X500818Y359164D01*
X500762Y359133D01*
X500709Y359098D01*
X500658Y359061D01*
X500608Y359021D01*
X500562Y358977D01*
X500518Y358931D01*
X500477Y358883D01*
X500439Y358832D01*
X500404Y358779D01*
X500372Y358724D01*
X500344Y358667D01*
X500319Y358609D01*
X500298Y358549D01*
X501858Y357816D02*
X501896Y357855D01*
X501933Y357897D01*
X501966Y357941D01*
X501997Y357986D01*
X502025Y358034D01*
X502050Y358083D01*
X502072Y358134D01*
X502090Y358186D01*
X502106Y358239D01*
X502118Y358293D01*
X502126Y358348D01*
X502131Y358403D01*
X502133Y358458D01*
X501857Y357815D02*
X500298Y355981D01*
X502133Y355981D01*
X503499Y356715D02*
X504232Y359283D01*
X503499Y356715D02*
X505333Y356715D01*
X504783Y357449D02*
X504783Y355981D01*
X474522Y347095D02*
X473902Y347095D01*
X473853Y347097D01*
X473805Y347103D01*
X473757Y347112D01*
X473710Y347125D01*
X473664Y347142D01*
X473620Y347163D01*
X473578Y347187D01*
X473537Y347214D01*
X473499Y347244D01*
X473463Y347277D01*
X473430Y347313D01*
X473400Y347351D01*
X473373Y347392D01*
X473349Y347434D01*
X473328Y347478D01*
X473311Y347524D01*
X473298Y347571D01*
X473289Y347619D01*
X473283Y347667D01*
X473281Y347716D01*
X473281Y349268D01*
X473283Y349317D01*
X473289Y349365D01*
X473298Y349413D01*
X473311Y349460D01*
X473328Y349506D01*
X473349Y349550D01*
X473373Y349592D01*
X473400Y349633D01*
X473430Y349671D01*
X473463Y349707D01*
X473499Y349740D01*
X473537Y349770D01*
X473578Y349797D01*
X473620Y349821D01*
X473664Y349842D01*
X473710Y349859D01*
X473757Y349872D01*
X473805Y349881D01*
X473853Y349887D01*
X473902Y349889D01*
X474522Y349889D01*
X475575Y349268D02*
X476351Y349889D01*
X476351Y347095D01*
X475575Y347095D02*
X477127Y347095D01*
X478318Y349268D02*
X479094Y349889D01*
X479094Y347095D01*
X478318Y347095D02*
X479870Y347095D01*
X427863Y416151D02*
X427863Y416885D01*
X427863Y416151D02*
X427861Y416099D01*
X427856Y416047D01*
X427846Y415995D01*
X427833Y415944D01*
X427817Y415894D01*
X427797Y415846D01*
X427773Y415799D01*
X427746Y415754D01*
X427717Y415711D01*
X427684Y415670D01*
X427648Y415632D01*
X427610Y415596D01*
X427569Y415563D01*
X427526Y415534D01*
X427481Y415507D01*
X427434Y415483D01*
X427386Y415463D01*
X427336Y415447D01*
X427285Y415434D01*
X427233Y415424D01*
X427181Y415419D01*
X427129Y415417D01*
X425295Y415417D01*
X425243Y415419D01*
X425191Y415424D01*
X425139Y415434D01*
X425088Y415447D01*
X425039Y415463D01*
X424990Y415483D01*
X424943Y415507D01*
X424898Y415534D01*
X424855Y415563D01*
X424814Y415596D01*
X424776Y415632D01*
X424740Y415670D01*
X424707Y415711D01*
X424678Y415754D01*
X424651Y415799D01*
X424627Y415846D01*
X424607Y415894D01*
X424591Y415944D01*
X424578Y415995D01*
X424568Y416046D01*
X424563Y416099D01*
X424561Y416151D01*
X424561Y416885D01*
X425295Y418093D02*
X424561Y419010D01*
X427863Y419010D01*
X427863Y418093D02*
X427863Y419927D01*
X425387Y423128D02*
X425331Y423126D01*
X425275Y423120D01*
X425219Y423111D01*
X425164Y423097D01*
X425110Y423080D01*
X425058Y423060D01*
X425007Y423035D01*
X424958Y423008D01*
X424911Y422977D01*
X424866Y422943D01*
X424823Y422906D01*
X424783Y422866D01*
X424746Y422823D01*
X424712Y422778D01*
X424681Y422731D01*
X424654Y422682D01*
X424629Y422631D01*
X424609Y422579D01*
X424592Y422525D01*
X424578Y422470D01*
X424569Y422414D01*
X424563Y422358D01*
X424561Y422302D01*
X424563Y422238D01*
X424569Y422175D01*
X424578Y422112D01*
X424591Y422050D01*
X424608Y421989D01*
X424629Y421929D01*
X424653Y421870D01*
X424680Y421813D01*
X424711Y421757D01*
X424746Y421704D01*
X424783Y421653D01*
X424823Y421603D01*
X424867Y421557D01*
X424913Y421513D01*
X424961Y421472D01*
X425012Y421434D01*
X425065Y421399D01*
X425120Y421367D01*
X425177Y421339D01*
X425235Y421314D01*
X425295Y421293D01*
X426029Y422853D02*
X425990Y422891D01*
X425948Y422928D01*
X425904Y422961D01*
X425859Y422992D01*
X425811Y423020D01*
X425762Y423045D01*
X425711Y423067D01*
X425659Y423085D01*
X425606Y423101D01*
X425552Y423113D01*
X425497Y423121D01*
X425442Y423126D01*
X425387Y423128D01*
X426029Y422852D02*
X427863Y421293D01*
X427863Y423128D01*
X503809Y416440D02*
X503809Y415706D01*
X503807Y415654D01*
X503802Y415602D01*
X503792Y415550D01*
X503779Y415499D01*
X503763Y415449D01*
X503743Y415401D01*
X503719Y415354D01*
X503692Y415309D01*
X503663Y415266D01*
X503630Y415225D01*
X503594Y415187D01*
X503556Y415151D01*
X503515Y415118D01*
X503472Y415089D01*
X503427Y415062D01*
X503380Y415038D01*
X503332Y415018D01*
X503282Y415002D01*
X503231Y414989D01*
X503179Y414979D01*
X503127Y414974D01*
X503075Y414972D01*
X501241Y414972D01*
X501189Y414974D01*
X501137Y414979D01*
X501085Y414989D01*
X501034Y415002D01*
X500985Y415018D01*
X500936Y415038D01*
X500889Y415062D01*
X500844Y415089D01*
X500801Y415118D01*
X500760Y415151D01*
X500722Y415187D01*
X500686Y415225D01*
X500653Y415266D01*
X500624Y415309D01*
X500597Y415354D01*
X500573Y415401D01*
X500553Y415449D01*
X500537Y415499D01*
X500524Y415550D01*
X500514Y415601D01*
X500509Y415654D01*
X500507Y415706D01*
X500507Y416440D01*
X501241Y417648D02*
X500507Y418565D01*
X503809Y418565D01*
X503809Y417648D02*
X503809Y419483D01*
X501975Y420849D02*
X501975Y421949D01*
X501974Y421949D02*
X501976Y422001D01*
X501981Y422053D01*
X501991Y422105D01*
X502004Y422156D01*
X502020Y422206D01*
X502040Y422254D01*
X502064Y422301D01*
X502091Y422346D01*
X502120Y422389D01*
X502153Y422430D01*
X502189Y422468D01*
X502227Y422504D01*
X502268Y422537D01*
X502311Y422566D01*
X502356Y422593D01*
X502403Y422617D01*
X502452Y422637D01*
X502501Y422653D01*
X502552Y422666D01*
X502604Y422676D01*
X502656Y422681D01*
X502708Y422683D01*
X502892Y422683D01*
X502951Y422681D01*
X503009Y422675D01*
X503067Y422666D01*
X503125Y422653D01*
X503181Y422636D01*
X503236Y422616D01*
X503290Y422592D01*
X503342Y422565D01*
X503392Y422535D01*
X503440Y422501D01*
X503486Y422464D01*
X503530Y422425D01*
X503571Y422382D01*
X503609Y422338D01*
X503644Y422291D01*
X503676Y422241D01*
X503705Y422190D01*
X503731Y422137D01*
X503753Y422083D01*
X503771Y422027D01*
X503786Y421970D01*
X503797Y421912D01*
X503805Y421854D01*
X503809Y421795D01*
X503809Y421737D01*
X503805Y421678D01*
X503797Y421620D01*
X503786Y421562D01*
X503771Y421505D01*
X503753Y421449D01*
X503731Y421395D01*
X503705Y421342D01*
X503676Y421291D01*
X503644Y421241D01*
X503609Y421194D01*
X503571Y421150D01*
X503530Y421107D01*
X503486Y421068D01*
X503440Y421031D01*
X503392Y420997D01*
X503342Y420967D01*
X503290Y420940D01*
X503236Y420916D01*
X503181Y420896D01*
X503125Y420879D01*
X503067Y420866D01*
X503009Y420857D01*
X502951Y420851D01*
X502892Y420849D01*
X501975Y420849D01*
X501975Y420848D02*
X501901Y420850D01*
X501826Y420856D01*
X501753Y420865D01*
X501679Y420878D01*
X501607Y420895D01*
X501536Y420915D01*
X501465Y420939D01*
X501396Y420967D01*
X501329Y420998D01*
X501263Y421032D01*
X501198Y421070D01*
X501136Y421111D01*
X501076Y421155D01*
X501019Y421202D01*
X500964Y421252D01*
X500911Y421305D01*
X500861Y421360D01*
X500814Y421417D01*
X500770Y421477D01*
X500729Y421539D01*
X500691Y421604D01*
X500657Y421669D01*
X500626Y421737D01*
X500598Y421806D01*
X500574Y421877D01*
X500554Y421948D01*
X500537Y422020D01*
X500524Y422094D01*
X500515Y422167D01*
X500509Y422242D01*
X500507Y422316D01*
D15*
X544900Y223650D02*
X577900Y223650D01*
X577900Y271650D02*
X544900Y271650D01*
D12*
X513924Y266700D02*
X513926Y266784D01*
X513932Y266868D01*
X513942Y266952D01*
X513955Y267035D01*
X513973Y267117D01*
X513995Y267199D01*
X514020Y267279D01*
X514049Y267358D01*
X514082Y267436D01*
X514118Y267512D01*
X514158Y267586D01*
X514201Y267658D01*
X514247Y267728D01*
X514297Y267796D01*
X514350Y267862D01*
X514406Y267925D01*
X514465Y267985D01*
X514527Y268042D01*
X514591Y268097D01*
X514658Y268148D01*
X514727Y268196D01*
X514798Y268241D01*
X514871Y268283D01*
X514946Y268321D01*
X515023Y268355D01*
X515101Y268386D01*
X515181Y268413D01*
X515262Y268437D01*
X515344Y268456D01*
X515427Y268472D01*
X515510Y268484D01*
X515594Y268492D01*
X515678Y268496D01*
X515762Y268496D01*
X515846Y268492D01*
X515930Y268484D01*
X516013Y268472D01*
X516096Y268456D01*
X516178Y268437D01*
X516259Y268413D01*
X516339Y268386D01*
X516417Y268355D01*
X516494Y268321D01*
X516569Y268283D01*
X516642Y268241D01*
X516713Y268196D01*
X516782Y268148D01*
X516849Y268097D01*
X516913Y268042D01*
X516975Y267985D01*
X517034Y267925D01*
X517090Y267862D01*
X517143Y267796D01*
X517193Y267728D01*
X517239Y267658D01*
X517282Y267586D01*
X517322Y267512D01*
X517358Y267436D01*
X517391Y267358D01*
X517420Y267279D01*
X517445Y267199D01*
X517467Y267117D01*
X517485Y267035D01*
X517498Y266952D01*
X517508Y266868D01*
X517514Y266784D01*
X517516Y266700D01*
X517514Y266616D01*
X517508Y266532D01*
X517498Y266448D01*
X517485Y266365D01*
X517467Y266283D01*
X517445Y266201D01*
X517420Y266121D01*
X517391Y266042D01*
X517358Y265964D01*
X517322Y265888D01*
X517282Y265814D01*
X517239Y265742D01*
X517193Y265672D01*
X517143Y265604D01*
X517090Y265538D01*
X517034Y265475D01*
X516975Y265415D01*
X516913Y265358D01*
X516849Y265303D01*
X516782Y265252D01*
X516713Y265204D01*
X516642Y265159D01*
X516569Y265117D01*
X516494Y265079D01*
X516417Y265045D01*
X516339Y265014D01*
X516259Y264987D01*
X516178Y264963D01*
X516096Y264944D01*
X516013Y264928D01*
X515930Y264916D01*
X515846Y264908D01*
X515762Y264904D01*
X515678Y264904D01*
X515594Y264908D01*
X515510Y264916D01*
X515427Y264928D01*
X515344Y264944D01*
X515262Y264963D01*
X515181Y264987D01*
X515101Y265014D01*
X515023Y265045D01*
X514946Y265079D01*
X514871Y265117D01*
X514798Y265159D01*
X514727Y265204D01*
X514658Y265252D01*
X514591Y265303D01*
X514527Y265358D01*
X514465Y265415D01*
X514406Y265475D01*
X514350Y265538D01*
X514297Y265604D01*
X514247Y265672D01*
X514201Y265742D01*
X514158Y265814D01*
X514118Y265888D01*
X514082Y265964D01*
X514049Y266042D01*
X514020Y266121D01*
X513995Y266201D01*
X513973Y266283D01*
X513955Y266365D01*
X513942Y266448D01*
X513932Y266532D01*
X513926Y266616D01*
X513924Y266700D01*
D13*
X552677Y220091D02*
X552677Y217297D01*
X553919Y217297D01*
X555077Y217297D02*
X555077Y220091D01*
X556008Y218539D01*
X556939Y220091D01*
X556939Y217297D01*
X558249Y217297D02*
X559025Y217297D01*
X559080Y217299D01*
X559135Y217305D01*
X559190Y217315D01*
X559244Y217328D01*
X559296Y217346D01*
X559347Y217367D01*
X559397Y217392D01*
X559445Y217420D01*
X559490Y217452D01*
X559533Y217487D01*
X559574Y217524D01*
X559611Y217565D01*
X559646Y217608D01*
X559678Y217653D01*
X559706Y217701D01*
X559731Y217751D01*
X559752Y217802D01*
X559770Y217854D01*
X559783Y217908D01*
X559793Y217963D01*
X559799Y218018D01*
X559801Y218073D01*
X559799Y218128D01*
X559793Y218183D01*
X559783Y218238D01*
X559770Y218292D01*
X559752Y218344D01*
X559731Y218395D01*
X559706Y218445D01*
X559678Y218493D01*
X559646Y218538D01*
X559611Y218581D01*
X559574Y218622D01*
X559533Y218659D01*
X559490Y218694D01*
X559445Y218726D01*
X559397Y218754D01*
X559347Y218779D01*
X559296Y218800D01*
X559244Y218818D01*
X559190Y218831D01*
X559135Y218841D01*
X559080Y218847D01*
X559025Y218849D01*
X559181Y220091D02*
X558249Y220091D01*
X559181Y220091D02*
X559230Y220089D01*
X559278Y220083D01*
X559326Y220074D01*
X559373Y220061D01*
X559419Y220044D01*
X559463Y220023D01*
X559505Y219999D01*
X559546Y219972D01*
X559584Y219942D01*
X559620Y219909D01*
X559653Y219873D01*
X559683Y219835D01*
X559710Y219794D01*
X559734Y219752D01*
X559755Y219708D01*
X559772Y219662D01*
X559785Y219615D01*
X559794Y219567D01*
X559800Y219519D01*
X559802Y219470D01*
X559800Y219421D01*
X559794Y219373D01*
X559785Y219325D01*
X559772Y219278D01*
X559755Y219232D01*
X559734Y219188D01*
X559710Y219146D01*
X559683Y219105D01*
X559653Y219067D01*
X559620Y219031D01*
X559584Y218998D01*
X559546Y218968D01*
X559505Y218941D01*
X559463Y218917D01*
X559419Y218896D01*
X559373Y218879D01*
X559326Y218866D01*
X559278Y218857D01*
X559230Y218851D01*
X559181Y218849D01*
X558560Y218849D01*
X560993Y217297D02*
X561924Y217297D01*
X561973Y217299D01*
X562021Y217305D01*
X562069Y217314D01*
X562116Y217327D01*
X562162Y217344D01*
X562206Y217365D01*
X562248Y217389D01*
X562289Y217416D01*
X562327Y217446D01*
X562363Y217479D01*
X562396Y217515D01*
X562426Y217553D01*
X562453Y217594D01*
X562477Y217636D01*
X562498Y217680D01*
X562515Y217726D01*
X562528Y217773D01*
X562537Y217821D01*
X562543Y217869D01*
X562545Y217918D01*
X562545Y218228D01*
X562543Y218277D01*
X562537Y218325D01*
X562528Y218373D01*
X562515Y218420D01*
X562498Y218466D01*
X562477Y218510D01*
X562453Y218552D01*
X562426Y218593D01*
X562396Y218631D01*
X562363Y218667D01*
X562327Y218700D01*
X562289Y218730D01*
X562248Y218757D01*
X562206Y218781D01*
X562162Y218802D01*
X562116Y218819D01*
X562069Y218832D01*
X562021Y218841D01*
X561973Y218847D01*
X561924Y218849D01*
X560993Y218849D01*
X560993Y220091D01*
X562545Y220091D01*
X563736Y218073D02*
X563738Y218128D01*
X563744Y218183D01*
X563754Y218238D01*
X563767Y218292D01*
X563785Y218344D01*
X563806Y218395D01*
X563831Y218445D01*
X563859Y218493D01*
X563891Y218538D01*
X563926Y218581D01*
X563963Y218622D01*
X564004Y218659D01*
X564047Y218694D01*
X564092Y218726D01*
X564140Y218754D01*
X564190Y218779D01*
X564241Y218800D01*
X564293Y218818D01*
X564347Y218831D01*
X564402Y218841D01*
X564457Y218847D01*
X564512Y218849D01*
X564567Y218847D01*
X564622Y218841D01*
X564677Y218831D01*
X564731Y218818D01*
X564783Y218800D01*
X564834Y218779D01*
X564884Y218754D01*
X564932Y218726D01*
X564977Y218694D01*
X565020Y218659D01*
X565061Y218622D01*
X565098Y218581D01*
X565133Y218538D01*
X565165Y218493D01*
X565193Y218445D01*
X565218Y218395D01*
X565239Y218344D01*
X565257Y218292D01*
X565270Y218238D01*
X565280Y218183D01*
X565286Y218128D01*
X565288Y218073D01*
X565286Y218018D01*
X565280Y217963D01*
X565270Y217908D01*
X565257Y217854D01*
X565239Y217802D01*
X565218Y217751D01*
X565193Y217701D01*
X565165Y217653D01*
X565133Y217608D01*
X565098Y217565D01*
X565061Y217524D01*
X565020Y217487D01*
X564977Y217452D01*
X564932Y217420D01*
X564884Y217392D01*
X564834Y217367D01*
X564783Y217346D01*
X564731Y217328D01*
X564677Y217315D01*
X564622Y217305D01*
X564567Y217299D01*
X564512Y217297D01*
X564457Y217299D01*
X564402Y217305D01*
X564347Y217315D01*
X564293Y217328D01*
X564241Y217346D01*
X564190Y217367D01*
X564140Y217392D01*
X564092Y217420D01*
X564047Y217452D01*
X564004Y217487D01*
X563963Y217524D01*
X563926Y217565D01*
X563891Y217608D01*
X563859Y217653D01*
X563831Y217701D01*
X563806Y217751D01*
X563785Y217802D01*
X563767Y217854D01*
X563754Y217908D01*
X563744Y217963D01*
X563738Y218018D01*
X563736Y218073D01*
X563891Y219470D02*
X563893Y219519D01*
X563899Y219567D01*
X563908Y219615D01*
X563921Y219662D01*
X563938Y219708D01*
X563959Y219752D01*
X563983Y219794D01*
X564010Y219835D01*
X564040Y219873D01*
X564073Y219909D01*
X564109Y219942D01*
X564147Y219972D01*
X564188Y219999D01*
X564230Y220023D01*
X564274Y220044D01*
X564320Y220061D01*
X564367Y220074D01*
X564415Y220083D01*
X564463Y220089D01*
X564512Y220091D01*
X564561Y220089D01*
X564609Y220083D01*
X564657Y220074D01*
X564704Y220061D01*
X564750Y220044D01*
X564794Y220023D01*
X564836Y219999D01*
X564877Y219972D01*
X564915Y219942D01*
X564951Y219909D01*
X564984Y219873D01*
X565014Y219835D01*
X565041Y219794D01*
X565065Y219752D01*
X565086Y219708D01*
X565103Y219662D01*
X565116Y219615D01*
X565125Y219567D01*
X565131Y219519D01*
X565133Y219470D01*
X565131Y219421D01*
X565125Y219373D01*
X565116Y219325D01*
X565103Y219278D01*
X565086Y219232D01*
X565065Y219188D01*
X565041Y219146D01*
X565014Y219105D01*
X564984Y219067D01*
X564951Y219031D01*
X564915Y218998D01*
X564877Y218968D01*
X564836Y218941D01*
X564794Y218917D01*
X564750Y218896D01*
X564704Y218879D01*
X564657Y218866D01*
X564609Y218857D01*
X564561Y218851D01*
X564512Y218849D01*
X564463Y218851D01*
X564415Y218857D01*
X564367Y218866D01*
X564320Y218879D01*
X564274Y218896D01*
X564230Y218917D01*
X564188Y218941D01*
X564147Y218968D01*
X564109Y218998D01*
X564073Y219031D01*
X564040Y219067D01*
X564010Y219105D01*
X563983Y219146D01*
X563959Y219188D01*
X563938Y219232D01*
X563921Y219278D01*
X563908Y219325D01*
X563899Y219373D01*
X563893Y219421D01*
X563891Y219470D01*
X566570Y220091D02*
X566570Y217297D01*
X566570Y220091D02*
X567346Y220091D01*
X567401Y220089D01*
X567456Y220083D01*
X567511Y220073D01*
X567565Y220060D01*
X567617Y220042D01*
X567668Y220021D01*
X567718Y219996D01*
X567766Y219968D01*
X567811Y219936D01*
X567854Y219901D01*
X567895Y219864D01*
X567932Y219823D01*
X567967Y219780D01*
X567999Y219735D01*
X568027Y219687D01*
X568052Y219637D01*
X568073Y219586D01*
X568091Y219534D01*
X568104Y219480D01*
X568114Y219425D01*
X568120Y219370D01*
X568122Y219315D01*
X568123Y219315D02*
X568123Y218073D01*
X568121Y218020D01*
X568116Y217967D01*
X568107Y217915D01*
X568094Y217864D01*
X568078Y217813D01*
X568059Y217764D01*
X568036Y217716D01*
X568010Y217670D01*
X567981Y217625D01*
X567949Y217583D01*
X567914Y217543D01*
X567877Y217506D01*
X567837Y217471D01*
X567794Y217439D01*
X567750Y217410D01*
X567704Y217384D01*
X567656Y217361D01*
X567607Y217342D01*
X567556Y217326D01*
X567505Y217313D01*
X567453Y217304D01*
X567400Y217299D01*
X567347Y217297D01*
X567346Y217297D02*
X566570Y217297D01*
X571627Y198667D02*
X574929Y198667D01*
X571627Y198667D02*
X571627Y199585D01*
X571629Y199644D01*
X571635Y199702D01*
X571644Y199760D01*
X571657Y199818D01*
X571674Y199874D01*
X571694Y199929D01*
X571718Y199983D01*
X571745Y200035D01*
X571775Y200085D01*
X571809Y200133D01*
X571846Y200179D01*
X571885Y200223D01*
X571928Y200264D01*
X571972Y200302D01*
X572019Y200337D01*
X572069Y200369D01*
X572120Y200398D01*
X572173Y200424D01*
X572227Y200446D01*
X572283Y200464D01*
X572340Y200479D01*
X572398Y200490D01*
X572456Y200498D01*
X572515Y200502D01*
X572573Y200502D01*
X572632Y200498D01*
X572690Y200490D01*
X572748Y200479D01*
X572805Y200464D01*
X572861Y200446D01*
X572915Y200424D01*
X572968Y200398D01*
X573019Y200369D01*
X573069Y200337D01*
X573116Y200302D01*
X573160Y200264D01*
X573203Y200223D01*
X573242Y200179D01*
X573279Y200133D01*
X573313Y200085D01*
X573343Y200035D01*
X573370Y199983D01*
X573394Y199929D01*
X573414Y199874D01*
X573431Y199818D01*
X573444Y199760D01*
X573453Y199702D01*
X573459Y199644D01*
X573461Y199585D01*
X573461Y198667D01*
X573461Y199768D02*
X574929Y200502D01*
X572453Y203683D02*
X572397Y203681D01*
X572341Y203675D01*
X572285Y203666D01*
X572230Y203652D01*
X572176Y203635D01*
X572124Y203615D01*
X572073Y203590D01*
X572024Y203563D01*
X571977Y203532D01*
X571932Y203498D01*
X571889Y203461D01*
X571849Y203421D01*
X571812Y203378D01*
X571778Y203333D01*
X571747Y203286D01*
X571720Y203237D01*
X571695Y203186D01*
X571675Y203134D01*
X571658Y203080D01*
X571644Y203025D01*
X571635Y202969D01*
X571629Y202913D01*
X571627Y202857D01*
X571629Y202793D01*
X571635Y202730D01*
X571644Y202667D01*
X571657Y202605D01*
X571674Y202544D01*
X571695Y202484D01*
X571719Y202425D01*
X571746Y202368D01*
X571777Y202312D01*
X571812Y202259D01*
X571849Y202208D01*
X571889Y202158D01*
X571933Y202112D01*
X571979Y202068D01*
X572027Y202027D01*
X572078Y201989D01*
X572131Y201954D01*
X572186Y201922D01*
X572243Y201894D01*
X572301Y201869D01*
X572361Y201848D01*
X573095Y203408D02*
X573056Y203446D01*
X573014Y203483D01*
X572970Y203516D01*
X572925Y203547D01*
X572877Y203575D01*
X572828Y203600D01*
X572777Y203622D01*
X572725Y203640D01*
X572672Y203656D01*
X572618Y203668D01*
X572563Y203676D01*
X572508Y203681D01*
X572453Y203683D01*
X573095Y203407D02*
X574929Y201848D01*
X574929Y203683D01*
X573095Y205049D02*
X573095Y206149D01*
X573094Y206149D02*
X573096Y206201D01*
X573101Y206253D01*
X573111Y206305D01*
X573124Y206356D01*
X573140Y206406D01*
X573160Y206454D01*
X573184Y206501D01*
X573211Y206546D01*
X573240Y206589D01*
X573273Y206630D01*
X573309Y206668D01*
X573347Y206704D01*
X573388Y206737D01*
X573431Y206766D01*
X573476Y206793D01*
X573523Y206817D01*
X573572Y206837D01*
X573621Y206853D01*
X573672Y206866D01*
X573724Y206876D01*
X573776Y206881D01*
X573828Y206883D01*
X574012Y206883D01*
X574071Y206881D01*
X574129Y206875D01*
X574187Y206866D01*
X574245Y206853D01*
X574301Y206836D01*
X574356Y206816D01*
X574410Y206792D01*
X574462Y206765D01*
X574512Y206735D01*
X574560Y206701D01*
X574606Y206664D01*
X574650Y206625D01*
X574691Y206582D01*
X574729Y206538D01*
X574764Y206491D01*
X574796Y206441D01*
X574825Y206390D01*
X574851Y206337D01*
X574873Y206283D01*
X574891Y206227D01*
X574906Y206170D01*
X574917Y206112D01*
X574925Y206054D01*
X574929Y205995D01*
X574929Y205937D01*
X574925Y205878D01*
X574917Y205820D01*
X574906Y205762D01*
X574891Y205705D01*
X574873Y205649D01*
X574851Y205595D01*
X574825Y205542D01*
X574796Y205491D01*
X574764Y205441D01*
X574729Y205394D01*
X574691Y205350D01*
X574650Y205307D01*
X574606Y205268D01*
X574560Y205231D01*
X574512Y205197D01*
X574462Y205167D01*
X574410Y205140D01*
X574356Y205116D01*
X574301Y205096D01*
X574245Y205079D01*
X574187Y205066D01*
X574129Y205057D01*
X574071Y205051D01*
X574012Y205049D01*
X573095Y205049D01*
X573095Y205048D02*
X573021Y205050D01*
X572946Y205056D01*
X572873Y205065D01*
X572799Y205078D01*
X572727Y205095D01*
X572656Y205115D01*
X572585Y205139D01*
X572516Y205167D01*
X572449Y205198D01*
X572383Y205232D01*
X572318Y205270D01*
X572256Y205311D01*
X572196Y205355D01*
X572139Y205402D01*
X572084Y205452D01*
X572031Y205505D01*
X571981Y205560D01*
X571934Y205617D01*
X571890Y205677D01*
X571849Y205739D01*
X571811Y205804D01*
X571777Y205869D01*
X571746Y205937D01*
X571718Y206006D01*
X571694Y206077D01*
X571674Y206148D01*
X571657Y206220D01*
X571644Y206294D01*
X571635Y206367D01*
X571629Y206442D01*
X571627Y206516D01*
X482727Y217297D02*
X482727Y220599D01*
X483644Y220599D01*
X483703Y220597D01*
X483761Y220591D01*
X483819Y220582D01*
X483877Y220569D01*
X483933Y220552D01*
X483988Y220532D01*
X484042Y220508D01*
X484094Y220481D01*
X484144Y220451D01*
X484192Y220417D01*
X484238Y220380D01*
X484282Y220341D01*
X484323Y220298D01*
X484361Y220254D01*
X484396Y220207D01*
X484428Y220157D01*
X484457Y220106D01*
X484483Y220053D01*
X484505Y219999D01*
X484523Y219943D01*
X484538Y219886D01*
X484549Y219828D01*
X484557Y219770D01*
X484561Y219711D01*
X484561Y219653D01*
X484557Y219594D01*
X484549Y219536D01*
X484538Y219478D01*
X484523Y219421D01*
X484505Y219365D01*
X484483Y219311D01*
X484457Y219258D01*
X484428Y219207D01*
X484396Y219157D01*
X484361Y219110D01*
X484323Y219066D01*
X484282Y219023D01*
X484238Y218984D01*
X484192Y218947D01*
X484144Y218913D01*
X484094Y218883D01*
X484042Y218856D01*
X483988Y218832D01*
X483933Y218812D01*
X483877Y218795D01*
X483819Y218782D01*
X483761Y218773D01*
X483703Y218767D01*
X483644Y218765D01*
X482727Y218765D01*
X483828Y218765D02*
X484561Y217297D01*
X487743Y219774D02*
X487741Y219830D01*
X487735Y219886D01*
X487726Y219942D01*
X487712Y219997D01*
X487695Y220051D01*
X487675Y220103D01*
X487650Y220154D01*
X487623Y220203D01*
X487592Y220250D01*
X487558Y220295D01*
X487521Y220338D01*
X487481Y220378D01*
X487438Y220415D01*
X487393Y220449D01*
X487346Y220480D01*
X487297Y220507D01*
X487246Y220532D01*
X487194Y220552D01*
X487140Y220569D01*
X487085Y220583D01*
X487029Y220592D01*
X486973Y220598D01*
X486917Y220600D01*
X486917Y220599D02*
X486853Y220597D01*
X486790Y220591D01*
X486727Y220582D01*
X486665Y220569D01*
X486604Y220552D01*
X486544Y220531D01*
X486485Y220507D01*
X486428Y220480D01*
X486372Y220449D01*
X486319Y220414D01*
X486268Y220377D01*
X486218Y220337D01*
X486172Y220293D01*
X486128Y220247D01*
X486087Y220199D01*
X486049Y220148D01*
X486014Y220095D01*
X485982Y220040D01*
X485954Y219983D01*
X485929Y219925D01*
X485908Y219865D01*
X487468Y219132D02*
X487506Y219171D01*
X487543Y219213D01*
X487576Y219257D01*
X487607Y219302D01*
X487635Y219350D01*
X487660Y219399D01*
X487682Y219450D01*
X487700Y219502D01*
X487716Y219555D01*
X487728Y219609D01*
X487736Y219664D01*
X487741Y219719D01*
X487743Y219774D01*
X487467Y219131D02*
X485908Y217297D01*
X487742Y217297D01*
X489108Y217297D02*
X490209Y217297D01*
X490261Y217299D01*
X490313Y217304D01*
X490365Y217314D01*
X490416Y217327D01*
X490466Y217343D01*
X490514Y217363D01*
X490561Y217387D01*
X490606Y217414D01*
X490649Y217443D01*
X490690Y217476D01*
X490728Y217512D01*
X490764Y217550D01*
X490797Y217591D01*
X490826Y217634D01*
X490853Y217679D01*
X490877Y217726D01*
X490897Y217774D01*
X490913Y217824D01*
X490926Y217875D01*
X490936Y217927D01*
X490941Y217979D01*
X490943Y218031D01*
X490943Y218398D01*
X490941Y218450D01*
X490936Y218502D01*
X490926Y218554D01*
X490913Y218605D01*
X490897Y218655D01*
X490877Y218703D01*
X490853Y218750D01*
X490826Y218795D01*
X490797Y218838D01*
X490764Y218879D01*
X490728Y218917D01*
X490690Y218953D01*
X490649Y218986D01*
X490606Y219015D01*
X490561Y219042D01*
X490514Y219066D01*
X490466Y219086D01*
X490416Y219102D01*
X490365Y219115D01*
X490313Y219125D01*
X490261Y219130D01*
X490209Y219132D01*
X490209Y219131D02*
X489108Y219131D01*
X489108Y220599D01*
X490943Y220599D01*
X572289Y175387D02*
X575083Y175387D01*
X572289Y175387D02*
X572289Y176163D01*
X572291Y176218D01*
X572297Y176273D01*
X572307Y176328D01*
X572320Y176382D01*
X572338Y176434D01*
X572359Y176485D01*
X572384Y176535D01*
X572412Y176583D01*
X572444Y176628D01*
X572479Y176671D01*
X572516Y176712D01*
X572557Y176749D01*
X572600Y176784D01*
X572645Y176816D01*
X572693Y176844D01*
X572743Y176869D01*
X572794Y176890D01*
X572846Y176908D01*
X572900Y176921D01*
X572955Y176931D01*
X573010Y176937D01*
X573065Y176939D01*
X573120Y176937D01*
X573175Y176931D01*
X573230Y176921D01*
X573284Y176908D01*
X573336Y176890D01*
X573387Y176869D01*
X573437Y176844D01*
X573485Y176816D01*
X573530Y176784D01*
X573573Y176749D01*
X573614Y176712D01*
X573651Y176671D01*
X573686Y176628D01*
X573718Y176583D01*
X573746Y176535D01*
X573771Y176485D01*
X573792Y176434D01*
X573810Y176382D01*
X573823Y176328D01*
X573833Y176273D01*
X573839Y176218D01*
X573841Y176163D01*
X573841Y175387D01*
X573841Y176318D02*
X575083Y176939D01*
X572988Y179665D02*
X572938Y179663D01*
X572889Y179658D01*
X572839Y179649D01*
X572791Y179637D01*
X572744Y179621D01*
X572698Y179602D01*
X572653Y179579D01*
X572610Y179554D01*
X572569Y179526D01*
X572530Y179494D01*
X572494Y179460D01*
X572460Y179424D01*
X572428Y179385D01*
X572400Y179344D01*
X572375Y179301D01*
X572352Y179256D01*
X572333Y179210D01*
X572317Y179163D01*
X572305Y179115D01*
X572296Y179065D01*
X572291Y179016D01*
X572289Y178966D01*
X572291Y178910D01*
X572296Y178853D01*
X572305Y178798D01*
X572317Y178743D01*
X572333Y178689D01*
X572352Y178636D01*
X572375Y178584D01*
X572400Y178534D01*
X572429Y178485D01*
X572461Y178438D01*
X572495Y178394D01*
X572532Y178352D01*
X572572Y178312D01*
X572615Y178274D01*
X572659Y178240D01*
X572706Y178208D01*
X572755Y178180D01*
X572805Y178154D01*
X572857Y178132D01*
X572910Y178113D01*
X573531Y179431D02*
X573495Y179467D01*
X573457Y179500D01*
X573416Y179530D01*
X573374Y179557D01*
X573329Y179582D01*
X573283Y179603D01*
X573236Y179622D01*
X573188Y179637D01*
X573139Y179649D01*
X573089Y179657D01*
X573039Y179662D01*
X572988Y179664D01*
X573531Y179432D02*
X575083Y178112D01*
X575083Y179664D01*
X574307Y180855D02*
X574252Y180857D01*
X574197Y180863D01*
X574142Y180873D01*
X574088Y180886D01*
X574036Y180904D01*
X573985Y180925D01*
X573935Y180950D01*
X573887Y180978D01*
X573842Y181010D01*
X573799Y181045D01*
X573758Y181082D01*
X573721Y181123D01*
X573686Y181166D01*
X573654Y181211D01*
X573626Y181259D01*
X573601Y181309D01*
X573580Y181360D01*
X573562Y181412D01*
X573549Y181466D01*
X573539Y181521D01*
X573533Y181576D01*
X573531Y181631D01*
X573533Y181686D01*
X573539Y181741D01*
X573549Y181796D01*
X573562Y181850D01*
X573580Y181902D01*
X573601Y181953D01*
X573626Y182003D01*
X573654Y182051D01*
X573686Y182096D01*
X573721Y182139D01*
X573758Y182180D01*
X573799Y182217D01*
X573842Y182252D01*
X573887Y182284D01*
X573935Y182312D01*
X573985Y182337D01*
X574036Y182358D01*
X574088Y182376D01*
X574142Y182389D01*
X574197Y182399D01*
X574252Y182405D01*
X574307Y182407D01*
X574362Y182405D01*
X574417Y182399D01*
X574472Y182389D01*
X574526Y182376D01*
X574578Y182358D01*
X574629Y182337D01*
X574679Y182312D01*
X574727Y182284D01*
X574772Y182252D01*
X574815Y182217D01*
X574856Y182180D01*
X574893Y182139D01*
X574928Y182096D01*
X574960Y182051D01*
X574988Y182003D01*
X575013Y181953D01*
X575034Y181902D01*
X575052Y181850D01*
X575065Y181796D01*
X575075Y181741D01*
X575081Y181686D01*
X575083Y181631D01*
X575081Y181576D01*
X575075Y181521D01*
X575065Y181466D01*
X575052Y181412D01*
X575034Y181360D01*
X575013Y181309D01*
X574988Y181259D01*
X574960Y181211D01*
X574928Y181166D01*
X574893Y181123D01*
X574856Y181082D01*
X574815Y181045D01*
X574772Y181010D01*
X574727Y180978D01*
X574679Y180950D01*
X574629Y180925D01*
X574578Y180904D01*
X574526Y180886D01*
X574472Y180873D01*
X574417Y180863D01*
X574362Y180857D01*
X574307Y180855D01*
X572910Y181010D02*
X572861Y181012D01*
X572813Y181018D01*
X572765Y181027D01*
X572718Y181040D01*
X572672Y181057D01*
X572628Y181078D01*
X572586Y181102D01*
X572545Y181129D01*
X572507Y181159D01*
X572471Y181192D01*
X572438Y181228D01*
X572408Y181266D01*
X572381Y181307D01*
X572357Y181349D01*
X572336Y181393D01*
X572319Y181439D01*
X572306Y181486D01*
X572297Y181534D01*
X572291Y181582D01*
X572289Y181631D01*
X572291Y181680D01*
X572297Y181728D01*
X572306Y181776D01*
X572319Y181823D01*
X572336Y181869D01*
X572357Y181913D01*
X572381Y181955D01*
X572408Y181996D01*
X572438Y182034D01*
X572471Y182070D01*
X572507Y182103D01*
X572545Y182133D01*
X572586Y182160D01*
X572628Y182184D01*
X572672Y182205D01*
X572718Y182222D01*
X572765Y182235D01*
X572813Y182244D01*
X572861Y182250D01*
X572910Y182252D01*
X572959Y182250D01*
X573007Y182244D01*
X573055Y182235D01*
X573102Y182222D01*
X573148Y182205D01*
X573192Y182184D01*
X573234Y182160D01*
X573275Y182133D01*
X573313Y182103D01*
X573349Y182070D01*
X573382Y182034D01*
X573412Y181996D01*
X573439Y181955D01*
X573463Y181913D01*
X573484Y181869D01*
X573501Y181823D01*
X573514Y181776D01*
X573523Y181728D01*
X573529Y181680D01*
X573531Y181631D01*
X573529Y181582D01*
X573523Y181534D01*
X573514Y181486D01*
X573501Y181439D01*
X573484Y181393D01*
X573463Y181349D01*
X573439Y181307D01*
X573412Y181266D01*
X573382Y181228D01*
X573349Y181192D01*
X573313Y181159D01*
X573275Y181129D01*
X573234Y181102D01*
X573192Y181078D01*
X573148Y181057D01*
X573102Y181040D01*
X573055Y181027D01*
X573007Y181018D01*
X572959Y181012D01*
X572910Y181010D01*
X606262Y224409D02*
X606262Y227203D01*
X607039Y227203D01*
X607094Y227201D01*
X607149Y227195D01*
X607204Y227185D01*
X607258Y227172D01*
X607310Y227154D01*
X607361Y227133D01*
X607411Y227108D01*
X607459Y227080D01*
X607504Y227048D01*
X607547Y227013D01*
X607588Y226976D01*
X607625Y226935D01*
X607660Y226892D01*
X607692Y226847D01*
X607720Y226799D01*
X607745Y226749D01*
X607766Y226698D01*
X607784Y226646D01*
X607797Y226592D01*
X607807Y226537D01*
X607813Y226482D01*
X607815Y226427D01*
X607813Y226372D01*
X607807Y226317D01*
X607797Y226262D01*
X607784Y226208D01*
X607766Y226156D01*
X607745Y226105D01*
X607720Y226055D01*
X607692Y226007D01*
X607660Y225962D01*
X607625Y225919D01*
X607588Y225878D01*
X607547Y225841D01*
X607504Y225806D01*
X607459Y225774D01*
X607411Y225746D01*
X607361Y225721D01*
X607310Y225700D01*
X607258Y225682D01*
X607204Y225669D01*
X607149Y225659D01*
X607094Y225653D01*
X607039Y225651D01*
X606262Y225651D01*
X607194Y225651D02*
X607815Y224409D01*
X610540Y226505D02*
X610538Y226555D01*
X610533Y226604D01*
X610524Y226654D01*
X610512Y226702D01*
X610496Y226749D01*
X610477Y226795D01*
X610454Y226840D01*
X610429Y226883D01*
X610401Y226924D01*
X610369Y226963D01*
X610335Y226999D01*
X610299Y227033D01*
X610260Y227065D01*
X610219Y227093D01*
X610176Y227118D01*
X610131Y227141D01*
X610085Y227160D01*
X610038Y227176D01*
X609990Y227188D01*
X609940Y227197D01*
X609891Y227202D01*
X609841Y227204D01*
X609841Y227203D02*
X609785Y227201D01*
X609728Y227196D01*
X609673Y227187D01*
X609618Y227175D01*
X609564Y227159D01*
X609511Y227140D01*
X609459Y227118D01*
X609409Y227092D01*
X609360Y227063D01*
X609313Y227031D01*
X609269Y226997D01*
X609227Y226960D01*
X609187Y226920D01*
X609149Y226877D01*
X609115Y226833D01*
X609083Y226786D01*
X609055Y226738D01*
X609029Y226687D01*
X609007Y226635D01*
X608988Y226582D01*
X610307Y225962D02*
X610343Y225998D01*
X610376Y226036D01*
X610406Y226077D01*
X610433Y226120D01*
X610458Y226164D01*
X610479Y226210D01*
X610498Y226257D01*
X610513Y226305D01*
X610525Y226354D01*
X610533Y226404D01*
X610538Y226454D01*
X610540Y226505D01*
X610307Y225961D02*
X608988Y224409D01*
X610540Y224409D01*
X611731Y226893D02*
X611731Y227203D01*
X613283Y227203D01*
X612507Y224409D01*
D14*
X454914Y543306D02*
X434086Y543306D01*
X447548Y574294D02*
X454914Y574294D01*
X447548Y574294D02*
X441452Y574294D01*
X434086Y574294D01*
X441452Y574294D02*
X441454Y574185D01*
X441460Y574077D01*
X441469Y573968D01*
X441483Y573860D01*
X441500Y573753D01*
X441522Y573646D01*
X441547Y573540D01*
X441575Y573435D01*
X441608Y573331D01*
X441644Y573229D01*
X441684Y573128D01*
X441727Y573028D01*
X441774Y572930D01*
X441825Y572833D01*
X441879Y572739D01*
X441936Y572646D01*
X441996Y572556D01*
X442060Y572467D01*
X442127Y572381D01*
X442196Y572298D01*
X442269Y572217D01*
X442345Y572139D01*
X442423Y572063D01*
X442504Y571990D01*
X442587Y571921D01*
X442673Y571854D01*
X442762Y571790D01*
X442852Y571730D01*
X442945Y571673D01*
X443039Y571619D01*
X443136Y571568D01*
X443234Y571521D01*
X443334Y571478D01*
X443435Y571438D01*
X443537Y571402D01*
X443641Y571369D01*
X443746Y571341D01*
X443852Y571316D01*
X443959Y571294D01*
X444066Y571277D01*
X444174Y571263D01*
X444283Y571254D01*
X444391Y571248D01*
X444500Y571246D01*
X444609Y571248D01*
X444717Y571254D01*
X444826Y571263D01*
X444934Y571277D01*
X445041Y571294D01*
X445148Y571316D01*
X445254Y571341D01*
X445359Y571369D01*
X445463Y571402D01*
X445565Y571438D01*
X445666Y571478D01*
X445766Y571521D01*
X445864Y571568D01*
X445961Y571619D01*
X446055Y571673D01*
X446148Y571730D01*
X446238Y571790D01*
X446327Y571854D01*
X446413Y571921D01*
X446496Y571990D01*
X446577Y572063D01*
X446655Y572139D01*
X446731Y572217D01*
X446804Y572298D01*
X446873Y572381D01*
X446940Y572467D01*
X447004Y572556D01*
X447064Y572646D01*
X447121Y572739D01*
X447175Y572833D01*
X447226Y572930D01*
X447273Y573028D01*
X447316Y573128D01*
X447356Y573229D01*
X447392Y573331D01*
X447425Y573435D01*
X447453Y573540D01*
X447478Y573646D01*
X447500Y573753D01*
X447517Y573860D01*
X447531Y573968D01*
X447540Y574077D01*
X447546Y574185D01*
X447548Y574294D01*
D11*
X429225Y577794D02*
X429225Y581773D01*
X429225Y577794D02*
X431546Y574809D01*
X429225Y577794D02*
X426903Y574809D01*
X429225Y577794D02*
X432872Y579120D01*
X429225Y577794D02*
X425577Y579120D01*
D13*
X435991Y579501D02*
X435991Y576707D01*
X435991Y579501D02*
X436767Y579501D01*
X436822Y579499D01*
X436877Y579493D01*
X436932Y579483D01*
X436986Y579470D01*
X437038Y579452D01*
X437089Y579431D01*
X437139Y579406D01*
X437187Y579378D01*
X437232Y579346D01*
X437275Y579311D01*
X437316Y579274D01*
X437353Y579233D01*
X437388Y579190D01*
X437420Y579145D01*
X437448Y579097D01*
X437473Y579047D01*
X437494Y578996D01*
X437512Y578944D01*
X437525Y578890D01*
X437535Y578835D01*
X437541Y578780D01*
X437543Y578725D01*
X437543Y577483D01*
X437541Y577430D01*
X437536Y577377D01*
X437527Y577325D01*
X437514Y577274D01*
X437498Y577223D01*
X437479Y577174D01*
X437456Y577126D01*
X437430Y577080D01*
X437401Y577035D01*
X437369Y576993D01*
X437334Y576953D01*
X437297Y576916D01*
X437257Y576881D01*
X437214Y576849D01*
X437170Y576820D01*
X437124Y576794D01*
X437076Y576771D01*
X437027Y576752D01*
X436976Y576736D01*
X436925Y576723D01*
X436873Y576714D01*
X436820Y576709D01*
X436767Y576707D01*
X435991Y576707D01*
X438935Y576707D02*
X438935Y579501D01*
X439711Y579501D01*
X439766Y579499D01*
X439821Y579493D01*
X439876Y579483D01*
X439930Y579470D01*
X439982Y579452D01*
X440033Y579431D01*
X440083Y579406D01*
X440131Y579378D01*
X440176Y579346D01*
X440219Y579311D01*
X440260Y579274D01*
X440297Y579233D01*
X440332Y579190D01*
X440364Y579145D01*
X440392Y579097D01*
X440417Y579047D01*
X440438Y578996D01*
X440456Y578944D01*
X440469Y578890D01*
X440479Y578835D01*
X440485Y578780D01*
X440487Y578725D01*
X440485Y578670D01*
X440479Y578615D01*
X440469Y578560D01*
X440456Y578506D01*
X440438Y578454D01*
X440417Y578403D01*
X440392Y578353D01*
X440364Y578305D01*
X440332Y578260D01*
X440297Y578217D01*
X440260Y578176D01*
X440219Y578139D01*
X440176Y578104D01*
X440131Y578072D01*
X440083Y578044D01*
X440033Y578019D01*
X439982Y577998D01*
X439930Y577980D01*
X439876Y577967D01*
X439821Y577957D01*
X439766Y577951D01*
X439711Y577949D01*
X438935Y577949D01*
X439866Y577949D02*
X440487Y576707D01*
X442436Y576707D02*
X441505Y579501D01*
X443368Y579501D02*
X442436Y576707D01*
X444404Y577483D02*
X444406Y577538D01*
X444412Y577593D01*
X444422Y577648D01*
X444435Y577702D01*
X444453Y577754D01*
X444474Y577805D01*
X444499Y577855D01*
X444527Y577903D01*
X444559Y577948D01*
X444594Y577991D01*
X444631Y578032D01*
X444672Y578069D01*
X444715Y578104D01*
X444760Y578136D01*
X444808Y578164D01*
X444858Y578189D01*
X444909Y578210D01*
X444961Y578228D01*
X445015Y578241D01*
X445070Y578251D01*
X445125Y578257D01*
X445180Y578259D01*
X445235Y578257D01*
X445290Y578251D01*
X445345Y578241D01*
X445399Y578228D01*
X445451Y578210D01*
X445502Y578189D01*
X445552Y578164D01*
X445600Y578136D01*
X445645Y578104D01*
X445688Y578069D01*
X445729Y578032D01*
X445766Y577991D01*
X445801Y577948D01*
X445833Y577903D01*
X445861Y577855D01*
X445886Y577805D01*
X445907Y577754D01*
X445925Y577702D01*
X445938Y577648D01*
X445948Y577593D01*
X445954Y577538D01*
X445956Y577483D01*
X445954Y577428D01*
X445948Y577373D01*
X445938Y577318D01*
X445925Y577264D01*
X445907Y577212D01*
X445886Y577161D01*
X445861Y577111D01*
X445833Y577063D01*
X445801Y577018D01*
X445766Y576975D01*
X445729Y576934D01*
X445688Y576897D01*
X445645Y576862D01*
X445600Y576830D01*
X445552Y576802D01*
X445502Y576777D01*
X445451Y576756D01*
X445399Y576738D01*
X445345Y576725D01*
X445290Y576715D01*
X445235Y576709D01*
X445180Y576707D01*
X445125Y576709D01*
X445070Y576715D01*
X445015Y576725D01*
X444961Y576738D01*
X444909Y576756D01*
X444858Y576777D01*
X444808Y576802D01*
X444760Y576830D01*
X444715Y576862D01*
X444672Y576897D01*
X444631Y576934D01*
X444594Y576975D01*
X444559Y577018D01*
X444527Y577063D01*
X444499Y577111D01*
X444474Y577161D01*
X444453Y577212D01*
X444435Y577264D01*
X444422Y577318D01*
X444412Y577373D01*
X444406Y577428D01*
X444404Y577483D01*
X444559Y578880D02*
X444561Y578929D01*
X444567Y578977D01*
X444576Y579025D01*
X444589Y579072D01*
X444606Y579118D01*
X444627Y579162D01*
X444651Y579204D01*
X444678Y579245D01*
X444708Y579283D01*
X444741Y579319D01*
X444777Y579352D01*
X444815Y579382D01*
X444856Y579409D01*
X444898Y579433D01*
X444942Y579454D01*
X444988Y579471D01*
X445035Y579484D01*
X445083Y579493D01*
X445131Y579499D01*
X445180Y579501D01*
X445229Y579499D01*
X445277Y579493D01*
X445325Y579484D01*
X445372Y579471D01*
X445418Y579454D01*
X445462Y579433D01*
X445504Y579409D01*
X445545Y579382D01*
X445583Y579352D01*
X445619Y579319D01*
X445652Y579283D01*
X445682Y579245D01*
X445709Y579204D01*
X445733Y579162D01*
X445754Y579118D01*
X445771Y579072D01*
X445784Y579025D01*
X445793Y578977D01*
X445799Y578929D01*
X445801Y578880D01*
X445799Y578831D01*
X445793Y578783D01*
X445784Y578735D01*
X445771Y578688D01*
X445754Y578642D01*
X445733Y578598D01*
X445709Y578556D01*
X445682Y578515D01*
X445652Y578477D01*
X445619Y578441D01*
X445583Y578408D01*
X445545Y578378D01*
X445504Y578351D01*
X445462Y578327D01*
X445418Y578306D01*
X445372Y578289D01*
X445325Y578276D01*
X445277Y578267D01*
X445229Y578261D01*
X445180Y578259D01*
X445131Y578261D01*
X445083Y578267D01*
X445035Y578276D01*
X444988Y578289D01*
X444942Y578306D01*
X444898Y578327D01*
X444856Y578351D01*
X444815Y578378D01*
X444777Y578408D01*
X444741Y578441D01*
X444708Y578477D01*
X444678Y578515D01*
X444651Y578556D01*
X444627Y578598D01*
X444606Y578642D01*
X444589Y578688D01*
X444576Y578735D01*
X444567Y578783D01*
X444561Y578831D01*
X444559Y578880D01*
X447147Y577483D02*
X447149Y577538D01*
X447155Y577593D01*
X447165Y577648D01*
X447178Y577702D01*
X447196Y577754D01*
X447217Y577805D01*
X447242Y577855D01*
X447270Y577903D01*
X447302Y577948D01*
X447337Y577991D01*
X447374Y578032D01*
X447415Y578069D01*
X447458Y578104D01*
X447503Y578136D01*
X447551Y578164D01*
X447601Y578189D01*
X447652Y578210D01*
X447704Y578228D01*
X447758Y578241D01*
X447813Y578251D01*
X447868Y578257D01*
X447923Y578259D01*
X447978Y578257D01*
X448033Y578251D01*
X448088Y578241D01*
X448142Y578228D01*
X448194Y578210D01*
X448245Y578189D01*
X448295Y578164D01*
X448343Y578136D01*
X448388Y578104D01*
X448431Y578069D01*
X448472Y578032D01*
X448509Y577991D01*
X448544Y577948D01*
X448576Y577903D01*
X448604Y577855D01*
X448629Y577805D01*
X448650Y577754D01*
X448668Y577702D01*
X448681Y577648D01*
X448691Y577593D01*
X448697Y577538D01*
X448699Y577483D01*
X448697Y577428D01*
X448691Y577373D01*
X448681Y577318D01*
X448668Y577264D01*
X448650Y577212D01*
X448629Y577161D01*
X448604Y577111D01*
X448576Y577063D01*
X448544Y577018D01*
X448509Y576975D01*
X448472Y576934D01*
X448431Y576897D01*
X448388Y576862D01*
X448343Y576830D01*
X448295Y576802D01*
X448245Y576777D01*
X448194Y576756D01*
X448142Y576738D01*
X448088Y576725D01*
X448033Y576715D01*
X447978Y576709D01*
X447923Y576707D01*
X447868Y576709D01*
X447813Y576715D01*
X447758Y576725D01*
X447704Y576738D01*
X447652Y576756D01*
X447601Y576777D01*
X447551Y576802D01*
X447503Y576830D01*
X447458Y576862D01*
X447415Y576897D01*
X447374Y576934D01*
X447337Y576975D01*
X447302Y577018D01*
X447270Y577063D01*
X447242Y577111D01*
X447217Y577161D01*
X447196Y577212D01*
X447178Y577264D01*
X447165Y577318D01*
X447155Y577373D01*
X447149Y577428D01*
X447147Y577483D01*
X447302Y578880D02*
X447304Y578929D01*
X447310Y578977D01*
X447319Y579025D01*
X447332Y579072D01*
X447349Y579118D01*
X447370Y579162D01*
X447394Y579204D01*
X447421Y579245D01*
X447451Y579283D01*
X447484Y579319D01*
X447520Y579352D01*
X447558Y579382D01*
X447599Y579409D01*
X447641Y579433D01*
X447685Y579454D01*
X447731Y579471D01*
X447778Y579484D01*
X447826Y579493D01*
X447874Y579499D01*
X447923Y579501D01*
X447972Y579499D01*
X448020Y579493D01*
X448068Y579484D01*
X448115Y579471D01*
X448161Y579454D01*
X448205Y579433D01*
X448247Y579409D01*
X448288Y579382D01*
X448326Y579352D01*
X448362Y579319D01*
X448395Y579283D01*
X448425Y579245D01*
X448452Y579204D01*
X448476Y579162D01*
X448497Y579118D01*
X448514Y579072D01*
X448527Y579025D01*
X448536Y578977D01*
X448542Y578929D01*
X448544Y578880D01*
X448542Y578831D01*
X448536Y578783D01*
X448527Y578735D01*
X448514Y578688D01*
X448497Y578642D01*
X448476Y578598D01*
X448452Y578556D01*
X448425Y578515D01*
X448395Y578477D01*
X448362Y578441D01*
X448326Y578408D01*
X448288Y578378D01*
X448247Y578351D01*
X448205Y578327D01*
X448161Y578306D01*
X448115Y578289D01*
X448068Y578276D01*
X448020Y578267D01*
X447972Y578261D01*
X447923Y578259D01*
X447874Y578261D01*
X447826Y578267D01*
X447778Y578276D01*
X447731Y578289D01*
X447685Y578306D01*
X447641Y578327D01*
X447599Y578351D01*
X447558Y578378D01*
X447520Y578408D01*
X447484Y578441D01*
X447451Y578477D01*
X447421Y578515D01*
X447394Y578556D01*
X447370Y578598D01*
X447349Y578642D01*
X447332Y578688D01*
X447319Y578735D01*
X447310Y578783D01*
X447304Y578831D01*
X447302Y578880D01*
X449890Y576707D02*
X450666Y576707D01*
X450721Y576709D01*
X450776Y576715D01*
X450831Y576725D01*
X450885Y576738D01*
X450937Y576756D01*
X450988Y576777D01*
X451038Y576802D01*
X451086Y576830D01*
X451131Y576862D01*
X451174Y576897D01*
X451215Y576934D01*
X451252Y576975D01*
X451287Y577018D01*
X451319Y577063D01*
X451347Y577111D01*
X451372Y577161D01*
X451393Y577212D01*
X451411Y577264D01*
X451424Y577318D01*
X451434Y577373D01*
X451440Y577428D01*
X451442Y577483D01*
X451440Y577538D01*
X451434Y577593D01*
X451424Y577648D01*
X451411Y577702D01*
X451393Y577754D01*
X451372Y577805D01*
X451347Y577855D01*
X451319Y577903D01*
X451287Y577948D01*
X451252Y577991D01*
X451215Y578032D01*
X451174Y578069D01*
X451131Y578104D01*
X451086Y578136D01*
X451038Y578164D01*
X450988Y578189D01*
X450937Y578210D01*
X450885Y578228D01*
X450831Y578241D01*
X450776Y578251D01*
X450721Y578257D01*
X450666Y578259D01*
X450821Y579501D02*
X449890Y579501D01*
X450821Y579501D02*
X450870Y579499D01*
X450918Y579493D01*
X450966Y579484D01*
X451013Y579471D01*
X451059Y579454D01*
X451103Y579433D01*
X451145Y579409D01*
X451186Y579382D01*
X451224Y579352D01*
X451260Y579319D01*
X451293Y579283D01*
X451323Y579245D01*
X451350Y579204D01*
X451374Y579162D01*
X451395Y579118D01*
X451412Y579072D01*
X451425Y579025D01*
X451434Y578977D01*
X451440Y578929D01*
X451442Y578880D01*
X451440Y578831D01*
X451434Y578783D01*
X451425Y578735D01*
X451412Y578688D01*
X451395Y578642D01*
X451374Y578598D01*
X451350Y578556D01*
X451323Y578515D01*
X451293Y578477D01*
X451260Y578441D01*
X451224Y578408D01*
X451186Y578378D01*
X451145Y578351D01*
X451103Y578327D01*
X451059Y578306D01*
X451013Y578289D01*
X450966Y578276D01*
X450918Y578267D01*
X450870Y578261D01*
X450821Y578259D01*
X450200Y578259D01*
X452633Y576707D02*
X453564Y576707D01*
X453613Y576709D01*
X453661Y576715D01*
X453709Y576724D01*
X453756Y576737D01*
X453802Y576754D01*
X453846Y576775D01*
X453888Y576799D01*
X453929Y576826D01*
X453967Y576856D01*
X454003Y576889D01*
X454036Y576925D01*
X454066Y576963D01*
X454093Y577004D01*
X454117Y577046D01*
X454138Y577090D01*
X454155Y577136D01*
X454168Y577183D01*
X454177Y577231D01*
X454183Y577279D01*
X454185Y577328D01*
X454185Y577638D01*
X454183Y577687D01*
X454177Y577735D01*
X454168Y577783D01*
X454155Y577830D01*
X454138Y577876D01*
X454117Y577920D01*
X454093Y577962D01*
X454066Y578003D01*
X454036Y578041D01*
X454003Y578077D01*
X453967Y578110D01*
X453929Y578140D01*
X453888Y578167D01*
X453846Y578191D01*
X453802Y578212D01*
X453756Y578229D01*
X453709Y578242D01*
X453661Y578251D01*
X453613Y578257D01*
X453564Y578259D01*
X452633Y578259D01*
X452633Y579501D01*
X454185Y579501D01*
X487807Y537591D02*
X487807Y534797D01*
X487807Y537591D02*
X488583Y537591D01*
X488638Y537589D01*
X488693Y537583D01*
X488748Y537573D01*
X488802Y537560D01*
X488854Y537542D01*
X488905Y537521D01*
X488955Y537496D01*
X489003Y537468D01*
X489048Y537436D01*
X489091Y537401D01*
X489132Y537364D01*
X489169Y537323D01*
X489204Y537280D01*
X489236Y537235D01*
X489264Y537187D01*
X489289Y537137D01*
X489310Y537086D01*
X489328Y537034D01*
X489341Y536980D01*
X489351Y536925D01*
X489357Y536870D01*
X489359Y536815D01*
X489357Y536760D01*
X489351Y536705D01*
X489341Y536650D01*
X489328Y536596D01*
X489310Y536544D01*
X489289Y536493D01*
X489264Y536443D01*
X489236Y536395D01*
X489204Y536350D01*
X489169Y536307D01*
X489132Y536266D01*
X489091Y536229D01*
X489048Y536194D01*
X489003Y536162D01*
X488955Y536134D01*
X488905Y536109D01*
X488854Y536088D01*
X488802Y536070D01*
X488748Y536057D01*
X488693Y536047D01*
X488638Y536041D01*
X488583Y536039D01*
X487807Y536039D01*
X488738Y536039D02*
X489359Y534797D01*
X490532Y534797D02*
X491308Y534797D01*
X491363Y534799D01*
X491418Y534805D01*
X491473Y534815D01*
X491527Y534828D01*
X491579Y534846D01*
X491630Y534867D01*
X491680Y534892D01*
X491728Y534920D01*
X491773Y534952D01*
X491816Y534987D01*
X491857Y535024D01*
X491894Y535065D01*
X491929Y535108D01*
X491961Y535153D01*
X491989Y535201D01*
X492014Y535251D01*
X492035Y535302D01*
X492053Y535354D01*
X492066Y535408D01*
X492076Y535463D01*
X492082Y535518D01*
X492084Y535573D01*
X492082Y535628D01*
X492076Y535683D01*
X492066Y535738D01*
X492053Y535792D01*
X492035Y535844D01*
X492014Y535895D01*
X491989Y535945D01*
X491961Y535993D01*
X491929Y536038D01*
X491894Y536081D01*
X491857Y536122D01*
X491816Y536159D01*
X491773Y536194D01*
X491728Y536226D01*
X491680Y536254D01*
X491630Y536279D01*
X491579Y536300D01*
X491527Y536318D01*
X491473Y536331D01*
X491418Y536341D01*
X491363Y536347D01*
X491308Y536349D01*
X491463Y537591D02*
X490532Y537591D01*
X491463Y537591D02*
X491512Y537589D01*
X491560Y537583D01*
X491608Y537574D01*
X491655Y537561D01*
X491701Y537544D01*
X491745Y537523D01*
X491787Y537499D01*
X491828Y537472D01*
X491866Y537442D01*
X491902Y537409D01*
X491935Y537373D01*
X491965Y537335D01*
X491992Y537294D01*
X492016Y537252D01*
X492037Y537208D01*
X492054Y537162D01*
X492067Y537115D01*
X492076Y537067D01*
X492082Y537019D01*
X492084Y536970D01*
X492082Y536921D01*
X492076Y536873D01*
X492067Y536825D01*
X492054Y536778D01*
X492037Y536732D01*
X492016Y536688D01*
X491992Y536646D01*
X491965Y536605D01*
X491935Y536567D01*
X491902Y536531D01*
X491866Y536498D01*
X491828Y536468D01*
X491787Y536441D01*
X491745Y536417D01*
X491701Y536396D01*
X491655Y536379D01*
X491608Y536366D01*
X491560Y536357D01*
X491512Y536351D01*
X491463Y536349D01*
X490843Y536349D01*
X493275Y536970D02*
X494051Y537591D01*
X494051Y534797D01*
X493275Y534797D02*
X494828Y534797D01*
D14*
X124460Y85090D02*
X43180Y85090D01*
X43180Y31750D02*
X124460Y31750D01*
X124460Y85090D01*
X43180Y85090D02*
X43180Y31750D01*
D16*
X129794Y55146D02*
X129794Y59182D01*
X129794Y55146D02*
X129796Y55069D01*
X129802Y54991D01*
X129811Y54915D01*
X129825Y54838D01*
X129842Y54763D01*
X129863Y54689D01*
X129888Y54615D01*
X129916Y54543D01*
X129948Y54473D01*
X129983Y54404D01*
X130022Y54337D01*
X130064Y54272D01*
X130109Y54209D01*
X130157Y54148D01*
X130208Y54090D01*
X130262Y54035D01*
X130319Y53982D01*
X130378Y53933D01*
X130440Y53886D01*
X130504Y53842D01*
X130570Y53802D01*
X130638Y53765D01*
X130708Y53731D01*
X130779Y53701D01*
X130852Y53675D01*
X130926Y53652D01*
X131001Y53633D01*
X131076Y53618D01*
X131153Y53606D01*
X131230Y53598D01*
X131307Y53594D01*
X131385Y53594D01*
X131462Y53598D01*
X131539Y53606D01*
X131616Y53618D01*
X131691Y53633D01*
X131766Y53652D01*
X131840Y53675D01*
X131913Y53701D01*
X131984Y53731D01*
X132054Y53765D01*
X132122Y53802D01*
X132188Y53842D01*
X132252Y53886D01*
X132314Y53933D01*
X132373Y53982D01*
X132430Y54035D01*
X132484Y54090D01*
X132535Y54148D01*
X132583Y54209D01*
X132628Y54272D01*
X132670Y54337D01*
X132709Y54404D01*
X132744Y54473D01*
X132776Y54543D01*
X132804Y54615D01*
X132829Y54689D01*
X132850Y54763D01*
X132867Y54838D01*
X132881Y54915D01*
X132890Y54991D01*
X132896Y55069D01*
X132898Y55146D01*
X132898Y59182D01*
X138385Y54836D02*
X138383Y54766D01*
X138377Y54697D01*
X138367Y54628D01*
X138354Y54560D01*
X138336Y54492D01*
X138315Y54426D01*
X138290Y54361D01*
X138262Y54297D01*
X138230Y54235D01*
X138195Y54175D01*
X138156Y54117D01*
X138114Y54062D01*
X138069Y54008D01*
X138021Y53958D01*
X137971Y53910D01*
X137917Y53865D01*
X137862Y53823D01*
X137804Y53784D01*
X137744Y53749D01*
X137682Y53717D01*
X137618Y53689D01*
X137553Y53664D01*
X137487Y53643D01*
X137419Y53625D01*
X137351Y53612D01*
X137282Y53602D01*
X137213Y53596D01*
X137143Y53594D01*
X137044Y53596D01*
X136946Y53601D01*
X136848Y53611D01*
X136750Y53624D01*
X136653Y53640D01*
X136556Y53660D01*
X136461Y53684D01*
X136366Y53712D01*
X136272Y53743D01*
X136180Y53777D01*
X136089Y53815D01*
X135999Y53856D01*
X135911Y53901D01*
X135825Y53949D01*
X135741Y54000D01*
X135659Y54054D01*
X135578Y54112D01*
X135500Y54172D01*
X135425Y54235D01*
X135351Y54301D01*
X135281Y54370D01*
X135435Y57940D02*
X135437Y58010D01*
X135443Y58079D01*
X135453Y58148D01*
X135466Y58216D01*
X135484Y58284D01*
X135505Y58350D01*
X135530Y58415D01*
X135558Y58479D01*
X135590Y58541D01*
X135625Y58601D01*
X135664Y58659D01*
X135706Y58714D01*
X135751Y58768D01*
X135799Y58818D01*
X135849Y58866D01*
X135903Y58911D01*
X135958Y58953D01*
X136016Y58992D01*
X136076Y59027D01*
X136138Y59059D01*
X136202Y59087D01*
X136267Y59112D01*
X136333Y59133D01*
X136401Y59151D01*
X136469Y59164D01*
X136538Y59174D01*
X136607Y59180D01*
X136677Y59182D01*
X136771Y59180D01*
X136864Y59174D01*
X136957Y59165D01*
X137050Y59152D01*
X137142Y59135D01*
X137233Y59115D01*
X137324Y59090D01*
X137413Y59063D01*
X137501Y59031D01*
X137588Y58996D01*
X137674Y58958D01*
X137757Y58916D01*
X137839Y58871D01*
X137920Y58823D01*
X137998Y58771D01*
X138074Y58716D01*
X136057Y56854D02*
X135998Y56890D01*
X135942Y56930D01*
X135888Y56973D01*
X135836Y57018D01*
X135787Y57067D01*
X135741Y57118D01*
X135698Y57171D01*
X135657Y57227D01*
X135620Y57285D01*
X135585Y57345D01*
X135555Y57406D01*
X135527Y57469D01*
X135503Y57534D01*
X135483Y57600D01*
X135466Y57667D01*
X135453Y57734D01*
X135444Y57802D01*
X135438Y57871D01*
X135436Y57940D01*
X137764Y55922D02*
X137823Y55886D01*
X137879Y55846D01*
X137933Y55803D01*
X137985Y55758D01*
X138034Y55709D01*
X138080Y55658D01*
X138123Y55605D01*
X138164Y55549D01*
X138201Y55491D01*
X138236Y55431D01*
X138266Y55370D01*
X138294Y55307D01*
X138318Y55242D01*
X138338Y55176D01*
X138355Y55109D01*
X138368Y55042D01*
X138377Y54974D01*
X138383Y54905D01*
X138385Y54836D01*
X137764Y55922D02*
X136056Y56854D01*
X140850Y56698D02*
X142402Y56698D01*
X142479Y56696D01*
X142557Y56690D01*
X142633Y56681D01*
X142710Y56667D01*
X142785Y56650D01*
X142859Y56629D01*
X142933Y56604D01*
X143005Y56576D01*
X143075Y56544D01*
X143144Y56509D01*
X143211Y56470D01*
X143276Y56428D01*
X143339Y56383D01*
X143400Y56335D01*
X143458Y56284D01*
X143513Y56230D01*
X143566Y56173D01*
X143615Y56114D01*
X143662Y56052D01*
X143706Y55988D01*
X143746Y55922D01*
X143783Y55854D01*
X143817Y55784D01*
X143847Y55713D01*
X143873Y55640D01*
X143896Y55566D01*
X143915Y55491D01*
X143930Y55416D01*
X143942Y55339D01*
X143950Y55262D01*
X143954Y55185D01*
X143954Y55107D01*
X143950Y55030D01*
X143942Y54953D01*
X143930Y54876D01*
X143915Y54801D01*
X143896Y54726D01*
X143873Y54652D01*
X143847Y54579D01*
X143817Y54508D01*
X143783Y54438D01*
X143746Y54370D01*
X143706Y54304D01*
X143662Y54240D01*
X143615Y54178D01*
X143566Y54119D01*
X143513Y54062D01*
X143458Y54008D01*
X143400Y53957D01*
X143339Y53909D01*
X143276Y53864D01*
X143211Y53822D01*
X143144Y53783D01*
X143075Y53748D01*
X143005Y53716D01*
X142933Y53688D01*
X142859Y53663D01*
X142785Y53642D01*
X142710Y53625D01*
X142633Y53611D01*
X142557Y53602D01*
X142479Y53596D01*
X142402Y53594D01*
X140850Y53594D01*
X140850Y59182D01*
X142402Y59182D01*
X142472Y59180D01*
X142541Y59174D01*
X142610Y59164D01*
X142678Y59151D01*
X142746Y59133D01*
X142812Y59112D01*
X142877Y59087D01*
X142941Y59059D01*
X143003Y59027D01*
X143063Y58992D01*
X143121Y58953D01*
X143176Y58911D01*
X143230Y58866D01*
X143280Y58818D01*
X143328Y58768D01*
X143373Y58714D01*
X143415Y58659D01*
X143454Y58601D01*
X143489Y58541D01*
X143521Y58479D01*
X143549Y58415D01*
X143574Y58350D01*
X143595Y58284D01*
X143613Y58216D01*
X143626Y58148D01*
X143636Y58079D01*
X143642Y58010D01*
X143644Y57940D01*
X143642Y57870D01*
X143636Y57801D01*
X143626Y57732D01*
X143613Y57664D01*
X143595Y57596D01*
X143574Y57530D01*
X143549Y57465D01*
X143521Y57401D01*
X143489Y57339D01*
X143454Y57279D01*
X143415Y57221D01*
X143373Y57166D01*
X143328Y57112D01*
X143280Y57062D01*
X143230Y57014D01*
X143176Y56969D01*
X143121Y56927D01*
X143063Y56888D01*
X143003Y56853D01*
X142941Y56821D01*
X142877Y56793D01*
X142812Y56768D01*
X142746Y56747D01*
X142678Y56729D01*
X142610Y56716D01*
X142541Y56706D01*
X142472Y56700D01*
X142402Y56698D01*
D14*
X406400Y255270D02*
X406400Y336550D01*
X459740Y336550D02*
X459740Y255270D01*
X459740Y336550D02*
X406400Y336550D01*
X406400Y255270D02*
X459740Y255270D01*
D11*
X486263Y264795D02*
X486263Y267589D01*
X487039Y267589D01*
X487094Y267587D01*
X487149Y267581D01*
X487204Y267571D01*
X487258Y267558D01*
X487310Y267540D01*
X487361Y267519D01*
X487411Y267494D01*
X487459Y267466D01*
X487504Y267434D01*
X487547Y267399D01*
X487588Y267362D01*
X487625Y267321D01*
X487660Y267278D01*
X487692Y267233D01*
X487720Y267185D01*
X487745Y267135D01*
X487766Y267084D01*
X487784Y267032D01*
X487797Y266978D01*
X487807Y266923D01*
X487813Y266868D01*
X487815Y266813D01*
X487813Y266758D01*
X487807Y266703D01*
X487797Y266648D01*
X487784Y266594D01*
X487766Y266542D01*
X487745Y266491D01*
X487720Y266441D01*
X487692Y266393D01*
X487660Y266348D01*
X487625Y266305D01*
X487588Y266264D01*
X487547Y266227D01*
X487504Y266192D01*
X487459Y266160D01*
X487411Y266132D01*
X487361Y266107D01*
X487310Y266086D01*
X487258Y266068D01*
X487204Y266055D01*
X487149Y266045D01*
X487094Y266039D01*
X487039Y266037D01*
X486263Y266037D01*
X487194Y266037D02*
X487815Y264795D01*
X489425Y266968D02*
X490201Y267589D01*
X490201Y264795D01*
X489425Y264795D02*
X490977Y264795D01*
X492625Y267279D02*
X492625Y267589D01*
X494178Y267589D01*
X493401Y264795D01*
D16*
X469005Y265176D02*
X469005Y267716D01*
X469710Y267716D01*
X469762Y267714D01*
X469813Y267708D01*
X469864Y267699D01*
X469913Y267686D01*
X469962Y267669D01*
X470010Y267649D01*
X470056Y267626D01*
X470100Y267599D01*
X470141Y267569D01*
X470181Y267536D01*
X470218Y267500D01*
X470253Y267462D01*
X470284Y267421D01*
X470313Y267378D01*
X470338Y267333D01*
X470360Y267286D01*
X470378Y267238D01*
X470393Y267189D01*
X470404Y267138D01*
X470412Y267087D01*
X470416Y267036D01*
X470416Y266984D01*
X470412Y266933D01*
X470404Y266882D01*
X470393Y266831D01*
X470378Y266782D01*
X470360Y266734D01*
X470338Y266687D01*
X470313Y266642D01*
X470284Y266599D01*
X470253Y266558D01*
X470218Y266520D01*
X470181Y266484D01*
X470141Y266451D01*
X470100Y266421D01*
X470056Y266394D01*
X470010Y266371D01*
X469962Y266351D01*
X469913Y266334D01*
X469864Y266321D01*
X469813Y266312D01*
X469762Y266306D01*
X469710Y266304D01*
X469710Y266305D02*
X469005Y266305D01*
X469852Y266305D02*
X470416Y265176D01*
X471721Y267152D02*
X472426Y267716D01*
X472426Y265176D01*
X471721Y265176D02*
X473132Y265176D01*
X474464Y265882D02*
X474466Y265934D01*
X474472Y265985D01*
X474481Y266036D01*
X474494Y266085D01*
X474511Y266134D01*
X474531Y266182D01*
X474554Y266228D01*
X474581Y266272D01*
X474611Y266313D01*
X474644Y266353D01*
X474680Y266390D01*
X474718Y266425D01*
X474759Y266456D01*
X474802Y266485D01*
X474847Y266510D01*
X474894Y266532D01*
X474942Y266550D01*
X474991Y266565D01*
X475042Y266576D01*
X475093Y266584D01*
X475144Y266588D01*
X475196Y266588D01*
X475247Y266584D01*
X475298Y266576D01*
X475349Y266565D01*
X475398Y266550D01*
X475446Y266532D01*
X475493Y266510D01*
X475538Y266485D01*
X475581Y266456D01*
X475622Y266425D01*
X475660Y266390D01*
X475696Y266353D01*
X475729Y266313D01*
X475759Y266272D01*
X475786Y266228D01*
X475809Y266182D01*
X475829Y266134D01*
X475846Y266085D01*
X475859Y266036D01*
X475868Y265985D01*
X475874Y265934D01*
X475876Y265882D01*
X475874Y265830D01*
X475868Y265779D01*
X475859Y265728D01*
X475846Y265679D01*
X475829Y265630D01*
X475809Y265582D01*
X475786Y265536D01*
X475759Y265492D01*
X475729Y265451D01*
X475696Y265411D01*
X475660Y265374D01*
X475622Y265339D01*
X475581Y265308D01*
X475538Y265279D01*
X475493Y265254D01*
X475446Y265232D01*
X475398Y265214D01*
X475349Y265199D01*
X475298Y265188D01*
X475247Y265180D01*
X475196Y265176D01*
X475144Y265176D01*
X475093Y265180D01*
X475042Y265188D01*
X474991Y265199D01*
X474942Y265214D01*
X474894Y265232D01*
X474847Y265254D01*
X474802Y265279D01*
X474759Y265308D01*
X474718Y265339D01*
X474680Y265374D01*
X474644Y265411D01*
X474611Y265451D01*
X474581Y265492D01*
X474554Y265536D01*
X474531Y265582D01*
X474511Y265630D01*
X474494Y265679D01*
X474481Y265728D01*
X474472Y265779D01*
X474466Y265830D01*
X474464Y265882D01*
X474606Y267152D02*
X474608Y267199D01*
X474614Y267245D01*
X474623Y267290D01*
X474637Y267335D01*
X474654Y267379D01*
X474674Y267420D01*
X474698Y267460D01*
X474725Y267498D01*
X474755Y267534D01*
X474788Y267567D01*
X474824Y267597D01*
X474862Y267624D01*
X474902Y267648D01*
X474943Y267668D01*
X474987Y267685D01*
X475032Y267699D01*
X475077Y267708D01*
X475123Y267714D01*
X475170Y267716D01*
X475217Y267714D01*
X475263Y267708D01*
X475308Y267699D01*
X475353Y267685D01*
X475397Y267668D01*
X475438Y267648D01*
X475478Y267624D01*
X475516Y267597D01*
X475552Y267567D01*
X475585Y267534D01*
X475615Y267498D01*
X475642Y267460D01*
X475666Y267420D01*
X475686Y267379D01*
X475703Y267335D01*
X475717Y267290D01*
X475726Y267245D01*
X475732Y267199D01*
X475734Y267152D01*
X475732Y267105D01*
X475726Y267059D01*
X475717Y267014D01*
X475703Y266969D01*
X475686Y266925D01*
X475666Y266884D01*
X475642Y266844D01*
X475615Y266806D01*
X475585Y266770D01*
X475552Y266737D01*
X475516Y266707D01*
X475478Y266680D01*
X475438Y266656D01*
X475397Y266636D01*
X475353Y266619D01*
X475308Y266605D01*
X475263Y266596D01*
X475217Y266590D01*
X475170Y266588D01*
X475123Y266590D01*
X475077Y266596D01*
X475032Y266605D01*
X474987Y266619D01*
X474943Y266636D01*
X474902Y266656D01*
X474862Y266680D01*
X474824Y266707D01*
X474788Y266737D01*
X474755Y266770D01*
X474725Y266806D01*
X474698Y266844D01*
X474674Y266884D01*
X474654Y266925D01*
X474637Y266969D01*
X474623Y267014D01*
X474614Y267059D01*
X474608Y267105D01*
X474606Y267152D01*
D13*
X569708Y102997D02*
X570329Y102997D01*
X569708Y102997D02*
X569659Y102999D01*
X569611Y103005D01*
X569563Y103014D01*
X569516Y103027D01*
X569470Y103044D01*
X569426Y103065D01*
X569384Y103089D01*
X569343Y103116D01*
X569305Y103146D01*
X569269Y103179D01*
X569236Y103215D01*
X569206Y103253D01*
X569179Y103294D01*
X569155Y103336D01*
X569134Y103380D01*
X569117Y103426D01*
X569104Y103473D01*
X569095Y103521D01*
X569089Y103569D01*
X569087Y103618D01*
X569087Y105170D01*
X569089Y105219D01*
X569095Y105267D01*
X569104Y105315D01*
X569117Y105362D01*
X569134Y105408D01*
X569155Y105452D01*
X569179Y105494D01*
X569206Y105535D01*
X569236Y105573D01*
X569269Y105609D01*
X569305Y105642D01*
X569343Y105672D01*
X569384Y105699D01*
X569426Y105723D01*
X569470Y105744D01*
X569516Y105761D01*
X569563Y105774D01*
X569611Y105783D01*
X569659Y105789D01*
X569708Y105791D01*
X570329Y105791D01*
X572235Y105792D02*
X572285Y105790D01*
X572334Y105785D01*
X572384Y105776D01*
X572432Y105764D01*
X572479Y105748D01*
X572525Y105729D01*
X572570Y105706D01*
X572613Y105681D01*
X572654Y105653D01*
X572693Y105621D01*
X572729Y105587D01*
X572763Y105551D01*
X572795Y105512D01*
X572823Y105471D01*
X572848Y105428D01*
X572871Y105383D01*
X572890Y105337D01*
X572906Y105290D01*
X572918Y105242D01*
X572927Y105192D01*
X572932Y105143D01*
X572934Y105093D01*
X572235Y105791D02*
X572179Y105789D01*
X572122Y105784D01*
X572067Y105775D01*
X572012Y105763D01*
X571958Y105747D01*
X571905Y105728D01*
X571853Y105706D01*
X571803Y105680D01*
X571754Y105651D01*
X571707Y105619D01*
X571663Y105585D01*
X571621Y105548D01*
X571581Y105508D01*
X571543Y105465D01*
X571509Y105421D01*
X571477Y105374D01*
X571449Y105326D01*
X571423Y105275D01*
X571401Y105223D01*
X571382Y105170D01*
X572700Y104550D02*
X572736Y104586D01*
X572769Y104624D01*
X572799Y104665D01*
X572826Y104708D01*
X572851Y104752D01*
X572872Y104798D01*
X572891Y104845D01*
X572906Y104893D01*
X572918Y104942D01*
X572926Y104992D01*
X572931Y105042D01*
X572933Y105093D01*
X572701Y104549D02*
X571381Y102997D01*
X572933Y102997D01*
X574124Y102997D02*
X574900Y102997D01*
X574955Y102999D01*
X575010Y103005D01*
X575065Y103015D01*
X575119Y103028D01*
X575171Y103046D01*
X575222Y103067D01*
X575272Y103092D01*
X575320Y103120D01*
X575365Y103152D01*
X575408Y103187D01*
X575449Y103224D01*
X575486Y103265D01*
X575521Y103308D01*
X575553Y103353D01*
X575581Y103401D01*
X575606Y103451D01*
X575627Y103502D01*
X575645Y103554D01*
X575658Y103608D01*
X575668Y103663D01*
X575674Y103718D01*
X575676Y103773D01*
X575674Y103828D01*
X575668Y103883D01*
X575658Y103938D01*
X575645Y103992D01*
X575627Y104044D01*
X575606Y104095D01*
X575581Y104145D01*
X575553Y104193D01*
X575521Y104238D01*
X575486Y104281D01*
X575449Y104322D01*
X575408Y104359D01*
X575365Y104394D01*
X575320Y104426D01*
X575272Y104454D01*
X575222Y104479D01*
X575171Y104500D01*
X575119Y104518D01*
X575065Y104531D01*
X575010Y104541D01*
X574955Y104547D01*
X574900Y104549D01*
X575056Y105791D02*
X574124Y105791D01*
X575056Y105791D02*
X575105Y105789D01*
X575153Y105783D01*
X575201Y105774D01*
X575248Y105761D01*
X575294Y105744D01*
X575338Y105723D01*
X575380Y105699D01*
X575421Y105672D01*
X575459Y105642D01*
X575495Y105609D01*
X575528Y105573D01*
X575558Y105535D01*
X575585Y105494D01*
X575609Y105452D01*
X575630Y105408D01*
X575647Y105362D01*
X575660Y105315D01*
X575669Y105267D01*
X575675Y105219D01*
X575677Y105170D01*
X575675Y105121D01*
X575669Y105073D01*
X575660Y105025D01*
X575647Y104978D01*
X575630Y104932D01*
X575609Y104888D01*
X575585Y104846D01*
X575558Y104805D01*
X575528Y104767D01*
X575495Y104731D01*
X575459Y104698D01*
X575421Y104668D01*
X575380Y104641D01*
X575338Y104617D01*
X575294Y104596D01*
X575248Y104579D01*
X575201Y104566D01*
X575153Y104557D01*
X575105Y104551D01*
X575056Y104549D01*
X574435Y104549D01*
X430135Y582549D02*
X429514Y582549D01*
X429465Y582551D01*
X429417Y582557D01*
X429369Y582566D01*
X429322Y582579D01*
X429276Y582596D01*
X429232Y582617D01*
X429190Y582641D01*
X429149Y582668D01*
X429111Y582698D01*
X429075Y582731D01*
X429042Y582767D01*
X429012Y582805D01*
X428985Y582846D01*
X428961Y582888D01*
X428940Y582932D01*
X428923Y582978D01*
X428910Y583025D01*
X428901Y583073D01*
X428895Y583121D01*
X428893Y583170D01*
X428893Y584722D01*
X428895Y584771D01*
X428901Y584819D01*
X428910Y584867D01*
X428923Y584914D01*
X428940Y584960D01*
X428961Y585004D01*
X428985Y585046D01*
X429012Y585087D01*
X429042Y585125D01*
X429075Y585161D01*
X429111Y585194D01*
X429149Y585224D01*
X429190Y585251D01*
X429232Y585275D01*
X429276Y585296D01*
X429322Y585313D01*
X429369Y585326D01*
X429417Y585335D01*
X429465Y585341D01*
X429514Y585343D01*
X430135Y585343D01*
X432041Y585344D02*
X432091Y585342D01*
X432140Y585337D01*
X432190Y585328D01*
X432238Y585316D01*
X432285Y585300D01*
X432331Y585281D01*
X432376Y585258D01*
X432419Y585233D01*
X432460Y585205D01*
X432499Y585173D01*
X432535Y585139D01*
X432569Y585103D01*
X432601Y585064D01*
X432629Y585023D01*
X432654Y584980D01*
X432677Y584935D01*
X432696Y584889D01*
X432712Y584842D01*
X432724Y584794D01*
X432733Y584744D01*
X432738Y584695D01*
X432740Y584645D01*
X432041Y585343D02*
X431985Y585341D01*
X431928Y585336D01*
X431873Y585327D01*
X431818Y585315D01*
X431764Y585299D01*
X431711Y585280D01*
X431659Y585258D01*
X431609Y585232D01*
X431560Y585203D01*
X431513Y585171D01*
X431469Y585137D01*
X431427Y585100D01*
X431387Y585060D01*
X431349Y585017D01*
X431315Y584973D01*
X431283Y584926D01*
X431255Y584878D01*
X431229Y584827D01*
X431207Y584775D01*
X431188Y584722D01*
X432507Y584102D02*
X432543Y584138D01*
X432576Y584176D01*
X432606Y584217D01*
X432633Y584260D01*
X432658Y584304D01*
X432679Y584350D01*
X432698Y584397D01*
X432713Y584445D01*
X432725Y584494D01*
X432733Y584544D01*
X432738Y584594D01*
X432740Y584645D01*
X432507Y584101D02*
X431188Y582549D01*
X432740Y582549D01*
X433931Y584101D02*
X434862Y584101D01*
X434911Y584099D01*
X434959Y584093D01*
X435007Y584084D01*
X435054Y584071D01*
X435100Y584054D01*
X435144Y584033D01*
X435186Y584009D01*
X435227Y583982D01*
X435265Y583952D01*
X435301Y583919D01*
X435334Y583883D01*
X435364Y583845D01*
X435391Y583804D01*
X435415Y583762D01*
X435436Y583718D01*
X435453Y583672D01*
X435466Y583625D01*
X435475Y583577D01*
X435481Y583529D01*
X435483Y583480D01*
X435483Y583325D01*
X435481Y583270D01*
X435475Y583215D01*
X435465Y583160D01*
X435452Y583106D01*
X435434Y583054D01*
X435413Y583003D01*
X435388Y582953D01*
X435360Y582905D01*
X435328Y582860D01*
X435293Y582817D01*
X435256Y582776D01*
X435215Y582739D01*
X435172Y582704D01*
X435127Y582672D01*
X435079Y582644D01*
X435029Y582619D01*
X434978Y582598D01*
X434926Y582580D01*
X434872Y582567D01*
X434817Y582557D01*
X434762Y582551D01*
X434707Y582549D01*
X434652Y582551D01*
X434597Y582557D01*
X434542Y582567D01*
X434488Y582580D01*
X434436Y582598D01*
X434385Y582619D01*
X434335Y582644D01*
X434287Y582672D01*
X434242Y582704D01*
X434199Y582739D01*
X434158Y582776D01*
X434121Y582817D01*
X434086Y582860D01*
X434054Y582905D01*
X434026Y582953D01*
X434001Y583003D01*
X433980Y583054D01*
X433962Y583106D01*
X433949Y583160D01*
X433939Y583215D01*
X433933Y583270D01*
X433931Y583325D01*
X433931Y584101D01*
X433933Y584171D01*
X433939Y584240D01*
X433949Y584309D01*
X433962Y584377D01*
X433980Y584445D01*
X434001Y584511D01*
X434026Y584576D01*
X434054Y584640D01*
X434086Y584702D01*
X434121Y584762D01*
X434160Y584820D01*
X434202Y584875D01*
X434247Y584929D01*
X434295Y584979D01*
X434345Y585027D01*
X434399Y585072D01*
X434454Y585114D01*
X434512Y585153D01*
X434572Y585188D01*
X434634Y585220D01*
X434698Y585248D01*
X434763Y585273D01*
X434829Y585294D01*
X434897Y585312D01*
X434965Y585325D01*
X435034Y585335D01*
X435103Y585341D01*
X435173Y585343D01*
X466606Y582041D02*
X467340Y582041D01*
X466606Y582041D02*
X466554Y582043D01*
X466502Y582048D01*
X466450Y582058D01*
X466399Y582071D01*
X466349Y582087D01*
X466301Y582107D01*
X466254Y582131D01*
X466209Y582158D01*
X466166Y582187D01*
X466125Y582220D01*
X466087Y582256D01*
X466051Y582294D01*
X466018Y582335D01*
X465989Y582378D01*
X465962Y582423D01*
X465938Y582470D01*
X465918Y582518D01*
X465902Y582568D01*
X465889Y582619D01*
X465879Y582671D01*
X465874Y582723D01*
X465872Y582775D01*
X465872Y584609D01*
X465874Y584661D01*
X465879Y584713D01*
X465889Y584765D01*
X465902Y584816D01*
X465918Y584866D01*
X465938Y584914D01*
X465962Y584961D01*
X465989Y585006D01*
X466018Y585049D01*
X466051Y585090D01*
X466087Y585128D01*
X466125Y585164D01*
X466166Y585197D01*
X466209Y585226D01*
X466254Y585253D01*
X466301Y585277D01*
X466349Y585297D01*
X466399Y585313D01*
X466450Y585326D01*
X466502Y585336D01*
X466554Y585341D01*
X466606Y585343D01*
X467340Y585343D01*
X469557Y585344D02*
X469613Y585342D01*
X469669Y585336D01*
X469725Y585327D01*
X469780Y585313D01*
X469834Y585296D01*
X469886Y585276D01*
X469937Y585251D01*
X469986Y585224D01*
X470033Y585193D01*
X470078Y585159D01*
X470121Y585122D01*
X470161Y585082D01*
X470198Y585039D01*
X470232Y584994D01*
X470263Y584947D01*
X470290Y584898D01*
X470315Y584847D01*
X470335Y584795D01*
X470352Y584741D01*
X470366Y584686D01*
X470375Y584630D01*
X470381Y584574D01*
X470383Y584518D01*
X469557Y585343D02*
X469493Y585341D01*
X469430Y585335D01*
X469367Y585326D01*
X469305Y585313D01*
X469244Y585296D01*
X469184Y585275D01*
X469125Y585251D01*
X469068Y585224D01*
X469012Y585193D01*
X468959Y585158D01*
X468908Y585121D01*
X468858Y585081D01*
X468812Y585037D01*
X468768Y584991D01*
X468727Y584943D01*
X468689Y584892D01*
X468654Y584839D01*
X468622Y584784D01*
X468594Y584727D01*
X468569Y584669D01*
X468548Y584609D01*
X470108Y583876D02*
X470146Y583915D01*
X470183Y583957D01*
X470216Y584001D01*
X470247Y584046D01*
X470275Y584094D01*
X470300Y584143D01*
X470322Y584194D01*
X470340Y584246D01*
X470356Y584299D01*
X470368Y584353D01*
X470376Y584408D01*
X470381Y584463D01*
X470383Y584518D01*
X470107Y583875D02*
X468548Y582041D01*
X470383Y582041D01*
X471749Y584976D02*
X471749Y585343D01*
X473583Y585343D01*
X472666Y582041D01*
D14*
X550926Y544576D02*
X579374Y544576D01*
X579374Y547624D01*
X579374Y573024D02*
X550926Y573024D01*
X550926Y569976D01*
X550926Y547624D02*
X550926Y544576D01*
X579374Y569976D02*
X579374Y573024D01*
X575818Y548132D02*
X554482Y548132D01*
X568198Y569468D02*
X575818Y569468D01*
X568198Y569468D02*
X554482Y569468D01*
X544774Y571372D02*
X544776Y571440D01*
X544782Y571509D01*
X544792Y571576D01*
X544806Y571643D01*
X544823Y571710D01*
X544845Y571775D01*
X544870Y571838D01*
X544899Y571900D01*
X544932Y571960D01*
X544968Y572019D01*
X545007Y572075D01*
X545049Y572129D01*
X545095Y572180D01*
X545143Y572228D01*
X545194Y572274D01*
X545248Y572316D01*
X545304Y572355D01*
X545362Y572391D01*
X545423Y572424D01*
X545485Y572453D01*
X545548Y572478D01*
X545613Y572500D01*
X545680Y572517D01*
X545747Y572531D01*
X545814Y572541D01*
X545883Y572547D01*
X545951Y572549D01*
X546019Y572547D01*
X546088Y572541D01*
X546155Y572531D01*
X546222Y572517D01*
X546289Y572500D01*
X546354Y572478D01*
X546417Y572453D01*
X546479Y572424D01*
X546539Y572391D01*
X546598Y572355D01*
X546654Y572316D01*
X546708Y572274D01*
X546759Y572228D01*
X546807Y572180D01*
X546853Y572129D01*
X546895Y572075D01*
X546934Y572019D01*
X546970Y571960D01*
X547003Y571900D01*
X547032Y571838D01*
X547057Y571775D01*
X547079Y571710D01*
X547096Y571643D01*
X547110Y571576D01*
X547120Y571509D01*
X547126Y571440D01*
X547128Y571372D01*
X547126Y571304D01*
X547120Y571235D01*
X547110Y571168D01*
X547096Y571101D01*
X547079Y571034D01*
X547057Y570969D01*
X547032Y570906D01*
X547003Y570844D01*
X546970Y570783D01*
X546934Y570725D01*
X546895Y570669D01*
X546853Y570615D01*
X546807Y570564D01*
X546759Y570516D01*
X546708Y570470D01*
X546654Y570428D01*
X546598Y570389D01*
X546540Y570353D01*
X546479Y570320D01*
X546417Y570291D01*
X546354Y570266D01*
X546289Y570244D01*
X546222Y570227D01*
X546155Y570213D01*
X546088Y570203D01*
X546019Y570197D01*
X545951Y570195D01*
X545883Y570197D01*
X545814Y570203D01*
X545747Y570213D01*
X545680Y570227D01*
X545613Y570244D01*
X545548Y570266D01*
X545485Y570291D01*
X545423Y570320D01*
X545362Y570353D01*
X545304Y570389D01*
X545248Y570428D01*
X545194Y570470D01*
X545143Y570516D01*
X545095Y570564D01*
X545049Y570615D01*
X545007Y570669D01*
X544968Y570725D01*
X544932Y570783D01*
X544899Y570844D01*
X544870Y570906D01*
X544845Y570969D01*
X544823Y571034D01*
X544806Y571101D01*
X544792Y571168D01*
X544782Y571235D01*
X544776Y571304D01*
X544774Y571372D01*
D13*
X556641Y575437D02*
X556641Y578231D01*
X557417Y578231D01*
X557472Y578229D01*
X557527Y578223D01*
X557582Y578213D01*
X557636Y578200D01*
X557688Y578182D01*
X557739Y578161D01*
X557789Y578136D01*
X557837Y578108D01*
X557882Y578076D01*
X557925Y578041D01*
X557966Y578004D01*
X558003Y577963D01*
X558038Y577920D01*
X558070Y577875D01*
X558098Y577827D01*
X558123Y577777D01*
X558144Y577726D01*
X558162Y577674D01*
X558175Y577620D01*
X558185Y577565D01*
X558191Y577510D01*
X558193Y577455D01*
X558193Y576213D01*
X558191Y576160D01*
X558186Y576107D01*
X558177Y576055D01*
X558164Y576004D01*
X558148Y575953D01*
X558129Y575904D01*
X558106Y575856D01*
X558080Y575810D01*
X558051Y575765D01*
X558019Y575723D01*
X557984Y575683D01*
X557947Y575646D01*
X557907Y575611D01*
X557864Y575579D01*
X557820Y575550D01*
X557774Y575524D01*
X557726Y575501D01*
X557677Y575482D01*
X557626Y575466D01*
X557575Y575453D01*
X557523Y575444D01*
X557470Y575439D01*
X557417Y575437D01*
X556641Y575437D01*
X559585Y575437D02*
X559585Y578231D01*
X560361Y578231D01*
X560416Y578229D01*
X560471Y578223D01*
X560526Y578213D01*
X560580Y578200D01*
X560632Y578182D01*
X560683Y578161D01*
X560733Y578136D01*
X560781Y578108D01*
X560826Y578076D01*
X560869Y578041D01*
X560910Y578004D01*
X560947Y577963D01*
X560982Y577920D01*
X561014Y577875D01*
X561042Y577827D01*
X561067Y577777D01*
X561088Y577726D01*
X561106Y577674D01*
X561119Y577620D01*
X561129Y577565D01*
X561135Y577510D01*
X561137Y577455D01*
X561135Y577400D01*
X561129Y577345D01*
X561119Y577290D01*
X561106Y577236D01*
X561088Y577184D01*
X561067Y577133D01*
X561042Y577083D01*
X561014Y577035D01*
X560982Y576990D01*
X560947Y576947D01*
X560910Y576906D01*
X560869Y576869D01*
X560826Y576834D01*
X560781Y576802D01*
X560733Y576774D01*
X560683Y576749D01*
X560632Y576728D01*
X560580Y576710D01*
X560526Y576697D01*
X560471Y576687D01*
X560416Y576681D01*
X560361Y576679D01*
X559585Y576679D01*
X560516Y576679D02*
X561137Y575437D01*
X563086Y575437D02*
X562155Y578231D01*
X564018Y578231D02*
X563086Y575437D01*
X565054Y576213D02*
X565056Y576268D01*
X565062Y576323D01*
X565072Y576378D01*
X565085Y576432D01*
X565103Y576484D01*
X565124Y576535D01*
X565149Y576585D01*
X565177Y576633D01*
X565209Y576678D01*
X565244Y576721D01*
X565281Y576762D01*
X565322Y576799D01*
X565365Y576834D01*
X565410Y576866D01*
X565458Y576894D01*
X565508Y576919D01*
X565559Y576940D01*
X565611Y576958D01*
X565665Y576971D01*
X565720Y576981D01*
X565775Y576987D01*
X565830Y576989D01*
X565885Y576987D01*
X565940Y576981D01*
X565995Y576971D01*
X566049Y576958D01*
X566101Y576940D01*
X566152Y576919D01*
X566202Y576894D01*
X566250Y576866D01*
X566295Y576834D01*
X566338Y576799D01*
X566379Y576762D01*
X566416Y576721D01*
X566451Y576678D01*
X566483Y576633D01*
X566511Y576585D01*
X566536Y576535D01*
X566557Y576484D01*
X566575Y576432D01*
X566588Y576378D01*
X566598Y576323D01*
X566604Y576268D01*
X566606Y576213D01*
X566604Y576158D01*
X566598Y576103D01*
X566588Y576048D01*
X566575Y575994D01*
X566557Y575942D01*
X566536Y575891D01*
X566511Y575841D01*
X566483Y575793D01*
X566451Y575748D01*
X566416Y575705D01*
X566379Y575664D01*
X566338Y575627D01*
X566295Y575592D01*
X566250Y575560D01*
X566202Y575532D01*
X566152Y575507D01*
X566101Y575486D01*
X566049Y575468D01*
X565995Y575455D01*
X565940Y575445D01*
X565885Y575439D01*
X565830Y575437D01*
X565775Y575439D01*
X565720Y575445D01*
X565665Y575455D01*
X565611Y575468D01*
X565559Y575486D01*
X565508Y575507D01*
X565458Y575532D01*
X565410Y575560D01*
X565365Y575592D01*
X565322Y575627D01*
X565281Y575664D01*
X565244Y575705D01*
X565209Y575748D01*
X565177Y575793D01*
X565149Y575841D01*
X565124Y575891D01*
X565103Y575942D01*
X565085Y575994D01*
X565072Y576048D01*
X565062Y576103D01*
X565056Y576158D01*
X565054Y576213D01*
X565209Y577610D02*
X565211Y577659D01*
X565217Y577707D01*
X565226Y577755D01*
X565239Y577802D01*
X565256Y577848D01*
X565277Y577892D01*
X565301Y577934D01*
X565328Y577975D01*
X565358Y578013D01*
X565391Y578049D01*
X565427Y578082D01*
X565465Y578112D01*
X565506Y578139D01*
X565548Y578163D01*
X565592Y578184D01*
X565638Y578201D01*
X565685Y578214D01*
X565733Y578223D01*
X565781Y578229D01*
X565830Y578231D01*
X565879Y578229D01*
X565927Y578223D01*
X565975Y578214D01*
X566022Y578201D01*
X566068Y578184D01*
X566112Y578163D01*
X566154Y578139D01*
X566195Y578112D01*
X566233Y578082D01*
X566269Y578049D01*
X566302Y578013D01*
X566332Y577975D01*
X566359Y577934D01*
X566383Y577892D01*
X566404Y577848D01*
X566421Y577802D01*
X566434Y577755D01*
X566443Y577707D01*
X566449Y577659D01*
X566451Y577610D01*
X566449Y577561D01*
X566443Y577513D01*
X566434Y577465D01*
X566421Y577418D01*
X566404Y577372D01*
X566383Y577328D01*
X566359Y577286D01*
X566332Y577245D01*
X566302Y577207D01*
X566269Y577171D01*
X566233Y577138D01*
X566195Y577108D01*
X566154Y577081D01*
X566112Y577057D01*
X566068Y577036D01*
X566022Y577019D01*
X565975Y577006D01*
X565927Y576997D01*
X565879Y576991D01*
X565830Y576989D01*
X565781Y576991D01*
X565733Y576997D01*
X565685Y577006D01*
X565638Y577019D01*
X565592Y577036D01*
X565548Y577057D01*
X565506Y577081D01*
X565465Y577108D01*
X565427Y577138D01*
X565391Y577171D01*
X565358Y577207D01*
X565328Y577245D01*
X565301Y577286D01*
X565277Y577328D01*
X565256Y577372D01*
X565239Y577418D01*
X565226Y577465D01*
X565217Y577513D01*
X565211Y577561D01*
X565209Y577610D01*
X567797Y576213D02*
X567799Y576268D01*
X567805Y576323D01*
X567815Y576378D01*
X567828Y576432D01*
X567846Y576484D01*
X567867Y576535D01*
X567892Y576585D01*
X567920Y576633D01*
X567952Y576678D01*
X567987Y576721D01*
X568024Y576762D01*
X568065Y576799D01*
X568108Y576834D01*
X568153Y576866D01*
X568201Y576894D01*
X568251Y576919D01*
X568302Y576940D01*
X568354Y576958D01*
X568408Y576971D01*
X568463Y576981D01*
X568518Y576987D01*
X568573Y576989D01*
X568628Y576987D01*
X568683Y576981D01*
X568738Y576971D01*
X568792Y576958D01*
X568844Y576940D01*
X568895Y576919D01*
X568945Y576894D01*
X568993Y576866D01*
X569038Y576834D01*
X569081Y576799D01*
X569122Y576762D01*
X569159Y576721D01*
X569194Y576678D01*
X569226Y576633D01*
X569254Y576585D01*
X569279Y576535D01*
X569300Y576484D01*
X569318Y576432D01*
X569331Y576378D01*
X569341Y576323D01*
X569347Y576268D01*
X569349Y576213D01*
X569347Y576158D01*
X569341Y576103D01*
X569331Y576048D01*
X569318Y575994D01*
X569300Y575942D01*
X569279Y575891D01*
X569254Y575841D01*
X569226Y575793D01*
X569194Y575748D01*
X569159Y575705D01*
X569122Y575664D01*
X569081Y575627D01*
X569038Y575592D01*
X568993Y575560D01*
X568945Y575532D01*
X568895Y575507D01*
X568844Y575486D01*
X568792Y575468D01*
X568738Y575455D01*
X568683Y575445D01*
X568628Y575439D01*
X568573Y575437D01*
X568518Y575439D01*
X568463Y575445D01*
X568408Y575455D01*
X568354Y575468D01*
X568302Y575486D01*
X568251Y575507D01*
X568201Y575532D01*
X568153Y575560D01*
X568108Y575592D01*
X568065Y575627D01*
X568024Y575664D01*
X567987Y575705D01*
X567952Y575748D01*
X567920Y575793D01*
X567892Y575841D01*
X567867Y575891D01*
X567846Y575942D01*
X567828Y575994D01*
X567815Y576048D01*
X567805Y576103D01*
X567799Y576158D01*
X567797Y576213D01*
X567952Y577610D02*
X567954Y577659D01*
X567960Y577707D01*
X567969Y577755D01*
X567982Y577802D01*
X567999Y577848D01*
X568020Y577892D01*
X568044Y577934D01*
X568071Y577975D01*
X568101Y578013D01*
X568134Y578049D01*
X568170Y578082D01*
X568208Y578112D01*
X568249Y578139D01*
X568291Y578163D01*
X568335Y578184D01*
X568381Y578201D01*
X568428Y578214D01*
X568476Y578223D01*
X568524Y578229D01*
X568573Y578231D01*
X568622Y578229D01*
X568670Y578223D01*
X568718Y578214D01*
X568765Y578201D01*
X568811Y578184D01*
X568855Y578163D01*
X568897Y578139D01*
X568938Y578112D01*
X568976Y578082D01*
X569012Y578049D01*
X569045Y578013D01*
X569075Y577975D01*
X569102Y577934D01*
X569126Y577892D01*
X569147Y577848D01*
X569164Y577802D01*
X569177Y577755D01*
X569186Y577707D01*
X569192Y577659D01*
X569194Y577610D01*
X569192Y577561D01*
X569186Y577513D01*
X569177Y577465D01*
X569164Y577418D01*
X569147Y577372D01*
X569126Y577328D01*
X569102Y577286D01*
X569075Y577245D01*
X569045Y577207D01*
X569012Y577171D01*
X568976Y577138D01*
X568938Y577108D01*
X568897Y577081D01*
X568855Y577057D01*
X568811Y577036D01*
X568765Y577019D01*
X568718Y577006D01*
X568670Y576997D01*
X568622Y576991D01*
X568573Y576989D01*
X568524Y576991D01*
X568476Y576997D01*
X568428Y577006D01*
X568381Y577019D01*
X568335Y577036D01*
X568291Y577057D01*
X568249Y577081D01*
X568208Y577108D01*
X568170Y577138D01*
X568134Y577171D01*
X568101Y577207D01*
X568071Y577245D01*
X568044Y577286D01*
X568020Y577328D01*
X567999Y577372D01*
X567982Y577418D01*
X567969Y577465D01*
X567960Y577513D01*
X567954Y577561D01*
X567952Y577610D01*
X570540Y575437D02*
X571316Y575437D01*
X571371Y575439D01*
X571426Y575445D01*
X571481Y575455D01*
X571535Y575468D01*
X571587Y575486D01*
X571638Y575507D01*
X571688Y575532D01*
X571736Y575560D01*
X571781Y575592D01*
X571824Y575627D01*
X571865Y575664D01*
X571902Y575705D01*
X571937Y575748D01*
X571969Y575793D01*
X571997Y575841D01*
X572022Y575891D01*
X572043Y575942D01*
X572061Y575994D01*
X572074Y576048D01*
X572084Y576103D01*
X572090Y576158D01*
X572092Y576213D01*
X572090Y576268D01*
X572084Y576323D01*
X572074Y576378D01*
X572061Y576432D01*
X572043Y576484D01*
X572022Y576535D01*
X571997Y576585D01*
X571969Y576633D01*
X571937Y576678D01*
X571902Y576721D01*
X571865Y576762D01*
X571824Y576799D01*
X571781Y576834D01*
X571736Y576866D01*
X571688Y576894D01*
X571638Y576919D01*
X571587Y576940D01*
X571535Y576958D01*
X571481Y576971D01*
X571426Y576981D01*
X571371Y576987D01*
X571316Y576989D01*
X571471Y578231D02*
X570540Y578231D01*
X571471Y578231D02*
X571520Y578229D01*
X571568Y578223D01*
X571616Y578214D01*
X571663Y578201D01*
X571709Y578184D01*
X571753Y578163D01*
X571795Y578139D01*
X571836Y578112D01*
X571874Y578082D01*
X571910Y578049D01*
X571943Y578013D01*
X571973Y577975D01*
X572000Y577934D01*
X572024Y577892D01*
X572045Y577848D01*
X572062Y577802D01*
X572075Y577755D01*
X572084Y577707D01*
X572090Y577659D01*
X572092Y577610D01*
X572090Y577561D01*
X572084Y577513D01*
X572075Y577465D01*
X572062Y577418D01*
X572045Y577372D01*
X572024Y577328D01*
X572000Y577286D01*
X571973Y577245D01*
X571943Y577207D01*
X571910Y577171D01*
X571874Y577138D01*
X571836Y577108D01*
X571795Y577081D01*
X571753Y577057D01*
X571709Y577036D01*
X571663Y577019D01*
X571616Y577006D01*
X571568Y576997D01*
X571520Y576991D01*
X571471Y576989D01*
X570850Y576989D01*
X573283Y576213D02*
X573285Y576268D01*
X573291Y576323D01*
X573301Y576378D01*
X573314Y576432D01*
X573332Y576484D01*
X573353Y576535D01*
X573378Y576585D01*
X573406Y576633D01*
X573438Y576678D01*
X573473Y576721D01*
X573510Y576762D01*
X573551Y576799D01*
X573594Y576834D01*
X573639Y576866D01*
X573687Y576894D01*
X573737Y576919D01*
X573788Y576940D01*
X573840Y576958D01*
X573894Y576971D01*
X573949Y576981D01*
X574004Y576987D01*
X574059Y576989D01*
X574114Y576987D01*
X574169Y576981D01*
X574224Y576971D01*
X574278Y576958D01*
X574330Y576940D01*
X574381Y576919D01*
X574431Y576894D01*
X574479Y576866D01*
X574524Y576834D01*
X574567Y576799D01*
X574608Y576762D01*
X574645Y576721D01*
X574680Y576678D01*
X574712Y576633D01*
X574740Y576585D01*
X574765Y576535D01*
X574786Y576484D01*
X574804Y576432D01*
X574817Y576378D01*
X574827Y576323D01*
X574833Y576268D01*
X574835Y576213D01*
X574833Y576158D01*
X574827Y576103D01*
X574817Y576048D01*
X574804Y575994D01*
X574786Y575942D01*
X574765Y575891D01*
X574740Y575841D01*
X574712Y575793D01*
X574680Y575748D01*
X574645Y575705D01*
X574608Y575664D01*
X574567Y575627D01*
X574524Y575592D01*
X574479Y575560D01*
X574431Y575532D01*
X574381Y575507D01*
X574330Y575486D01*
X574278Y575468D01*
X574224Y575455D01*
X574169Y575445D01*
X574114Y575439D01*
X574059Y575437D01*
X574004Y575439D01*
X573949Y575445D01*
X573894Y575455D01*
X573840Y575468D01*
X573788Y575486D01*
X573737Y575507D01*
X573687Y575532D01*
X573639Y575560D01*
X573594Y575592D01*
X573551Y575627D01*
X573510Y575664D01*
X573473Y575705D01*
X573438Y575748D01*
X573406Y575793D01*
X573378Y575841D01*
X573353Y575891D01*
X573332Y575942D01*
X573314Y575994D01*
X573301Y576048D01*
X573291Y576103D01*
X573285Y576158D01*
X573283Y576213D01*
X573438Y577610D02*
X573440Y577659D01*
X573446Y577707D01*
X573455Y577755D01*
X573468Y577802D01*
X573485Y577848D01*
X573506Y577892D01*
X573530Y577934D01*
X573557Y577975D01*
X573587Y578013D01*
X573620Y578049D01*
X573656Y578082D01*
X573694Y578112D01*
X573735Y578139D01*
X573777Y578163D01*
X573821Y578184D01*
X573867Y578201D01*
X573914Y578214D01*
X573962Y578223D01*
X574010Y578229D01*
X574059Y578231D01*
X574108Y578229D01*
X574156Y578223D01*
X574204Y578214D01*
X574251Y578201D01*
X574297Y578184D01*
X574341Y578163D01*
X574383Y578139D01*
X574424Y578112D01*
X574462Y578082D01*
X574498Y578049D01*
X574531Y578013D01*
X574561Y577975D01*
X574588Y577934D01*
X574612Y577892D01*
X574633Y577848D01*
X574650Y577802D01*
X574663Y577755D01*
X574672Y577707D01*
X574678Y577659D01*
X574680Y577610D01*
X574678Y577561D01*
X574672Y577513D01*
X574663Y577465D01*
X574650Y577418D01*
X574633Y577372D01*
X574612Y577328D01*
X574588Y577286D01*
X574561Y577245D01*
X574531Y577207D01*
X574498Y577171D01*
X574462Y577138D01*
X574424Y577108D01*
X574383Y577081D01*
X574341Y577057D01*
X574297Y577036D01*
X574251Y577019D01*
X574204Y577006D01*
X574156Y576997D01*
X574108Y576991D01*
X574059Y576989D01*
X574010Y576991D01*
X573962Y576997D01*
X573914Y577006D01*
X573867Y577019D01*
X573821Y577036D01*
X573777Y577057D01*
X573735Y577081D01*
X573694Y577108D01*
X573656Y577138D01*
X573620Y577171D01*
X573587Y577207D01*
X573557Y577245D01*
X573530Y577286D01*
X573506Y577328D01*
X573485Y577372D01*
X573468Y577418D01*
X573455Y577465D01*
X573446Y577513D01*
X573440Y577561D01*
X573438Y577610D01*
X505559Y581787D02*
X504938Y581787D01*
X504889Y581789D01*
X504841Y581795D01*
X504793Y581804D01*
X504746Y581817D01*
X504700Y581834D01*
X504656Y581855D01*
X504614Y581879D01*
X504573Y581906D01*
X504535Y581936D01*
X504499Y581969D01*
X504466Y582005D01*
X504436Y582043D01*
X504409Y582084D01*
X504385Y582126D01*
X504364Y582170D01*
X504347Y582216D01*
X504334Y582263D01*
X504325Y582311D01*
X504319Y582359D01*
X504317Y582408D01*
X504317Y583960D01*
X504319Y584009D01*
X504325Y584057D01*
X504334Y584105D01*
X504347Y584152D01*
X504364Y584198D01*
X504385Y584242D01*
X504409Y584284D01*
X504436Y584325D01*
X504466Y584363D01*
X504499Y584399D01*
X504535Y584432D01*
X504573Y584462D01*
X504614Y584489D01*
X504656Y584513D01*
X504700Y584534D01*
X504746Y584551D01*
X504793Y584564D01*
X504841Y584573D01*
X504889Y584579D01*
X504938Y584581D01*
X505559Y584581D01*
X507465Y584582D02*
X507515Y584580D01*
X507564Y584575D01*
X507614Y584566D01*
X507662Y584554D01*
X507709Y584538D01*
X507755Y584519D01*
X507800Y584496D01*
X507843Y584471D01*
X507884Y584443D01*
X507923Y584411D01*
X507959Y584377D01*
X507993Y584341D01*
X508025Y584302D01*
X508053Y584261D01*
X508078Y584218D01*
X508101Y584173D01*
X508120Y584127D01*
X508136Y584080D01*
X508148Y584032D01*
X508157Y583982D01*
X508162Y583933D01*
X508164Y583883D01*
X507465Y584581D02*
X507409Y584579D01*
X507352Y584574D01*
X507297Y584565D01*
X507242Y584553D01*
X507188Y584537D01*
X507135Y584518D01*
X507083Y584496D01*
X507033Y584470D01*
X506984Y584441D01*
X506937Y584409D01*
X506893Y584375D01*
X506851Y584338D01*
X506811Y584298D01*
X506773Y584255D01*
X506739Y584211D01*
X506707Y584164D01*
X506679Y584116D01*
X506653Y584065D01*
X506631Y584013D01*
X506612Y583960D01*
X507930Y583340D02*
X507966Y583376D01*
X507999Y583414D01*
X508029Y583455D01*
X508056Y583498D01*
X508081Y583542D01*
X508102Y583588D01*
X508121Y583635D01*
X508136Y583683D01*
X508148Y583732D01*
X508156Y583782D01*
X508161Y583832D01*
X508163Y583883D01*
X507931Y583339D02*
X506611Y581787D01*
X508163Y581787D01*
X509354Y582408D02*
X509975Y584581D01*
X509354Y582408D02*
X510907Y582408D01*
X510441Y583029D02*
X510441Y581787D01*
X597761Y538607D02*
X598495Y538607D01*
X597761Y538607D02*
X597709Y538609D01*
X597657Y538614D01*
X597605Y538624D01*
X597554Y538637D01*
X597504Y538653D01*
X597456Y538673D01*
X597409Y538697D01*
X597364Y538724D01*
X597321Y538753D01*
X597280Y538786D01*
X597242Y538822D01*
X597206Y538860D01*
X597173Y538901D01*
X597144Y538944D01*
X597117Y538989D01*
X597093Y539036D01*
X597073Y539084D01*
X597057Y539134D01*
X597044Y539185D01*
X597034Y539237D01*
X597029Y539289D01*
X597027Y539341D01*
X597027Y541175D01*
X597029Y541227D01*
X597034Y541279D01*
X597044Y541331D01*
X597057Y541382D01*
X597073Y541432D01*
X597093Y541480D01*
X597117Y541527D01*
X597144Y541572D01*
X597173Y541615D01*
X597206Y541656D01*
X597242Y541694D01*
X597280Y541730D01*
X597321Y541763D01*
X597364Y541792D01*
X597409Y541819D01*
X597456Y541843D01*
X597504Y541863D01*
X597554Y541879D01*
X597605Y541892D01*
X597657Y541902D01*
X597709Y541907D01*
X597761Y541909D01*
X598495Y541909D01*
X600712Y541910D02*
X600768Y541908D01*
X600824Y541902D01*
X600880Y541893D01*
X600935Y541879D01*
X600989Y541862D01*
X601041Y541842D01*
X601092Y541817D01*
X601141Y541790D01*
X601188Y541759D01*
X601233Y541725D01*
X601276Y541688D01*
X601316Y541648D01*
X601353Y541605D01*
X601387Y541560D01*
X601418Y541513D01*
X601445Y541464D01*
X601470Y541413D01*
X601490Y541361D01*
X601507Y541307D01*
X601521Y541252D01*
X601530Y541196D01*
X601536Y541140D01*
X601538Y541084D01*
X600712Y541909D02*
X600648Y541907D01*
X600585Y541901D01*
X600522Y541892D01*
X600460Y541879D01*
X600399Y541862D01*
X600339Y541841D01*
X600280Y541817D01*
X600223Y541790D01*
X600167Y541759D01*
X600114Y541724D01*
X600063Y541687D01*
X600013Y541647D01*
X599967Y541603D01*
X599923Y541557D01*
X599882Y541509D01*
X599844Y541458D01*
X599809Y541405D01*
X599777Y541350D01*
X599749Y541293D01*
X599724Y541235D01*
X599703Y541175D01*
X601263Y540442D02*
X601301Y540481D01*
X601338Y540523D01*
X601371Y540567D01*
X601402Y540612D01*
X601430Y540660D01*
X601455Y540709D01*
X601477Y540760D01*
X601495Y540812D01*
X601511Y540865D01*
X601523Y540919D01*
X601531Y540974D01*
X601536Y541029D01*
X601538Y541084D01*
X601262Y540441D02*
X599703Y538607D01*
X601537Y538607D01*
X602903Y539524D02*
X602905Y539583D01*
X602911Y539641D01*
X602920Y539699D01*
X602933Y539757D01*
X602950Y539813D01*
X602970Y539868D01*
X602994Y539922D01*
X603021Y539974D01*
X603051Y540024D01*
X603085Y540072D01*
X603122Y540118D01*
X603161Y540162D01*
X603204Y540203D01*
X603248Y540241D01*
X603295Y540276D01*
X603345Y540308D01*
X603396Y540337D01*
X603449Y540363D01*
X603503Y540385D01*
X603559Y540403D01*
X603616Y540418D01*
X603674Y540429D01*
X603732Y540437D01*
X603791Y540441D01*
X603849Y540441D01*
X603908Y540437D01*
X603966Y540429D01*
X604024Y540418D01*
X604081Y540403D01*
X604137Y540385D01*
X604191Y540363D01*
X604244Y540337D01*
X604295Y540308D01*
X604345Y540276D01*
X604392Y540241D01*
X604436Y540203D01*
X604479Y540162D01*
X604518Y540118D01*
X604555Y540072D01*
X604589Y540024D01*
X604619Y539974D01*
X604646Y539922D01*
X604670Y539868D01*
X604690Y539813D01*
X604707Y539757D01*
X604720Y539699D01*
X604729Y539641D01*
X604735Y539583D01*
X604737Y539524D01*
X604735Y539465D01*
X604729Y539407D01*
X604720Y539349D01*
X604707Y539291D01*
X604690Y539235D01*
X604670Y539180D01*
X604646Y539126D01*
X604619Y539074D01*
X604589Y539024D01*
X604555Y538976D01*
X604518Y538930D01*
X604479Y538886D01*
X604436Y538845D01*
X604392Y538807D01*
X604345Y538772D01*
X604295Y538740D01*
X604244Y538711D01*
X604191Y538685D01*
X604137Y538663D01*
X604081Y538645D01*
X604024Y538630D01*
X603966Y538619D01*
X603908Y538611D01*
X603849Y538607D01*
X603791Y538607D01*
X603732Y538611D01*
X603674Y538619D01*
X603616Y538630D01*
X603559Y538645D01*
X603503Y538663D01*
X603449Y538685D01*
X603396Y538711D01*
X603345Y538740D01*
X603295Y538772D01*
X603248Y538807D01*
X603204Y538845D01*
X603161Y538886D01*
X603122Y538930D01*
X603085Y538976D01*
X603051Y539024D01*
X603021Y539074D01*
X602994Y539126D01*
X602970Y539180D01*
X602950Y539235D01*
X602933Y539291D01*
X602920Y539349D01*
X602911Y539407D01*
X602905Y539465D01*
X602903Y539524D01*
X603086Y541175D02*
X603088Y541227D01*
X603093Y541279D01*
X603103Y541331D01*
X603116Y541382D01*
X603132Y541432D01*
X603152Y541480D01*
X603176Y541527D01*
X603203Y541572D01*
X603232Y541615D01*
X603265Y541656D01*
X603301Y541694D01*
X603339Y541730D01*
X603380Y541763D01*
X603423Y541792D01*
X603468Y541819D01*
X603515Y541843D01*
X603563Y541863D01*
X603613Y541879D01*
X603664Y541892D01*
X603716Y541902D01*
X603768Y541907D01*
X603820Y541909D01*
X603872Y541907D01*
X603924Y541902D01*
X603976Y541892D01*
X604027Y541879D01*
X604077Y541863D01*
X604125Y541843D01*
X604172Y541819D01*
X604217Y541792D01*
X604260Y541763D01*
X604301Y541730D01*
X604339Y541694D01*
X604375Y541656D01*
X604408Y541615D01*
X604437Y541572D01*
X604464Y541527D01*
X604488Y541480D01*
X604508Y541432D01*
X604524Y541382D01*
X604537Y541331D01*
X604547Y541279D01*
X604552Y541227D01*
X604554Y541175D01*
X604552Y541123D01*
X604547Y541071D01*
X604537Y541019D01*
X604524Y540968D01*
X604508Y540918D01*
X604488Y540870D01*
X604464Y540823D01*
X604437Y540778D01*
X604408Y540735D01*
X604375Y540694D01*
X604339Y540656D01*
X604301Y540620D01*
X604260Y540587D01*
X604217Y540558D01*
X604172Y540531D01*
X604125Y540507D01*
X604077Y540487D01*
X604027Y540471D01*
X603976Y540458D01*
X603924Y540448D01*
X603872Y540443D01*
X603820Y540441D01*
X603768Y540443D01*
X603716Y540448D01*
X603664Y540458D01*
X603613Y540471D01*
X603563Y540487D01*
X603515Y540507D01*
X603468Y540531D01*
X603423Y540558D01*
X603380Y540587D01*
X603339Y540620D01*
X603301Y540656D01*
X603265Y540694D01*
X603232Y540735D01*
X603203Y540778D01*
X603176Y540823D01*
X603152Y540870D01*
X603132Y540918D01*
X603116Y540968D01*
X603103Y541019D01*
X603093Y541071D01*
X603088Y541123D01*
X603086Y541175D01*
X567563Y591693D02*
X564261Y591693D01*
X564261Y592610D01*
X564263Y592669D01*
X564269Y592727D01*
X564278Y592785D01*
X564291Y592843D01*
X564308Y592899D01*
X564328Y592954D01*
X564352Y593008D01*
X564379Y593060D01*
X564409Y593110D01*
X564443Y593158D01*
X564480Y593204D01*
X564519Y593248D01*
X564562Y593289D01*
X564606Y593327D01*
X564653Y593362D01*
X564703Y593394D01*
X564754Y593423D01*
X564807Y593449D01*
X564861Y593471D01*
X564917Y593489D01*
X564974Y593504D01*
X565032Y593515D01*
X565090Y593523D01*
X565149Y593527D01*
X565207Y593527D01*
X565266Y593523D01*
X565324Y593515D01*
X565382Y593504D01*
X565439Y593489D01*
X565495Y593471D01*
X565549Y593449D01*
X565602Y593423D01*
X565653Y593394D01*
X565703Y593362D01*
X565750Y593327D01*
X565794Y593289D01*
X565837Y593248D01*
X565876Y593204D01*
X565913Y593158D01*
X565947Y593110D01*
X565977Y593060D01*
X566004Y593008D01*
X566028Y592954D01*
X566048Y592899D01*
X566065Y592843D01*
X566078Y592785D01*
X566087Y592727D01*
X566093Y592669D01*
X566095Y592610D01*
X566095Y591693D01*
X566095Y592794D02*
X567563Y593527D01*
X567563Y594874D02*
X567563Y595791D01*
X567561Y595850D01*
X567555Y595908D01*
X567546Y595966D01*
X567533Y596024D01*
X567516Y596080D01*
X567496Y596135D01*
X567472Y596189D01*
X567445Y596241D01*
X567415Y596291D01*
X567381Y596339D01*
X567344Y596385D01*
X567305Y596429D01*
X567262Y596470D01*
X567218Y596508D01*
X567171Y596543D01*
X567121Y596575D01*
X567070Y596604D01*
X567017Y596630D01*
X566963Y596652D01*
X566907Y596670D01*
X566850Y596685D01*
X566792Y596696D01*
X566734Y596704D01*
X566675Y596708D01*
X566617Y596708D01*
X566558Y596704D01*
X566500Y596696D01*
X566442Y596685D01*
X566385Y596670D01*
X566329Y596652D01*
X566275Y596630D01*
X566222Y596604D01*
X566171Y596575D01*
X566121Y596543D01*
X566074Y596508D01*
X566030Y596470D01*
X565987Y596429D01*
X565948Y596385D01*
X565911Y596339D01*
X565877Y596291D01*
X565847Y596241D01*
X565820Y596189D01*
X565796Y596135D01*
X565776Y596080D01*
X565759Y596024D01*
X565746Y595966D01*
X565737Y595908D01*
X565731Y595850D01*
X565729Y595791D01*
X564261Y595975D02*
X564261Y594874D01*
X564261Y595975D02*
X564263Y596027D01*
X564268Y596079D01*
X564278Y596131D01*
X564291Y596182D01*
X564307Y596232D01*
X564327Y596280D01*
X564351Y596327D01*
X564378Y596372D01*
X564407Y596415D01*
X564440Y596456D01*
X564476Y596494D01*
X564514Y596530D01*
X564555Y596563D01*
X564598Y596592D01*
X564643Y596619D01*
X564690Y596643D01*
X564738Y596663D01*
X564788Y596679D01*
X564839Y596692D01*
X564891Y596702D01*
X564943Y596707D01*
X564995Y596709D01*
X565047Y596707D01*
X565099Y596702D01*
X565151Y596692D01*
X565202Y596679D01*
X565252Y596663D01*
X565300Y596643D01*
X565347Y596619D01*
X565392Y596592D01*
X565435Y596563D01*
X565476Y596530D01*
X565514Y596494D01*
X565550Y596456D01*
X565583Y596415D01*
X565612Y596372D01*
X565639Y596327D01*
X565663Y596280D01*
X565683Y596232D01*
X565699Y596182D01*
X565712Y596131D01*
X565722Y596079D01*
X565727Y596027D01*
X565729Y595975D01*
X565729Y595241D01*
X564261Y599083D02*
X564263Y599139D01*
X564269Y599195D01*
X564278Y599251D01*
X564292Y599306D01*
X564309Y599360D01*
X564329Y599412D01*
X564354Y599463D01*
X564381Y599512D01*
X564412Y599559D01*
X564446Y599604D01*
X564483Y599647D01*
X564523Y599687D01*
X564566Y599724D01*
X564611Y599758D01*
X564658Y599789D01*
X564707Y599816D01*
X564758Y599841D01*
X564810Y599861D01*
X564864Y599878D01*
X564919Y599892D01*
X564975Y599901D01*
X565031Y599907D01*
X565087Y599909D01*
X564261Y599083D02*
X564263Y599019D01*
X564269Y598956D01*
X564278Y598893D01*
X564291Y598831D01*
X564308Y598770D01*
X564329Y598710D01*
X564353Y598651D01*
X564380Y598594D01*
X564411Y598538D01*
X564446Y598485D01*
X564483Y598434D01*
X564523Y598384D01*
X564567Y598338D01*
X564613Y598294D01*
X564661Y598253D01*
X564712Y598215D01*
X564765Y598180D01*
X564820Y598148D01*
X564877Y598120D01*
X564935Y598095D01*
X564995Y598074D01*
X565729Y599634D02*
X565690Y599672D01*
X565648Y599709D01*
X565604Y599742D01*
X565559Y599773D01*
X565511Y599801D01*
X565462Y599826D01*
X565411Y599848D01*
X565359Y599866D01*
X565306Y599882D01*
X565252Y599894D01*
X565197Y599902D01*
X565142Y599907D01*
X565087Y599909D01*
X565729Y599633D02*
X567563Y598074D01*
X567563Y599909D01*
D17*
X462600Y96280D02*
X400700Y96280D01*
X400700Y40880D01*
X462600Y40880D01*
X462900Y40880D02*
X462900Y96280D01*
D10*
X481556Y60397D02*
X481556Y58986D01*
X481556Y60397D02*
X481558Y60471D01*
X481564Y60544D01*
X481573Y60618D01*
X481587Y60690D01*
X481604Y60762D01*
X481625Y60833D01*
X481650Y60903D01*
X481678Y60971D01*
X481710Y61038D01*
X481745Y61103D01*
X481784Y61165D01*
X481825Y61226D01*
X481870Y61285D01*
X481918Y61341D01*
X481969Y61395D01*
X482023Y61446D01*
X482079Y61494D01*
X482138Y61539D01*
X482199Y61580D01*
X482262Y61619D01*
X482326Y61654D01*
X482393Y61686D01*
X482461Y61714D01*
X482531Y61739D01*
X482602Y61760D01*
X482674Y61777D01*
X482746Y61791D01*
X482820Y61800D01*
X482893Y61806D01*
X482967Y61808D01*
X483041Y61806D01*
X483114Y61800D01*
X483188Y61791D01*
X483260Y61777D01*
X483332Y61760D01*
X483403Y61739D01*
X483473Y61714D01*
X483541Y61686D01*
X483608Y61654D01*
X483673Y61619D01*
X483735Y61580D01*
X483796Y61539D01*
X483855Y61494D01*
X483911Y61446D01*
X483965Y61395D01*
X484016Y61341D01*
X484064Y61285D01*
X484109Y61226D01*
X484150Y61165D01*
X484189Y61103D01*
X484224Y61038D01*
X484256Y60971D01*
X484284Y60903D01*
X484309Y60833D01*
X484330Y60762D01*
X484347Y60690D01*
X484361Y60618D01*
X484370Y60544D01*
X484376Y60471D01*
X484378Y60397D01*
X484378Y58986D01*
X479298Y58986D01*
X479298Y60397D01*
X479300Y60463D01*
X479306Y60528D01*
X479315Y60593D01*
X479328Y60657D01*
X479345Y60721D01*
X479366Y60783D01*
X479390Y60844D01*
X479418Y60904D01*
X479449Y60962D01*
X479484Y61017D01*
X479521Y61071D01*
X479562Y61123D01*
X479606Y61172D01*
X479652Y61218D01*
X479701Y61262D01*
X479753Y61303D01*
X479807Y61340D01*
X479863Y61375D01*
X479920Y61406D01*
X479980Y61434D01*
X480041Y61458D01*
X480103Y61479D01*
X480167Y61496D01*
X480231Y61509D01*
X480296Y61518D01*
X480361Y61524D01*
X480427Y61526D01*
X480493Y61524D01*
X480558Y61518D01*
X480623Y61509D01*
X480687Y61496D01*
X480751Y61479D01*
X480813Y61458D01*
X480874Y61434D01*
X480934Y61406D01*
X480992Y61375D01*
X481047Y61340D01*
X481101Y61303D01*
X481153Y61262D01*
X481202Y61218D01*
X481248Y61172D01*
X481292Y61123D01*
X481333Y61071D01*
X481370Y61017D01*
X481405Y60962D01*
X481436Y60904D01*
X481464Y60844D01*
X481488Y60783D01*
X481509Y60721D01*
X481526Y60657D01*
X481539Y60593D01*
X481548Y60528D01*
X481554Y60463D01*
X481556Y60397D01*
X484378Y63882D02*
X479298Y65575D01*
X484378Y67269D01*
X483108Y66845D02*
X483108Y64305D01*
X484378Y70696D02*
X479298Y70696D01*
X479298Y69285D02*
X479298Y72107D01*
X479298Y75451D02*
X484378Y75451D01*
X479298Y74040D02*
X479298Y76862D01*
D17*
X464800Y169150D02*
X464800Y249950D01*
X399800Y249950D01*
X399800Y169150D01*
X464800Y169150D01*
X408672Y614474D02*
X616472Y614474D01*
X616472Y679474D01*
X408672Y679474D01*
X408672Y614474D01*
X403593Y614472D02*
X195793Y614472D01*
X403593Y614472D02*
X403593Y679472D01*
X195793Y679472D01*
X195793Y614472D01*
X400800Y162320D02*
X462700Y162320D01*
X400800Y162320D02*
X400800Y106920D01*
X462700Y106920D01*
X463000Y106920D02*
X463000Y162320D01*
D10*
X470408Y126068D02*
X475488Y126068D01*
X470408Y126068D02*
X470408Y127479D01*
X470410Y127553D01*
X470416Y127626D01*
X470425Y127700D01*
X470439Y127772D01*
X470456Y127844D01*
X470477Y127915D01*
X470502Y127985D01*
X470530Y128053D01*
X470562Y128120D01*
X470597Y128185D01*
X470636Y128247D01*
X470677Y128308D01*
X470722Y128367D01*
X470770Y128423D01*
X470821Y128477D01*
X470875Y128528D01*
X470931Y128576D01*
X470990Y128621D01*
X471051Y128662D01*
X471114Y128701D01*
X471178Y128736D01*
X471245Y128768D01*
X471313Y128796D01*
X471383Y128821D01*
X471454Y128842D01*
X471526Y128859D01*
X471598Y128873D01*
X471672Y128882D01*
X471745Y128888D01*
X471819Y128890D01*
X471893Y128888D01*
X471966Y128882D01*
X472040Y128873D01*
X472112Y128859D01*
X472184Y128842D01*
X472255Y128821D01*
X472325Y128796D01*
X472393Y128768D01*
X472460Y128736D01*
X472525Y128701D01*
X472587Y128662D01*
X472648Y128621D01*
X472707Y128576D01*
X472763Y128528D01*
X472817Y128477D01*
X472868Y128423D01*
X472916Y128367D01*
X472961Y128308D01*
X473002Y128247D01*
X473041Y128185D01*
X473076Y128120D01*
X473108Y128053D01*
X473136Y127985D01*
X473161Y127915D01*
X473182Y127844D01*
X473199Y127772D01*
X473213Y127700D01*
X473222Y127626D01*
X473228Y127553D01*
X473230Y127479D01*
X473230Y126068D01*
X474077Y131429D02*
X470408Y131429D01*
X474077Y131429D02*
X474151Y131431D01*
X474224Y131437D01*
X474298Y131446D01*
X474370Y131460D01*
X474442Y131477D01*
X474513Y131498D01*
X474583Y131523D01*
X474651Y131551D01*
X474718Y131583D01*
X474783Y131618D01*
X474845Y131657D01*
X474906Y131698D01*
X474965Y131743D01*
X475021Y131791D01*
X475075Y131842D01*
X475126Y131896D01*
X475174Y131952D01*
X475219Y132011D01*
X475260Y132072D01*
X475299Y132135D01*
X475334Y132199D01*
X475366Y132266D01*
X475394Y132334D01*
X475419Y132404D01*
X475440Y132475D01*
X475457Y132547D01*
X475471Y132619D01*
X475480Y132693D01*
X475486Y132766D01*
X475488Y132840D01*
X475486Y132914D01*
X475480Y132987D01*
X475471Y133061D01*
X475457Y133133D01*
X475440Y133205D01*
X475419Y133276D01*
X475394Y133346D01*
X475366Y133414D01*
X475334Y133481D01*
X475299Y133546D01*
X475260Y133608D01*
X475219Y133669D01*
X475174Y133728D01*
X475126Y133784D01*
X475075Y133838D01*
X475021Y133889D01*
X474965Y133937D01*
X474906Y133982D01*
X474845Y134023D01*
X474783Y134062D01*
X474718Y134097D01*
X474651Y134129D01*
X474583Y134157D01*
X474513Y134182D01*
X474442Y134203D01*
X474370Y134220D01*
X474298Y134234D01*
X474224Y134243D01*
X474151Y134249D01*
X474077Y134251D01*
X470408Y134251D01*
X470408Y137364D02*
X475488Y137364D01*
X473230Y139058D02*
X470408Y137364D01*
X473230Y139058D02*
X470408Y140751D01*
X475488Y140751D01*
X475488Y143990D02*
X470408Y143990D01*
X470408Y145401D01*
X470410Y145475D01*
X470416Y145548D01*
X470425Y145622D01*
X470439Y145694D01*
X470456Y145766D01*
X470477Y145837D01*
X470502Y145907D01*
X470530Y145975D01*
X470562Y146042D01*
X470597Y146107D01*
X470636Y146169D01*
X470677Y146230D01*
X470722Y146289D01*
X470770Y146345D01*
X470821Y146399D01*
X470875Y146450D01*
X470931Y146498D01*
X470990Y146543D01*
X471051Y146584D01*
X471114Y146623D01*
X471178Y146658D01*
X471245Y146690D01*
X471313Y146718D01*
X471383Y146743D01*
X471454Y146764D01*
X471526Y146781D01*
X471598Y146795D01*
X471672Y146804D01*
X471745Y146810D01*
X471819Y146812D01*
X471893Y146810D01*
X471966Y146804D01*
X472040Y146795D01*
X472112Y146781D01*
X472184Y146764D01*
X472255Y146743D01*
X472325Y146718D01*
X472393Y146690D01*
X472460Y146658D01*
X472525Y146623D01*
X472587Y146584D01*
X472648Y146543D01*
X472707Y146498D01*
X472763Y146450D01*
X472817Y146399D01*
X472868Y146345D01*
X472916Y146289D01*
X472961Y146230D01*
X473002Y146169D01*
X473041Y146107D01*
X473076Y146042D01*
X473108Y145975D01*
X473136Y145907D01*
X473161Y145837D01*
X473182Y145766D01*
X473199Y145694D01*
X473213Y145622D01*
X473222Y145548D01*
X473228Y145475D01*
X473230Y145401D01*
X473230Y143990D01*
D14*
X514096Y111506D02*
X532384Y111506D01*
X532384Y145034D02*
X514096Y145034D01*
X501396Y141478D02*
X501342Y141489D01*
X501288Y141497D01*
X501233Y141501D01*
X501179Y141501D01*
X501124Y141497D01*
X501070Y141489D01*
X501016Y141478D01*
X500963Y141463D01*
X500912Y141444D01*
X500862Y141422D01*
X500814Y141396D01*
X500767Y141367D01*
X500723Y141335D01*
X500681Y141299D01*
X500641Y141261D01*
X500605Y141221D01*
X500571Y141177D01*
X500540Y141132D01*
X500513Y141085D01*
X500489Y141035D01*
X500468Y140984D01*
X500451Y140932D01*
X500438Y140879D01*
X500429Y140825D01*
X500423Y140771D01*
X500421Y140716D01*
X500423Y140661D01*
X500429Y140607D01*
X500438Y140553D01*
X500451Y140500D01*
X500468Y140448D01*
X500489Y140397D01*
X500513Y140347D01*
X500540Y140300D01*
X500571Y140255D01*
X500605Y140211D01*
X500641Y140171D01*
X500681Y140133D01*
X500723Y140097D01*
X500767Y140065D01*
X500814Y140036D01*
X500862Y140010D01*
X500912Y139988D01*
X500963Y139969D01*
X501016Y139954D01*
X501070Y139943D01*
X501124Y139935D01*
X501179Y139931D01*
X501233Y139931D01*
X501288Y139935D01*
X501342Y139943D01*
X501396Y139954D01*
D13*
X512191Y108331D02*
X512191Y105537D01*
X513122Y106779D02*
X512191Y108331D01*
X513122Y106779D02*
X514054Y108331D01*
X514054Y105537D01*
X515209Y105537D02*
X516140Y108331D01*
X517071Y105537D01*
X516838Y106236D02*
X515441Y106236D01*
X517952Y105537D02*
X519814Y108331D01*
X517952Y108331D02*
X519814Y105537D01*
X520850Y107710D02*
X521626Y108331D01*
X521626Y105537D01*
X520850Y105537D02*
X522402Y105537D01*
X523593Y106158D02*
X524214Y108331D01*
X523593Y106158D02*
X525146Y106158D01*
X524680Y106779D02*
X524680Y105537D01*
X526337Y106313D02*
X526339Y106368D01*
X526345Y106423D01*
X526355Y106478D01*
X526368Y106532D01*
X526386Y106584D01*
X526407Y106635D01*
X526432Y106685D01*
X526460Y106733D01*
X526492Y106778D01*
X526527Y106821D01*
X526564Y106862D01*
X526605Y106899D01*
X526648Y106934D01*
X526693Y106966D01*
X526741Y106994D01*
X526791Y107019D01*
X526842Y107040D01*
X526894Y107058D01*
X526948Y107071D01*
X527003Y107081D01*
X527058Y107087D01*
X527113Y107089D01*
X527168Y107087D01*
X527223Y107081D01*
X527278Y107071D01*
X527332Y107058D01*
X527384Y107040D01*
X527435Y107019D01*
X527485Y106994D01*
X527533Y106966D01*
X527578Y106934D01*
X527621Y106899D01*
X527662Y106862D01*
X527699Y106821D01*
X527734Y106778D01*
X527766Y106733D01*
X527794Y106685D01*
X527819Y106635D01*
X527840Y106584D01*
X527858Y106532D01*
X527871Y106478D01*
X527881Y106423D01*
X527887Y106368D01*
X527889Y106313D01*
X527887Y106258D01*
X527881Y106203D01*
X527871Y106148D01*
X527858Y106094D01*
X527840Y106042D01*
X527819Y105991D01*
X527794Y105941D01*
X527766Y105893D01*
X527734Y105848D01*
X527699Y105805D01*
X527662Y105764D01*
X527621Y105727D01*
X527578Y105692D01*
X527533Y105660D01*
X527485Y105632D01*
X527435Y105607D01*
X527384Y105586D01*
X527332Y105568D01*
X527278Y105555D01*
X527223Y105545D01*
X527168Y105539D01*
X527113Y105537D01*
X527058Y105539D01*
X527003Y105545D01*
X526948Y105555D01*
X526894Y105568D01*
X526842Y105586D01*
X526791Y105607D01*
X526741Y105632D01*
X526693Y105660D01*
X526648Y105692D01*
X526605Y105727D01*
X526564Y105764D01*
X526527Y105805D01*
X526492Y105848D01*
X526460Y105893D01*
X526432Y105941D01*
X526407Y105991D01*
X526386Y106042D01*
X526368Y106094D01*
X526355Y106148D01*
X526345Y106203D01*
X526339Y106258D01*
X526337Y106313D01*
X526492Y107710D02*
X526494Y107759D01*
X526500Y107807D01*
X526509Y107855D01*
X526522Y107902D01*
X526539Y107948D01*
X526560Y107992D01*
X526584Y108034D01*
X526611Y108075D01*
X526641Y108113D01*
X526674Y108149D01*
X526710Y108182D01*
X526748Y108212D01*
X526789Y108239D01*
X526831Y108263D01*
X526875Y108284D01*
X526921Y108301D01*
X526968Y108314D01*
X527016Y108323D01*
X527064Y108329D01*
X527113Y108331D01*
X527162Y108329D01*
X527210Y108323D01*
X527258Y108314D01*
X527305Y108301D01*
X527351Y108284D01*
X527395Y108263D01*
X527437Y108239D01*
X527478Y108212D01*
X527516Y108182D01*
X527552Y108149D01*
X527585Y108113D01*
X527615Y108075D01*
X527642Y108034D01*
X527666Y107992D01*
X527687Y107948D01*
X527704Y107902D01*
X527717Y107855D01*
X527726Y107807D01*
X527732Y107759D01*
X527734Y107710D01*
X527732Y107661D01*
X527726Y107613D01*
X527717Y107565D01*
X527704Y107518D01*
X527687Y107472D01*
X527666Y107428D01*
X527642Y107386D01*
X527615Y107345D01*
X527585Y107307D01*
X527552Y107271D01*
X527516Y107238D01*
X527478Y107208D01*
X527437Y107181D01*
X527395Y107157D01*
X527351Y107136D01*
X527305Y107119D01*
X527258Y107106D01*
X527210Y107097D01*
X527162Y107091D01*
X527113Y107089D01*
X527064Y107091D01*
X527016Y107097D01*
X526968Y107106D01*
X526921Y107119D01*
X526875Y107136D01*
X526831Y107157D01*
X526789Y107181D01*
X526748Y107208D01*
X526710Y107238D01*
X526674Y107271D01*
X526641Y107307D01*
X526611Y107345D01*
X526584Y107386D01*
X526560Y107428D01*
X526539Y107472D01*
X526522Y107518D01*
X526509Y107565D01*
X526500Y107613D01*
X526494Y107661D01*
X526492Y107710D01*
X529080Y108021D02*
X529080Y108331D01*
X530632Y108331D01*
X529856Y105537D01*
X531823Y106934D02*
X531825Y107029D01*
X531831Y107124D01*
X531841Y107218D01*
X531854Y107312D01*
X531872Y107405D01*
X531893Y107498D01*
X531918Y107590D01*
X531947Y107680D01*
X531980Y107769D01*
X532016Y107857D01*
X532056Y107943D01*
X532072Y107985D01*
X532091Y108025D01*
X532114Y108063D01*
X532139Y108100D01*
X532167Y108135D01*
X532197Y108167D01*
X532230Y108197D01*
X532265Y108224D01*
X532303Y108249D01*
X532342Y108270D01*
X532382Y108288D01*
X532424Y108304D01*
X532467Y108316D01*
X532510Y108324D01*
X532555Y108329D01*
X532599Y108331D01*
X532643Y108329D01*
X532688Y108324D01*
X532731Y108316D01*
X532774Y108304D01*
X532816Y108288D01*
X532856Y108270D01*
X532895Y108249D01*
X532933Y108224D01*
X532968Y108197D01*
X533001Y108167D01*
X533031Y108135D01*
X533059Y108100D01*
X533084Y108063D01*
X533107Y108025D01*
X533126Y107985D01*
X533142Y107943D01*
X533182Y107857D01*
X533218Y107769D01*
X533251Y107680D01*
X533280Y107589D01*
X533305Y107498D01*
X533326Y107405D01*
X533344Y107312D01*
X533357Y107218D01*
X533367Y107124D01*
X533373Y107029D01*
X533375Y106934D01*
X531823Y106934D02*
X531825Y106839D01*
X531831Y106744D01*
X531841Y106650D01*
X531854Y106556D01*
X531872Y106463D01*
X531893Y106370D01*
X531918Y106279D01*
X531947Y106188D01*
X531980Y106099D01*
X532016Y106011D01*
X532056Y105925D01*
X532072Y105883D01*
X532091Y105843D01*
X532114Y105805D01*
X532139Y105768D01*
X532167Y105733D01*
X532197Y105701D01*
X532230Y105671D01*
X532265Y105644D01*
X532303Y105619D01*
X532342Y105598D01*
X532382Y105580D01*
X532424Y105564D01*
X532467Y105552D01*
X532510Y105544D01*
X532555Y105539D01*
X532599Y105537D01*
X533143Y105925D02*
X533183Y106011D01*
X533219Y106099D01*
X533252Y106188D01*
X533281Y106278D01*
X533306Y106370D01*
X533327Y106463D01*
X533345Y106556D01*
X533358Y106650D01*
X533368Y106744D01*
X533374Y106839D01*
X533376Y106934D01*
X533142Y105925D02*
X533126Y105883D01*
X533107Y105843D01*
X533084Y105805D01*
X533059Y105768D01*
X533031Y105733D01*
X533001Y105701D01*
X532968Y105671D01*
X532933Y105644D01*
X532895Y105619D01*
X532856Y105598D01*
X532816Y105580D01*
X532774Y105564D01*
X532731Y105552D01*
X532688Y105544D01*
X532643Y105539D01*
X532599Y105537D01*
X531978Y106158D02*
X533220Y107710D01*
M02*
